%TF.GenerationSoftware,KiCad,Pcbnew,8.0.8*%
%TF.CreationDate,2025-04-23T11:45:21+02:00*%
%TF.ProjectId,strober_board,7374726f-6265-4725-9f62-6f6172642e6b,rev?*%
%TF.SameCoordinates,Original*%
%TF.FileFunction,Copper,L2,Bot*%
%TF.FilePolarity,Positive*%
%FSLAX46Y46*%
G04 Gerber Fmt 4.6, Leading zero omitted, Abs format (unit mm)*
G04 Created by KiCad (PCBNEW 8.0.8) date 2025-04-23 11:45:21*
%MOMM*%
%LPD*%
G01*
G04 APERTURE LIST*
G04 Aperture macros list*
%AMRoundRect*
0 Rectangle with rounded corners*
0 $1 Rounding radius*
0 $2 $3 $4 $5 $6 $7 $8 $9 X,Y pos of 4 corners*
0 Add a 4 corners polygon primitive as box body*
4,1,4,$2,$3,$4,$5,$6,$7,$8,$9,$2,$3,0*
0 Add four circle primitives for the rounded corners*
1,1,$1+$1,$2,$3*
1,1,$1+$1,$4,$5*
1,1,$1+$1,$6,$7*
1,1,$1+$1,$8,$9*
0 Add four rect primitives between the rounded corners*
20,1,$1+$1,$2,$3,$4,$5,0*
20,1,$1+$1,$4,$5,$6,$7,0*
20,1,$1+$1,$6,$7,$8,$9,0*
20,1,$1+$1,$8,$9,$2,$3,0*%
G04 Aperture macros list end*
%TA.AperFunction,ComponentPad*%
%ADD10R,1.800000X1.800000*%
%TD*%
%TA.AperFunction,ComponentPad*%
%ADD11O,1.800000X1.800000*%
%TD*%
%TA.AperFunction,ComponentPad*%
%ADD12C,1.600000*%
%TD*%
%TA.AperFunction,ComponentPad*%
%ADD13O,1.600000X1.600000*%
%TD*%
%TA.AperFunction,ComponentPad*%
%ADD14RoundRect,0.250000X0.750000X-0.600000X0.750000X0.600000X-0.750000X0.600000X-0.750000X-0.600000X0*%
%TD*%
%TA.AperFunction,ComponentPad*%
%ADD15O,2.000000X1.700000*%
%TD*%
%TA.AperFunction,ComponentPad*%
%ADD16R,1.500000X1.500000*%
%TD*%
%TA.AperFunction,ComponentPad*%
%ADD17C,1.500000*%
%TD*%
%TA.AperFunction,ComponentPad*%
%ADD18RoundRect,0.250000X-0.845000X0.620000X-0.845000X-0.620000X0.845000X-0.620000X0.845000X0.620000X0*%
%TD*%
%TA.AperFunction,ComponentPad*%
%ADD19O,2.190000X1.740000*%
%TD*%
%TA.AperFunction,ComponentPad*%
%ADD20RoundRect,0.250000X-0.600000X0.600000X-0.600000X-0.600000X0.600000X-0.600000X0.600000X0.600000X0*%
%TD*%
%TA.AperFunction,ComponentPad*%
%ADD21C,1.700000*%
%TD*%
%TA.AperFunction,ComponentPad*%
%ADD22R,2.400000X2.400000*%
%TD*%
%TA.AperFunction,ComponentPad*%
%ADD23O,2.400000X2.400000*%
%TD*%
%TA.AperFunction,ComponentPad*%
%ADD24C,2.400000*%
%TD*%
%TA.AperFunction,ComponentPad*%
%ADD25R,1.600000X1.600000*%
%TD*%
%TA.AperFunction,ComponentPad*%
%ADD26RoundRect,0.250000X0.845000X-0.620000X0.845000X0.620000X-0.845000X0.620000X-0.845000X-0.620000X0*%
%TD*%
%TA.AperFunction,ComponentPad*%
%ADD27C,2.000000*%
%TD*%
%TA.AperFunction,Conductor*%
%ADD28C,0.600000*%
%TD*%
%TA.AperFunction,Conductor*%
%ADD29C,0.300000*%
%TD*%
G04 APERTURE END LIST*
D10*
%TO.P,D4,1,K*%
%TO.N,Net-(D3-A)*%
X114300000Y-76200000D03*
D11*
%TO.P,D4,2,A*%
%TO.N,Net-(D2-A)*%
X121920000Y-76200000D03*
%TD*%
D12*
%TO.P,R2,1*%
%TO.N,Net-(Q1-B)*%
X124460000Y-63500000D03*
D13*
%TO.P,R2,2*%
%TO.N,Net-(D2-A)*%
X124460000Y-53340000D03*
%TD*%
D14*
%TO.P,J1,1,Pin_1*%
%TO.N,Net-(D6-A)*%
X170180000Y-73660000D03*
D15*
%TO.P,J1,2,Pin_2*%
%TO.N,Net-(D6-K)*%
X170180000Y-71160000D03*
%TD*%
D16*
%TO.P,Q2,1,C*%
%TO.N,Net-(Q2-C)*%
X134620000Y-58420000D03*
D17*
%TO.P,Q2,2,B*%
%TO.N,Net-(Q1-C)*%
X134620000Y-55880000D03*
%TO.P,Q2,3,E*%
%TO.N,Net-(Q1-B)*%
X134620000Y-53340000D03*
%TD*%
D16*
%TO.P,U1,1,VO*%
%TO.N,+5V*%
X154940000Y-55880000D03*
D17*
%TO.P,U1,2,GND*%
%TO.N,GND*%
X157480000Y-55880000D03*
%TO.P,U1,3,VI*%
%TO.N,+12V*%
X160020000Y-55880000D03*
%TD*%
D18*
%TO.P,J2,1,Pin_1*%
%TO.N,GND*%
X170180000Y-55880000D03*
D19*
%TO.P,J2,2,Pin_2*%
%TO.N,Net-(D5-A)*%
X170180000Y-58420000D03*
%TD*%
D20*
%TO.P,J4,1,MISO*%
%TO.N,/MISO*%
X147320000Y-71120000D03*
D21*
%TO.P,J4,2,VCC*%
%TO.N,+5V*%
X147320000Y-73660000D03*
%TO.P,J4,3,SCK*%
%TO.N,/SCK*%
X144780000Y-71120000D03*
%TO.P,J4,4,MOSI*%
%TO.N,/MOSI*%
X144780000Y-73660000D03*
%TO.P,J4,5,~{RST}*%
%TO.N,/~{RST}*%
X142240000Y-71120000D03*
%TO.P,J4,6,GND*%
%TO.N,GND*%
X142240000Y-73660000D03*
%TD*%
D12*
%TO.P,R1,1*%
%TO.N,Net-(D1-K)*%
X124460000Y-76200000D03*
D13*
%TO.P,R1,2*%
%TO.N,Net-(Q1-C)*%
X124460000Y-66040000D03*
%TD*%
D12*
%TO.P,R3,1*%
%TO.N,/LED_{out}*%
X165100000Y-66040000D03*
D13*
%TO.P,R3,2*%
%TO.N,GND*%
X154940000Y-66040000D03*
%TD*%
D22*
%TO.P,D5,1,K*%
%TO.N,+12V*%
X154940000Y-60960000D03*
D23*
%TO.P,D5,2,A*%
%TO.N,Net-(D5-A)*%
X165100000Y-60960000D03*
%TD*%
D16*
%TO.P,Q3,1,D*%
%TO.N,Net-(D6-A)*%
X160020000Y-73660000D03*
D17*
%TO.P,Q3,2,G*%
%TO.N,/LED_{out}*%
X157480000Y-73660000D03*
%TO.P,Q3,3,S*%
%TO.N,GND*%
X154940000Y-73660000D03*
%TD*%
D24*
%TO.P,R5,1*%
%TO.N,+12V*%
X171450000Y-62230000D03*
D23*
%TO.P,R5,2*%
%TO.N,Net-(D6-K)*%
X171450000Y-67310000D03*
%TD*%
D12*
%TO.P,C2,1*%
%TO.N,GND*%
X152400000Y-55840000D03*
%TO.P,C2,2*%
%TO.N,+5V*%
X152400000Y-53340000D03*
%TD*%
D10*
%TO.P,D2,1,K*%
%TO.N,Net-(D1-A)*%
X114300000Y-53340000D03*
D11*
%TO.P,D2,2,A*%
%TO.N,Net-(D2-A)*%
X121920000Y-53340000D03*
%TD*%
D10*
%TO.P,D1,1,K*%
%TO.N,Net-(D1-K)*%
X121920000Y-58420000D03*
D11*
%TO.P,D1,2,A*%
%TO.N,Net-(D1-A)*%
X114300000Y-58420000D03*
%TD*%
D25*
%TO.P,U2,1*%
%TO.N,Net-(D1-K)*%
X129540000Y-63500000D03*
D13*
%TO.P,U2,2*%
%TO.N,Net-(Q2-C)*%
X129540000Y-66040000D03*
%TO.P,U2,3*%
%TO.N,GND*%
X137160000Y-66040000D03*
%TO.P,U2,4*%
%TO.N,/Trigg_{in}*%
X137160000Y-63500000D03*
%TD*%
D25*
%TO.P,U3,1,~{RESET}/PB5*%
%TO.N,/~{RST}*%
X139700000Y-55880000D03*
D13*
%TO.P,U3,2,XTAL1/PB3*%
%TO.N,/Trigg_{in}*%
X139700000Y-58420000D03*
%TO.P,U3,3,XTAL2/PB4*%
%TO.N,/LED_{out}*%
X139700000Y-60960000D03*
%TO.P,U3,4,GND*%
%TO.N,GND*%
X139700000Y-63500000D03*
%TO.P,U3,5,AREF/PB0*%
%TO.N,/MOSI*%
X147320000Y-63500000D03*
%TO.P,U3,6,PB1*%
%TO.N,/MISO*%
X147320000Y-60960000D03*
%TO.P,U3,7,PB2*%
%TO.N,/SCK*%
X147320000Y-58420000D03*
%TO.P,U3,8,VCC*%
%TO.N,+5V*%
X147320000Y-55880000D03*
%TD*%
D10*
%TO.P,D3,1,K*%
%TO.N,Net-(D1-K)*%
X121920000Y-71120000D03*
D11*
%TO.P,D3,2,A*%
%TO.N,Net-(D3-A)*%
X114300000Y-71120000D03*
%TD*%
D26*
%TO.P,J3,1,Pin_1*%
%TO.N,Net-(D3-A)*%
X116840000Y-66040000D03*
D19*
%TO.P,J3,2,Pin_2*%
%TO.N,Net-(D1-A)*%
X116840000Y-63500000D03*
%TD*%
D16*
%TO.P,Q1,1,C*%
%TO.N,Net-(Q1-C)*%
X129540000Y-58420000D03*
D17*
%TO.P,Q1,2,B*%
%TO.N,Net-(Q1-B)*%
X129540000Y-55880000D03*
%TO.P,Q1,3,E*%
%TO.N,Net-(D2-A)*%
X129540000Y-53340000D03*
%TD*%
D27*
%TO.P,SW1,1,1*%
%TO.N,GND*%
X134620000Y-75620000D03*
X128120000Y-75620000D03*
%TO.P,SW1,2,2*%
%TO.N,/Trigg_{in}*%
X134620000Y-71120000D03*
X128120000Y-71120000D03*
%TD*%
D10*
%TO.P,D6,1,K*%
%TO.N,Net-(D6-K)*%
X165100000Y-68580000D03*
D11*
%TO.P,D6,2,A*%
%TO.N,Net-(D6-A)*%
X154940000Y-68580000D03*
%TD*%
D12*
%TO.P,R4,1*%
%TO.N,+5V*%
X149860000Y-53340000D03*
D13*
%TO.P,R4,2*%
%TO.N,/~{RST}*%
X139700000Y-53340000D03*
%TD*%
D25*
%TO.P,C1,1*%
%TO.N,+12V*%
X162600000Y-55880000D03*
D12*
%TO.P,C1,2*%
%TO.N,GND*%
X165100000Y-55880000D03*
%TD*%
%TO.P,C3,1*%
%TO.N,+5V*%
X149860000Y-66040000D03*
D13*
%TO.P,C3,2*%
%TO.N,GND*%
X139700000Y-66040000D03*
%TD*%
D28*
%TO.N,GND*%
X142240000Y-73660000D02*
X142240000Y-76200000D01*
X137160000Y-76200000D02*
X139700000Y-76200000D01*
X165060000Y-55880000D02*
X165060000Y-53380000D01*
X154940000Y-73660000D02*
X152400000Y-73660000D01*
X152400000Y-73660000D02*
X152400000Y-74930000D01*
X156210000Y-58420000D02*
X152400000Y-58420000D01*
X152400000Y-58420000D02*
X152400000Y-55840000D01*
X152400000Y-74930000D02*
X151130000Y-76200000D01*
X157480000Y-55880000D02*
X157480000Y-54610000D01*
X157480000Y-54610000D02*
X158750000Y-53340000D01*
X136580000Y-75620000D02*
X137160000Y-76200000D01*
X139700000Y-76200000D02*
X142240000Y-76200000D01*
X152400000Y-66040000D02*
X152400000Y-73660000D01*
X139700000Y-76200000D02*
X139700000Y-63500000D01*
X170180000Y-55880000D02*
X167640000Y-53340000D01*
X156210000Y-58420000D02*
X157480000Y-57150000D01*
X128120000Y-75620000D02*
X136580000Y-75620000D01*
X152400000Y-58420000D02*
X152400000Y-66040000D01*
X154940000Y-66040000D02*
X152400000Y-66040000D01*
X142240000Y-76200000D02*
X151130000Y-76200000D01*
X157480000Y-55880000D02*
X157480000Y-57150000D01*
X165100000Y-53340000D02*
X167640000Y-53340000D01*
X165060000Y-53380000D02*
X165100000Y-53340000D01*
X158750000Y-53340000D02*
X165100000Y-53340000D01*
X137160000Y-66040000D02*
X139700000Y-66040000D01*
%TO.N,+5V*%
X153670000Y-53340000D02*
X154940000Y-54610000D01*
X149860000Y-55880000D02*
X149860000Y-66040000D01*
X149860000Y-72390000D02*
X149860000Y-66040000D01*
X148590000Y-73660000D02*
X149860000Y-72390000D01*
X149860000Y-53340000D02*
X152400000Y-53340000D01*
X147320000Y-73660000D02*
X148590000Y-73660000D01*
X147320000Y-55880000D02*
X149860000Y-55880000D01*
X152400000Y-53340000D02*
X153670000Y-53340000D01*
X149860000Y-53340000D02*
X149860000Y-55880000D01*
X154940000Y-54610000D02*
X154940000Y-55880000D01*
%TO.N,Net-(D5-A)*%
X167640000Y-58420000D02*
X170180000Y-58420000D01*
X165100000Y-60960000D02*
X167640000Y-58420000D01*
%TO.N,Net-(D1-A)*%
X114300000Y-53340000D02*
X114300000Y-58420000D01*
X114300000Y-58420000D02*
X114300000Y-60960000D01*
X114300000Y-60960000D02*
X116840000Y-63500000D01*
%TO.N,Net-(D1-K)*%
X121920000Y-63500000D02*
X121920000Y-71120000D01*
X124460000Y-71120000D02*
X124460000Y-76200000D01*
X121920000Y-58420000D02*
X121920000Y-63500000D01*
X121920000Y-71120000D02*
X124460000Y-71120000D01*
X129540000Y-63500000D02*
X124460000Y-68580000D01*
X124460000Y-68580000D02*
X124460000Y-71120000D01*
%TO.N,Net-(D2-A)*%
X119380000Y-55880000D02*
X121920000Y-53340000D01*
X119380000Y-73660000D02*
X119380000Y-55880000D01*
X121920000Y-76200000D02*
X119380000Y-73660000D01*
X129540000Y-53340000D02*
X121920000Y-53340000D01*
%TO.N,Net-(D3-A)*%
X116840000Y-66040000D02*
X114300000Y-68580000D01*
X116840000Y-66000000D02*
X116840000Y-66040000D01*
X114300000Y-68580000D02*
X114300000Y-76200000D01*
%TO.N,+12V*%
X162560000Y-60960000D02*
X162560000Y-55920000D01*
X170180000Y-63500000D02*
X171450000Y-62230000D01*
X163830000Y-63500000D02*
X170180000Y-63500000D01*
X154940000Y-60960000D02*
X162560000Y-60960000D01*
X160020000Y-55880000D02*
X162560000Y-55880000D01*
X162560000Y-62230000D02*
X163830000Y-63500000D01*
X162560000Y-55920000D02*
X162600000Y-55880000D01*
X162560000Y-60960000D02*
X162560000Y-62230000D01*
%TO.N,Net-(D6-A)*%
X157480000Y-68580000D02*
X160020000Y-71120000D01*
X154940000Y-68580000D02*
X157480000Y-68580000D01*
X160020000Y-71120000D02*
X160020000Y-73660000D01*
X160020000Y-73660000D02*
X167640000Y-73660000D01*
X167640000Y-73660000D02*
X170180000Y-73660000D01*
%TO.N,Net-(Q1-C)*%
X127000000Y-59690000D02*
X128270000Y-58420000D01*
X128270000Y-58420000D02*
X129540000Y-58420000D01*
X130810000Y-58420000D02*
X133350000Y-55880000D01*
X127000000Y-63500000D02*
X127000000Y-59690000D01*
X129540000Y-58420000D02*
X130810000Y-58420000D01*
X124460000Y-66040000D02*
X127000000Y-63500000D01*
X133350000Y-55880000D02*
X134620000Y-55880000D01*
D29*
%TO.N,/MISO*%
X148590000Y-64770000D02*
X148590000Y-62230000D01*
X148590000Y-62230000D02*
X147320000Y-60960000D01*
X147320000Y-71120000D02*
X147320000Y-66040000D01*
X147320000Y-66040000D02*
X148590000Y-64770000D01*
%TO.N,/MOSI*%
X146050000Y-64770000D02*
X146050000Y-72390000D01*
X147320000Y-63500000D02*
X146050000Y-64770000D01*
X146050000Y-72390000D02*
X144780000Y-73660000D01*
%TO.N,/SCK*%
X144780000Y-71120000D02*
X144780000Y-60960000D01*
X144780000Y-60960000D02*
X147320000Y-58420000D01*
D28*
%TO.N,/~{RST}*%
X139700000Y-55880000D02*
X140970000Y-55880000D01*
X142240000Y-57150000D02*
X142240000Y-71120000D01*
X140970000Y-55880000D02*
X142240000Y-57150000D01*
X139700000Y-53340000D02*
X139700000Y-55880000D01*
%TO.N,Net-(Q1-B)*%
X129540000Y-55880000D02*
X130810000Y-55880000D01*
X130810000Y-55880000D02*
X133350000Y-53340000D01*
X124460000Y-58420000D02*
X127000000Y-55880000D01*
X124460000Y-63500000D02*
X124460000Y-58420000D01*
X127000000Y-55880000D02*
X129540000Y-55880000D01*
X133350000Y-53340000D02*
X134620000Y-53340000D01*
%TO.N,/Trigg_{in}*%
X134620000Y-66040000D02*
X134620000Y-71120000D01*
X137160000Y-59690000D02*
X138430000Y-58420000D01*
X138430000Y-58420000D02*
X139700000Y-58420000D01*
X137160000Y-63500000D02*
X137160000Y-59690000D01*
X137160000Y-63500000D02*
X134620000Y-66040000D01*
X128120000Y-71120000D02*
X134620000Y-71120000D01*
%TO.N,Net-(Q2-C)*%
X134620000Y-63500000D02*
X134620000Y-58420000D01*
X132080000Y-66040000D02*
X134620000Y-63500000D01*
X129540000Y-66040000D02*
X132080000Y-66040000D01*
%TO.N,Net-(D6-K)*%
X170180000Y-68580000D02*
X170180000Y-71120000D01*
X170180000Y-68580000D02*
X171450000Y-67310000D01*
X165100000Y-68580000D02*
X170180000Y-68580000D01*
%TD*%
%TA.AperFunction,Conductor*%
%TO.N,GND*%
G36*
X143594855Y-71786546D02*
G01*
X143611575Y-71805842D01*
X143741501Y-71991396D01*
X143741506Y-71991402D01*
X143908597Y-72158493D01*
X143908603Y-72158498D01*
X144094158Y-72288425D01*
X144137783Y-72343002D01*
X144144977Y-72412500D01*
X144113454Y-72474855D01*
X144094158Y-72491575D01*
X143908597Y-72621505D01*
X143741508Y-72788594D01*
X143611269Y-72974595D01*
X143556692Y-73018219D01*
X143487193Y-73025412D01*
X143424839Y-72993890D01*
X143408119Y-72974595D01*
X143354925Y-72898626D01*
X142722962Y-73530590D01*
X142705925Y-73467007D01*
X142640099Y-73352993D01*
X142547007Y-73259901D01*
X142432993Y-73194075D01*
X142369409Y-73177037D01*
X143001372Y-72545073D01*
X143001372Y-72545072D01*
X142925405Y-72491879D01*
X142881780Y-72437302D01*
X142874588Y-72367804D01*
X142906110Y-72305449D01*
X142925406Y-72288730D01*
X142949783Y-72271661D01*
X143111401Y-72158495D01*
X143278495Y-71991401D01*
X143408425Y-71805842D01*
X143463002Y-71762217D01*
X143532500Y-71755023D01*
X143594855Y-71786546D01*
G37*
%TD.AperFunction*%
%TA.AperFunction,Conductor*%
G36*
X139379920Y-65794394D02*
G01*
X139327259Y-65885606D01*
X139300000Y-65987339D01*
X139300000Y-66092661D01*
X139327259Y-66194394D01*
X139379920Y-66285606D01*
X139384314Y-66290000D01*
X137475686Y-66290000D01*
X137480080Y-66285606D01*
X137532741Y-66194394D01*
X137560000Y-66092661D01*
X137560000Y-65987339D01*
X137532741Y-65885606D01*
X137480080Y-65794394D01*
X137475686Y-65790000D01*
X139384314Y-65790000D01*
X139379920Y-65794394D01*
G37*
%TD.AperFunction*%
%TA.AperFunction,Conductor*%
G36*
X139950000Y-65724314D02*
G01*
X139945606Y-65719920D01*
X139854394Y-65667259D01*
X139752661Y-65640000D01*
X139647339Y-65640000D01*
X139545606Y-65667259D01*
X139454394Y-65719920D01*
X139450000Y-65724314D01*
X139450000Y-63815686D01*
X139454394Y-63820080D01*
X139545606Y-63872741D01*
X139647339Y-63900000D01*
X139752661Y-63900000D01*
X139854394Y-63872741D01*
X139945606Y-63820080D01*
X139950000Y-63815686D01*
X139950000Y-65724314D01*
G37*
%TD.AperFunction*%
%TA.AperFunction,Conductor*%
G36*
X153431887Y-54249812D02*
G01*
X153476235Y-54278313D01*
X153815523Y-54617601D01*
X153849008Y-54678924D01*
X153844024Y-54748616D01*
X153827109Y-54779593D01*
X153746204Y-54887668D01*
X153746202Y-54887671D01*
X153695908Y-55022516D01*
X153693788Y-55042238D01*
X153667048Y-55106789D01*
X153609654Y-55146635D01*
X153539829Y-55149126D01*
X153481950Y-55114782D01*
X153479025Y-55114526D01*
X152800000Y-55793551D01*
X152800000Y-55787339D01*
X152772741Y-55685606D01*
X152720080Y-55594394D01*
X152645606Y-55519920D01*
X152554394Y-55467259D01*
X152452661Y-55440000D01*
X152446445Y-55440000D01*
X153125472Y-54760974D01*
X153052480Y-54709864D01*
X153037024Y-54702657D01*
X152984585Y-54656484D01*
X152965433Y-54589290D01*
X152985649Y-54522409D01*
X153037023Y-54477893D01*
X153052734Y-54470568D01*
X153239139Y-54340047D01*
X153300874Y-54278311D01*
X153362195Y-54244828D01*
X153431887Y-54249812D01*
G37*
%TD.AperFunction*%
%TA.AperFunction,Conductor*%
G36*
X177952539Y-50290185D02*
G01*
X177998294Y-50342989D01*
X178009500Y-50394500D01*
X178009500Y-79145500D01*
X177989815Y-79212539D01*
X177937011Y-79258294D01*
X177885500Y-79269500D01*
X109134500Y-79269500D01*
X109067461Y-79249815D01*
X109021706Y-79197011D01*
X109010500Y-79145500D01*
X109010500Y-58419993D01*
X112894700Y-58419993D01*
X112894700Y-58420006D01*
X112913864Y-58651297D01*
X112913866Y-58651308D01*
X112970842Y-58876300D01*
X113064075Y-59088848D01*
X113191016Y-59283147D01*
X113191019Y-59283151D01*
X113191021Y-59283153D01*
X113348216Y-59453913D01*
X113451662Y-59534428D01*
X113492475Y-59591137D01*
X113499500Y-59632281D01*
X113499500Y-61038846D01*
X113530261Y-61193489D01*
X113530264Y-61193501D01*
X113590602Y-61339172D01*
X113590609Y-61339185D01*
X113678210Y-61470288D01*
X113678213Y-61470292D01*
X115251184Y-63043262D01*
X115284669Y-63104585D01*
X115281434Y-63169260D01*
X115278246Y-63179070D01*
X115244500Y-63392133D01*
X115244500Y-63607866D01*
X115278112Y-63820080D01*
X115278246Y-63820926D01*
X115344908Y-64026089D01*
X115442843Y-64218299D01*
X115569641Y-64392821D01*
X115569643Y-64392823D01*
X115711624Y-64534804D01*
X115745109Y-64596127D01*
X115740125Y-64665819D01*
X115698253Y-64721752D01*
X115676360Y-64734861D01*
X115675677Y-64735179D01*
X115526342Y-64827289D01*
X115402289Y-64951342D01*
X115310187Y-65100663D01*
X115310186Y-65100666D01*
X115255001Y-65267203D01*
X115255001Y-65267204D01*
X115255000Y-65267204D01*
X115244500Y-65369983D01*
X115244500Y-66452059D01*
X115224815Y-66519098D01*
X115208181Y-66539740D01*
X114495212Y-67252710D01*
X113789711Y-67958211D01*
X113733960Y-68013962D01*
X113678209Y-68069712D01*
X113590609Y-68200814D01*
X113590602Y-68200827D01*
X113530264Y-68346498D01*
X113530261Y-68346510D01*
X113499500Y-68501153D01*
X113499500Y-69907718D01*
X113479815Y-69974757D01*
X113451662Y-70005571D01*
X113348222Y-70086081D01*
X113348219Y-70086084D01*
X113348216Y-70086086D01*
X113348216Y-70086087D01*
X113323886Y-70112517D01*
X113191016Y-70256852D01*
X113064075Y-70451151D01*
X112970842Y-70663699D01*
X112913866Y-70888691D01*
X112913864Y-70888702D01*
X112894700Y-71119993D01*
X112894700Y-71120006D01*
X112913864Y-71351297D01*
X112913866Y-71351308D01*
X112970842Y-71576300D01*
X113064075Y-71788848D01*
X113191016Y-71983147D01*
X113191019Y-71983151D01*
X113191021Y-71983153D01*
X113348216Y-72153913D01*
X113451662Y-72234428D01*
X113492475Y-72291137D01*
X113499500Y-72332281D01*
X113499500Y-74675500D01*
X113479815Y-74742539D01*
X113427011Y-74788294D01*
X113375505Y-74799500D01*
X113352132Y-74799500D01*
X113352123Y-74799501D01*
X113292516Y-74805908D01*
X113157671Y-74856202D01*
X113157664Y-74856206D01*
X113042455Y-74942452D01*
X113042452Y-74942455D01*
X112956206Y-75057664D01*
X112956202Y-75057671D01*
X112905908Y-75192517D01*
X112899501Y-75252116D01*
X112899501Y-75252123D01*
X112899500Y-75252135D01*
X112899500Y-77147870D01*
X112899501Y-77147876D01*
X112905908Y-77207483D01*
X112956202Y-77342328D01*
X112956206Y-77342335D01*
X113042452Y-77457544D01*
X113042455Y-77457547D01*
X113157664Y-77543793D01*
X113157671Y-77543797D01*
X113292517Y-77594091D01*
X113292516Y-77594091D01*
X113299444Y-77594835D01*
X113352127Y-77600500D01*
X115247872Y-77600499D01*
X115307483Y-77594091D01*
X115442331Y-77543796D01*
X115557546Y-77457546D01*
X115643796Y-77342331D01*
X115694091Y-77207483D01*
X115700500Y-77147873D01*
X115700499Y-75252128D01*
X115694091Y-75192517D01*
X115689381Y-75179890D01*
X115643797Y-75057671D01*
X115643793Y-75057664D01*
X115557547Y-74942455D01*
X115557544Y-74942452D01*
X115442335Y-74856206D01*
X115442328Y-74856202D01*
X115307482Y-74805908D01*
X115307483Y-74805908D01*
X115247883Y-74799501D01*
X115247881Y-74799500D01*
X115247873Y-74799500D01*
X115247865Y-74799500D01*
X115224500Y-74799500D01*
X115157461Y-74779815D01*
X115111706Y-74727011D01*
X115100500Y-74675500D01*
X115100500Y-72332281D01*
X115120185Y-72265242D01*
X115148336Y-72234428D01*
X115251784Y-72153913D01*
X115408979Y-71983153D01*
X115535924Y-71788849D01*
X115629157Y-71576300D01*
X115686134Y-71351305D01*
X115705300Y-71120000D01*
X115705300Y-71119994D01*
X115705300Y-71119993D01*
X115686135Y-70888702D01*
X115686133Y-70888691D01*
X115629157Y-70663699D01*
X115535924Y-70451151D01*
X115408983Y-70256852D01*
X115408980Y-70256849D01*
X115408979Y-70256847D01*
X115251784Y-70086087D01*
X115251779Y-70086083D01*
X115251777Y-70086081D01*
X115148338Y-70005571D01*
X115107525Y-69948861D01*
X115100500Y-69907718D01*
X115100500Y-68962939D01*
X115120185Y-68895900D01*
X115136814Y-68875263D01*
X116565259Y-67446817D01*
X116626582Y-67413333D01*
X116652940Y-67410499D01*
X117735002Y-67410499D01*
X117735008Y-67410499D01*
X117837797Y-67399999D01*
X118004334Y-67344814D01*
X118153656Y-67252712D01*
X118277712Y-67128656D01*
X118349961Y-67011520D01*
X118401909Y-66964796D01*
X118470871Y-66953573D01*
X118534954Y-66981417D01*
X118573810Y-67039485D01*
X118579500Y-67076617D01*
X118579500Y-73738846D01*
X118610261Y-73893489D01*
X118610264Y-73893501D01*
X118670602Y-74039172D01*
X118670609Y-74039185D01*
X118758210Y-74170288D01*
X118758213Y-74170292D01*
X120494965Y-75907043D01*
X120528450Y-75968366D01*
X120530860Y-76004961D01*
X120526292Y-76060110D01*
X120514700Y-76200004D01*
X120514700Y-76200006D01*
X120533864Y-76431297D01*
X120533866Y-76431308D01*
X120590842Y-76656300D01*
X120684075Y-76868848D01*
X120811016Y-77063147D01*
X120811019Y-77063151D01*
X120811021Y-77063153D01*
X120968216Y-77233913D01*
X120968219Y-77233915D01*
X120968222Y-77233918D01*
X121151365Y-77376464D01*
X121151371Y-77376468D01*
X121151374Y-77376470D01*
X121355497Y-77486936D01*
X121409479Y-77505468D01*
X121575015Y-77562297D01*
X121575017Y-77562297D01*
X121575019Y-77562298D01*
X121803951Y-77600500D01*
X121803952Y-77600500D01*
X122036048Y-77600500D01*
X122036049Y-77600500D01*
X122264981Y-77562298D01*
X122484503Y-77486936D01*
X122688626Y-77376470D01*
X122871784Y-77233913D01*
X123028979Y-77063153D01*
X123144870Y-76885768D01*
X123198014Y-76840413D01*
X123267245Y-76830989D01*
X123330581Y-76860491D01*
X123350252Y-76882468D01*
X123459954Y-77039141D01*
X123620858Y-77200045D01*
X123620861Y-77200047D01*
X123807266Y-77330568D01*
X124013504Y-77426739D01*
X124233308Y-77485635D01*
X124395230Y-77499801D01*
X124459998Y-77505468D01*
X124460000Y-77505468D01*
X124460002Y-77505468D01*
X124516673Y-77500509D01*
X124686692Y-77485635D01*
X124906496Y-77426739D01*
X125112734Y-77330568D01*
X125299139Y-77200047D01*
X125460047Y-77039139D01*
X125590568Y-76852734D01*
X125686739Y-76646496D01*
X125745635Y-76426692D01*
X125762634Y-76232384D01*
X125765468Y-76200001D01*
X125765468Y-76199998D01*
X125748404Y-76004963D01*
X125745635Y-75973308D01*
X125686739Y-75753504D01*
X125624482Y-75619994D01*
X126614859Y-75619994D01*
X126614859Y-75620005D01*
X126635385Y-75867729D01*
X126635387Y-75867738D01*
X126696412Y-76108717D01*
X126796267Y-76336367D01*
X126896562Y-76489881D01*
X127596212Y-75790233D01*
X127607482Y-75832292D01*
X127679890Y-75957708D01*
X127782292Y-76060110D01*
X127907708Y-76132518D01*
X127949766Y-76143787D01*
X127249943Y-76843609D01*
X127296768Y-76880055D01*
X127296771Y-76880057D01*
X127515385Y-76998364D01*
X127515396Y-76998369D01*
X127750506Y-77079083D01*
X127995707Y-77120000D01*
X128244293Y-77120000D01*
X128489493Y-77079083D01*
X128724603Y-76998369D01*
X128724614Y-76998364D01*
X128943230Y-76880056D01*
X128943236Y-76880051D01*
X128990055Y-76843610D01*
X128990056Y-76843609D01*
X128290233Y-76143787D01*
X128332292Y-76132518D01*
X128457708Y-76060110D01*
X128560110Y-75957708D01*
X128632518Y-75832292D01*
X128643787Y-75790234D01*
X129343435Y-76489882D01*
X129443733Y-76336364D01*
X129543587Y-76108717D01*
X129604612Y-75867738D01*
X129604614Y-75867729D01*
X129625141Y-75620005D01*
X129625141Y-75619994D01*
X133114859Y-75619994D01*
X133114859Y-75620005D01*
X133135385Y-75867729D01*
X133135387Y-75867738D01*
X133196412Y-76108717D01*
X133296267Y-76336367D01*
X133396562Y-76489881D01*
X134096212Y-75790233D01*
X134107482Y-75832292D01*
X134179890Y-75957708D01*
X134282292Y-76060110D01*
X134407708Y-76132518D01*
X134449766Y-76143787D01*
X133749943Y-76843609D01*
X133796768Y-76880055D01*
X133796771Y-76880057D01*
X134015385Y-76998364D01*
X134015396Y-76998369D01*
X134250506Y-77079083D01*
X134495707Y-77120000D01*
X134744293Y-77120000D01*
X134989493Y-77079083D01*
X135224603Y-76998369D01*
X135224614Y-76998364D01*
X135443230Y-76880056D01*
X135443236Y-76880051D01*
X135490055Y-76843610D01*
X135490056Y-76843609D01*
X134790233Y-76143787D01*
X134832292Y-76132518D01*
X134957708Y-76060110D01*
X135060110Y-75957708D01*
X135132518Y-75832292D01*
X135143787Y-75790234D01*
X135843435Y-76489882D01*
X135943733Y-76336364D01*
X136043587Y-76108717D01*
X136104612Y-75867738D01*
X136104614Y-75867729D01*
X136125141Y-75620005D01*
X136125141Y-75619994D01*
X136104614Y-75372270D01*
X136104612Y-75372261D01*
X136043587Y-75131282D01*
X135943732Y-74903632D01*
X135843435Y-74750116D01*
X135143787Y-75449765D01*
X135132518Y-75407708D01*
X135060110Y-75282292D01*
X134957708Y-75179890D01*
X134832292Y-75107482D01*
X134790233Y-75096212D01*
X135490055Y-74396389D01*
X135490055Y-74396388D01*
X135443236Y-74359947D01*
X135443231Y-74359944D01*
X135224614Y-74241635D01*
X135224603Y-74241630D01*
X134989493Y-74160916D01*
X134744293Y-74120000D01*
X134495707Y-74120000D01*
X134250506Y-74160916D01*
X134015396Y-74241630D01*
X134015385Y-74241635D01*
X133796770Y-74359943D01*
X133749943Y-74396389D01*
X134449766Y-75096212D01*
X134407708Y-75107482D01*
X134282292Y-75179890D01*
X134179890Y-75282292D01*
X134107482Y-75407708D01*
X134096212Y-75449766D01*
X133396563Y-74750117D01*
X133296267Y-74903633D01*
X133296265Y-74903637D01*
X133196412Y-75131282D01*
X133135387Y-75372261D01*
X133135385Y-75372270D01*
X133114859Y-75619994D01*
X129625141Y-75619994D01*
X129604614Y-75372270D01*
X129604612Y-75372261D01*
X129543587Y-75131282D01*
X129443732Y-74903632D01*
X129343435Y-74750116D01*
X128643787Y-75449765D01*
X128632518Y-75407708D01*
X128560110Y-75282292D01*
X128457708Y-75179890D01*
X128332292Y-75107482D01*
X128290233Y-75096212D01*
X128990055Y-74396389D01*
X128990055Y-74396388D01*
X128943236Y-74359947D01*
X128943231Y-74359944D01*
X128724614Y-74241635D01*
X128724603Y-74241630D01*
X128489493Y-74160916D01*
X128244293Y-74120000D01*
X127995707Y-74120000D01*
X127750506Y-74160916D01*
X127515396Y-74241630D01*
X127515385Y-74241635D01*
X127296770Y-74359943D01*
X127249943Y-74396389D01*
X127949766Y-75096212D01*
X127907708Y-75107482D01*
X127782292Y-75179890D01*
X127679890Y-75282292D01*
X127607482Y-75407708D01*
X127596212Y-75449766D01*
X126896563Y-74750117D01*
X126796267Y-74903633D01*
X126796265Y-74903637D01*
X126696412Y-75131282D01*
X126635387Y-75372261D01*
X126635385Y-75372270D01*
X126614859Y-75619994D01*
X125624482Y-75619994D01*
X125590568Y-75547266D01*
X125460047Y-75360861D01*
X125460045Y-75360858D01*
X125296819Y-75197632D01*
X125263334Y-75136309D01*
X125260500Y-75109951D01*
X125260500Y-68962939D01*
X125280185Y-68895900D01*
X125296814Y-68875263D01*
X128038258Y-66133818D01*
X128099579Y-66100335D01*
X128169271Y-66105319D01*
X128225204Y-66147191D01*
X128249465Y-66210692D01*
X128254364Y-66266687D01*
X128254366Y-66266697D01*
X128313258Y-66486488D01*
X128313261Y-66486497D01*
X128409431Y-66692732D01*
X128409432Y-66692734D01*
X128539954Y-66879141D01*
X128700858Y-67040045D01*
X128700861Y-67040047D01*
X128887266Y-67170568D01*
X129093504Y-67266739D01*
X129313308Y-67325635D01*
X129450606Y-67337647D01*
X129539998Y-67345468D01*
X129540000Y-67345468D01*
X129540002Y-67345468D01*
X129596673Y-67340509D01*
X129766692Y-67325635D01*
X129986496Y-67266739D01*
X130192734Y-67170568D01*
X130379139Y-67040047D01*
X130454390Y-66964796D01*
X130542368Y-66876819D01*
X130603691Y-66843334D01*
X130630049Y-66840500D01*
X132158844Y-66840500D01*
X132158845Y-66840499D01*
X132313497Y-66809737D01*
X132459179Y-66749394D01*
X132590289Y-66661789D01*
X133695616Y-65556462D01*
X133756939Y-65522977D01*
X133826631Y-65527961D01*
X133882564Y-65569833D01*
X133906981Y-65635297D01*
X133897858Y-65691595D01*
X133850264Y-65806498D01*
X133850261Y-65806510D01*
X133819500Y-65961153D01*
X133819500Y-69780998D01*
X133799815Y-69848037D01*
X133771664Y-69878849D01*
X133641066Y-69980498D01*
X133600257Y-70012261D01*
X133431833Y-70195217D01*
X133387340Y-70263321D01*
X133334194Y-70308678D01*
X133283531Y-70319500D01*
X129456469Y-70319500D01*
X129389430Y-70299815D01*
X129352660Y-70263321D01*
X129308166Y-70195217D01*
X129286557Y-70171744D01*
X129139744Y-70012262D01*
X128943509Y-69859526D01*
X128943507Y-69859525D01*
X128943506Y-69859524D01*
X128724811Y-69741172D01*
X128724802Y-69741169D01*
X128489616Y-69660429D01*
X128244335Y-69619500D01*
X127995665Y-69619500D01*
X127750383Y-69660429D01*
X127515197Y-69741169D01*
X127515188Y-69741172D01*
X127296493Y-69859524D01*
X127100257Y-70012261D01*
X126931833Y-70195217D01*
X126795826Y-70403393D01*
X126695936Y-70631118D01*
X126634892Y-70872175D01*
X126634890Y-70872187D01*
X126614357Y-71119994D01*
X126614357Y-71120005D01*
X126634890Y-71367812D01*
X126634892Y-71367824D01*
X126695936Y-71608881D01*
X126795826Y-71836606D01*
X126931833Y-72044782D01*
X126931836Y-72044785D01*
X127100256Y-72227738D01*
X127296491Y-72380474D01*
X127377450Y-72424287D01*
X127501787Y-72491575D01*
X127515190Y-72498828D01*
X127750386Y-72579571D01*
X127995665Y-72620500D01*
X128244335Y-72620500D01*
X128489614Y-72579571D01*
X128724810Y-72498828D01*
X128943509Y-72380474D01*
X129139744Y-72227738D01*
X129308164Y-72044785D01*
X129343041Y-71991402D01*
X129352660Y-71976679D01*
X129405806Y-71931322D01*
X129456469Y-71920500D01*
X133283531Y-71920500D01*
X133350570Y-71940185D01*
X133387340Y-71976679D01*
X133431833Y-72044782D01*
X133431836Y-72044785D01*
X133600256Y-72227738D01*
X133796491Y-72380474D01*
X133877450Y-72424287D01*
X134001787Y-72491575D01*
X134015190Y-72498828D01*
X134250386Y-72579571D01*
X134495665Y-72620500D01*
X134744335Y-72620500D01*
X134989614Y-72579571D01*
X135224810Y-72498828D01*
X135443509Y-72380474D01*
X135639744Y-72227738D01*
X135808164Y-72044785D01*
X135944173Y-71836607D01*
X136044063Y-71608881D01*
X136105108Y-71367821D01*
X136106137Y-71355403D01*
X136125643Y-71120005D01*
X136125643Y-71119994D01*
X136105109Y-70872187D01*
X136105107Y-70872175D01*
X136044063Y-70631118D01*
X135944173Y-70403393D01*
X135808166Y-70195217D01*
X135786557Y-70171744D01*
X135639744Y-70012262D01*
X135468336Y-69878850D01*
X135427525Y-69822141D01*
X135420500Y-69780998D01*
X135420500Y-66422939D01*
X135440185Y-66355900D01*
X135456814Y-66335263D01*
X135658722Y-66133355D01*
X135720041Y-66099873D01*
X135789732Y-66104857D01*
X135845666Y-66146728D01*
X135869927Y-66210232D01*
X135874858Y-66266599D01*
X135874860Y-66266610D01*
X135933730Y-66486317D01*
X135933734Y-66486326D01*
X136029865Y-66692482D01*
X136160342Y-66878820D01*
X136321179Y-67039657D01*
X136507517Y-67170134D01*
X136713673Y-67266265D01*
X136713682Y-67266269D01*
X136909999Y-67318872D01*
X136910000Y-67318871D01*
X136910000Y-66355686D01*
X136914394Y-66360080D01*
X137005606Y-66412741D01*
X137107339Y-66440000D01*
X137212661Y-66440000D01*
X137314394Y-66412741D01*
X137405606Y-66360080D01*
X137410000Y-66355686D01*
X137410000Y-67318872D01*
X137606317Y-67266269D01*
X137606326Y-67266265D01*
X137812482Y-67170134D01*
X137998820Y-67039657D01*
X138159657Y-66878820D01*
X138290134Y-66692481D01*
X138290135Y-66692479D01*
X138317618Y-66633543D01*
X138363790Y-66581103D01*
X138430983Y-66561951D01*
X138497864Y-66582166D01*
X138542382Y-66633543D01*
X138569864Y-66692479D01*
X138569865Y-66692481D01*
X138700342Y-66878820D01*
X138861179Y-67039657D01*
X139047517Y-67170134D01*
X139253673Y-67266265D01*
X139253682Y-67266269D01*
X139449999Y-67318872D01*
X139450000Y-67318871D01*
X139450000Y-66355686D01*
X139454394Y-66360080D01*
X139545606Y-66412741D01*
X139647339Y-66440000D01*
X139752661Y-66440000D01*
X139854394Y-66412741D01*
X139945606Y-66360080D01*
X139950000Y-66355686D01*
X139950000Y-67318872D01*
X140146317Y-67266269D01*
X140146326Y-67266265D01*
X140352482Y-67170134D01*
X140538820Y-67039657D01*
X140699657Y-66878820D01*
X140830134Y-66692482D01*
X140926265Y-66486326D01*
X140926269Y-66486317D01*
X140978872Y-66290000D01*
X140015686Y-66290000D01*
X140020080Y-66285606D01*
X140072741Y-66194394D01*
X140100000Y-66092661D01*
X140100000Y-65987339D01*
X140072741Y-65885606D01*
X140020080Y-65794394D01*
X140015686Y-65790000D01*
X140978872Y-65790000D01*
X140978872Y-65789999D01*
X140926269Y-65593682D01*
X140926265Y-65593673D01*
X140830134Y-65387517D01*
X140699657Y-65201179D01*
X140538820Y-65040342D01*
X140352481Y-64909865D01*
X140352479Y-64909864D01*
X140293543Y-64882382D01*
X140241103Y-64836210D01*
X140221951Y-64769017D01*
X140242166Y-64702136D01*
X140293543Y-64657618D01*
X140352479Y-64630135D01*
X140352481Y-64630134D01*
X140538820Y-64499657D01*
X140699657Y-64338820D01*
X140830134Y-64152482D01*
X140926265Y-63946326D01*
X140926269Y-63946317D01*
X140978872Y-63750000D01*
X140015686Y-63750000D01*
X140020080Y-63745606D01*
X140072741Y-63654394D01*
X140100000Y-63552661D01*
X140100000Y-63447339D01*
X140072741Y-63345606D01*
X140020080Y-63254394D01*
X140015686Y-63250000D01*
X140978872Y-63250000D01*
X140978872Y-63249999D01*
X140926269Y-63053682D01*
X140926265Y-63053673D01*
X140830134Y-62847517D01*
X140699657Y-62661179D01*
X140538820Y-62500342D01*
X140352482Y-62369865D01*
X140294133Y-62342657D01*
X140241694Y-62296484D01*
X140222542Y-62229291D01*
X140242758Y-62162410D01*
X140294129Y-62117895D01*
X140352734Y-62090568D01*
X140539139Y-61960047D01*
X140700047Y-61799139D01*
X140830568Y-61612734D01*
X140926739Y-61406496D01*
X140985635Y-61186692D01*
X141005468Y-60960000D01*
X140985635Y-60733308D01*
X140926739Y-60513504D01*
X140830568Y-60307266D01*
X140700047Y-60120861D01*
X140700045Y-60120858D01*
X140539141Y-59959954D01*
X140352734Y-59829432D01*
X140352728Y-59829429D01*
X140294725Y-59802382D01*
X140242285Y-59756210D01*
X140223133Y-59689017D01*
X140243348Y-59622135D01*
X140294725Y-59577618D01*
X140352734Y-59550568D01*
X140539139Y-59420047D01*
X140700047Y-59259139D01*
X140830568Y-59072734D01*
X140926739Y-58866496D01*
X140985635Y-58646692D01*
X141002634Y-58452384D01*
X141005468Y-58420001D01*
X141005468Y-58419998D01*
X140985635Y-58193313D01*
X140985635Y-58193308D01*
X140926739Y-57973504D01*
X140830568Y-57767266D01*
X140709784Y-57594767D01*
X140700045Y-57580858D01*
X140539143Y-57419956D01*
X140514536Y-57402726D01*
X140470912Y-57348149D01*
X140463719Y-57278650D01*
X140495241Y-57216296D01*
X140555471Y-57180882D01*
X140572404Y-57177861D01*
X140607483Y-57174091D01*
X140742331Y-57123796D01*
X140850407Y-57042890D01*
X140915870Y-57018473D01*
X140984143Y-57033324D01*
X141012398Y-57054476D01*
X141403181Y-57445259D01*
X141436666Y-57506582D01*
X141439500Y-57532940D01*
X141439500Y-69967309D01*
X141419815Y-70034348D01*
X141386625Y-70068883D01*
X141368601Y-70081503D01*
X141368595Y-70081508D01*
X141201505Y-70248597D01*
X141065965Y-70442169D01*
X141065964Y-70442171D01*
X140966098Y-70656335D01*
X140966094Y-70656344D01*
X140904939Y-70884585D01*
X140904936Y-70884596D01*
X140884341Y-71119999D01*
X140884341Y-71120000D01*
X140904936Y-71355403D01*
X140904938Y-71355413D01*
X140966094Y-71583655D01*
X140966096Y-71583659D01*
X140966097Y-71583663D01*
X141046004Y-71755023D01*
X141065965Y-71797830D01*
X141065967Y-71797834D01*
X141159437Y-71931322D01*
X141201505Y-71991401D01*
X141368599Y-72158495D01*
X141530217Y-72271661D01*
X141554595Y-72288731D01*
X141598219Y-72343308D01*
X141605412Y-72412807D01*
X141573890Y-72475161D01*
X141554594Y-72491881D01*
X141478627Y-72545073D01*
X141478626Y-72545073D01*
X142110591Y-73177037D01*
X142047007Y-73194075D01*
X141932993Y-73259901D01*
X141839901Y-73352993D01*
X141774075Y-73467007D01*
X141757037Y-73530590D01*
X141125073Y-72898626D01*
X141125073Y-72898627D01*
X141066400Y-72982421D01*
X141066399Y-72982423D01*
X140966570Y-73196507D01*
X140966566Y-73196516D01*
X140905432Y-73424673D01*
X140905430Y-73424684D01*
X140884843Y-73659998D01*
X140884843Y-73660001D01*
X140905430Y-73895315D01*
X140905432Y-73895326D01*
X140966566Y-74123483D01*
X140966570Y-74123492D01*
X141066398Y-74337576D01*
X141125073Y-74421372D01*
X141757037Y-73789408D01*
X141774075Y-73852993D01*
X141839901Y-73967007D01*
X141932993Y-74060099D01*
X142047007Y-74125925D01*
X142110591Y-74142962D01*
X141478626Y-74774926D01*
X141562417Y-74833598D01*
X141562421Y-74833600D01*
X141776507Y-74933429D01*
X141776516Y-74933433D01*
X142004673Y-74994567D01*
X142004684Y-74994569D01*
X142239998Y-75015157D01*
X142240002Y-75015157D01*
X142475315Y-74994569D01*
X142475326Y-74994567D01*
X142703483Y-74933433D01*
X142703492Y-74933429D01*
X142917580Y-74833599D01*
X143001371Y-74774925D01*
X142369408Y-74142962D01*
X142432993Y-74125925D01*
X142547007Y-74060099D01*
X142640099Y-73967007D01*
X142705925Y-73852993D01*
X142722962Y-73789408D01*
X143354925Y-74421371D01*
X143408120Y-74345404D01*
X143462697Y-74301780D01*
X143532196Y-74294588D01*
X143594550Y-74326111D01*
X143611269Y-74345405D01*
X143622658Y-74361670D01*
X143741505Y-74531401D01*
X143908599Y-74698495D01*
X143982323Y-74750117D01*
X144102165Y-74834032D01*
X144102167Y-74834033D01*
X144102170Y-74834035D01*
X144316337Y-74933903D01*
X144316343Y-74933904D01*
X144316344Y-74933905D01*
X144348250Y-74942454D01*
X144544592Y-74995063D01*
X144721034Y-75010500D01*
X144779999Y-75015659D01*
X144780000Y-75015659D01*
X144780001Y-75015659D01*
X144838966Y-75010500D01*
X145015408Y-74995063D01*
X145243663Y-74933903D01*
X145457830Y-74834035D01*
X145651401Y-74698495D01*
X145818495Y-74531401D01*
X145937342Y-74361670D01*
X145948425Y-74345842D01*
X146003002Y-74302217D01*
X146072500Y-74295023D01*
X146134855Y-74326546D01*
X146151575Y-74345842D01*
X146271759Y-74517483D01*
X146281505Y-74531401D01*
X146448599Y-74698495D01*
X146522323Y-74750117D01*
X146642165Y-74834032D01*
X146642167Y-74834033D01*
X146642170Y-74834035D01*
X146856337Y-74933903D01*
X146856343Y-74933904D01*
X146856344Y-74933905D01*
X146888250Y-74942454D01*
X147084592Y-74995063D01*
X147261034Y-75010500D01*
X147319999Y-75015659D01*
X147320000Y-75015659D01*
X147320001Y-75015659D01*
X147378966Y-75010500D01*
X147555408Y-74995063D01*
X147783663Y-74933903D01*
X147997830Y-74834035D01*
X148191401Y-74698495D01*
X148358495Y-74531401D01*
X148371116Y-74513375D01*
X148425693Y-74469752D01*
X148472691Y-74460500D01*
X148668844Y-74460500D01*
X148668845Y-74460499D01*
X148823497Y-74429737D01*
X148969179Y-74369394D01*
X149100289Y-74281789D01*
X150481789Y-72900289D01*
X150507288Y-72862127D01*
X150569394Y-72769179D01*
X150629737Y-72623497D01*
X150638440Y-72579744D01*
X150643868Y-72552455D01*
X150660500Y-72468845D01*
X150660500Y-68579993D01*
X153534700Y-68579993D01*
X153534700Y-68580006D01*
X153553864Y-68811297D01*
X153553866Y-68811308D01*
X153610842Y-69036300D01*
X153704075Y-69248848D01*
X153831016Y-69443147D01*
X153831019Y-69443150D01*
X153831021Y-69443153D01*
X153988216Y-69613913D01*
X153988219Y-69613915D01*
X153988222Y-69613918D01*
X154171365Y-69756464D01*
X154171371Y-69756468D01*
X154171374Y-69756470D01*
X154216698Y-69780998D01*
X154361804Y-69859526D01*
X154375497Y-69866936D01*
X154472922Y-69900382D01*
X154595015Y-69942297D01*
X154595017Y-69942297D01*
X154595019Y-69942298D01*
X154823951Y-69980500D01*
X154823952Y-69980500D01*
X155056048Y-69980500D01*
X155056049Y-69980500D01*
X155284981Y-69942298D01*
X155504503Y-69866936D01*
X155708626Y-69756470D01*
X155891784Y-69613913D01*
X156048979Y-69443153D01*
X156053209Y-69436679D01*
X156106355Y-69391322D01*
X156157018Y-69380500D01*
X157097060Y-69380500D01*
X157164099Y-69400185D01*
X157184741Y-69416819D01*
X159183181Y-71415259D01*
X159216666Y-71476582D01*
X159219500Y-71502940D01*
X159219500Y-72308560D01*
X159199815Y-72375599D01*
X159147011Y-72421354D01*
X159138833Y-72424742D01*
X159027671Y-72466202D01*
X159027664Y-72466206D01*
X158912455Y-72552452D01*
X158912452Y-72552455D01*
X158826206Y-72667664D01*
X158826202Y-72667671D01*
X158775908Y-72802517D01*
X158769501Y-72862116D01*
X158769500Y-72862127D01*
X158769500Y-72928138D01*
X158749815Y-72995177D01*
X158697011Y-73040932D01*
X158627853Y-73050876D01*
X158564297Y-73021851D01*
X158543925Y-72999261D01*
X158441599Y-72853124D01*
X158367308Y-72778833D01*
X158286877Y-72698402D01*
X158117168Y-72579570D01*
X158107638Y-72572897D01*
X157981527Y-72514091D01*
X157909330Y-72480425D01*
X157909326Y-72480424D01*
X157909322Y-72480422D01*
X157697977Y-72423793D01*
X157480002Y-72404723D01*
X157479998Y-72404723D01*
X157352140Y-72415909D01*
X157262023Y-72423793D01*
X157262020Y-72423793D01*
X157050677Y-72480422D01*
X157050670Y-72480424D01*
X157050670Y-72480425D01*
X157026759Y-72491575D01*
X156852361Y-72572898D01*
X156852357Y-72572900D01*
X156673121Y-72698402D01*
X156518402Y-72853121D01*
X156392900Y-73032357D01*
X156392900Y-73032358D01*
X156392898Y-73032361D01*
X156392898Y-73032362D01*
X156392779Y-73032617D01*
X156322105Y-73184176D01*
X156275932Y-73236615D01*
X156208738Y-73255766D01*
X156141857Y-73235550D01*
X156097341Y-73184174D01*
X156026669Y-73032617D01*
X155983123Y-72970428D01*
X155340000Y-73613551D01*
X155340000Y-73607339D01*
X155312741Y-73505606D01*
X155260080Y-73414394D01*
X155185606Y-73339920D01*
X155094394Y-73287259D01*
X154992661Y-73260000D01*
X154986447Y-73260000D01*
X155629571Y-72616874D01*
X155567387Y-72573333D01*
X155369159Y-72480898D01*
X155369150Y-72480894D01*
X155157894Y-72424289D01*
X155157884Y-72424287D01*
X154940001Y-72405225D01*
X154939999Y-72405225D01*
X154722115Y-72424287D01*
X154722105Y-72424289D01*
X154510849Y-72480894D01*
X154510840Y-72480898D01*
X154312614Y-72573332D01*
X154312612Y-72573333D01*
X154250428Y-72616875D01*
X154250427Y-72616875D01*
X154893554Y-73260000D01*
X154887339Y-73260000D01*
X154785606Y-73287259D01*
X154694394Y-73339920D01*
X154619920Y-73414394D01*
X154567259Y-73505606D01*
X154540000Y-73607339D01*
X154540000Y-73613552D01*
X153896875Y-72970427D01*
X153896875Y-72970428D01*
X153853333Y-73032612D01*
X153853332Y-73032614D01*
X153760898Y-73230840D01*
X153760894Y-73230849D01*
X153704289Y-73442105D01*
X153704287Y-73442115D01*
X153685225Y-73659999D01*
X153685225Y-73660000D01*
X153704287Y-73877884D01*
X153704289Y-73877894D01*
X153760894Y-74089150D01*
X153760898Y-74089159D01*
X153853333Y-74287387D01*
X153896874Y-74349571D01*
X154540000Y-73706445D01*
X154540000Y-73712661D01*
X154567259Y-73814394D01*
X154619920Y-73905606D01*
X154694394Y-73980080D01*
X154785606Y-74032741D01*
X154887339Y-74060000D01*
X154893553Y-74060000D01*
X154250427Y-74703124D01*
X154312612Y-74746666D01*
X154510840Y-74839101D01*
X154510849Y-74839105D01*
X154722105Y-74895710D01*
X154722115Y-74895712D01*
X154939999Y-74914775D01*
X154940001Y-74914775D01*
X155157884Y-74895712D01*
X155157894Y-74895710D01*
X155369150Y-74839105D01*
X155369164Y-74839100D01*
X155567383Y-74746669D01*
X155567385Y-74746668D01*
X155629571Y-74703124D01*
X154986448Y-74060000D01*
X154992661Y-74060000D01*
X155094394Y-74032741D01*
X155185606Y-73980080D01*
X155260080Y-73905606D01*
X155312741Y-73814394D01*
X155340000Y-73712661D01*
X155340000Y-73706446D01*
X155983124Y-74349570D01*
X156026666Y-74287388D01*
X156097340Y-74135825D01*
X156143512Y-74083386D01*
X156210706Y-74064233D01*
X156277587Y-74084448D01*
X156322105Y-74135824D01*
X156392897Y-74287638D01*
X156417998Y-74323486D01*
X156518402Y-74466877D01*
X156673123Y-74621598D01*
X156852361Y-74747102D01*
X157050670Y-74839575D01*
X157262023Y-74896207D01*
X157444926Y-74912208D01*
X157479998Y-74915277D01*
X157480000Y-74915277D01*
X157480002Y-74915277D01*
X157508254Y-74912805D01*
X157697977Y-74896207D01*
X157909330Y-74839575D01*
X158107639Y-74747102D01*
X158286877Y-74621598D01*
X158441598Y-74466877D01*
X158543928Y-74320734D01*
X158598502Y-74277112D01*
X158668000Y-74269918D01*
X158730355Y-74301441D01*
X158765769Y-74361670D01*
X158769500Y-74391858D01*
X158769500Y-74457869D01*
X158769501Y-74457876D01*
X158775908Y-74517483D01*
X158826202Y-74652328D01*
X158826206Y-74652335D01*
X158912452Y-74767544D01*
X158912455Y-74767547D01*
X159027664Y-74853793D01*
X159027671Y-74853797D01*
X159162517Y-74904091D01*
X159162516Y-74904091D01*
X159169444Y-74904835D01*
X159222127Y-74910500D01*
X160817872Y-74910499D01*
X160877483Y-74904091D01*
X161012331Y-74853796D01*
X161127546Y-74767546D01*
X161213796Y-74652331D01*
X161225261Y-74621593D01*
X161255258Y-74541167D01*
X161297129Y-74485233D01*
X161362593Y-74460816D01*
X161371440Y-74460500D01*
X167561158Y-74460500D01*
X168616267Y-74460500D01*
X168683306Y-74480185D01*
X168729061Y-74532989D01*
X168733972Y-74545494D01*
X168745186Y-74579334D01*
X168837288Y-74728656D01*
X168961344Y-74852712D01*
X169110666Y-74944814D01*
X169277203Y-74999999D01*
X169379991Y-75010500D01*
X170980008Y-75010499D01*
X171082797Y-74999999D01*
X171249334Y-74944814D01*
X171398656Y-74852712D01*
X171522712Y-74728656D01*
X171614814Y-74579334D01*
X171669999Y-74412797D01*
X171680500Y-74310009D01*
X171680499Y-73009992D01*
X171676457Y-72970428D01*
X171669999Y-72907203D01*
X171669998Y-72907200D01*
X171667157Y-72898626D01*
X171614814Y-72740666D01*
X171522712Y-72591344D01*
X171398656Y-72467288D01*
X171249334Y-72375186D01*
X171249333Y-72375185D01*
X171243878Y-72371821D01*
X171197154Y-72319873D01*
X171185931Y-72250910D01*
X171213775Y-72186828D01*
X171221272Y-72178623D01*
X171360104Y-72039792D01*
X171485051Y-71867816D01*
X171581557Y-71678412D01*
X171647246Y-71476243D01*
X171680500Y-71266287D01*
X171680500Y-71053713D01*
X171647246Y-70843757D01*
X171581557Y-70641588D01*
X171485051Y-70452184D01*
X171485049Y-70452181D01*
X171485048Y-70452179D01*
X171360109Y-70280213D01*
X171209786Y-70129890D01*
X171033875Y-70002085D01*
X171034851Y-70000740D01*
X170992834Y-69954295D01*
X170980500Y-69900382D01*
X170980500Y-69103031D01*
X171000185Y-69035992D01*
X171052989Y-68990237D01*
X171122147Y-68980293D01*
X171122609Y-68980361D01*
X171322565Y-69010500D01*
X171577435Y-69010500D01*
X171829458Y-68972513D01*
X172073004Y-68897389D01*
X172302634Y-68786805D01*
X172513217Y-68643232D01*
X172700050Y-68469877D01*
X172858959Y-68270612D01*
X172986393Y-68049888D01*
X173079508Y-67812637D01*
X173136222Y-67564157D01*
X173145701Y-67437664D01*
X173155268Y-67310004D01*
X173155268Y-67309995D01*
X173139808Y-67103691D01*
X173136222Y-67055843D01*
X173079508Y-66807363D01*
X172986393Y-66570112D01*
X172858959Y-66349388D01*
X172700050Y-66150123D01*
X172513217Y-65976768D01*
X172302634Y-65833195D01*
X172302630Y-65833193D01*
X172302627Y-65833191D01*
X172302626Y-65833190D01*
X172073006Y-65722612D01*
X172073008Y-65722612D01*
X171829466Y-65647489D01*
X171829462Y-65647488D01*
X171829458Y-65647487D01*
X171708231Y-65629214D01*
X171577440Y-65609500D01*
X171577435Y-65609500D01*
X171322565Y-65609500D01*
X171322559Y-65609500D01*
X171165609Y-65633157D01*
X171070542Y-65647487D01*
X171070539Y-65647488D01*
X171070533Y-65647489D01*
X170826992Y-65722612D01*
X170597373Y-65833190D01*
X170597372Y-65833191D01*
X170386782Y-65976768D01*
X170199952Y-66150121D01*
X170199950Y-66150123D01*
X170041041Y-66349388D01*
X169913608Y-66570109D01*
X169820492Y-66807362D01*
X169820490Y-66807369D01*
X169763777Y-67055845D01*
X169744732Y-67309995D01*
X169744732Y-67310004D01*
X169763776Y-67564147D01*
X169763777Y-67564152D01*
X169778329Y-67627908D01*
X169774056Y-67697646D01*
X169732757Y-67754004D01*
X169667545Y-67779087D01*
X169657438Y-67779500D01*
X166624499Y-67779500D01*
X166557460Y-67759815D01*
X166511705Y-67707011D01*
X166500499Y-67655500D01*
X166500499Y-67632129D01*
X166500498Y-67632123D01*
X166500497Y-67632116D01*
X166494091Y-67572517D01*
X166490969Y-67564147D01*
X166443797Y-67437671D01*
X166443793Y-67437664D01*
X166357547Y-67322455D01*
X166357544Y-67322452D01*
X166242335Y-67236206D01*
X166242328Y-67236202D01*
X166107482Y-67185908D01*
X166107483Y-67185908D01*
X166081470Y-67183112D01*
X166016919Y-67156374D01*
X165977070Y-67098982D01*
X165974577Y-67029157D01*
X166007042Y-66972143D01*
X166100047Y-66879139D01*
X166230568Y-66692734D01*
X166326739Y-66486496D01*
X166385635Y-66266692D01*
X166405468Y-66040000D01*
X166404998Y-66034632D01*
X166391960Y-65885606D01*
X166385635Y-65813308D01*
X166326739Y-65593504D01*
X166230568Y-65387266D01*
X166113319Y-65219815D01*
X166100045Y-65200858D01*
X165939141Y-65039954D01*
X165752734Y-64909432D01*
X165752732Y-64909431D01*
X165546497Y-64813261D01*
X165546488Y-64813258D01*
X165326697Y-64754366D01*
X165326693Y-64754365D01*
X165326692Y-64754365D01*
X165326691Y-64754364D01*
X165326686Y-64754364D01*
X165100002Y-64734532D01*
X165099998Y-64734532D01*
X164873313Y-64754364D01*
X164873302Y-64754366D01*
X164653511Y-64813258D01*
X164653502Y-64813261D01*
X164447267Y-64909431D01*
X164447265Y-64909432D01*
X164260858Y-65039954D01*
X164099954Y-65200858D01*
X163969432Y-65387265D01*
X163969431Y-65387267D01*
X163873261Y-65593502D01*
X163873258Y-65593511D01*
X163814366Y-65813302D01*
X163814364Y-65813313D01*
X163794532Y-66039998D01*
X163794532Y-66040000D01*
X163814364Y-66266686D01*
X163814366Y-66266697D01*
X163873258Y-66486488D01*
X163873261Y-66486497D01*
X163969431Y-66692732D01*
X163969432Y-66692734D01*
X164099954Y-66879141D01*
X164192954Y-66972141D01*
X164226439Y-67033464D01*
X164221455Y-67103156D01*
X164179583Y-67159089D01*
X164118530Y-67183111D01*
X164092519Y-67185907D01*
X163957671Y-67236202D01*
X163957664Y-67236206D01*
X163842455Y-67322452D01*
X163842452Y-67322455D01*
X163756206Y-67437664D01*
X163756202Y-67437671D01*
X163705908Y-67572517D01*
X163699501Y-67632116D01*
X163699501Y-67632123D01*
X163699500Y-67632135D01*
X163699500Y-69527870D01*
X163699501Y-69527876D01*
X163705908Y-69587483D01*
X163756202Y-69722328D01*
X163756206Y-69722335D01*
X163842452Y-69837544D01*
X163842455Y-69837547D01*
X163957664Y-69923793D01*
X163957671Y-69923797D01*
X164092517Y-69974091D01*
X164092516Y-69974091D01*
X164098711Y-69974757D01*
X164152127Y-69980500D01*
X166047872Y-69980499D01*
X166107483Y-69974091D01*
X166242331Y-69923796D01*
X166357546Y-69837546D01*
X166443796Y-69722331D01*
X166494091Y-69587483D01*
X166500500Y-69527873D01*
X166500500Y-69504500D01*
X166520185Y-69437461D01*
X166572989Y-69391706D01*
X166624500Y-69380500D01*
X169255500Y-69380500D01*
X169322539Y-69400185D01*
X169368294Y-69452989D01*
X169379500Y-69504500D01*
X169379500Y-69900382D01*
X169359815Y-69967421D01*
X169325408Y-70001099D01*
X169326125Y-70002085D01*
X169150213Y-70129890D01*
X168999890Y-70280213D01*
X168874951Y-70452179D01*
X168778444Y-70641585D01*
X168712753Y-70843760D01*
X168679500Y-71053713D01*
X168679500Y-71266286D01*
X168695581Y-71367821D01*
X168712754Y-71476243D01*
X168750376Y-71592032D01*
X168778444Y-71678414D01*
X168874951Y-71867820D01*
X168999890Y-72039786D01*
X169138705Y-72178601D01*
X169172190Y-72239924D01*
X169167206Y-72309616D01*
X169125334Y-72365549D01*
X169116121Y-72371821D01*
X168961342Y-72467289D01*
X168837289Y-72591342D01*
X168745187Y-72740663D01*
X168745184Y-72740671D01*
X168733972Y-72774506D01*
X168694199Y-72831950D01*
X168629683Y-72858772D01*
X168616267Y-72859500D01*
X161371440Y-72859500D01*
X161304401Y-72839815D01*
X161258646Y-72787011D01*
X161255258Y-72778833D01*
X161213797Y-72667671D01*
X161213793Y-72667664D01*
X161127547Y-72552455D01*
X161127544Y-72552452D01*
X161012335Y-72466206D01*
X161012329Y-72466203D01*
X160901166Y-72424741D01*
X160845233Y-72382869D01*
X160820816Y-72317405D01*
X160820500Y-72308559D01*
X160820500Y-71041155D01*
X160820499Y-71041153D01*
X160789738Y-70886508D01*
X160789738Y-70886506D01*
X160788942Y-70884585D01*
X160788936Y-70884569D01*
X160765573Y-70828165D01*
X160729397Y-70740827D01*
X160729390Y-70740814D01*
X160641790Y-70609712D01*
X160641789Y-70609711D01*
X160530289Y-70498211D01*
X159280926Y-69248848D01*
X157990291Y-67958212D01*
X157990288Y-67958210D01*
X157859185Y-67870609D01*
X157859172Y-67870602D01*
X157713501Y-67810264D01*
X157713489Y-67810261D01*
X157558845Y-67779500D01*
X157558842Y-67779500D01*
X156157018Y-67779500D01*
X156089979Y-67759815D01*
X156053209Y-67723321D01*
X156048980Y-67716849D01*
X156048979Y-67716847D01*
X155891784Y-67546087D01*
X155891779Y-67546083D01*
X155891777Y-67546081D01*
X155708634Y-67403535D01*
X155708619Y-67403525D01*
X155631603Y-67361846D01*
X155582013Y-67312627D01*
X155566905Y-67244410D01*
X155591076Y-67178855D01*
X155619498Y-67151217D01*
X155778817Y-67039660D01*
X155939657Y-66878820D01*
X156070134Y-66692482D01*
X156166265Y-66486326D01*
X156166269Y-66486317D01*
X156218872Y-66290000D01*
X155255686Y-66290000D01*
X155260080Y-66285606D01*
X155312741Y-66194394D01*
X155340000Y-66092661D01*
X155340000Y-65987339D01*
X155312741Y-65885606D01*
X155260080Y-65794394D01*
X155255686Y-65790000D01*
X156218872Y-65790000D01*
X156218872Y-65789999D01*
X156166269Y-65593682D01*
X156166265Y-65593673D01*
X156070134Y-65387517D01*
X155939657Y-65201179D01*
X155778820Y-65040342D01*
X155592482Y-64909865D01*
X155386328Y-64813734D01*
X155190000Y-64761127D01*
X155190000Y-65724314D01*
X155185606Y-65719920D01*
X155094394Y-65667259D01*
X154992661Y-65640000D01*
X154887339Y-65640000D01*
X154785606Y-65667259D01*
X154694394Y-65719920D01*
X154690000Y-65724314D01*
X154690000Y-64761127D01*
X154493671Y-64813734D01*
X154287517Y-64909865D01*
X154101179Y-65040342D01*
X153940342Y-65201179D01*
X153809865Y-65387517D01*
X153713734Y-65593673D01*
X153713730Y-65593682D01*
X153661127Y-65789999D01*
X153661128Y-65790000D01*
X154624314Y-65790000D01*
X154619920Y-65794394D01*
X154567259Y-65885606D01*
X154540000Y-65987339D01*
X154540000Y-66092661D01*
X154567259Y-66194394D01*
X154619920Y-66285606D01*
X154624314Y-66290000D01*
X153661128Y-66290000D01*
X153713730Y-66486317D01*
X153713734Y-66486326D01*
X153809865Y-66692482D01*
X153940342Y-66878820D01*
X154101179Y-67039657D01*
X154260502Y-67151217D01*
X154304127Y-67205794D01*
X154311319Y-67275293D01*
X154279797Y-67337647D01*
X154248397Y-67361846D01*
X154171376Y-67403528D01*
X154171365Y-67403535D01*
X153988222Y-67546081D01*
X153988219Y-67546084D01*
X153988216Y-67546086D01*
X153988216Y-67546087D01*
X153963886Y-67572517D01*
X153831016Y-67716852D01*
X153704075Y-67911151D01*
X153610842Y-68123699D01*
X153553866Y-68348691D01*
X153553864Y-68348702D01*
X153534700Y-68579993D01*
X150660500Y-68579993D01*
X150660500Y-67130049D01*
X150680185Y-67063010D01*
X150696819Y-67042368D01*
X150860045Y-66879141D01*
X150860047Y-66879139D01*
X150990568Y-66692734D01*
X151086739Y-66486496D01*
X151145635Y-66266692D01*
X151165468Y-66040000D01*
X151164998Y-66034632D01*
X151151960Y-65885606D01*
X151145635Y-65813308D01*
X151086739Y-65593504D01*
X150990568Y-65387266D01*
X150873319Y-65219815D01*
X150860045Y-65200858D01*
X150696819Y-65037632D01*
X150663334Y-64976309D01*
X150660500Y-64949951D01*
X150660500Y-54430049D01*
X150680185Y-54363010D01*
X150696819Y-54342368D01*
X150862368Y-54176819D01*
X150923691Y-54143334D01*
X150950049Y-54140500D01*
X151309951Y-54140500D01*
X151376990Y-54160185D01*
X151397632Y-54176819D01*
X151560858Y-54340045D01*
X151560861Y-54340047D01*
X151747266Y-54470568D01*
X151762975Y-54477893D01*
X151815414Y-54524064D01*
X151834567Y-54591257D01*
X151814352Y-54658138D01*
X151762979Y-54702656D01*
X151747514Y-54709867D01*
X151747512Y-54709868D01*
X151674526Y-54760973D01*
X151674526Y-54760974D01*
X152353553Y-55440000D01*
X152347339Y-55440000D01*
X152245606Y-55467259D01*
X152154394Y-55519920D01*
X152079920Y-55594394D01*
X152027259Y-55685606D01*
X152000000Y-55787339D01*
X152000000Y-55793552D01*
X151320974Y-55114526D01*
X151320973Y-55114526D01*
X151269868Y-55187512D01*
X151269866Y-55187516D01*
X151173734Y-55393673D01*
X151173730Y-55393682D01*
X151114860Y-55613389D01*
X151114858Y-55613400D01*
X151095034Y-55839997D01*
X151095034Y-55840002D01*
X151114858Y-56066599D01*
X151114860Y-56066610D01*
X151173730Y-56286317D01*
X151173735Y-56286331D01*
X151269863Y-56492478D01*
X151320974Y-56565472D01*
X152000000Y-55886446D01*
X152000000Y-55892661D01*
X152027259Y-55994394D01*
X152079920Y-56085606D01*
X152154394Y-56160080D01*
X152245606Y-56212741D01*
X152347339Y-56240000D01*
X152353553Y-56240000D01*
X151674526Y-56919025D01*
X151747513Y-56970132D01*
X151747521Y-56970136D01*
X151953668Y-57066264D01*
X151953682Y-57066269D01*
X152173389Y-57125139D01*
X152173400Y-57125141D01*
X152399998Y-57144966D01*
X152400002Y-57144966D01*
X152626599Y-57125141D01*
X152626610Y-57125139D01*
X152846317Y-57066269D01*
X152846331Y-57066264D01*
X153052478Y-56970136D01*
X153125471Y-56919024D01*
X152446447Y-56240000D01*
X152452661Y-56240000D01*
X152554394Y-56212741D01*
X152645606Y-56160080D01*
X152720080Y-56085606D01*
X152772741Y-55994394D01*
X152800000Y-55892661D01*
X152800000Y-55886447D01*
X153479025Y-56565472D01*
X153492360Y-56564305D01*
X153518501Y-56543410D01*
X153587999Y-56536216D01*
X153650354Y-56567738D01*
X153685769Y-56627967D01*
X153689500Y-56658153D01*
X153689500Y-56677867D01*
X153689501Y-56677876D01*
X153695908Y-56737483D01*
X153746202Y-56872328D01*
X153746206Y-56872335D01*
X153832452Y-56987544D01*
X153832455Y-56987547D01*
X153947664Y-57073793D01*
X153947671Y-57073797D01*
X154082517Y-57124091D01*
X154082516Y-57124091D01*
X154089444Y-57124835D01*
X154142127Y-57130500D01*
X155737872Y-57130499D01*
X155797483Y-57124091D01*
X155932331Y-57073796D01*
X156047546Y-56987546D01*
X156133796Y-56872331D01*
X156184091Y-56737483D01*
X156190500Y-56677873D01*
X156190499Y-56610988D01*
X156210183Y-56543952D01*
X156262986Y-56498196D01*
X156332144Y-56488252D01*
X156395700Y-56517276D01*
X156416073Y-56539866D01*
X156436873Y-56569571D01*
X156436874Y-56569571D01*
X157080000Y-55926445D01*
X157080000Y-55932661D01*
X157107259Y-56034394D01*
X157159920Y-56125606D01*
X157234394Y-56200080D01*
X157325606Y-56252741D01*
X157427339Y-56280000D01*
X157433553Y-56280000D01*
X156790427Y-56923124D01*
X156852612Y-56966666D01*
X157050840Y-57059101D01*
X157050849Y-57059105D01*
X157262105Y-57115710D01*
X157262115Y-57115712D01*
X157479999Y-57134775D01*
X157480001Y-57134775D01*
X157697884Y-57115712D01*
X157697894Y-57115710D01*
X157909150Y-57059105D01*
X157909164Y-57059100D01*
X158107383Y-56966669D01*
X158107385Y-56966668D01*
X158169571Y-56923124D01*
X157526448Y-56280000D01*
X157532661Y-56280000D01*
X157634394Y-56252741D01*
X157725606Y-56200080D01*
X157800080Y-56125606D01*
X157852741Y-56034394D01*
X157880000Y-55932661D01*
X157880000Y-55926446D01*
X158523124Y-56569570D01*
X158566666Y-56507388D01*
X158637340Y-56355825D01*
X158683512Y-56303386D01*
X158750706Y-56284233D01*
X158817587Y-56304448D01*
X158862105Y-56355824D01*
X158932897Y-56507638D01*
X158932898Y-56507639D01*
X159058402Y-56686877D01*
X159213123Y-56841598D01*
X159392361Y-56967102D01*
X159590670Y-57059575D01*
X159802023Y-57116207D01*
X159984926Y-57132208D01*
X160019998Y-57135277D01*
X160020000Y-57135277D01*
X160020002Y-57135277D01*
X160048254Y-57132805D01*
X160237977Y-57116207D01*
X160449330Y-57059575D01*
X160647639Y-56967102D01*
X160826877Y-56841598D01*
X160951656Y-56716819D01*
X161012979Y-56683334D01*
X161039337Y-56680500D01*
X161183023Y-56680500D01*
X161250062Y-56700185D01*
X161295817Y-56752989D01*
X161303266Y-56780134D01*
X161304124Y-56779932D01*
X161305907Y-56787479D01*
X161356202Y-56922328D01*
X161356206Y-56922335D01*
X161442452Y-57037544D01*
X161442455Y-57037547D01*
X161557664Y-57123793D01*
X161557671Y-57123797D01*
X161575643Y-57130500D01*
X161678833Y-57168987D01*
X161734766Y-57210858D01*
X161759184Y-57276322D01*
X161759500Y-57285169D01*
X161759500Y-60035500D01*
X161739815Y-60102539D01*
X161687011Y-60148294D01*
X161635500Y-60159500D01*
X156764499Y-60159500D01*
X156697460Y-60139815D01*
X156651705Y-60087011D01*
X156640499Y-60035500D01*
X156640499Y-59712129D01*
X156640498Y-59712123D01*
X156640497Y-59712116D01*
X156634091Y-59652517D01*
X156626543Y-59632281D01*
X156583797Y-59517671D01*
X156583793Y-59517664D01*
X156497547Y-59402455D01*
X156497544Y-59402452D01*
X156382335Y-59316206D01*
X156382328Y-59316202D01*
X156247482Y-59265908D01*
X156247483Y-59265908D01*
X156187883Y-59259501D01*
X156187881Y-59259500D01*
X156187873Y-59259500D01*
X156187864Y-59259500D01*
X153692129Y-59259500D01*
X153692123Y-59259501D01*
X153632516Y-59265908D01*
X153497671Y-59316202D01*
X153497664Y-59316206D01*
X153382455Y-59402452D01*
X153382452Y-59402455D01*
X153296206Y-59517664D01*
X153296202Y-59517671D01*
X153245908Y-59652517D01*
X153239501Y-59712116D01*
X153239501Y-59712123D01*
X153239500Y-59712135D01*
X153239500Y-62207870D01*
X153239501Y-62207876D01*
X153245908Y-62267483D01*
X153296202Y-62402328D01*
X153296206Y-62402335D01*
X153382452Y-62517544D01*
X153382455Y-62517547D01*
X153497664Y-62603793D01*
X153497671Y-62603797D01*
X153632517Y-62654091D01*
X153632516Y-62654091D01*
X153639444Y-62654835D01*
X153692127Y-62660500D01*
X156187872Y-62660499D01*
X156247483Y-62654091D01*
X156382331Y-62603796D01*
X156497546Y-62517546D01*
X156583796Y-62402331D01*
X156634091Y-62267483D01*
X156640500Y-62207873D01*
X156640500Y-61884500D01*
X156660185Y-61817461D01*
X156712989Y-61771706D01*
X156764500Y-61760500D01*
X161635500Y-61760500D01*
X161702539Y-61780185D01*
X161748294Y-61832989D01*
X161759500Y-61884500D01*
X161759500Y-62308846D01*
X161790261Y-62463489D01*
X161790264Y-62463501D01*
X161850602Y-62609172D01*
X161850609Y-62609185D01*
X161938210Y-62740288D01*
X161938213Y-62740292D01*
X163208211Y-64010289D01*
X163292055Y-64094133D01*
X163319712Y-64121790D01*
X163450814Y-64209390D01*
X163450827Y-64209397D01*
X163567858Y-64257872D01*
X163596503Y-64269737D01*
X163596507Y-64269737D01*
X163596508Y-64269738D01*
X163751154Y-64300500D01*
X163751157Y-64300500D01*
X170258844Y-64300500D01*
X170258845Y-64300499D01*
X170413497Y-64269737D01*
X170559179Y-64209394D01*
X170690289Y-64121789D01*
X170902325Y-63909751D01*
X170963644Y-63876269D01*
X171026552Y-63878943D01*
X171070542Y-63892513D01*
X171322565Y-63930500D01*
X171577435Y-63930500D01*
X171829458Y-63892513D01*
X172073004Y-63817389D01*
X172302634Y-63706805D01*
X172513217Y-63563232D01*
X172700050Y-63389877D01*
X172858959Y-63190612D01*
X172986393Y-62969888D01*
X173079508Y-62732637D01*
X173136222Y-62484157D01*
X173147936Y-62327843D01*
X173155268Y-62230004D01*
X173155268Y-62229995D01*
X173136222Y-61975845D01*
X173132616Y-61960047D01*
X173079508Y-61727363D01*
X172986393Y-61490112D01*
X172858959Y-61269388D01*
X172700050Y-61070123D01*
X172513217Y-60896768D01*
X172302634Y-60753195D01*
X172302630Y-60753193D01*
X172302627Y-60753191D01*
X172302626Y-60753190D01*
X172073006Y-60642612D01*
X172073008Y-60642612D01*
X171829466Y-60567489D01*
X171829462Y-60567488D01*
X171829458Y-60567487D01*
X171708231Y-60549214D01*
X171577440Y-60529500D01*
X171577435Y-60529500D01*
X171322565Y-60529500D01*
X171322559Y-60529500D01*
X171165609Y-60553157D01*
X171070542Y-60567487D01*
X171070539Y-60567488D01*
X171070533Y-60567489D01*
X170826992Y-60642612D01*
X170597373Y-60753190D01*
X170597372Y-60753191D01*
X170386782Y-60896768D01*
X170199952Y-61070121D01*
X170199950Y-61070123D01*
X170041041Y-61269388D01*
X169913608Y-61490109D01*
X169820492Y-61727362D01*
X169820490Y-61727369D01*
X169763777Y-61975845D01*
X169744732Y-62229995D01*
X169744732Y-62230004D01*
X169763776Y-62484147D01*
X169763777Y-62484152D01*
X169763777Y-62484156D01*
X169763778Y-62484157D01*
X169778210Y-62547389D01*
X169778329Y-62547908D01*
X169774056Y-62617646D01*
X169732757Y-62674004D01*
X169667545Y-62699087D01*
X169657438Y-62699500D01*
X165950422Y-62699500D01*
X165883383Y-62679815D01*
X165837628Y-62627011D01*
X165827684Y-62557853D01*
X165856709Y-62494297D01*
X165896620Y-62463780D01*
X165915597Y-62454641D01*
X165952634Y-62436805D01*
X166163217Y-62293232D01*
X166350050Y-62119877D01*
X166508959Y-61920612D01*
X166636393Y-61699888D01*
X166729508Y-61462637D01*
X166786222Y-61214157D01*
X166797016Y-61070121D01*
X166805268Y-60960004D01*
X166805268Y-60959995D01*
X166786223Y-60705852D01*
X166786223Y-60705851D01*
X166786222Y-60705848D01*
X166786222Y-60705843D01*
X166745724Y-60528412D01*
X166749997Y-60458677D01*
X166778932Y-60413144D01*
X167935259Y-59256819D01*
X167996582Y-59223334D01*
X168022940Y-59220500D01*
X168779385Y-59220500D01*
X168846424Y-59240185D01*
X168879703Y-59271615D01*
X168888086Y-59283153D01*
X168909641Y-59312821D01*
X169062179Y-59465359D01*
X169236701Y-59592157D01*
X169428911Y-59690092D01*
X169634074Y-59756754D01*
X169713973Y-59769408D01*
X169847134Y-59790500D01*
X169847139Y-59790500D01*
X170512866Y-59790500D01*
X170633208Y-59771439D01*
X170725926Y-59756754D01*
X170931089Y-59690092D01*
X171123299Y-59592157D01*
X171297821Y-59465359D01*
X171450359Y-59312821D01*
X171577157Y-59138299D01*
X171675092Y-58946089D01*
X171741754Y-58740926D01*
X171756752Y-58646230D01*
X171775500Y-58527866D01*
X171775500Y-58312133D01*
X171741754Y-58099077D01*
X171741754Y-58099074D01*
X171675092Y-57893911D01*
X171577157Y-57701701D01*
X171450359Y-57527179D01*
X171307996Y-57384816D01*
X171274511Y-57323493D01*
X171279495Y-57253801D01*
X171321367Y-57197868D01*
X171343289Y-57184745D01*
X171344127Y-57184354D01*
X171493345Y-57092315D01*
X171617315Y-56968345D01*
X171709356Y-56819124D01*
X171709358Y-56819119D01*
X171764505Y-56652697D01*
X171764506Y-56652690D01*
X171774999Y-56549986D01*
X171775000Y-56549973D01*
X171775000Y-56130000D01*
X170722709Y-56130000D01*
X170734452Y-56109661D01*
X170775000Y-55958333D01*
X170775000Y-55801667D01*
X170734452Y-55650339D01*
X170722709Y-55630000D01*
X171774999Y-55630000D01*
X171774999Y-55210028D01*
X171774998Y-55210013D01*
X171764505Y-55107302D01*
X171709358Y-54940880D01*
X171709356Y-54940875D01*
X171617315Y-54791654D01*
X171493345Y-54667684D01*
X171344124Y-54575643D01*
X171344119Y-54575641D01*
X171177697Y-54520494D01*
X171177690Y-54520493D01*
X171074986Y-54510000D01*
X170430000Y-54510000D01*
X170430000Y-55337290D01*
X170409661Y-55325548D01*
X170258333Y-55285000D01*
X170101667Y-55285000D01*
X169950339Y-55325548D01*
X169930000Y-55337290D01*
X169930000Y-54510000D01*
X169285028Y-54510000D01*
X169285012Y-54510001D01*
X169182302Y-54520494D01*
X169015880Y-54575641D01*
X169015875Y-54575643D01*
X168866654Y-54667684D01*
X168742684Y-54791654D01*
X168650643Y-54940875D01*
X168650641Y-54940880D01*
X168595494Y-55107302D01*
X168595493Y-55107309D01*
X168585000Y-55210013D01*
X168585000Y-55630000D01*
X169637291Y-55630000D01*
X169625548Y-55650339D01*
X169585000Y-55801667D01*
X169585000Y-55958333D01*
X169625548Y-56109661D01*
X169637291Y-56130000D01*
X168585001Y-56130000D01*
X168585001Y-56549986D01*
X168595494Y-56652697D01*
X168650641Y-56819119D01*
X168650643Y-56819124D01*
X168742684Y-56968345D01*
X168866654Y-57092315D01*
X169015876Y-57184356D01*
X169016716Y-57184748D01*
X169017195Y-57185170D01*
X169022025Y-57188149D01*
X169021516Y-57188973D01*
X169069160Y-57230915D01*
X169088318Y-57298107D01*
X169068109Y-57364990D01*
X169052004Y-57384816D01*
X168909638Y-57527182D01*
X168879703Y-57568385D01*
X168824373Y-57611051D01*
X168779385Y-57619500D01*
X167561154Y-57619500D01*
X167406509Y-57650261D01*
X167406497Y-57650264D01*
X167363832Y-57667936D01*
X167363833Y-57667937D01*
X167260823Y-57710604D01*
X167260814Y-57710609D01*
X167129712Y-57798209D01*
X167129710Y-57798212D01*
X165647676Y-59280244D01*
X165586353Y-59313729D01*
X165523447Y-59311055D01*
X165479461Y-59297488D01*
X165479458Y-59297487D01*
X165365060Y-59280244D01*
X165227440Y-59259500D01*
X165227435Y-59259500D01*
X164972565Y-59259500D01*
X164972559Y-59259500D01*
X164815680Y-59283147D01*
X164720542Y-59297487D01*
X164720539Y-59297488D01*
X164720533Y-59297489D01*
X164476992Y-59372612D01*
X164247373Y-59483190D01*
X164247372Y-59483191D01*
X164036782Y-59626768D01*
X163849952Y-59800121D01*
X163849950Y-59800123D01*
X163691041Y-59999388D01*
X163591887Y-60171128D01*
X163541320Y-60219344D01*
X163472713Y-60232567D01*
X163407848Y-60206599D01*
X163367320Y-60149684D01*
X163360500Y-60109128D01*
X163360500Y-57301276D01*
X163380185Y-57234237D01*
X163432989Y-57188482D01*
X163471247Y-57177986D01*
X163507483Y-57174091D01*
X163642331Y-57123796D01*
X163757546Y-57037546D01*
X163843796Y-56922331D01*
X163894091Y-56787483D01*
X163900500Y-56727873D01*
X163900499Y-56727845D01*
X163900678Y-56724547D01*
X163902183Y-56724627D01*
X163920112Y-56663326D01*
X163972868Y-56617514D01*
X164016465Y-56609981D01*
X164700000Y-55926446D01*
X164700000Y-55932661D01*
X164727259Y-56034394D01*
X164779920Y-56125606D01*
X164854394Y-56200080D01*
X164945606Y-56252741D01*
X165047339Y-56280000D01*
X165053553Y-56280000D01*
X164374526Y-56959025D01*
X164447513Y-57010132D01*
X164447521Y-57010136D01*
X164653668Y-57106264D01*
X164653682Y-57106269D01*
X164873389Y-57165139D01*
X164873400Y-57165141D01*
X165099998Y-57184966D01*
X165100002Y-57184966D01*
X165326599Y-57165141D01*
X165326610Y-57165139D01*
X165546317Y-57106269D01*
X165546331Y-57106264D01*
X165752478Y-57010136D01*
X165825471Y-56959024D01*
X165146447Y-56280000D01*
X165152661Y-56280000D01*
X165254394Y-56252741D01*
X165345606Y-56200080D01*
X165420080Y-56125606D01*
X165472741Y-56034394D01*
X165500000Y-55932661D01*
X165500000Y-55926447D01*
X166179024Y-56605471D01*
X166230136Y-56532478D01*
X166326264Y-56326331D01*
X166326269Y-56326317D01*
X166385139Y-56106610D01*
X166385141Y-56106599D01*
X166404966Y-55880002D01*
X166404966Y-55879997D01*
X166385141Y-55653400D01*
X166385139Y-55653389D01*
X166326269Y-55433682D01*
X166326264Y-55433668D01*
X166230136Y-55227521D01*
X166230132Y-55227513D01*
X166179025Y-55154526D01*
X165500000Y-55833551D01*
X165500000Y-55827339D01*
X165472741Y-55725606D01*
X165420080Y-55634394D01*
X165345606Y-55559920D01*
X165254394Y-55507259D01*
X165152661Y-55480000D01*
X165146445Y-55480000D01*
X165825472Y-54800974D01*
X165752478Y-54749863D01*
X165546331Y-54653735D01*
X165546317Y-54653730D01*
X165326610Y-54594860D01*
X165326599Y-54594858D01*
X165100002Y-54575034D01*
X165099998Y-54575034D01*
X164873400Y-54594858D01*
X164873389Y-54594860D01*
X164653682Y-54653730D01*
X164653673Y-54653734D01*
X164447516Y-54749866D01*
X164447512Y-54749868D01*
X164374526Y-54800973D01*
X164374526Y-54800974D01*
X165053553Y-55480000D01*
X165047339Y-55480000D01*
X164945606Y-55507259D01*
X164854394Y-55559920D01*
X164779920Y-55634394D01*
X164727259Y-55725606D01*
X164700000Y-55827339D01*
X164700000Y-55833552D01*
X164015799Y-55149351D01*
X163966805Y-55139505D01*
X163916622Y-55090889D01*
X163901981Y-55035366D01*
X163900900Y-55035423D01*
X163900854Y-55035429D01*
X163900853Y-55035426D01*
X163900676Y-55035436D01*
X163900499Y-55032135D01*
X163900499Y-55032128D01*
X163894091Y-54972517D01*
X163887787Y-54955616D01*
X163843797Y-54837671D01*
X163843793Y-54837664D01*
X163757547Y-54722455D01*
X163757544Y-54722452D01*
X163642335Y-54636206D01*
X163642328Y-54636202D01*
X163507482Y-54585908D01*
X163507483Y-54585908D01*
X163447883Y-54579501D01*
X163447881Y-54579500D01*
X163447873Y-54579500D01*
X163447864Y-54579500D01*
X161752129Y-54579500D01*
X161752123Y-54579501D01*
X161692516Y-54585908D01*
X161557671Y-54636202D01*
X161557664Y-54636206D01*
X161442455Y-54722452D01*
X161442452Y-54722455D01*
X161356206Y-54837664D01*
X161356202Y-54837671D01*
X161305908Y-54972517D01*
X161304126Y-54980062D01*
X161301853Y-54979525D01*
X161279571Y-55033312D01*
X161222177Y-55073157D01*
X161183024Y-55079500D01*
X161039337Y-55079500D01*
X160972298Y-55059815D01*
X160951656Y-55043181D01*
X160826881Y-54918406D01*
X160826877Y-54918402D01*
X160659173Y-54800974D01*
X160647638Y-54792897D01*
X160521527Y-54734091D01*
X160449330Y-54700425D01*
X160449326Y-54700424D01*
X160449322Y-54700422D01*
X160237977Y-54643793D01*
X160020002Y-54624723D01*
X160019998Y-54624723D01*
X159892140Y-54635909D01*
X159802023Y-54643793D01*
X159802020Y-54643793D01*
X159590677Y-54700422D01*
X159590670Y-54700424D01*
X159590670Y-54700425D01*
X159570428Y-54709864D01*
X159392361Y-54792898D01*
X159392357Y-54792900D01*
X159213121Y-54918402D01*
X159058402Y-55073121D01*
X158932900Y-55252357D01*
X158932900Y-55252358D01*
X158862105Y-55404176D01*
X158815932Y-55456615D01*
X158748738Y-55475766D01*
X158681857Y-55455550D01*
X158637341Y-55404174D01*
X158566669Y-55252617D01*
X158523123Y-55190428D01*
X157880000Y-55833551D01*
X157880000Y-55827339D01*
X157852741Y-55725606D01*
X157800080Y-55634394D01*
X157725606Y-55559920D01*
X157634394Y-55507259D01*
X157532661Y-55480000D01*
X157526447Y-55480000D01*
X158169571Y-54836874D01*
X158107387Y-54793333D01*
X157909159Y-54700898D01*
X157909150Y-54700894D01*
X157697894Y-54644289D01*
X157697884Y-54644287D01*
X157480001Y-54625225D01*
X157479999Y-54625225D01*
X157262115Y-54644287D01*
X157262105Y-54644289D01*
X157050849Y-54700894D01*
X157050840Y-54700898D01*
X156852614Y-54793332D01*
X156852612Y-54793333D01*
X156790428Y-54836875D01*
X156790427Y-54836875D01*
X157433554Y-55480000D01*
X157427339Y-55480000D01*
X157325606Y-55507259D01*
X157234394Y-55559920D01*
X157159920Y-55634394D01*
X157107259Y-55725606D01*
X157080000Y-55827339D01*
X157080000Y-55833552D01*
X156436875Y-55190427D01*
X156436874Y-55190428D01*
X156416074Y-55220135D01*
X156361497Y-55263760D01*
X156291999Y-55270954D01*
X156229644Y-55239431D01*
X156194230Y-55179202D01*
X156190499Y-55149012D01*
X156190499Y-55082129D01*
X156190498Y-55082123D01*
X156189911Y-55076666D01*
X156184091Y-55022517D01*
X156177235Y-55004136D01*
X156133797Y-54887671D01*
X156133793Y-54887664D01*
X156047547Y-54772455D01*
X156047544Y-54772452D01*
X155932335Y-54686206D01*
X155932329Y-54686203D01*
X155821166Y-54644741D01*
X155765233Y-54602869D01*
X155740816Y-54537405D01*
X155740645Y-54532629D01*
X155740500Y-54531154D01*
X155737580Y-54516480D01*
X155737579Y-54516479D01*
X155737578Y-54516470D01*
X155709737Y-54376503D01*
X155708664Y-54373913D01*
X155697716Y-54347483D01*
X155678708Y-54301593D01*
X155649394Y-54230821D01*
X155649392Y-54230819D01*
X155649392Y-54230817D01*
X155561790Y-54099712D01*
X155561789Y-54099711D01*
X155450289Y-53988211D01*
X154997112Y-53535034D01*
X154180292Y-52718213D01*
X154180288Y-52718210D01*
X154049185Y-52630609D01*
X154049172Y-52630602D01*
X153903501Y-52570264D01*
X153903489Y-52570261D01*
X153748845Y-52539500D01*
X153748842Y-52539500D01*
X153490049Y-52539500D01*
X153423010Y-52519815D01*
X153402368Y-52503181D01*
X153239141Y-52339954D01*
X153052734Y-52209432D01*
X153052732Y-52209431D01*
X152846497Y-52113261D01*
X152846488Y-52113258D01*
X152626697Y-52054366D01*
X152626693Y-52054365D01*
X152626692Y-52054365D01*
X152626691Y-52054364D01*
X152626686Y-52054364D01*
X152400002Y-52034532D01*
X152399998Y-52034532D01*
X152173313Y-52054364D01*
X152173302Y-52054366D01*
X151953511Y-52113258D01*
X151953502Y-52113261D01*
X151747267Y-52209431D01*
X151747265Y-52209432D01*
X151560858Y-52339954D01*
X151397632Y-52503181D01*
X151336309Y-52536666D01*
X151309951Y-52539500D01*
X150950049Y-52539500D01*
X150883010Y-52519815D01*
X150862368Y-52503181D01*
X150699141Y-52339954D01*
X150512734Y-52209432D01*
X150512732Y-52209431D01*
X150306497Y-52113261D01*
X150306488Y-52113258D01*
X150086697Y-52054366D01*
X150086693Y-52054365D01*
X150086692Y-52054365D01*
X150086691Y-52054364D01*
X150086686Y-52054364D01*
X149860002Y-52034532D01*
X149859998Y-52034532D01*
X149633313Y-52054364D01*
X149633302Y-52054366D01*
X149413511Y-52113258D01*
X149413502Y-52113261D01*
X149207267Y-52209431D01*
X149207265Y-52209432D01*
X149020858Y-52339954D01*
X148859954Y-52500858D01*
X148729432Y-52687265D01*
X148729431Y-52687267D01*
X148633261Y-52893502D01*
X148633258Y-52893511D01*
X148574366Y-53113302D01*
X148574364Y-53113313D01*
X148554532Y-53339998D01*
X148554532Y-53340001D01*
X148574364Y-53566686D01*
X148574366Y-53566697D01*
X148633258Y-53786488D01*
X148633261Y-53786497D01*
X148729431Y-53992732D01*
X148729432Y-53992734D01*
X148859954Y-54179141D01*
X149023181Y-54342368D01*
X149056666Y-54403691D01*
X149059500Y-54430049D01*
X149059500Y-54955500D01*
X149039815Y-55022539D01*
X148987011Y-55068294D01*
X148935500Y-55079500D01*
X148410049Y-55079500D01*
X148343010Y-55059815D01*
X148322368Y-55043181D01*
X148159141Y-54879954D01*
X147972734Y-54749432D01*
X147972732Y-54749431D01*
X147766497Y-54653261D01*
X147766488Y-54653258D01*
X147546697Y-54594366D01*
X147546693Y-54594365D01*
X147546692Y-54594365D01*
X147546691Y-54594364D01*
X147546686Y-54594364D01*
X147320002Y-54574532D01*
X147319998Y-54574532D01*
X147093313Y-54594364D01*
X147093302Y-54594366D01*
X146873511Y-54653258D01*
X146873502Y-54653261D01*
X146667267Y-54749431D01*
X146667265Y-54749432D01*
X146480858Y-54879954D01*
X146319954Y-55040858D01*
X146189432Y-55227265D01*
X146189431Y-55227267D01*
X146093261Y-55433502D01*
X146093258Y-55433511D01*
X146034366Y-55653302D01*
X146034364Y-55653313D01*
X146014532Y-55879998D01*
X146014532Y-55880001D01*
X146034364Y-56106686D01*
X146034366Y-56106697D01*
X146093258Y-56326488D01*
X146093261Y-56326497D01*
X146189431Y-56532732D01*
X146189432Y-56532734D01*
X146319954Y-56719141D01*
X146480858Y-56880045D01*
X146480861Y-56880047D01*
X146667266Y-57010568D01*
X146725275Y-57037618D01*
X146777714Y-57083791D01*
X146796866Y-57150984D01*
X146776650Y-57217865D01*
X146725275Y-57262382D01*
X146667267Y-57289431D01*
X146667265Y-57289432D01*
X146480858Y-57419954D01*
X146319954Y-57580858D01*
X146189432Y-57767265D01*
X146189431Y-57767267D01*
X146093261Y-57973502D01*
X146093258Y-57973511D01*
X146034366Y-58193302D01*
X146034364Y-58193313D01*
X146014532Y-58419998D01*
X146014532Y-58420001D01*
X146034364Y-58646686D01*
X146034366Y-58646697D01*
X146045209Y-58687163D01*
X146043546Y-58757013D01*
X146013115Y-58806937D01*
X144274722Y-60545331D01*
X144274718Y-60545336D01*
X144251010Y-60580820D01*
X144251010Y-60580821D01*
X144203534Y-60651874D01*
X144154499Y-60770255D01*
X144154497Y-60770261D01*
X144129500Y-60895928D01*
X144129500Y-69862278D01*
X144109815Y-69929317D01*
X144076623Y-69963853D01*
X143908597Y-70081505D01*
X143741505Y-70248597D01*
X143611575Y-70434158D01*
X143556998Y-70477783D01*
X143487500Y-70484977D01*
X143425145Y-70453454D01*
X143408425Y-70434158D01*
X143278494Y-70248597D01*
X143111404Y-70081508D01*
X143111401Y-70081505D01*
X143093374Y-70068882D01*
X143049751Y-70014306D01*
X143040500Y-69967309D01*
X143040500Y-57071161D01*
X143040500Y-57071158D01*
X143037823Y-57057702D01*
X143009737Y-56916503D01*
X142991442Y-56872335D01*
X142949397Y-56770827D01*
X142949390Y-56770814D01*
X142861790Y-56639712D01*
X142811472Y-56589394D01*
X142750289Y-56528211D01*
X142154739Y-55932661D01*
X141480291Y-55258212D01*
X141480288Y-55258210D01*
X141349185Y-55170609D01*
X141349172Y-55170602D01*
X141203501Y-55110264D01*
X141203491Y-55110261D01*
X141094006Y-55088483D01*
X141032095Y-55056098D01*
X140997521Y-54995382D01*
X140994908Y-54980117D01*
X140994091Y-54972516D01*
X140943797Y-54837671D01*
X140943793Y-54837664D01*
X140857547Y-54722455D01*
X140857544Y-54722452D01*
X140742335Y-54636206D01*
X140742328Y-54636202D01*
X140607482Y-54585908D01*
X140599938Y-54584126D01*
X140600474Y-54581853D01*
X140546688Y-54559571D01*
X140506843Y-54502177D01*
X140500500Y-54463024D01*
X140500500Y-54430049D01*
X140520185Y-54363010D01*
X140536819Y-54342368D01*
X140700045Y-54179141D01*
X140700047Y-54179139D01*
X140830568Y-53992734D01*
X140926739Y-53786496D01*
X140985635Y-53566692D01*
X141005468Y-53340000D01*
X141005467Y-53339994D01*
X140999801Y-53275230D01*
X140985635Y-53113308D01*
X140940916Y-52946415D01*
X140926741Y-52893511D01*
X140926738Y-52893502D01*
X140844998Y-52718211D01*
X140830568Y-52687266D01*
X140713319Y-52519815D01*
X140700045Y-52500858D01*
X140539141Y-52339954D01*
X140352734Y-52209432D01*
X140352732Y-52209431D01*
X140146497Y-52113261D01*
X140146488Y-52113258D01*
X139926697Y-52054366D01*
X139926693Y-52054365D01*
X139926692Y-52054365D01*
X139926691Y-52054364D01*
X139926686Y-52054364D01*
X139700002Y-52034532D01*
X139699998Y-52034532D01*
X139473313Y-52054364D01*
X139473302Y-52054366D01*
X139253511Y-52113258D01*
X139253502Y-52113261D01*
X139047267Y-52209431D01*
X139047265Y-52209432D01*
X138860858Y-52339954D01*
X138699954Y-52500858D01*
X138569432Y-52687265D01*
X138569431Y-52687267D01*
X138473261Y-52893502D01*
X138473258Y-52893511D01*
X138414366Y-53113302D01*
X138414364Y-53113313D01*
X138394532Y-53339998D01*
X138394532Y-53340001D01*
X138414364Y-53566686D01*
X138414366Y-53566697D01*
X138473258Y-53786488D01*
X138473261Y-53786497D01*
X138569431Y-53992732D01*
X138569432Y-53992734D01*
X138699954Y-54179141D01*
X138863181Y-54342368D01*
X138896666Y-54403691D01*
X138899500Y-54430049D01*
X138899500Y-54463023D01*
X138879815Y-54530062D01*
X138827011Y-54575817D01*
X138799865Y-54583266D01*
X138800068Y-54584124D01*
X138792520Y-54585907D01*
X138657671Y-54636202D01*
X138657664Y-54636206D01*
X138542455Y-54722452D01*
X138542452Y-54722455D01*
X138456206Y-54837664D01*
X138456202Y-54837671D01*
X138405908Y-54972517D01*
X138402509Y-55004136D01*
X138399501Y-55032123D01*
X138399500Y-55032135D01*
X138399500Y-56727870D01*
X138399501Y-56727876D01*
X138405908Y-56787483D01*
X138456202Y-56922328D01*
X138456206Y-56922335D01*
X138542452Y-57037544D01*
X138542455Y-57037547D01*
X138657664Y-57123793D01*
X138657671Y-57123797D01*
X138675643Y-57130500D01*
X138792517Y-57174091D01*
X138827596Y-57177862D01*
X138892144Y-57204599D01*
X138931993Y-57261991D01*
X138934488Y-57331816D01*
X138898836Y-57391905D01*
X138885464Y-57402725D01*
X138860858Y-57419954D01*
X138697632Y-57583181D01*
X138636309Y-57616666D01*
X138609951Y-57619500D01*
X138351155Y-57619500D01*
X138196508Y-57650261D01*
X138196498Y-57650264D01*
X138050823Y-57710604D01*
X137925266Y-57794498D01*
X137925266Y-57794499D01*
X137919714Y-57798209D01*
X137919711Y-57798211D01*
X137919707Y-57798214D01*
X137190061Y-58527861D01*
X136649711Y-59068211D01*
X136593960Y-59123962D01*
X136538209Y-59179712D01*
X136450609Y-59310814D01*
X136450602Y-59310827D01*
X136390264Y-59456498D01*
X136390261Y-59456510D01*
X136359500Y-59611153D01*
X136359500Y-62409951D01*
X136339815Y-62476990D01*
X136323181Y-62497632D01*
X136159954Y-62660858D01*
X136029432Y-62847265D01*
X136029431Y-62847267D01*
X135933261Y-63053502D01*
X135933258Y-63053511D01*
X135874366Y-63273302D01*
X135874364Y-63273313D01*
X135854532Y-63499998D01*
X135854532Y-63500000D01*
X135863441Y-63601838D01*
X135849674Y-63670338D01*
X135827594Y-63700326D01*
X135544383Y-63983537D01*
X135483060Y-64017022D01*
X135413368Y-64012038D01*
X135357435Y-63970166D01*
X135333018Y-63904702D01*
X135342140Y-63848406D01*
X135377655Y-63762666D01*
X135389737Y-63733498D01*
X135420500Y-63578843D01*
X135420500Y-63421158D01*
X135420500Y-63421157D01*
X135420500Y-59771439D01*
X135440185Y-59704400D01*
X135492989Y-59658645D01*
X135501168Y-59655257D01*
X135508515Y-59652517D01*
X135612331Y-59613796D01*
X135727546Y-59527546D01*
X135813796Y-59412331D01*
X135864091Y-59277483D01*
X135870500Y-59217873D01*
X135870499Y-57622128D01*
X135864091Y-57562517D01*
X135861976Y-57556847D01*
X135813797Y-57427671D01*
X135813793Y-57427664D01*
X135727547Y-57312455D01*
X135727544Y-57312452D01*
X135612335Y-57226206D01*
X135612328Y-57226202D01*
X135477482Y-57175908D01*
X135477483Y-57175908D01*
X135417883Y-57169501D01*
X135417881Y-57169500D01*
X135417873Y-57169500D01*
X135417865Y-57169500D01*
X135351862Y-57169500D01*
X135284823Y-57149815D01*
X135239068Y-57097011D01*
X135229124Y-57027853D01*
X135258149Y-56964297D01*
X135280734Y-56943928D01*
X135426877Y-56841598D01*
X135581598Y-56686877D01*
X135707102Y-56507639D01*
X135799575Y-56309330D01*
X135856207Y-56097977D01*
X135875277Y-55880000D01*
X135856207Y-55662023D01*
X135807434Y-55480000D01*
X135799577Y-55450677D01*
X135799576Y-55450676D01*
X135799575Y-55450670D01*
X135707102Y-55252362D01*
X135707100Y-55252359D01*
X135707099Y-55252357D01*
X135581599Y-55073124D01*
X135512611Y-55004136D01*
X135426877Y-54918402D01*
X135247639Y-54792898D01*
X135096414Y-54722381D01*
X135043977Y-54676210D01*
X135024825Y-54609016D01*
X135045041Y-54542135D01*
X135096414Y-54497618D01*
X135247639Y-54427102D01*
X135426877Y-54301598D01*
X135581598Y-54146877D01*
X135707102Y-53967639D01*
X135799575Y-53769330D01*
X135856207Y-53557977D01*
X135875277Y-53340000D01*
X135875276Y-53339994D01*
X135871569Y-53297618D01*
X135856207Y-53122023D01*
X135799575Y-52910670D01*
X135707102Y-52712362D01*
X135707100Y-52712359D01*
X135707099Y-52712357D01*
X135581599Y-52533124D01*
X135525322Y-52476847D01*
X135426877Y-52378402D01*
X135247639Y-52252898D01*
X135247640Y-52252898D01*
X135247638Y-52252897D01*
X135129189Y-52197664D01*
X135049330Y-52160425D01*
X135049326Y-52160424D01*
X135049322Y-52160422D01*
X134837977Y-52103793D01*
X134620002Y-52084723D01*
X134619998Y-52084723D01*
X134474682Y-52097436D01*
X134402023Y-52103793D01*
X134402020Y-52103793D01*
X134190677Y-52160422D01*
X134190668Y-52160426D01*
X133992361Y-52252898D01*
X133992357Y-52252900D01*
X133813124Y-52378400D01*
X133750734Y-52440790D01*
X133688342Y-52503182D01*
X133627022Y-52536666D01*
X133600663Y-52539500D01*
X133271154Y-52539500D01*
X133116509Y-52570261D01*
X133116497Y-52570264D01*
X133073832Y-52587936D01*
X133073833Y-52587937D01*
X132970823Y-52630604D01*
X132970815Y-52630609D01*
X132848468Y-52712359D01*
X132848465Y-52712362D01*
X132839821Y-52718137D01*
X132839704Y-52718216D01*
X132839703Y-52718218D01*
X130580879Y-54977042D01*
X130519556Y-55010527D01*
X130449864Y-55005543D01*
X130405517Y-54977042D01*
X130346881Y-54918406D01*
X130346877Y-54918402D01*
X130167639Y-54792898D01*
X130016414Y-54722381D01*
X129963977Y-54676210D01*
X129944825Y-54609016D01*
X129965041Y-54542135D01*
X130016414Y-54497618D01*
X130167639Y-54427102D01*
X130346877Y-54301598D01*
X130501598Y-54146877D01*
X130627102Y-53967639D01*
X130719575Y-53769330D01*
X130776207Y-53557977D01*
X130795277Y-53340000D01*
X130795276Y-53339994D01*
X130791569Y-53297618D01*
X130776207Y-53122023D01*
X130719575Y-52910670D01*
X130627102Y-52712362D01*
X130627100Y-52712359D01*
X130627099Y-52712357D01*
X130501599Y-52533124D01*
X130445322Y-52476847D01*
X130346877Y-52378402D01*
X130167639Y-52252898D01*
X130167640Y-52252898D01*
X130167638Y-52252897D01*
X130049189Y-52197664D01*
X129969330Y-52160425D01*
X129969326Y-52160424D01*
X129969322Y-52160422D01*
X129757977Y-52103793D01*
X129540002Y-52084723D01*
X129539998Y-52084723D01*
X129394682Y-52097436D01*
X129322023Y-52103793D01*
X129322020Y-52103793D01*
X129110677Y-52160422D01*
X129110668Y-52160426D01*
X128912361Y-52252898D01*
X128912357Y-52252900D01*
X128733124Y-52378400D01*
X128670734Y-52440790D01*
X128608342Y-52503182D01*
X128547022Y-52536666D01*
X128520663Y-52539500D01*
X125550049Y-52539500D01*
X125483010Y-52519815D01*
X125462368Y-52503181D01*
X125299141Y-52339954D01*
X125112734Y-52209432D01*
X125112732Y-52209431D01*
X124906497Y-52113261D01*
X124906488Y-52113258D01*
X124686697Y-52054366D01*
X124686693Y-52054365D01*
X124686692Y-52054365D01*
X124686691Y-52054364D01*
X124686686Y-52054364D01*
X124460002Y-52034532D01*
X124459998Y-52034532D01*
X124233313Y-52054364D01*
X124233302Y-52054366D01*
X124013511Y-52113258D01*
X124013502Y-52113261D01*
X123807267Y-52209431D01*
X123807265Y-52209432D01*
X123620858Y-52339954D01*
X123457632Y-52503181D01*
X123396309Y-52536666D01*
X123369951Y-52539500D01*
X123137018Y-52539500D01*
X123069979Y-52519815D01*
X123033209Y-52483321D01*
X123028980Y-52476849D01*
X123028979Y-52476847D01*
X122871784Y-52306087D01*
X122871779Y-52306083D01*
X122871777Y-52306081D01*
X122688634Y-52163535D01*
X122688628Y-52163531D01*
X122484504Y-52053064D01*
X122484495Y-52053061D01*
X122264984Y-51977702D01*
X122074450Y-51945908D01*
X122036049Y-51939500D01*
X121803951Y-51939500D01*
X121765550Y-51945908D01*
X121575015Y-51977702D01*
X121355504Y-52053061D01*
X121355495Y-52053064D01*
X121151371Y-52163531D01*
X121151365Y-52163535D01*
X120968222Y-52306081D01*
X120968219Y-52306084D01*
X120968216Y-52306086D01*
X120968216Y-52306087D01*
X120943886Y-52332517D01*
X120811016Y-52476852D01*
X120684075Y-52671151D01*
X120590842Y-52883699D01*
X120533866Y-53108691D01*
X120533864Y-53108702D01*
X120514700Y-53339993D01*
X120514700Y-53339994D01*
X120514700Y-53340000D01*
X120530861Y-53535034D01*
X120516779Y-53603470D01*
X120494965Y-53632955D01*
X119263423Y-54864499D01*
X118869711Y-55258211D01*
X118813960Y-55313962D01*
X118758209Y-55369712D01*
X118670609Y-55500814D01*
X118670602Y-55500827D01*
X118610264Y-55646498D01*
X118610261Y-55646510D01*
X118579500Y-55801153D01*
X118579500Y-62943217D01*
X118559815Y-63010256D01*
X118507011Y-63056011D01*
X118437853Y-63065955D01*
X118374297Y-63036930D01*
X118337570Y-62981537D01*
X118335092Y-62973911D01*
X118335090Y-62973908D01*
X118335090Y-62973906D01*
X118283428Y-62872514D01*
X118237157Y-62781701D01*
X118110359Y-62607179D01*
X117957821Y-62454641D01*
X117783299Y-62327843D01*
X117591089Y-62229908D01*
X117385926Y-62163246D01*
X117385924Y-62163245D01*
X117385922Y-62163245D01*
X117172866Y-62129500D01*
X117172861Y-62129500D01*
X116652940Y-62129500D01*
X116585901Y-62109815D01*
X116565259Y-62093181D01*
X115136819Y-60664741D01*
X115103334Y-60603418D01*
X115100500Y-60577060D01*
X115100500Y-59632281D01*
X115120185Y-59565242D01*
X115148336Y-59534428D01*
X115251784Y-59453913D01*
X115408979Y-59283153D01*
X115535924Y-59088849D01*
X115629157Y-58876300D01*
X115686134Y-58651305D01*
X115686516Y-58646697D01*
X115705300Y-58420006D01*
X115705300Y-58419993D01*
X115686135Y-58188702D01*
X115686133Y-58188691D01*
X115629157Y-57963699D01*
X115535924Y-57751151D01*
X115408983Y-57556852D01*
X115408980Y-57556849D01*
X115408979Y-57556847D01*
X115251784Y-57386087D01*
X115251779Y-57386083D01*
X115251777Y-57386081D01*
X115148338Y-57305571D01*
X115107525Y-57248861D01*
X115100500Y-57207718D01*
X115100500Y-54864499D01*
X115120185Y-54797460D01*
X115172989Y-54751705D01*
X115224500Y-54740499D01*
X115247871Y-54740499D01*
X115247872Y-54740499D01*
X115307483Y-54734091D01*
X115442331Y-54683796D01*
X115557546Y-54597546D01*
X115643796Y-54482331D01*
X115694091Y-54347483D01*
X115700500Y-54287873D01*
X115700499Y-52392128D01*
X115694091Y-52332517D01*
X115684233Y-52306087D01*
X115643797Y-52197671D01*
X115643793Y-52197664D01*
X115557547Y-52082455D01*
X115557544Y-52082452D01*
X115442335Y-51996206D01*
X115442328Y-51996202D01*
X115307482Y-51945908D01*
X115307483Y-51945908D01*
X115247883Y-51939501D01*
X115247881Y-51939500D01*
X115247873Y-51939500D01*
X115247864Y-51939500D01*
X113352129Y-51939500D01*
X113352123Y-51939501D01*
X113292516Y-51945908D01*
X113157671Y-51996202D01*
X113157664Y-51996206D01*
X113042455Y-52082452D01*
X113042452Y-52082455D01*
X112956206Y-52197664D01*
X112956202Y-52197671D01*
X112905908Y-52332517D01*
X112899501Y-52392116D01*
X112899501Y-52392123D01*
X112899500Y-52392135D01*
X112899500Y-54287870D01*
X112899501Y-54287876D01*
X112905908Y-54347483D01*
X112956202Y-54482328D01*
X112956206Y-54482335D01*
X113042452Y-54597544D01*
X113042455Y-54597547D01*
X113157664Y-54683793D01*
X113157671Y-54683797D01*
X113202246Y-54700422D01*
X113292517Y-54734091D01*
X113352127Y-54740500D01*
X113375497Y-54740499D01*
X113442536Y-54760181D01*
X113488292Y-54812983D01*
X113499500Y-54864499D01*
X113499500Y-57207718D01*
X113479815Y-57274757D01*
X113451662Y-57305571D01*
X113348222Y-57386081D01*
X113348219Y-57386084D01*
X113348216Y-57386086D01*
X113348216Y-57386087D01*
X113323886Y-57412517D01*
X113191016Y-57556852D01*
X113064075Y-57751151D01*
X112970842Y-57963699D01*
X112913866Y-58188691D01*
X112913864Y-58188702D01*
X112894700Y-58419993D01*
X109010500Y-58419993D01*
X109010500Y-50394500D01*
X109030185Y-50327461D01*
X109082989Y-50281706D01*
X109134500Y-50270500D01*
X177885500Y-50270500D01*
X177952539Y-50290185D01*
G37*
%TD.AperFunction*%
%TD*%
M02*
