%TF.GenerationSoftware,KiCad,Pcbnew,8.0.7*%
%TF.CreationDate,2025-01-04T15:00:41+01:00*%
%TF.ProjectId,strober_board,7374726f-6265-4725-9f62-6f6172642e6b,rev?*%
%TF.SameCoordinates,Original*%
%TF.FileFunction,Soldermask,Top*%
%TF.FilePolarity,Negative*%
%FSLAX46Y46*%
G04 Gerber Fmt 4.6, Leading zero omitted, Abs format (unit mm)*
G04 Created by KiCad (PCBNEW 8.0.7) date 2025-01-04 15:00:41*
%MOMM*%
%LPD*%
G01*
G04 APERTURE LIST*
G04 Aperture macros list*
%AMRoundRect*
0 Rectangle with rounded corners*
0 $1 Rounding radius*
0 $2 $3 $4 $5 $6 $7 $8 $9 X,Y pos of 4 corners*
0 Add a 4 corners polygon primitive as box body*
4,1,4,$2,$3,$4,$5,$6,$7,$8,$9,$2,$3,0*
0 Add four circle primitives for the rounded corners*
1,1,$1+$1,$2,$3*
1,1,$1+$1,$4,$5*
1,1,$1+$1,$6,$7*
1,1,$1+$1,$8,$9*
0 Add four rect primitives between the rounded corners*
20,1,$1+$1,$2,$3,$4,$5,0*
20,1,$1+$1,$4,$5,$6,$7,0*
20,1,$1+$1,$6,$7,$8,$9,0*
20,1,$1+$1,$8,$9,$2,$3,0*%
G04 Aperture macros list end*
%ADD10R,1.800000X1.800000*%
%ADD11O,1.800000X1.800000*%
%ADD12C,1.600000*%
%ADD13O,1.600000X1.600000*%
%ADD14RoundRect,0.250000X-0.750000X0.600000X-0.750000X-0.600000X0.750000X-0.600000X0.750000X0.600000X0*%
%ADD15O,2.000000X1.700000*%
%ADD16R,1.500000X1.500000*%
%ADD17C,1.500000*%
%ADD18RoundRect,0.250000X-0.845000X0.620000X-0.845000X-0.620000X0.845000X-0.620000X0.845000X0.620000X0*%
%ADD19O,2.190000X1.740000*%
%ADD20RoundRect,0.250000X-0.600000X0.600000X-0.600000X-0.600000X0.600000X-0.600000X0.600000X0.600000X0*%
%ADD21C,1.700000*%
%ADD22R,2.400000X2.400000*%
%ADD23O,2.400000X2.400000*%
%ADD24C,2.400000*%
%ADD25R,1.600000X1.600000*%
%ADD26C,2.000000*%
G04 APERTURE END LIST*
D10*
%TO.C,D4*%
X114300000Y-76200000D03*
D11*
X121920000Y-76200000D03*
%TD*%
D12*
%TO.C,R2*%
X124460000Y-63500000D03*
D13*
X124460000Y-53340000D03*
%TD*%
D14*
%TO.C,J1*%
X116840000Y-63500000D03*
D15*
X116840000Y-66000000D03*
%TD*%
D16*
%TO.C,Q2*%
X134620000Y-58420000D03*
D17*
X132080000Y-58420000D03*
X129540000Y-58420000D03*
%TD*%
D16*
%TO.C,U1*%
X157480000Y-55880000D03*
D17*
X160020000Y-55880000D03*
X162560000Y-55880000D03*
%TD*%
D18*
%TO.C,J2*%
X172720000Y-55880000D03*
D19*
X172720000Y-58420000D03*
%TD*%
D20*
%TO.C,J4*%
X149860000Y-71120000D03*
D21*
X149860000Y-73660000D03*
X147320000Y-71120000D03*
X147320000Y-73660000D03*
X144780000Y-71120000D03*
X144780000Y-73660000D03*
%TD*%
D12*
%TO.C,R1*%
X124460000Y-76200000D03*
D13*
X124460000Y-66040000D03*
%TD*%
D12*
%TO.C,R3*%
X167640000Y-68580000D03*
D13*
X157480000Y-68580000D03*
%TD*%
D22*
%TO.C,D5*%
X157480000Y-60960000D03*
D23*
X167640000Y-60960000D03*
%TD*%
D16*
%TO.C,Q3*%
X162560000Y-73660000D03*
D17*
X160020000Y-73660000D03*
X157480000Y-73660000D03*
%TD*%
D24*
%TO.C,R5*%
X173990000Y-62230000D03*
D23*
X173990000Y-67310000D03*
%TD*%
D12*
%TO.C,C2*%
X154940000Y-55840000D03*
X154940000Y-53340000D03*
%TD*%
D10*
%TO.C,D2*%
X114300000Y-53340000D03*
D11*
X121920000Y-53340000D03*
%TD*%
D10*
%TO.C,D1*%
X121920000Y-58420000D03*
D11*
X114300000Y-58420000D03*
%TD*%
D25*
%TO.C,U2*%
X129540000Y-63500000D03*
D13*
X129540000Y-66040000D03*
X137160000Y-66040000D03*
X137160000Y-63500000D03*
%TD*%
D25*
%TO.C,U3*%
X142240000Y-55880000D03*
D13*
X142240000Y-58420000D03*
X142240000Y-60960000D03*
X142240000Y-63500000D03*
X149860000Y-63500000D03*
X149860000Y-60960000D03*
X149860000Y-58420000D03*
X149860000Y-55880000D03*
%TD*%
D10*
%TO.C,D3*%
X121920000Y-71120000D03*
D11*
X114300000Y-71120000D03*
%TD*%
D18*
%TO.C,J3*%
X172720000Y-71120000D03*
D19*
X172720000Y-73660000D03*
%TD*%
D16*
%TO.C,Q1*%
X134620000Y-53340000D03*
D17*
X132080000Y-53340000D03*
X129540000Y-53340000D03*
%TD*%
D26*
%TO.C,SW1*%
X135890000Y-75620000D03*
X129390000Y-75620000D03*
X135890000Y-71120000D03*
X129390000Y-71120000D03*
%TD*%
D10*
%TO.C,D6*%
X157480000Y-66040000D03*
D11*
X167640000Y-66040000D03*
%TD*%
D12*
%TO.C,R4*%
X152400000Y-53340000D03*
D13*
X142240000Y-53340000D03*
%TD*%
D25*
%TO.C,C1*%
X165140000Y-55880000D03*
D12*
X167640000Y-55880000D03*
%TD*%
%TO.C,C3*%
X152400000Y-66040000D03*
D13*
X142240000Y-66040000D03*
%TD*%
M02*
