%TF.GenerationSoftware,KiCad,Pcbnew,8.0.7*%
%TF.CreationDate,2025-01-04T15:00:41+01:00*%
%TF.ProjectId,strober_board,7374726f-6265-4725-9f62-6f6172642e6b,rev?*%
%TF.SameCoordinates,Original*%
%TF.FileFunction,Copper,L2,Bot*%
%TF.FilePolarity,Positive*%
%FSLAX46Y46*%
G04 Gerber Fmt 4.6, Leading zero omitted, Abs format (unit mm)*
G04 Created by KiCad (PCBNEW 8.0.7) date 2025-01-04 15:00:41*
%MOMM*%
%LPD*%
G01*
G04 APERTURE LIST*
G04 Aperture macros list*
%AMRoundRect*
0 Rectangle with rounded corners*
0 $1 Rounding radius*
0 $2 $3 $4 $5 $6 $7 $8 $9 X,Y pos of 4 corners*
0 Add a 4 corners polygon primitive as box body*
4,1,4,$2,$3,$4,$5,$6,$7,$8,$9,$2,$3,0*
0 Add four circle primitives for the rounded corners*
1,1,$1+$1,$2,$3*
1,1,$1+$1,$4,$5*
1,1,$1+$1,$6,$7*
1,1,$1+$1,$8,$9*
0 Add four rect primitives between the rounded corners*
20,1,$1+$1,$2,$3,$4,$5,0*
20,1,$1+$1,$4,$5,$6,$7,0*
20,1,$1+$1,$6,$7,$8,$9,0*
20,1,$1+$1,$8,$9,$2,$3,0*%
G04 Aperture macros list end*
%TA.AperFunction,ComponentPad*%
%ADD10R,1.800000X1.800000*%
%TD*%
%TA.AperFunction,ComponentPad*%
%ADD11O,1.800000X1.800000*%
%TD*%
%TA.AperFunction,ComponentPad*%
%ADD12C,1.600000*%
%TD*%
%TA.AperFunction,ComponentPad*%
%ADD13O,1.600000X1.600000*%
%TD*%
%TA.AperFunction,ComponentPad*%
%ADD14RoundRect,0.250000X-0.750000X0.600000X-0.750000X-0.600000X0.750000X-0.600000X0.750000X0.600000X0*%
%TD*%
%TA.AperFunction,ComponentPad*%
%ADD15O,2.000000X1.700000*%
%TD*%
%TA.AperFunction,ComponentPad*%
%ADD16R,1.500000X1.500000*%
%TD*%
%TA.AperFunction,ComponentPad*%
%ADD17C,1.500000*%
%TD*%
%TA.AperFunction,ComponentPad*%
%ADD18RoundRect,0.250000X-0.845000X0.620000X-0.845000X-0.620000X0.845000X-0.620000X0.845000X0.620000X0*%
%TD*%
%TA.AperFunction,ComponentPad*%
%ADD19O,2.190000X1.740000*%
%TD*%
%TA.AperFunction,ComponentPad*%
%ADD20RoundRect,0.250000X-0.600000X0.600000X-0.600000X-0.600000X0.600000X-0.600000X0.600000X0.600000X0*%
%TD*%
%TA.AperFunction,ComponentPad*%
%ADD21C,1.700000*%
%TD*%
%TA.AperFunction,ComponentPad*%
%ADD22R,2.400000X2.400000*%
%TD*%
%TA.AperFunction,ComponentPad*%
%ADD23O,2.400000X2.400000*%
%TD*%
%TA.AperFunction,ComponentPad*%
%ADD24C,2.400000*%
%TD*%
%TA.AperFunction,ComponentPad*%
%ADD25R,1.600000X1.600000*%
%TD*%
%TA.AperFunction,ComponentPad*%
%ADD26C,2.000000*%
%TD*%
%TA.AperFunction,Conductor*%
%ADD27C,0.600000*%
%TD*%
%TA.AperFunction,Conductor*%
%ADD28C,0.300000*%
%TD*%
G04 APERTURE END LIST*
D10*
%TO.P,D4,1,K*%
%TO.N,Net-(D3-A)*%
X114300000Y-76200000D03*
D11*
%TO.P,D4,2,A*%
%TO.N,Net-(D2-A)*%
X121920000Y-76200000D03*
%TD*%
D12*
%TO.P,R2,1*%
%TO.N,Net-(Q1-B)*%
X124460000Y-63500000D03*
D13*
%TO.P,R2,2*%
%TO.N,Net-(D2-A)*%
X124460000Y-53340000D03*
%TD*%
D14*
%TO.P,J1,1,Pin_1*%
%TO.N,Net-(D1-A)*%
X116840000Y-63500000D03*
D15*
%TO.P,J1,2,Pin_2*%
%TO.N,Net-(D3-A)*%
X116840000Y-66000000D03*
%TD*%
D16*
%TO.P,Q2,1,C*%
%TO.N,Net-(Q2-C)*%
X134620000Y-58420000D03*
D17*
%TO.P,Q2,2,B*%
%TO.N,Net-(Q1-C)*%
X132080000Y-58420000D03*
%TO.P,Q2,3,E*%
%TO.N,Net-(Q1-B)*%
X129540000Y-58420000D03*
%TD*%
D16*
%TO.P,U1,1,VO*%
%TO.N,+5V*%
X157480000Y-55880000D03*
D17*
%TO.P,U1,2,GND*%
%TO.N,GND*%
X160020000Y-55880000D03*
%TO.P,U1,3,VI*%
%TO.N,Net-(D5-K)*%
X162560000Y-55880000D03*
%TD*%
D18*
%TO.P,J2,1,Pin_1*%
%TO.N,GND*%
X172720000Y-55880000D03*
D19*
%TO.P,J2,2,Pin_2*%
%TO.N,+12V*%
X172720000Y-58420000D03*
%TD*%
D20*
%TO.P,J4,1,MISO*%
%TO.N,/MISO*%
X149860000Y-71120000D03*
D21*
%TO.P,J4,2,VCC*%
%TO.N,+5V*%
X149860000Y-73660000D03*
%TO.P,J4,3,SCK*%
%TO.N,/SCK*%
X147320000Y-71120000D03*
%TO.P,J4,4,MOSI*%
%TO.N,/MOSI*%
X147320000Y-73660000D03*
%TO.P,J4,5,~{RST}*%
%TO.N,/~{RST}*%
X144780000Y-71120000D03*
%TO.P,J4,6,GND*%
%TO.N,GND*%
X144780000Y-73660000D03*
%TD*%
D12*
%TO.P,R1,1*%
%TO.N,Net-(D1-K)*%
X124460000Y-76200000D03*
D13*
%TO.P,R1,2*%
%TO.N,Net-(Q1-C)*%
X124460000Y-66040000D03*
%TD*%
D12*
%TO.P,R3,1*%
%TO.N,/LED_{out}*%
X167640000Y-68580000D03*
D13*
%TO.P,R3,2*%
%TO.N,GND*%
X157480000Y-68580000D03*
%TD*%
D22*
%TO.P,D5,1,K*%
%TO.N,Net-(D5-K)*%
X157480000Y-60960000D03*
D23*
%TO.P,D5,2,A*%
%TO.N,+12V*%
X167640000Y-60960000D03*
%TD*%
D16*
%TO.P,Q3,1,D*%
%TO.N,Net-(D6-A)*%
X162560000Y-73660000D03*
D17*
%TO.P,Q3,2,G*%
%TO.N,/LED_{out}*%
X160020000Y-73660000D03*
%TO.P,Q3,3,S*%
%TO.N,GND*%
X157480000Y-73660000D03*
%TD*%
D24*
%TO.P,R5,1*%
%TO.N,+12V*%
X173990000Y-62230000D03*
D23*
%TO.P,R5,2*%
%TO.N,Net-(D6-K)*%
X173990000Y-67310000D03*
%TD*%
D12*
%TO.P,C2,1*%
%TO.N,GND*%
X154940000Y-55840000D03*
%TO.P,C2,2*%
%TO.N,+5V*%
X154940000Y-53340000D03*
%TD*%
D10*
%TO.P,D2,1,K*%
%TO.N,Net-(D1-A)*%
X114300000Y-53340000D03*
D11*
%TO.P,D2,2,A*%
%TO.N,Net-(D2-A)*%
X121920000Y-53340000D03*
%TD*%
D10*
%TO.P,D1,1,K*%
%TO.N,Net-(D1-K)*%
X121920000Y-58420000D03*
D11*
%TO.P,D1,2,A*%
%TO.N,Net-(D1-A)*%
X114300000Y-58420000D03*
%TD*%
D25*
%TO.P,U2,1*%
%TO.N,Net-(D1-K)*%
X129540000Y-63500000D03*
D13*
%TO.P,U2,2*%
%TO.N,Net-(Q2-C)*%
X129540000Y-66040000D03*
%TO.P,U2,3*%
%TO.N,GND*%
X137160000Y-66040000D03*
%TO.P,U2,4*%
%TO.N,/Trigg_{in}*%
X137160000Y-63500000D03*
%TD*%
D25*
%TO.P,U3,1,~{RESET}/PB5*%
%TO.N,/~{RST}*%
X142240000Y-55880000D03*
D13*
%TO.P,U3,2,XTAL1/PB3*%
%TO.N,/Trigg_{in}*%
X142240000Y-58420000D03*
%TO.P,U3,3,XTAL2/PB4*%
%TO.N,/LED_{out}*%
X142240000Y-60960000D03*
%TO.P,U3,4,GND*%
%TO.N,GND*%
X142240000Y-63500000D03*
%TO.P,U3,5,AREF/PB0*%
%TO.N,/MOSI*%
X149860000Y-63500000D03*
%TO.P,U3,6,PB1*%
%TO.N,/MISO*%
X149860000Y-60960000D03*
%TO.P,U3,7,PB2*%
%TO.N,/SCK*%
X149860000Y-58420000D03*
%TO.P,U3,8,VCC*%
%TO.N,+5V*%
X149860000Y-55880000D03*
%TD*%
D10*
%TO.P,D3,1,K*%
%TO.N,Net-(D1-K)*%
X121920000Y-71120000D03*
D11*
%TO.P,D3,2,A*%
%TO.N,Net-(D3-A)*%
X114300000Y-71120000D03*
%TD*%
D18*
%TO.P,J3,1,Pin_1*%
%TO.N,Net-(D6-K)*%
X172720000Y-71120000D03*
D19*
%TO.P,J3,2,Pin_2*%
%TO.N,Net-(D6-A)*%
X172720000Y-73660000D03*
%TD*%
D16*
%TO.P,Q1,1,C*%
%TO.N,Net-(Q1-C)*%
X134620000Y-53340000D03*
D17*
%TO.P,Q1,2,B*%
%TO.N,Net-(Q1-B)*%
X132080000Y-53340000D03*
%TO.P,Q1,3,E*%
%TO.N,Net-(D2-A)*%
X129540000Y-53340000D03*
%TD*%
D26*
%TO.P,SW1,1,1*%
%TO.N,GND*%
X135890000Y-75620000D03*
X129390000Y-75620000D03*
%TO.P,SW1,2,2*%
%TO.N,/Trigg_{in}*%
X135890000Y-71120000D03*
X129390000Y-71120000D03*
%TD*%
D10*
%TO.P,D6,1,K*%
%TO.N,Net-(D6-K)*%
X157480000Y-66040000D03*
D11*
%TO.P,D6,2,A*%
%TO.N,Net-(D6-A)*%
X167640000Y-66040000D03*
%TD*%
D12*
%TO.P,R4,1*%
%TO.N,+5V*%
X152400000Y-53340000D03*
D13*
%TO.P,R4,2*%
%TO.N,/~{RST}*%
X142240000Y-53340000D03*
%TD*%
D25*
%TO.P,C1,1*%
%TO.N,Net-(D5-K)*%
X165140000Y-55880000D03*
D12*
%TO.P,C1,2*%
%TO.N,GND*%
X167640000Y-55880000D03*
%TD*%
%TO.P,C3,1*%
%TO.N,+5V*%
X152400000Y-66040000D03*
D13*
%TO.P,C3,2*%
%TO.N,GND*%
X142240000Y-66040000D03*
%TD*%
D27*
%TO.N,GND*%
X144780000Y-73660000D02*
X144780000Y-76200000D01*
X157480000Y-73660000D02*
X157480000Y-68580000D01*
X154940000Y-58420000D02*
X154940000Y-67310000D01*
X167600000Y-55880000D02*
X167600000Y-53380000D01*
X154940000Y-76200000D02*
X157480000Y-73660000D01*
X158750000Y-58420000D02*
X154940000Y-58420000D01*
X154940000Y-58420000D02*
X154940000Y-55840000D01*
X160020000Y-55880000D02*
X160020000Y-54610000D01*
X160020000Y-54610000D02*
X161290000Y-53340000D01*
X142240000Y-76200000D02*
X144780000Y-76200000D01*
X156210000Y-68580000D02*
X154940000Y-67310000D01*
X142240000Y-76200000D02*
X142240000Y-63500000D01*
X172720000Y-55880000D02*
X170180000Y-53340000D01*
X158750000Y-58420000D02*
X160020000Y-57150000D01*
X129390000Y-75620000D02*
X135890000Y-75620000D01*
X135890000Y-75620000D02*
X137850000Y-75620000D01*
X144780000Y-76200000D02*
X153670000Y-76200000D01*
X156210000Y-68580000D02*
X157480000Y-68580000D01*
X137160000Y-66040000D02*
X142240000Y-66040000D01*
X142240000Y-76200000D02*
X138430000Y-76200000D01*
X160020000Y-55880000D02*
X160020000Y-57150000D01*
X167640000Y-53340000D02*
X170180000Y-53340000D01*
X167600000Y-53380000D02*
X167640000Y-53340000D01*
X153670000Y-76200000D02*
X154940000Y-76200000D01*
X137850000Y-75620000D02*
X138430000Y-76200000D01*
X161290000Y-53340000D02*
X167640000Y-53340000D01*
%TO.N,+5V*%
X156210000Y-53340000D02*
X157480000Y-54610000D01*
X152400000Y-55880000D02*
X152400000Y-66040000D01*
X152400000Y-72390000D02*
X152400000Y-66040000D01*
X151130000Y-73660000D02*
X152400000Y-72390000D01*
X152400000Y-53340000D02*
X154940000Y-53340000D01*
X149860000Y-73660000D02*
X151130000Y-73660000D01*
X149860000Y-55880000D02*
X152400000Y-55880000D01*
X154940000Y-53340000D02*
X156210000Y-53340000D01*
X152400000Y-53340000D02*
X152400000Y-55880000D01*
X157480000Y-54610000D02*
X157480000Y-55880000D01*
%TO.N,Net-(D5-K)*%
X157480000Y-60960000D02*
X161290000Y-60960000D01*
X162560000Y-55880000D02*
X165100000Y-55880000D01*
X162560000Y-59690000D02*
X162560000Y-55880000D01*
X161290000Y-60960000D02*
X162560000Y-59690000D01*
%TO.N,Net-(D1-A)*%
X114300000Y-53340000D02*
X114300000Y-58420000D01*
X114300000Y-58420000D02*
X114300000Y-60960000D01*
X114300000Y-60960000D02*
X116840000Y-63500000D01*
%TO.N,Net-(D1-K)*%
X121920000Y-63500000D02*
X121920000Y-71120000D01*
X124460000Y-71120000D02*
X124460000Y-76200000D01*
X121920000Y-58420000D02*
X121920000Y-63500000D01*
X121920000Y-71120000D02*
X124460000Y-71120000D01*
X129540000Y-63500000D02*
X124460000Y-68580000D01*
X124460000Y-68580000D02*
X124460000Y-71120000D01*
%TO.N,Net-(D2-A)*%
X119380000Y-55880000D02*
X121920000Y-53340000D01*
X119380000Y-73660000D02*
X119380000Y-55880000D01*
X121920000Y-76200000D02*
X119380000Y-73660000D01*
X129540000Y-53340000D02*
X121920000Y-53340000D01*
%TO.N,Net-(D3-A)*%
X116840000Y-66040000D02*
X114300000Y-68580000D01*
X116840000Y-66000000D02*
X116840000Y-66040000D01*
X114300000Y-68580000D02*
X114300000Y-76200000D01*
%TO.N,+12V*%
X167640000Y-60960000D02*
X172720000Y-60960000D01*
X173990000Y-62230000D02*
X172720000Y-60960000D01*
X172720000Y-58420000D02*
X172720000Y-60960000D01*
%TO.N,Net-(D6-A)*%
X168910000Y-66040000D02*
X170180000Y-67310000D01*
X162560000Y-73660000D02*
X170180000Y-73660000D01*
X167640000Y-66040000D02*
X168910000Y-66040000D01*
X170180000Y-67310000D02*
X170180000Y-73660000D01*
X170180000Y-73660000D02*
X172720000Y-73660000D01*
%TO.N,Net-(Q1-C)*%
X134620000Y-53340000D02*
X132080000Y-55880000D01*
X132080000Y-55880000D02*
X132080000Y-58420000D01*
X132080000Y-58420000D02*
X124460000Y-66040000D01*
D28*
%TO.N,/MISO*%
X151130000Y-64770000D02*
X151130000Y-62230000D01*
X151130000Y-62230000D02*
X149860000Y-60960000D01*
X149860000Y-71120000D02*
X149860000Y-66040000D01*
X149860000Y-66040000D02*
X151130000Y-64770000D01*
%TO.N,/MOSI*%
X148590000Y-64770000D02*
X148590000Y-72390000D01*
X149860000Y-63500000D02*
X148590000Y-64770000D01*
X148590000Y-72390000D02*
X147320000Y-73660000D01*
%TO.N,/SCK*%
X147320000Y-71120000D02*
X147320000Y-60960000D01*
X147320000Y-60960000D02*
X149860000Y-58420000D01*
D27*
%TO.N,/~{RST}*%
X142240000Y-55880000D02*
X143510000Y-55880000D01*
X144780000Y-57150000D02*
X144780000Y-71120000D01*
X143510000Y-55880000D02*
X144780000Y-57150000D01*
X142240000Y-53340000D02*
X142240000Y-55880000D01*
%TO.N,Net-(Q1-B)*%
X132080000Y-53340000D02*
X129540000Y-55880000D01*
X129540000Y-55880000D02*
X129540000Y-58420000D01*
X124460000Y-63500000D02*
X129540000Y-58420000D01*
%TO.N,/LED_{out}*%
X160020000Y-69850000D02*
X161290000Y-68580000D01*
X160020000Y-69850000D02*
X160020000Y-73660000D01*
X167640000Y-68580000D02*
X161290000Y-68580000D01*
%TO.N,/Trigg_{in}*%
X137160000Y-59690000D02*
X137160000Y-63500000D01*
X135890000Y-68580000D02*
X134620000Y-67310000D01*
X135890000Y-71120000D02*
X135890000Y-68580000D01*
X129390000Y-71120000D02*
X135890000Y-71120000D01*
X137160000Y-63500000D02*
X134620000Y-66040000D01*
X142240000Y-58420000D02*
X138430000Y-58420000D01*
X137160000Y-59690000D02*
X138430000Y-58420000D01*
X134620000Y-67310000D02*
X134620000Y-66040000D01*
%TO.N,Net-(Q2-C)*%
X134620000Y-63500000D02*
X134620000Y-58420000D01*
X129540000Y-66040000D02*
X132080000Y-66040000D01*
X132080000Y-66040000D02*
X134620000Y-63500000D01*
%TO.N,Net-(D6-K)*%
X172720000Y-68580000D02*
X173990000Y-67310000D01*
X172720000Y-68580000D02*
X172720000Y-71120000D01*
X170180000Y-63500000D02*
X166370000Y-63500000D01*
X163830000Y-66040000D02*
X157480000Y-66040000D01*
X173990000Y-67310000D02*
X170180000Y-63500000D01*
X166370000Y-63500000D02*
X163830000Y-66040000D01*
%TD*%
%TA.AperFunction,Conductor*%
%TO.N,GND*%
G36*
X146134855Y-71786546D02*
G01*
X146151575Y-71805842D01*
X146281501Y-71991396D01*
X146281506Y-71991402D01*
X146448597Y-72158493D01*
X146448603Y-72158498D01*
X146634158Y-72288425D01*
X146677783Y-72343002D01*
X146684977Y-72412500D01*
X146653454Y-72474855D01*
X146634158Y-72491575D01*
X146448597Y-72621505D01*
X146281508Y-72788594D01*
X146151269Y-72974595D01*
X146096692Y-73018219D01*
X146027193Y-73025412D01*
X145964839Y-72993890D01*
X145948119Y-72974595D01*
X145894925Y-72898626D01*
X145262962Y-73530589D01*
X145245925Y-73467007D01*
X145180099Y-73352993D01*
X145087007Y-73259901D01*
X144972993Y-73194075D01*
X144909409Y-73177037D01*
X145541372Y-72545073D01*
X145541372Y-72545072D01*
X145465405Y-72491879D01*
X145421780Y-72437302D01*
X145414588Y-72367804D01*
X145446110Y-72305449D01*
X145465406Y-72288730D01*
X145489783Y-72271661D01*
X145651401Y-72158495D01*
X145818495Y-71991401D01*
X145948425Y-71805842D01*
X146003002Y-71762217D01*
X146072500Y-71755023D01*
X146134855Y-71786546D01*
G37*
%TD.AperFunction*%
%TA.AperFunction,Conductor*%
G36*
X142490000Y-65724314D02*
G01*
X142485606Y-65719920D01*
X142394394Y-65667259D01*
X142292661Y-65640000D01*
X142187339Y-65640000D01*
X142085606Y-65667259D01*
X141994394Y-65719920D01*
X141990000Y-65724314D01*
X141990000Y-63815686D01*
X141994394Y-63820080D01*
X142085606Y-63872741D01*
X142187339Y-63900000D01*
X142292661Y-63900000D01*
X142394394Y-63872741D01*
X142485606Y-63820080D01*
X142490000Y-63815686D01*
X142490000Y-65724314D01*
G37*
%TD.AperFunction*%
%TA.AperFunction,Conductor*%
G36*
X155971887Y-54249812D02*
G01*
X156016235Y-54278313D01*
X156355523Y-54617601D01*
X156389008Y-54678924D01*
X156384024Y-54748616D01*
X156367109Y-54779593D01*
X156286204Y-54887668D01*
X156286202Y-54887671D01*
X156235908Y-55022516D01*
X156233788Y-55042238D01*
X156207048Y-55106789D01*
X156149654Y-55146635D01*
X156079829Y-55149126D01*
X156021950Y-55114782D01*
X156019025Y-55114526D01*
X155340000Y-55793551D01*
X155340000Y-55787339D01*
X155312741Y-55685606D01*
X155260080Y-55594394D01*
X155185606Y-55519920D01*
X155094394Y-55467259D01*
X154992661Y-55440000D01*
X154986445Y-55440000D01*
X155665472Y-54760974D01*
X155592480Y-54709864D01*
X155577024Y-54702657D01*
X155524585Y-54656484D01*
X155505433Y-54589290D01*
X155525649Y-54522409D01*
X155577023Y-54477893D01*
X155592734Y-54470568D01*
X155779139Y-54340047D01*
X155840874Y-54278311D01*
X155902195Y-54244828D01*
X155971887Y-54249812D01*
G37*
%TD.AperFunction*%
%TA.AperFunction,Conductor*%
G36*
X177743039Y-50819685D02*
G01*
X177788794Y-50872489D01*
X177800000Y-50924000D01*
X177800000Y-78616000D01*
X177780315Y-78683039D01*
X177727511Y-78728794D01*
X177676000Y-78740000D01*
X109344000Y-78740000D01*
X109276961Y-78720315D01*
X109231206Y-78667511D01*
X109220000Y-78616000D01*
X109220000Y-58419993D01*
X112894700Y-58419993D01*
X112894700Y-58420006D01*
X112913864Y-58651297D01*
X112913866Y-58651308D01*
X112970842Y-58876300D01*
X113064075Y-59088848D01*
X113191016Y-59283147D01*
X113191019Y-59283151D01*
X113191021Y-59283153D01*
X113348216Y-59453913D01*
X113451662Y-59534428D01*
X113492475Y-59591137D01*
X113499500Y-59632281D01*
X113499500Y-61038846D01*
X113530261Y-61193489D01*
X113530264Y-61193501D01*
X113590602Y-61339172D01*
X113590609Y-61339185D01*
X113678210Y-61470288D01*
X113678213Y-61470292D01*
X115303181Y-63095259D01*
X115336666Y-63156582D01*
X115339500Y-63182940D01*
X115339500Y-64150001D01*
X115339501Y-64150019D01*
X115350000Y-64252796D01*
X115350001Y-64252799D01*
X115405185Y-64419331D01*
X115405187Y-64419336D01*
X115497289Y-64568657D01*
X115621344Y-64692712D01*
X115776120Y-64788178D01*
X115822845Y-64840126D01*
X115834068Y-64909088D01*
X115806224Y-64973171D01*
X115798706Y-64981398D01*
X115659889Y-65120215D01*
X115534951Y-65292179D01*
X115438444Y-65481585D01*
X115372753Y-65683760D01*
X115339500Y-65893713D01*
X115339500Y-66106287D01*
X115339499Y-66106287D01*
X115370926Y-66304708D01*
X115361971Y-66374001D01*
X115336134Y-66411786D01*
X114167969Y-67579953D01*
X113789711Y-67958211D01*
X113733960Y-68013962D01*
X113678209Y-68069712D01*
X113590609Y-68200814D01*
X113590602Y-68200827D01*
X113530264Y-68346498D01*
X113530261Y-68346510D01*
X113499500Y-68501153D01*
X113499500Y-69907718D01*
X113479815Y-69974757D01*
X113451662Y-70005571D01*
X113348222Y-70086081D01*
X113348219Y-70086084D01*
X113348216Y-70086086D01*
X113348216Y-70086087D01*
X113323886Y-70112517D01*
X113191016Y-70256852D01*
X113064075Y-70451151D01*
X112970842Y-70663699D01*
X112913866Y-70888691D01*
X112913864Y-70888702D01*
X112894700Y-71119993D01*
X112894700Y-71120006D01*
X112913864Y-71351297D01*
X112913866Y-71351308D01*
X112970842Y-71576300D01*
X113064075Y-71788848D01*
X113191016Y-71983147D01*
X113191019Y-71983151D01*
X113191021Y-71983153D01*
X113348216Y-72153913D01*
X113451662Y-72234428D01*
X113492475Y-72291137D01*
X113499500Y-72332281D01*
X113499500Y-74675500D01*
X113479815Y-74742539D01*
X113427011Y-74788294D01*
X113375505Y-74799500D01*
X113352132Y-74799500D01*
X113352123Y-74799501D01*
X113292516Y-74805908D01*
X113157671Y-74856202D01*
X113157664Y-74856206D01*
X113042455Y-74942452D01*
X113042452Y-74942455D01*
X112956206Y-75057664D01*
X112956202Y-75057671D01*
X112905908Y-75192517D01*
X112899501Y-75252116D01*
X112899501Y-75252123D01*
X112899500Y-75252135D01*
X112899500Y-77147870D01*
X112899501Y-77147876D01*
X112905908Y-77207483D01*
X112956202Y-77342328D01*
X112956206Y-77342335D01*
X113042452Y-77457544D01*
X113042455Y-77457547D01*
X113157664Y-77543793D01*
X113157671Y-77543797D01*
X113292517Y-77594091D01*
X113292516Y-77594091D01*
X113299444Y-77594835D01*
X113352127Y-77600500D01*
X115247872Y-77600499D01*
X115307483Y-77594091D01*
X115442331Y-77543796D01*
X115557546Y-77457546D01*
X115643796Y-77342331D01*
X115694091Y-77207483D01*
X115700500Y-77147873D01*
X115700499Y-75252128D01*
X115694091Y-75192517D01*
X115689381Y-75179890D01*
X115643797Y-75057671D01*
X115643793Y-75057664D01*
X115557547Y-74942455D01*
X115557544Y-74942452D01*
X115442335Y-74856206D01*
X115442328Y-74856202D01*
X115307482Y-74805908D01*
X115307483Y-74805908D01*
X115247883Y-74799501D01*
X115247881Y-74799500D01*
X115247873Y-74799500D01*
X115247865Y-74799500D01*
X115224500Y-74799500D01*
X115157461Y-74779815D01*
X115111706Y-74727011D01*
X115100500Y-74675500D01*
X115100500Y-72332281D01*
X115120185Y-72265242D01*
X115148336Y-72234428D01*
X115251784Y-72153913D01*
X115408979Y-71983153D01*
X115535924Y-71788849D01*
X115629157Y-71576300D01*
X115686134Y-71351305D01*
X115705300Y-71120000D01*
X115705300Y-71119994D01*
X115705300Y-71119993D01*
X115686135Y-70888702D01*
X115686133Y-70888691D01*
X115629157Y-70663699D01*
X115535924Y-70451151D01*
X115408983Y-70256852D01*
X115408980Y-70256849D01*
X115408979Y-70256847D01*
X115251784Y-70086087D01*
X115251779Y-70086083D01*
X115251777Y-70086081D01*
X115148338Y-70005571D01*
X115107525Y-69948861D01*
X115100500Y-69907718D01*
X115100500Y-68962940D01*
X115120185Y-68895901D01*
X115136819Y-68875259D01*
X116625259Y-67386819D01*
X116686582Y-67353334D01*
X116712940Y-67350500D01*
X117096286Y-67350500D01*
X117096287Y-67350500D01*
X117306243Y-67317246D01*
X117508412Y-67251557D01*
X117697816Y-67155051D01*
X117732229Y-67130049D01*
X117869786Y-67030109D01*
X117869788Y-67030106D01*
X117869792Y-67030104D01*
X118020104Y-66879792D01*
X118020106Y-66879788D01*
X118020109Y-66879786D01*
X118145048Y-66707820D01*
X118145047Y-66707820D01*
X118145051Y-66707816D01*
X118241557Y-66518412D01*
X118307246Y-66316243D01*
X118333027Y-66153467D01*
X118362956Y-66090333D01*
X118422268Y-66053402D01*
X118492130Y-66054400D01*
X118550363Y-66093010D01*
X118578477Y-66156973D01*
X118579500Y-66172866D01*
X118579500Y-73738846D01*
X118610261Y-73893489D01*
X118610264Y-73893501D01*
X118670602Y-74039172D01*
X118670609Y-74039185D01*
X118758210Y-74170288D01*
X118758213Y-74170292D01*
X120494965Y-75907043D01*
X120528450Y-75968366D01*
X120530860Y-76004961D01*
X120526292Y-76060110D01*
X120514700Y-76200004D01*
X120514700Y-76200006D01*
X120533864Y-76431297D01*
X120533866Y-76431308D01*
X120590842Y-76656300D01*
X120684075Y-76868848D01*
X120811016Y-77063147D01*
X120811019Y-77063151D01*
X120811021Y-77063153D01*
X120968216Y-77233913D01*
X120968219Y-77233915D01*
X120968222Y-77233918D01*
X121151365Y-77376464D01*
X121151371Y-77376468D01*
X121151374Y-77376470D01*
X121355497Y-77486936D01*
X121409479Y-77505468D01*
X121575015Y-77562297D01*
X121575017Y-77562297D01*
X121575019Y-77562298D01*
X121803951Y-77600500D01*
X121803952Y-77600500D01*
X122036048Y-77600500D01*
X122036049Y-77600500D01*
X122264981Y-77562298D01*
X122484503Y-77486936D01*
X122688626Y-77376470D01*
X122871784Y-77233913D01*
X123028979Y-77063153D01*
X123144870Y-76885768D01*
X123198014Y-76840413D01*
X123267245Y-76830989D01*
X123330581Y-76860491D01*
X123350252Y-76882468D01*
X123459954Y-77039141D01*
X123620858Y-77200045D01*
X123620861Y-77200047D01*
X123807266Y-77330568D01*
X124013504Y-77426739D01*
X124233308Y-77485635D01*
X124395230Y-77499801D01*
X124459998Y-77505468D01*
X124460000Y-77505468D01*
X124460002Y-77505468D01*
X124516673Y-77500509D01*
X124686692Y-77485635D01*
X124906496Y-77426739D01*
X125112734Y-77330568D01*
X125299139Y-77200047D01*
X125460047Y-77039139D01*
X125590568Y-76852734D01*
X125686739Y-76646496D01*
X125745635Y-76426692D01*
X125762634Y-76232384D01*
X125765468Y-76200001D01*
X125765468Y-76199998D01*
X125748404Y-76004963D01*
X125745635Y-75973308D01*
X125686739Y-75753504D01*
X125624482Y-75619994D01*
X127884859Y-75619994D01*
X127884859Y-75620005D01*
X127905385Y-75867729D01*
X127905387Y-75867738D01*
X127966412Y-76108717D01*
X128066267Y-76336367D01*
X128166562Y-76489881D01*
X128866212Y-75790233D01*
X128877482Y-75832292D01*
X128949890Y-75957708D01*
X129052292Y-76060110D01*
X129177708Y-76132518D01*
X129219766Y-76143787D01*
X128519943Y-76843609D01*
X128566768Y-76880055D01*
X128566771Y-76880057D01*
X128785385Y-76998364D01*
X128785396Y-76998369D01*
X129020506Y-77079083D01*
X129265707Y-77120000D01*
X129514293Y-77120000D01*
X129759493Y-77079083D01*
X129994603Y-76998369D01*
X129994614Y-76998364D01*
X130213230Y-76880056D01*
X130213236Y-76880051D01*
X130260055Y-76843610D01*
X130260056Y-76843609D01*
X129560233Y-76143787D01*
X129602292Y-76132518D01*
X129727708Y-76060110D01*
X129830110Y-75957708D01*
X129902518Y-75832292D01*
X129913787Y-75790234D01*
X130613435Y-76489882D01*
X130713733Y-76336364D01*
X130813587Y-76108717D01*
X130874612Y-75867738D01*
X130874614Y-75867729D01*
X130895141Y-75620005D01*
X130895141Y-75619994D01*
X134384859Y-75619994D01*
X134384859Y-75620005D01*
X134405385Y-75867729D01*
X134405387Y-75867738D01*
X134466412Y-76108717D01*
X134566267Y-76336367D01*
X134666562Y-76489881D01*
X135366212Y-75790233D01*
X135377482Y-75832292D01*
X135449890Y-75957708D01*
X135552292Y-76060110D01*
X135677708Y-76132518D01*
X135719766Y-76143787D01*
X135019943Y-76843609D01*
X135066768Y-76880055D01*
X135066771Y-76880057D01*
X135285385Y-76998364D01*
X135285396Y-76998369D01*
X135520506Y-77079083D01*
X135765707Y-77120000D01*
X136014293Y-77120000D01*
X136259493Y-77079083D01*
X136494603Y-76998369D01*
X136494614Y-76998364D01*
X136713230Y-76880056D01*
X136713236Y-76880051D01*
X136760055Y-76843610D01*
X136760056Y-76843609D01*
X136060233Y-76143787D01*
X136102292Y-76132518D01*
X136227708Y-76060110D01*
X136330110Y-75957708D01*
X136402518Y-75832292D01*
X136413787Y-75790234D01*
X137113435Y-76489882D01*
X137213733Y-76336364D01*
X137313587Y-76108717D01*
X137374612Y-75867738D01*
X137374614Y-75867729D01*
X137395141Y-75620005D01*
X137395141Y-75619994D01*
X137374614Y-75372270D01*
X137374612Y-75372261D01*
X137313587Y-75131282D01*
X137213732Y-74903632D01*
X137113435Y-74750116D01*
X136413787Y-75449765D01*
X136402518Y-75407708D01*
X136330110Y-75282292D01*
X136227708Y-75179890D01*
X136102292Y-75107482D01*
X136060233Y-75096212D01*
X136760055Y-74396389D01*
X136760055Y-74396388D01*
X136713236Y-74359947D01*
X136713231Y-74359944D01*
X136494614Y-74241635D01*
X136494603Y-74241630D01*
X136259493Y-74160916D01*
X136014293Y-74120000D01*
X135765707Y-74120000D01*
X135520506Y-74160916D01*
X135285396Y-74241630D01*
X135285385Y-74241635D01*
X135066770Y-74359943D01*
X135019943Y-74396389D01*
X135719766Y-75096212D01*
X135677708Y-75107482D01*
X135552292Y-75179890D01*
X135449890Y-75282292D01*
X135377482Y-75407708D01*
X135366212Y-75449766D01*
X134666563Y-74750117D01*
X134566267Y-74903633D01*
X134566265Y-74903637D01*
X134466412Y-75131282D01*
X134405387Y-75372261D01*
X134405385Y-75372270D01*
X134384859Y-75619994D01*
X130895141Y-75619994D01*
X130874614Y-75372270D01*
X130874612Y-75372261D01*
X130813587Y-75131282D01*
X130713732Y-74903632D01*
X130613435Y-74750116D01*
X129913787Y-75449765D01*
X129902518Y-75407708D01*
X129830110Y-75282292D01*
X129727708Y-75179890D01*
X129602292Y-75107482D01*
X129560233Y-75096212D01*
X130260055Y-74396389D01*
X130260055Y-74396388D01*
X130213236Y-74359947D01*
X130213231Y-74359944D01*
X129994614Y-74241635D01*
X129994603Y-74241630D01*
X129759493Y-74160916D01*
X129514293Y-74120000D01*
X129265707Y-74120000D01*
X129020506Y-74160916D01*
X128785396Y-74241630D01*
X128785385Y-74241635D01*
X128566770Y-74359943D01*
X128519943Y-74396389D01*
X129219766Y-75096212D01*
X129177708Y-75107482D01*
X129052292Y-75179890D01*
X128949890Y-75282292D01*
X128877482Y-75407708D01*
X128866212Y-75449766D01*
X128166563Y-74750117D01*
X128066267Y-74903633D01*
X128066265Y-74903637D01*
X127966412Y-75131282D01*
X127905387Y-75372261D01*
X127905385Y-75372270D01*
X127884859Y-75619994D01*
X125624482Y-75619994D01*
X125590568Y-75547266D01*
X125460047Y-75360861D01*
X125460045Y-75360858D01*
X125296819Y-75197632D01*
X125263334Y-75136309D01*
X125260500Y-75109951D01*
X125260500Y-68962939D01*
X125280185Y-68895900D01*
X125296814Y-68875263D01*
X128038258Y-66133818D01*
X128099579Y-66100335D01*
X128169271Y-66105319D01*
X128225204Y-66147191D01*
X128249465Y-66210692D01*
X128254364Y-66266687D01*
X128254366Y-66266697D01*
X128313258Y-66486488D01*
X128313261Y-66486497D01*
X128409431Y-66692732D01*
X128409432Y-66692734D01*
X128539954Y-66879141D01*
X128700858Y-67040045D01*
X128700861Y-67040047D01*
X128887266Y-67170568D01*
X129093504Y-67266739D01*
X129313308Y-67325635D01*
X129475230Y-67339801D01*
X129539998Y-67345468D01*
X129540000Y-67345468D01*
X129540002Y-67345468D01*
X129596673Y-67340509D01*
X129766692Y-67325635D01*
X129986496Y-67266739D01*
X130192734Y-67170568D01*
X130379139Y-67040047D01*
X130459850Y-66959336D01*
X130542368Y-66876819D01*
X130603691Y-66843334D01*
X130630049Y-66840500D01*
X132158844Y-66840500D01*
X132158845Y-66840499D01*
X132313497Y-66809737D01*
X132459179Y-66749394D01*
X132590289Y-66661789D01*
X133695616Y-65556462D01*
X133756939Y-65522977D01*
X133826631Y-65527961D01*
X133882564Y-65569833D01*
X133906981Y-65635297D01*
X133897858Y-65691595D01*
X133850264Y-65806498D01*
X133850261Y-65806510D01*
X133819500Y-65961153D01*
X133819500Y-67388846D01*
X133850261Y-67543489D01*
X133850264Y-67543501D01*
X133910602Y-67689172D01*
X133910609Y-67689185D01*
X133998210Y-67820288D01*
X133998213Y-67820292D01*
X135053181Y-68875259D01*
X135086666Y-68936582D01*
X135089500Y-68962940D01*
X135089500Y-69780998D01*
X135069815Y-69848037D01*
X135041664Y-69878849D01*
X134907730Y-69983094D01*
X134870257Y-70012261D01*
X134701833Y-70195217D01*
X134657340Y-70263321D01*
X134604194Y-70308678D01*
X134553531Y-70319500D01*
X130726469Y-70319500D01*
X130659430Y-70299815D01*
X130622660Y-70263321D01*
X130578166Y-70195217D01*
X130551179Y-70165901D01*
X130409744Y-70012262D01*
X130213509Y-69859526D01*
X130213507Y-69859525D01*
X130213506Y-69859524D01*
X129994811Y-69741172D01*
X129994802Y-69741169D01*
X129759616Y-69660429D01*
X129514335Y-69619500D01*
X129265665Y-69619500D01*
X129020383Y-69660429D01*
X128785197Y-69741169D01*
X128785188Y-69741172D01*
X128566493Y-69859524D01*
X128370257Y-70012261D01*
X128201833Y-70195217D01*
X128065826Y-70403393D01*
X127965936Y-70631118D01*
X127904892Y-70872175D01*
X127904890Y-70872187D01*
X127884357Y-71119994D01*
X127884357Y-71120005D01*
X127904890Y-71367812D01*
X127904892Y-71367824D01*
X127965936Y-71608881D01*
X128065826Y-71836606D01*
X128201833Y-72044782D01*
X128215229Y-72059334D01*
X128370256Y-72227738D01*
X128566491Y-72380474D01*
X128566493Y-72380475D01*
X128771787Y-72491575D01*
X128785190Y-72498828D01*
X129020386Y-72579571D01*
X129265665Y-72620500D01*
X129514335Y-72620500D01*
X129759614Y-72579571D01*
X129994810Y-72498828D01*
X130213509Y-72380474D01*
X130409744Y-72227738D01*
X130578164Y-72044785D01*
X130613041Y-71991402D01*
X130622660Y-71976679D01*
X130675806Y-71931322D01*
X130726469Y-71920500D01*
X134553531Y-71920500D01*
X134620570Y-71940185D01*
X134657340Y-71976679D01*
X134701833Y-72044782D01*
X134715229Y-72059334D01*
X134870256Y-72227738D01*
X135066491Y-72380474D01*
X135066493Y-72380475D01*
X135271787Y-72491575D01*
X135285190Y-72498828D01*
X135520386Y-72579571D01*
X135765665Y-72620500D01*
X136014335Y-72620500D01*
X136259614Y-72579571D01*
X136494810Y-72498828D01*
X136713509Y-72380474D01*
X136909744Y-72227738D01*
X137078164Y-72044785D01*
X137214173Y-71836607D01*
X137314063Y-71608881D01*
X137375108Y-71367821D01*
X137376137Y-71355403D01*
X137395643Y-71120005D01*
X137395643Y-71119994D01*
X137375109Y-70872187D01*
X137375107Y-70872175D01*
X137314063Y-70631118D01*
X137214173Y-70403393D01*
X137078166Y-70195217D01*
X137051179Y-70165901D01*
X136909744Y-70012262D01*
X136738336Y-69878850D01*
X136697525Y-69822141D01*
X136690500Y-69780998D01*
X136690500Y-68501155D01*
X136690499Y-68501153D01*
X136684278Y-68469877D01*
X136659737Y-68346503D01*
X136628302Y-68270611D01*
X136599397Y-68200827D01*
X136599390Y-68200814D01*
X136511790Y-68069712D01*
X136491966Y-68049888D01*
X136400289Y-67958211D01*
X135456819Y-67014741D01*
X135423334Y-66953418D01*
X135420500Y-66927060D01*
X135420500Y-66422939D01*
X135440185Y-66355900D01*
X135456814Y-66335263D01*
X135658722Y-66133355D01*
X135720041Y-66099873D01*
X135789732Y-66104857D01*
X135845666Y-66146728D01*
X135869927Y-66210232D01*
X135874858Y-66266599D01*
X135874860Y-66266610D01*
X135933730Y-66486317D01*
X135933734Y-66486326D01*
X136029865Y-66692482D01*
X136160342Y-66878820D01*
X136321179Y-67039657D01*
X136507517Y-67170134D01*
X136713673Y-67266265D01*
X136713682Y-67266269D01*
X136909999Y-67318872D01*
X136910000Y-67318871D01*
X136910000Y-66355686D01*
X136914394Y-66360080D01*
X137005606Y-66412741D01*
X137107339Y-66440000D01*
X137212661Y-66440000D01*
X137314394Y-66412741D01*
X137405606Y-66360080D01*
X137410000Y-66355686D01*
X137410000Y-67318872D01*
X137606317Y-67266269D01*
X137606326Y-67266265D01*
X137812482Y-67170134D01*
X137998820Y-67039657D01*
X138159657Y-66878820D01*
X138290134Y-66692482D01*
X138386265Y-66486326D01*
X138386269Y-66486317D01*
X138438872Y-66290000D01*
X137475686Y-66290000D01*
X137480080Y-66285606D01*
X137532741Y-66194394D01*
X137560000Y-66092661D01*
X137560000Y-65987339D01*
X137532741Y-65885606D01*
X137480080Y-65794394D01*
X137475686Y-65790000D01*
X138438872Y-65790000D01*
X138438872Y-65789999D01*
X138386269Y-65593682D01*
X138386265Y-65593673D01*
X138290134Y-65387517D01*
X138159657Y-65201179D01*
X137998820Y-65040342D01*
X137812482Y-64909865D01*
X137754133Y-64882657D01*
X137701694Y-64836484D01*
X137682542Y-64769291D01*
X137702758Y-64702410D01*
X137754129Y-64657895D01*
X137812734Y-64630568D01*
X137999139Y-64500047D01*
X138160047Y-64339139D01*
X138290568Y-64152734D01*
X138386739Y-63946496D01*
X138445635Y-63726692D01*
X138465468Y-63500000D01*
X138445635Y-63273308D01*
X138386739Y-63053504D01*
X138290568Y-62847266D01*
X138160047Y-62660861D01*
X138160045Y-62660858D01*
X137996819Y-62497632D01*
X137963334Y-62436309D01*
X137960500Y-62409951D01*
X137960500Y-60072940D01*
X137980185Y-60005901D01*
X137996819Y-59985259D01*
X138725259Y-59256819D01*
X138786582Y-59223334D01*
X138812940Y-59220500D01*
X141149951Y-59220500D01*
X141216990Y-59240185D01*
X141237632Y-59256819D01*
X141400858Y-59420045D01*
X141400861Y-59420047D01*
X141587266Y-59550568D01*
X141632500Y-59571661D01*
X141645275Y-59577618D01*
X141697714Y-59623791D01*
X141716866Y-59690984D01*
X141696650Y-59757865D01*
X141645275Y-59802382D01*
X141587267Y-59829431D01*
X141587265Y-59829432D01*
X141400858Y-59959954D01*
X141239954Y-60120858D01*
X141109432Y-60307265D01*
X141109431Y-60307267D01*
X141013261Y-60513502D01*
X141013258Y-60513511D01*
X140954366Y-60733302D01*
X140954364Y-60733313D01*
X140934532Y-60959998D01*
X140934532Y-60960001D01*
X140954364Y-61186686D01*
X140954366Y-61186697D01*
X141013258Y-61406488D01*
X141013261Y-61406497D01*
X141109431Y-61612732D01*
X141109432Y-61612734D01*
X141239954Y-61799141D01*
X141400858Y-61960045D01*
X141400861Y-61960047D01*
X141587266Y-62090568D01*
X141645865Y-62117893D01*
X141698305Y-62164065D01*
X141717457Y-62231258D01*
X141697242Y-62298139D01*
X141645867Y-62342657D01*
X141587515Y-62369867D01*
X141401179Y-62500342D01*
X141240342Y-62661179D01*
X141109865Y-62847517D01*
X141013734Y-63053673D01*
X141013730Y-63053682D01*
X140961127Y-63249999D01*
X140961128Y-63250000D01*
X141924314Y-63250000D01*
X141919920Y-63254394D01*
X141867259Y-63345606D01*
X141840000Y-63447339D01*
X141840000Y-63552661D01*
X141867259Y-63654394D01*
X141919920Y-63745606D01*
X141924314Y-63750000D01*
X140961128Y-63750000D01*
X141013730Y-63946317D01*
X141013734Y-63946326D01*
X141109865Y-64152482D01*
X141240342Y-64338820D01*
X141401179Y-64499657D01*
X141587517Y-64630134D01*
X141646457Y-64657618D01*
X141698896Y-64703790D01*
X141718048Y-64770984D01*
X141697832Y-64837865D01*
X141646457Y-64882382D01*
X141587517Y-64909865D01*
X141401179Y-65040342D01*
X141240342Y-65201179D01*
X141109865Y-65387517D01*
X141013734Y-65593673D01*
X141013730Y-65593682D01*
X140961127Y-65789999D01*
X140961128Y-65790000D01*
X141924314Y-65790000D01*
X141919920Y-65794394D01*
X141867259Y-65885606D01*
X141840000Y-65987339D01*
X141840000Y-66092661D01*
X141867259Y-66194394D01*
X141919920Y-66285606D01*
X141924314Y-66290000D01*
X140961128Y-66290000D01*
X141013730Y-66486317D01*
X141013734Y-66486326D01*
X141109865Y-66692482D01*
X141240342Y-66878820D01*
X141401179Y-67039657D01*
X141587517Y-67170134D01*
X141793673Y-67266265D01*
X141793682Y-67266269D01*
X141989999Y-67318872D01*
X141990000Y-67318871D01*
X141990000Y-66355686D01*
X141994394Y-66360080D01*
X142085606Y-66412741D01*
X142187339Y-66440000D01*
X142292661Y-66440000D01*
X142394394Y-66412741D01*
X142485606Y-66360080D01*
X142490000Y-66355686D01*
X142490000Y-67318872D01*
X142686317Y-67266269D01*
X142686326Y-67266265D01*
X142892482Y-67170134D01*
X143078820Y-67039657D01*
X143239657Y-66878820D01*
X143370134Y-66692482D01*
X143466265Y-66486326D01*
X143466269Y-66486317D01*
X143518872Y-66290000D01*
X142555686Y-66290000D01*
X142560080Y-66285606D01*
X142612741Y-66194394D01*
X142640000Y-66092661D01*
X142640000Y-65987339D01*
X142612741Y-65885606D01*
X142560080Y-65794394D01*
X142555686Y-65790000D01*
X143518872Y-65790000D01*
X143518872Y-65789999D01*
X143466269Y-65593682D01*
X143466265Y-65593673D01*
X143370134Y-65387517D01*
X143239657Y-65201179D01*
X143078820Y-65040342D01*
X142892481Y-64909865D01*
X142892479Y-64909864D01*
X142833543Y-64882382D01*
X142781103Y-64836210D01*
X142761951Y-64769017D01*
X142782166Y-64702136D01*
X142833543Y-64657618D01*
X142892479Y-64630135D01*
X142892481Y-64630134D01*
X143078820Y-64499657D01*
X143239657Y-64338820D01*
X143370134Y-64152482D01*
X143466265Y-63946326D01*
X143466269Y-63946317D01*
X143518872Y-63750000D01*
X142555686Y-63750000D01*
X142560080Y-63745606D01*
X142612741Y-63654394D01*
X142640000Y-63552661D01*
X142640000Y-63447339D01*
X142612741Y-63345606D01*
X142560080Y-63254394D01*
X142555686Y-63250000D01*
X143518872Y-63250000D01*
X143518872Y-63249999D01*
X143466269Y-63053682D01*
X143466265Y-63053673D01*
X143370134Y-62847517D01*
X143239657Y-62661179D01*
X143078820Y-62500342D01*
X142892482Y-62369865D01*
X142834133Y-62342657D01*
X142781694Y-62296484D01*
X142762542Y-62229291D01*
X142782758Y-62162410D01*
X142834129Y-62117895D01*
X142892734Y-62090568D01*
X143079139Y-61960047D01*
X143240047Y-61799139D01*
X143370568Y-61612734D01*
X143466739Y-61406496D01*
X143525635Y-61186692D01*
X143545468Y-60960000D01*
X143525635Y-60733308D01*
X143479086Y-60559583D01*
X143466741Y-60513511D01*
X143466738Y-60513502D01*
X143462641Y-60504716D01*
X143370568Y-60307266D01*
X143253319Y-60139815D01*
X143240045Y-60120858D01*
X143079141Y-59959954D01*
X142892734Y-59829432D01*
X142892728Y-59829429D01*
X142834725Y-59802382D01*
X142782285Y-59756210D01*
X142763133Y-59689017D01*
X142783348Y-59622135D01*
X142834725Y-59577618D01*
X142892734Y-59550568D01*
X143079139Y-59420047D01*
X143240047Y-59259139D01*
X143370568Y-59072734D01*
X143466739Y-58866496D01*
X143525635Y-58646692D01*
X143542634Y-58452384D01*
X143545468Y-58420001D01*
X143545468Y-58419998D01*
X143536031Y-58312133D01*
X143525635Y-58193308D01*
X143472488Y-57994958D01*
X143466741Y-57973511D01*
X143466738Y-57973502D01*
X143462167Y-57963699D01*
X143370568Y-57767266D01*
X143262637Y-57613123D01*
X143240045Y-57580858D01*
X143079143Y-57419956D01*
X143054536Y-57402726D01*
X143010912Y-57348149D01*
X143003719Y-57278650D01*
X143035241Y-57216296D01*
X143095471Y-57180882D01*
X143112404Y-57177861D01*
X143147483Y-57174091D01*
X143282331Y-57123796D01*
X143390407Y-57042890D01*
X143455870Y-57018473D01*
X143524143Y-57033324D01*
X143552398Y-57054476D01*
X143943181Y-57445259D01*
X143976666Y-57506582D01*
X143979500Y-57532940D01*
X143979500Y-69967309D01*
X143959815Y-70034348D01*
X143926625Y-70068883D01*
X143908601Y-70081503D01*
X143908595Y-70081508D01*
X143741505Y-70248597D01*
X143605965Y-70442169D01*
X143605964Y-70442171D01*
X143506098Y-70656335D01*
X143506094Y-70656344D01*
X143444938Y-70884586D01*
X143444936Y-70884596D01*
X143424341Y-71119999D01*
X143424341Y-71120000D01*
X143444936Y-71355403D01*
X143444938Y-71355413D01*
X143506094Y-71583655D01*
X143506096Y-71583659D01*
X143506097Y-71583663D01*
X143586004Y-71755023D01*
X143605965Y-71797830D01*
X143605967Y-71797834D01*
X143699437Y-71931322D01*
X143741505Y-71991401D01*
X143908599Y-72158495D01*
X144070217Y-72271661D01*
X144094595Y-72288731D01*
X144138219Y-72343308D01*
X144145412Y-72412807D01*
X144113890Y-72475161D01*
X144094594Y-72491881D01*
X144018627Y-72545073D01*
X144018626Y-72545073D01*
X144650591Y-73177037D01*
X144587007Y-73194075D01*
X144472993Y-73259901D01*
X144379901Y-73352993D01*
X144314075Y-73467007D01*
X144297037Y-73530590D01*
X143665073Y-72898626D01*
X143665073Y-72898627D01*
X143606400Y-72982421D01*
X143606399Y-72982423D01*
X143506570Y-73196507D01*
X143506566Y-73196516D01*
X143445432Y-73424673D01*
X143445430Y-73424684D01*
X143424843Y-73659998D01*
X143424843Y-73660001D01*
X143445430Y-73895315D01*
X143445432Y-73895326D01*
X143506566Y-74123483D01*
X143506570Y-74123492D01*
X143606398Y-74337576D01*
X143665073Y-74421372D01*
X144297037Y-73789408D01*
X144314075Y-73852993D01*
X144379901Y-73967007D01*
X144472993Y-74060099D01*
X144587007Y-74125925D01*
X144650591Y-74142962D01*
X144018626Y-74774926D01*
X144102417Y-74833598D01*
X144102421Y-74833600D01*
X144316507Y-74933429D01*
X144316516Y-74933433D01*
X144544673Y-74994567D01*
X144544684Y-74994569D01*
X144779998Y-75015157D01*
X144780002Y-75015157D01*
X145015315Y-74994569D01*
X145015326Y-74994567D01*
X145243483Y-74933433D01*
X145243492Y-74933429D01*
X145457580Y-74833599D01*
X145541371Y-74774925D01*
X144909408Y-74142962D01*
X144972993Y-74125925D01*
X145087007Y-74060099D01*
X145180099Y-73967007D01*
X145245925Y-73852993D01*
X145262962Y-73789408D01*
X145894925Y-74421371D01*
X145948120Y-74345404D01*
X146002697Y-74301780D01*
X146072196Y-74294588D01*
X146134550Y-74326111D01*
X146151269Y-74345405D01*
X146162658Y-74361670D01*
X146281505Y-74531401D01*
X146448599Y-74698495D01*
X146522323Y-74750117D01*
X146642165Y-74834032D01*
X146642167Y-74834033D01*
X146642170Y-74834035D01*
X146856337Y-74933903D01*
X146856343Y-74933904D01*
X146856344Y-74933905D01*
X146888250Y-74942454D01*
X147084592Y-74995063D01*
X147272918Y-75011539D01*
X147319999Y-75015659D01*
X147320000Y-75015659D01*
X147320001Y-75015659D01*
X147359234Y-75012226D01*
X147555408Y-74995063D01*
X147783663Y-74933903D01*
X147997830Y-74834035D01*
X148191401Y-74698495D01*
X148358495Y-74531401D01*
X148477342Y-74361670D01*
X148488425Y-74345842D01*
X148543002Y-74302217D01*
X148612500Y-74295023D01*
X148674855Y-74326546D01*
X148691575Y-74345842D01*
X148811759Y-74517483D01*
X148821505Y-74531401D01*
X148988599Y-74698495D01*
X149062323Y-74750117D01*
X149182165Y-74834032D01*
X149182167Y-74834033D01*
X149182170Y-74834035D01*
X149396337Y-74933903D01*
X149396343Y-74933904D01*
X149396344Y-74933905D01*
X149428250Y-74942454D01*
X149624592Y-74995063D01*
X149812918Y-75011539D01*
X149859999Y-75015659D01*
X149860000Y-75015659D01*
X149860001Y-75015659D01*
X149899234Y-75012226D01*
X150095408Y-74995063D01*
X150323663Y-74933903D01*
X150537830Y-74834035D01*
X150731401Y-74698495D01*
X150898495Y-74531401D01*
X150911116Y-74513375D01*
X150965693Y-74469752D01*
X151012691Y-74460500D01*
X151208844Y-74460500D01*
X151208845Y-74460499D01*
X151363497Y-74429737D01*
X151509179Y-74369394D01*
X151640289Y-74281789D01*
X153021789Y-72900289D01*
X153047288Y-72862127D01*
X153109394Y-72769179D01*
X153110223Y-72767179D01*
X153134859Y-72707701D01*
X153169737Y-72623497D01*
X153178440Y-72579744D01*
X153183868Y-72552455D01*
X153200500Y-72468845D01*
X153200500Y-67130049D01*
X153220185Y-67063010D01*
X153236819Y-67042368D01*
X153400045Y-66879141D01*
X153400047Y-66879139D01*
X153530568Y-66692734D01*
X153626739Y-66486496D01*
X153685635Y-66266692D01*
X153705468Y-66040000D01*
X153705467Y-66039993D01*
X153693453Y-65902667D01*
X153685635Y-65813308D01*
X153626739Y-65593504D01*
X153530568Y-65387266D01*
X153413319Y-65219815D01*
X153400045Y-65200858D01*
X153291322Y-65092135D01*
X156079500Y-65092135D01*
X156079500Y-66987870D01*
X156079501Y-66987876D01*
X156085908Y-67047483D01*
X156136202Y-67182328D01*
X156136206Y-67182335D01*
X156222452Y-67297544D01*
X156222455Y-67297547D01*
X156337664Y-67383793D01*
X156337671Y-67383797D01*
X156382618Y-67400561D01*
X156472517Y-67434091D01*
X156499171Y-67436956D01*
X156563718Y-67463692D01*
X156603568Y-67521084D01*
X156606063Y-67590909D01*
X156573596Y-67647926D01*
X156480339Y-67741183D01*
X156349865Y-67927517D01*
X156253734Y-68133673D01*
X156253730Y-68133682D01*
X156201127Y-68329999D01*
X156201128Y-68330000D01*
X157164314Y-68330000D01*
X157159920Y-68334394D01*
X157107259Y-68425606D01*
X157080000Y-68527339D01*
X157080000Y-68632661D01*
X157107259Y-68734394D01*
X157159920Y-68825606D01*
X157164314Y-68830000D01*
X156201128Y-68830000D01*
X156253730Y-69026317D01*
X156253734Y-69026326D01*
X156349865Y-69232482D01*
X156480342Y-69418820D01*
X156641179Y-69579657D01*
X156827517Y-69710134D01*
X157033673Y-69806265D01*
X157033682Y-69806269D01*
X157229999Y-69858872D01*
X157230000Y-69858871D01*
X157230000Y-68895686D01*
X157234394Y-68900080D01*
X157325606Y-68952741D01*
X157427339Y-68980000D01*
X157532661Y-68980000D01*
X157634394Y-68952741D01*
X157725606Y-68900080D01*
X157730000Y-68895686D01*
X157730000Y-69858872D01*
X157926317Y-69806269D01*
X157926326Y-69806265D01*
X158132482Y-69710134D01*
X158318820Y-69579657D01*
X158479657Y-69418820D01*
X158610134Y-69232482D01*
X158706265Y-69026326D01*
X158706269Y-69026317D01*
X158758872Y-68830000D01*
X157795686Y-68830000D01*
X157800080Y-68825606D01*
X157852741Y-68734394D01*
X157880000Y-68632661D01*
X157880000Y-68527339D01*
X157852741Y-68425606D01*
X157800080Y-68334394D01*
X157795686Y-68330000D01*
X158758872Y-68330000D01*
X158758872Y-68329999D01*
X158706269Y-68133682D01*
X158706265Y-68133673D01*
X158610134Y-67927517D01*
X158479657Y-67741179D01*
X158386404Y-67647926D01*
X158352919Y-67586603D01*
X158357903Y-67516911D01*
X158399775Y-67460978D01*
X158460832Y-67436955D01*
X158487483Y-67434091D01*
X158622331Y-67383796D01*
X158737546Y-67297546D01*
X158823796Y-67182331D01*
X158874091Y-67047483D01*
X158880500Y-66987873D01*
X158880500Y-66964500D01*
X158900185Y-66897461D01*
X158952989Y-66851706D01*
X159004500Y-66840500D01*
X163908844Y-66840500D01*
X163908845Y-66840499D01*
X164063497Y-66809737D01*
X164209179Y-66749394D01*
X164340289Y-66661789D01*
X166665259Y-64336819D01*
X166726582Y-64303334D01*
X166752940Y-64300500D01*
X169797060Y-64300500D01*
X169864099Y-64320185D01*
X169884741Y-64336819D01*
X172311064Y-66763142D01*
X172344549Y-66824465D01*
X172344274Y-66878416D01*
X172303777Y-67055844D01*
X172284732Y-67309995D01*
X172284732Y-67310004D01*
X172303777Y-67564155D01*
X172303777Y-67564157D01*
X172344273Y-67741583D01*
X172340000Y-67811322D01*
X172311064Y-67856855D01*
X172209711Y-67958210D01*
X172209710Y-67958211D01*
X172098213Y-68069707D01*
X172098210Y-68069711D01*
X172010609Y-68200814D01*
X172010602Y-68200827D01*
X171950264Y-68346498D01*
X171950261Y-68346510D01*
X171919500Y-68501153D01*
X171919500Y-69627868D01*
X171899815Y-69694907D01*
X171847011Y-69740662D01*
X171808102Y-69751226D01*
X171722202Y-69760001D01*
X171722200Y-69760001D01*
X171555668Y-69815185D01*
X171555663Y-69815187D01*
X171406342Y-69907289D01*
X171282289Y-70031342D01*
X171210039Y-70148479D01*
X171158091Y-70195203D01*
X171089128Y-70206426D01*
X171025046Y-70178582D01*
X170986190Y-70120513D01*
X170980500Y-70083382D01*
X170980500Y-67231153D01*
X170977580Y-67216480D01*
X170977579Y-67216479D01*
X170977578Y-67216470D01*
X170949737Y-67076503D01*
X170939711Y-67052299D01*
X170889394Y-66930821D01*
X170889392Y-66930819D01*
X170889392Y-66930817D01*
X170801790Y-66799712D01*
X170751468Y-66749390D01*
X170690289Y-66688211D01*
X170055480Y-66053402D01*
X169420292Y-65418213D01*
X169420288Y-65418210D01*
X169289185Y-65330609D01*
X169289172Y-65330602D01*
X169143501Y-65270264D01*
X169143489Y-65270261D01*
X168988845Y-65239500D01*
X168988842Y-65239500D01*
X168857018Y-65239500D01*
X168789979Y-65219815D01*
X168753209Y-65183321D01*
X168748980Y-65176849D01*
X168748979Y-65176847D01*
X168591784Y-65006087D01*
X168591779Y-65006083D01*
X168591777Y-65006081D01*
X168408634Y-64863535D01*
X168408628Y-64863531D01*
X168204504Y-64753064D01*
X168204495Y-64753061D01*
X167984984Y-64677702D01*
X167794450Y-64645908D01*
X167756049Y-64639500D01*
X167523951Y-64639500D01*
X167485550Y-64645908D01*
X167295015Y-64677702D01*
X167075504Y-64753061D01*
X167075495Y-64753064D01*
X166871371Y-64863531D01*
X166871365Y-64863535D01*
X166688222Y-65006081D01*
X166688219Y-65006084D01*
X166688216Y-65006086D01*
X166688216Y-65006087D01*
X166663886Y-65032517D01*
X166531016Y-65176852D01*
X166404075Y-65371151D01*
X166310842Y-65583699D01*
X166253866Y-65808691D01*
X166253864Y-65808702D01*
X166234700Y-66039993D01*
X166234700Y-66040006D01*
X166253864Y-66271297D01*
X166253866Y-66271308D01*
X166310842Y-66496300D01*
X166404075Y-66708848D01*
X166531016Y-66903147D01*
X166531019Y-66903151D01*
X166531021Y-66903153D01*
X166688216Y-67073913D01*
X166688219Y-67073915D01*
X166688222Y-67073918D01*
X166871365Y-67216464D01*
X166871372Y-67216468D01*
X166871374Y-67216470D01*
X166898506Y-67231153D01*
X166947904Y-67257886D01*
X166997495Y-67307105D01*
X167012603Y-67375322D01*
X166988433Y-67440878D01*
X166960010Y-67468516D01*
X166800858Y-67579954D01*
X166637632Y-67743181D01*
X166576309Y-67776666D01*
X166549951Y-67779500D01*
X161211155Y-67779500D01*
X161056508Y-67810261D01*
X161056498Y-67810264D01*
X160910827Y-67870602D01*
X160910814Y-67870609D01*
X160779711Y-67958210D01*
X160779709Y-67958212D01*
X160105261Y-68632661D01*
X159509711Y-69228211D01*
X159453960Y-69283962D01*
X159398209Y-69339712D01*
X159310609Y-69470814D01*
X159310602Y-69470827D01*
X159250264Y-69616498D01*
X159250261Y-69616510D01*
X159219500Y-69771153D01*
X159219500Y-72640662D01*
X159199815Y-72707701D01*
X159183181Y-72728343D01*
X159058402Y-72853121D01*
X158932900Y-73032357D01*
X158932900Y-73032358D01*
X158932898Y-73032361D01*
X158932898Y-73032362D01*
X158932779Y-73032617D01*
X158862105Y-73184176D01*
X158815932Y-73236615D01*
X158748738Y-73255766D01*
X158681857Y-73235550D01*
X158637341Y-73184174D01*
X158566669Y-73032617D01*
X158523123Y-72970428D01*
X157880000Y-73613551D01*
X157880000Y-73607339D01*
X157852741Y-73505606D01*
X157800080Y-73414394D01*
X157725606Y-73339920D01*
X157634394Y-73287259D01*
X157532661Y-73260000D01*
X157526447Y-73260000D01*
X158169571Y-72616874D01*
X158107387Y-72573333D01*
X157909159Y-72480898D01*
X157909150Y-72480894D01*
X157697894Y-72424289D01*
X157697884Y-72424287D01*
X157480001Y-72405225D01*
X157479999Y-72405225D01*
X157262115Y-72424287D01*
X157262105Y-72424289D01*
X157050849Y-72480894D01*
X157050840Y-72480898D01*
X156852614Y-72573332D01*
X156852612Y-72573333D01*
X156790428Y-72616875D01*
X156790427Y-72616875D01*
X157433554Y-73260000D01*
X157427339Y-73260000D01*
X157325606Y-73287259D01*
X157234394Y-73339920D01*
X157159920Y-73414394D01*
X157107259Y-73505606D01*
X157080000Y-73607339D01*
X157080000Y-73613552D01*
X156436875Y-72970427D01*
X156436875Y-72970428D01*
X156393333Y-73032612D01*
X156393332Y-73032614D01*
X156300898Y-73230840D01*
X156300894Y-73230849D01*
X156244289Y-73442105D01*
X156244287Y-73442115D01*
X156225225Y-73659999D01*
X156225225Y-73660000D01*
X156244287Y-73877884D01*
X156244289Y-73877894D01*
X156300894Y-74089150D01*
X156300898Y-74089159D01*
X156393333Y-74287387D01*
X156436874Y-74349571D01*
X157080000Y-73706445D01*
X157080000Y-73712661D01*
X157107259Y-73814394D01*
X157159920Y-73905606D01*
X157234394Y-73980080D01*
X157325606Y-74032741D01*
X157427339Y-74060000D01*
X157433553Y-74060000D01*
X156790427Y-74703124D01*
X156852612Y-74746666D01*
X157050840Y-74839101D01*
X157050849Y-74839105D01*
X157262105Y-74895710D01*
X157262115Y-74895712D01*
X157479999Y-74914775D01*
X157480001Y-74914775D01*
X157697884Y-74895712D01*
X157697894Y-74895710D01*
X157909150Y-74839105D01*
X157909164Y-74839100D01*
X158107383Y-74746669D01*
X158107385Y-74746668D01*
X158169571Y-74703124D01*
X157526448Y-74060000D01*
X157532661Y-74060000D01*
X157634394Y-74032741D01*
X157725606Y-73980080D01*
X157800080Y-73905606D01*
X157852741Y-73814394D01*
X157880000Y-73712661D01*
X157880000Y-73706446D01*
X158523124Y-74349570D01*
X158566666Y-74287388D01*
X158637340Y-74135825D01*
X158683512Y-74083386D01*
X158750706Y-74064233D01*
X158817587Y-74084448D01*
X158862105Y-74135824D01*
X158932897Y-74287638D01*
X158957998Y-74323486D01*
X159058402Y-74466877D01*
X159213123Y-74621598D01*
X159392361Y-74747102D01*
X159590670Y-74839575D01*
X159802023Y-74896207D01*
X159984926Y-74912208D01*
X160019998Y-74915277D01*
X160020000Y-74915277D01*
X160020002Y-74915277D01*
X160048254Y-74912805D01*
X160237977Y-74896207D01*
X160449330Y-74839575D01*
X160647639Y-74747102D01*
X160826877Y-74621598D01*
X160981598Y-74466877D01*
X161083928Y-74320734D01*
X161138502Y-74277112D01*
X161208000Y-74269918D01*
X161270355Y-74301441D01*
X161305769Y-74361670D01*
X161309500Y-74391858D01*
X161309500Y-74457869D01*
X161309501Y-74457876D01*
X161315908Y-74517483D01*
X161366202Y-74652328D01*
X161366206Y-74652335D01*
X161452452Y-74767544D01*
X161452455Y-74767547D01*
X161567664Y-74853793D01*
X161567671Y-74853797D01*
X161702517Y-74904091D01*
X161702516Y-74904091D01*
X161709444Y-74904835D01*
X161762127Y-74910500D01*
X163357872Y-74910499D01*
X163417483Y-74904091D01*
X163552331Y-74853796D01*
X163667546Y-74767546D01*
X163753796Y-74652331D01*
X163765261Y-74621593D01*
X163795258Y-74541167D01*
X163837129Y-74485233D01*
X163902593Y-74460816D01*
X163911440Y-74460500D01*
X170101158Y-74460500D01*
X171319385Y-74460500D01*
X171386424Y-74480185D01*
X171419703Y-74511615D01*
X171423966Y-74517483D01*
X171449641Y-74552821D01*
X171602179Y-74705359D01*
X171776701Y-74832157D01*
X171968911Y-74930092D01*
X172174074Y-74996754D01*
X172253973Y-75009408D01*
X172387134Y-75030500D01*
X172387139Y-75030500D01*
X173052866Y-75030500D01*
X173171230Y-75011752D01*
X173265926Y-74996754D01*
X173471089Y-74930092D01*
X173663299Y-74832157D01*
X173837821Y-74705359D01*
X173990359Y-74552821D01*
X174117157Y-74378299D01*
X174215092Y-74186089D01*
X174281754Y-73980926D01*
X174298074Y-73877884D01*
X174315500Y-73767866D01*
X174315500Y-73552133D01*
X174285819Y-73364741D01*
X174281754Y-73339074D01*
X174215092Y-73133911D01*
X174117157Y-72941701D01*
X173990359Y-72767179D01*
X173848375Y-72625195D01*
X173814890Y-72563872D01*
X173819874Y-72494180D01*
X173861746Y-72438247D01*
X173883657Y-72425129D01*
X173884322Y-72424817D01*
X173884334Y-72424814D01*
X174033656Y-72332712D01*
X174157712Y-72208656D01*
X174249814Y-72059334D01*
X174304999Y-71892797D01*
X174315500Y-71790009D01*
X174315499Y-70449992D01*
X174304999Y-70347203D01*
X174249814Y-70180666D01*
X174157712Y-70031344D01*
X174033656Y-69907288D01*
X173916761Y-69835187D01*
X173884336Y-69815187D01*
X173884331Y-69815185D01*
X173882862Y-69814698D01*
X173717797Y-69760001D01*
X173717794Y-69760000D01*
X173631897Y-69751225D01*
X173567205Y-69724829D01*
X173527054Y-69667648D01*
X173520500Y-69627867D01*
X173520500Y-69103031D01*
X173540185Y-69035992D01*
X173592989Y-68990237D01*
X173662147Y-68980293D01*
X173662609Y-68980361D01*
X173862565Y-69010500D01*
X174117435Y-69010500D01*
X174369458Y-68972513D01*
X174613004Y-68897389D01*
X174842634Y-68786805D01*
X175053217Y-68643232D01*
X175240050Y-68469877D01*
X175398959Y-68270612D01*
X175526393Y-68049888D01*
X175619508Y-67812637D01*
X175676222Y-67564157D01*
X175687581Y-67412577D01*
X175695268Y-67310004D01*
X175695268Y-67309995D01*
X175677770Y-67076498D01*
X175676222Y-67055843D01*
X175619508Y-66807363D01*
X175526393Y-66570112D01*
X175398959Y-66349388D01*
X175240050Y-66150123D01*
X175053217Y-65976768D01*
X174842634Y-65833195D01*
X174842630Y-65833193D01*
X174842627Y-65833191D01*
X174842626Y-65833190D01*
X174613006Y-65722612D01*
X174613008Y-65722612D01*
X174369466Y-65647489D01*
X174369462Y-65647488D01*
X174369458Y-65647487D01*
X174248231Y-65629214D01*
X174117440Y-65609500D01*
X174117435Y-65609500D01*
X173862565Y-65609500D01*
X173862559Y-65609500D01*
X173634637Y-65643855D01*
X173610542Y-65647487D01*
X173610541Y-65647487D01*
X173610536Y-65647488D01*
X173610531Y-65647489D01*
X173566552Y-65661055D01*
X173496689Y-65662005D01*
X173442323Y-65630245D01*
X170690291Y-62878212D01*
X170690288Y-62878210D01*
X170559185Y-62790609D01*
X170559172Y-62790602D01*
X170413501Y-62730264D01*
X170413489Y-62730261D01*
X170258845Y-62699500D01*
X170258842Y-62699500D01*
X168490422Y-62699500D01*
X168423383Y-62679815D01*
X168377628Y-62627011D01*
X168367684Y-62557853D01*
X168396709Y-62494297D01*
X168436620Y-62463780D01*
X168449320Y-62457664D01*
X168492634Y-62436805D01*
X168703217Y-62293232D01*
X168890050Y-62119877D01*
X169048959Y-61920612D01*
X169105604Y-61822498D01*
X169156169Y-61774285D01*
X169212990Y-61760500D01*
X172197438Y-61760500D01*
X172264477Y-61780185D01*
X172310232Y-61832989D01*
X172320176Y-61902147D01*
X172318329Y-61912088D01*
X172316384Y-61920612D01*
X172303777Y-61975847D01*
X172303776Y-61975852D01*
X172284732Y-62229995D01*
X172284732Y-62230004D01*
X172303777Y-62484154D01*
X172359949Y-62730261D01*
X172360492Y-62732637D01*
X172453607Y-62969888D01*
X172581041Y-63190612D01*
X172739950Y-63389877D01*
X172926783Y-63563232D01*
X173137366Y-63706805D01*
X173137371Y-63706807D01*
X173137372Y-63706808D01*
X173137373Y-63706809D01*
X173217937Y-63745606D01*
X173366992Y-63817387D01*
X173366993Y-63817387D01*
X173366996Y-63817389D01*
X173610542Y-63892513D01*
X173862565Y-63930500D01*
X174117435Y-63930500D01*
X174369458Y-63892513D01*
X174613004Y-63817389D01*
X174842634Y-63706805D01*
X175053217Y-63563232D01*
X175240050Y-63389877D01*
X175398959Y-63190612D01*
X175526393Y-62969888D01*
X175619508Y-62732637D01*
X175676222Y-62484157D01*
X175692026Y-62273261D01*
X175695268Y-62230004D01*
X175695268Y-62229995D01*
X175676222Y-61975845D01*
X175672616Y-61960047D01*
X175619508Y-61727363D01*
X175526393Y-61490112D01*
X175398959Y-61269388D01*
X175240050Y-61070123D01*
X175053217Y-60896768D01*
X174842634Y-60753195D01*
X174842630Y-60753193D01*
X174842627Y-60753191D01*
X174842626Y-60753190D01*
X174613006Y-60642612D01*
X174613008Y-60642612D01*
X174369466Y-60567489D01*
X174369462Y-60567488D01*
X174369458Y-60567487D01*
X174248231Y-60549214D01*
X174117440Y-60529500D01*
X174117435Y-60529500D01*
X173862565Y-60529500D01*
X173862559Y-60529500D01*
X173697991Y-60554305D01*
X173662981Y-60559582D01*
X173593757Y-60550110D01*
X173540643Y-60504716D01*
X173520503Y-60437812D01*
X173520500Y-60436968D01*
X173520500Y-59740903D01*
X173540185Y-59673864D01*
X173588204Y-59630418D01*
X173663299Y-59592157D01*
X173837821Y-59465359D01*
X173990359Y-59312821D01*
X174117157Y-59138299D01*
X174215092Y-58946089D01*
X174281754Y-58740926D01*
X174298059Y-58637977D01*
X174315500Y-58527866D01*
X174315500Y-58312133D01*
X174281754Y-58099077D01*
X174281754Y-58099074D01*
X174215092Y-57893911D01*
X174117157Y-57701701D01*
X173990359Y-57527179D01*
X173847996Y-57384816D01*
X173814511Y-57323493D01*
X173819495Y-57253801D01*
X173861367Y-57197868D01*
X173883289Y-57184745D01*
X173884127Y-57184354D01*
X174033345Y-57092315D01*
X174157315Y-56968345D01*
X174249356Y-56819124D01*
X174249358Y-56819119D01*
X174304505Y-56652697D01*
X174304506Y-56652690D01*
X174314999Y-56549986D01*
X174315000Y-56549973D01*
X174315000Y-56130000D01*
X173262709Y-56130000D01*
X173274452Y-56109661D01*
X173315000Y-55958333D01*
X173315000Y-55801667D01*
X173274452Y-55650339D01*
X173262709Y-55630000D01*
X174314999Y-55630000D01*
X174314999Y-55210028D01*
X174314998Y-55210013D01*
X174304505Y-55107302D01*
X174249358Y-54940880D01*
X174249356Y-54940875D01*
X174157315Y-54791654D01*
X174033345Y-54667684D01*
X173884124Y-54575643D01*
X173884119Y-54575641D01*
X173717697Y-54520494D01*
X173717690Y-54520493D01*
X173614986Y-54510000D01*
X172970000Y-54510000D01*
X172970000Y-55337290D01*
X172949661Y-55325548D01*
X172798333Y-55285000D01*
X172641667Y-55285000D01*
X172490339Y-55325548D01*
X172470000Y-55337290D01*
X172470000Y-54510000D01*
X171825028Y-54510000D01*
X171825012Y-54510001D01*
X171722302Y-54520494D01*
X171555880Y-54575641D01*
X171555875Y-54575643D01*
X171406654Y-54667684D01*
X171282684Y-54791654D01*
X171190643Y-54940875D01*
X171190641Y-54940880D01*
X171135494Y-55107302D01*
X171135493Y-55107309D01*
X171125000Y-55210013D01*
X171125000Y-55630000D01*
X172177291Y-55630000D01*
X172165548Y-55650339D01*
X172125000Y-55801667D01*
X172125000Y-55958333D01*
X172165548Y-56109661D01*
X172177291Y-56130000D01*
X171125001Y-56130000D01*
X171125001Y-56549986D01*
X171135494Y-56652697D01*
X171190641Y-56819119D01*
X171190643Y-56819124D01*
X171282684Y-56968345D01*
X171406654Y-57092315D01*
X171555876Y-57184356D01*
X171556716Y-57184748D01*
X171557195Y-57185170D01*
X171562025Y-57188149D01*
X171561516Y-57188973D01*
X171609160Y-57230915D01*
X171628318Y-57298107D01*
X171608109Y-57364990D01*
X171592004Y-57384816D01*
X171449640Y-57527180D01*
X171322843Y-57701700D01*
X171224909Y-57893908D01*
X171158245Y-58099077D01*
X171124500Y-58312133D01*
X171124500Y-58527866D01*
X171158245Y-58740922D01*
X171158246Y-58740926D01*
X171224908Y-58946089D01*
X171322843Y-59138299D01*
X171449641Y-59312821D01*
X171602179Y-59465359D01*
X171776701Y-59592157D01*
X171851794Y-59630418D01*
X171902590Y-59678392D01*
X171919500Y-59740903D01*
X171919500Y-60035500D01*
X171899815Y-60102539D01*
X171847011Y-60148294D01*
X171795500Y-60159500D01*
X169212990Y-60159500D01*
X169145951Y-60139815D01*
X169105604Y-60097501D01*
X169048959Y-59999388D01*
X168890050Y-59800123D01*
X168703217Y-59626768D01*
X168492634Y-59483195D01*
X168492630Y-59483193D01*
X168492627Y-59483191D01*
X168492626Y-59483190D01*
X168263006Y-59372612D01*
X168263008Y-59372612D01*
X168019466Y-59297489D01*
X168019462Y-59297488D01*
X168019458Y-59297487D01*
X167898231Y-59279214D01*
X167767440Y-59259500D01*
X167767435Y-59259500D01*
X167512565Y-59259500D01*
X167512559Y-59259500D01*
X167355680Y-59283147D01*
X167260542Y-59297487D01*
X167260539Y-59297488D01*
X167260533Y-59297489D01*
X167016992Y-59372612D01*
X166787373Y-59483190D01*
X166787372Y-59483191D01*
X166576782Y-59626768D01*
X166389952Y-59800121D01*
X166389950Y-59800123D01*
X166231041Y-59999388D01*
X166103608Y-60220109D01*
X166010492Y-60457362D01*
X166010490Y-60457369D01*
X165953777Y-60705845D01*
X165934732Y-60959995D01*
X165934732Y-60960004D01*
X165953777Y-61214154D01*
X165984084Y-61346939D01*
X166010492Y-61462637D01*
X166103607Y-61699888D01*
X166231041Y-61920612D01*
X166389950Y-62119877D01*
X166576783Y-62293232D01*
X166787366Y-62436805D01*
X166787369Y-62436806D01*
X166787370Y-62436807D01*
X166843380Y-62463780D01*
X166895239Y-62510603D01*
X166913552Y-62578030D01*
X166892504Y-62644654D01*
X166838778Y-62689322D01*
X166789578Y-62699500D01*
X166291154Y-62699500D01*
X166136509Y-62730261D01*
X166136497Y-62730264D01*
X166095604Y-62747202D01*
X166095605Y-62747203D01*
X165990823Y-62790604D01*
X165990814Y-62790609D01*
X165859712Y-62878209D01*
X165859710Y-62878212D01*
X163534741Y-65203181D01*
X163473418Y-65236666D01*
X163447060Y-65239500D01*
X159004499Y-65239500D01*
X158937460Y-65219815D01*
X158891705Y-65167011D01*
X158880499Y-65115500D01*
X158880499Y-65092129D01*
X158880498Y-65092123D01*
X158880497Y-65092116D01*
X158874091Y-65032517D01*
X158870439Y-65022726D01*
X158823797Y-64897671D01*
X158823793Y-64897664D01*
X158737547Y-64782455D01*
X158737544Y-64782452D01*
X158622335Y-64696206D01*
X158622328Y-64696202D01*
X158487482Y-64645908D01*
X158487483Y-64645908D01*
X158427883Y-64639501D01*
X158427881Y-64639500D01*
X158427873Y-64639500D01*
X158427864Y-64639500D01*
X156532129Y-64639500D01*
X156532123Y-64639501D01*
X156472516Y-64645908D01*
X156337671Y-64696202D01*
X156337664Y-64696206D01*
X156222455Y-64782452D01*
X156222452Y-64782455D01*
X156136206Y-64897664D01*
X156136202Y-64897671D01*
X156085908Y-65032517D01*
X156079642Y-65090807D01*
X156079501Y-65092123D01*
X156079500Y-65092135D01*
X153291322Y-65092135D01*
X153236819Y-65037632D01*
X153203334Y-64976309D01*
X153200500Y-64949951D01*
X153200500Y-54430049D01*
X153220185Y-54363010D01*
X153236819Y-54342368D01*
X153402368Y-54176819D01*
X153463691Y-54143334D01*
X153490049Y-54140500D01*
X153849951Y-54140500D01*
X153916990Y-54160185D01*
X153937632Y-54176819D01*
X154100858Y-54340045D01*
X154100861Y-54340047D01*
X154287266Y-54470568D01*
X154302975Y-54477893D01*
X154355414Y-54524064D01*
X154374567Y-54591257D01*
X154354352Y-54658138D01*
X154302979Y-54702656D01*
X154287514Y-54709867D01*
X154287512Y-54709868D01*
X154214526Y-54760973D01*
X154214526Y-54760974D01*
X154893553Y-55440000D01*
X154887339Y-55440000D01*
X154785606Y-55467259D01*
X154694394Y-55519920D01*
X154619920Y-55594394D01*
X154567259Y-55685606D01*
X154540000Y-55787339D01*
X154540000Y-55793552D01*
X153860974Y-55114526D01*
X153860973Y-55114526D01*
X153809868Y-55187512D01*
X153809866Y-55187516D01*
X153713734Y-55393673D01*
X153713730Y-55393682D01*
X153654860Y-55613389D01*
X153654858Y-55613400D01*
X153635034Y-55839997D01*
X153635034Y-55840002D01*
X153654858Y-56066599D01*
X153654860Y-56066610D01*
X153713730Y-56286317D01*
X153713735Y-56286331D01*
X153809863Y-56492478D01*
X153860974Y-56565472D01*
X154540000Y-55886446D01*
X154540000Y-55892661D01*
X154567259Y-55994394D01*
X154619920Y-56085606D01*
X154694394Y-56160080D01*
X154785606Y-56212741D01*
X154887339Y-56240000D01*
X154893553Y-56240000D01*
X154214526Y-56919025D01*
X154287513Y-56970132D01*
X154287521Y-56970136D01*
X154493668Y-57066264D01*
X154493682Y-57066269D01*
X154713389Y-57125139D01*
X154713400Y-57125141D01*
X154939998Y-57144966D01*
X154940002Y-57144966D01*
X155166599Y-57125141D01*
X155166610Y-57125139D01*
X155386317Y-57066269D01*
X155386331Y-57066264D01*
X155592478Y-56970136D01*
X155665471Y-56919024D01*
X154986447Y-56240000D01*
X154992661Y-56240000D01*
X155094394Y-56212741D01*
X155185606Y-56160080D01*
X155260080Y-56085606D01*
X155312741Y-55994394D01*
X155340000Y-55892661D01*
X155340000Y-55886447D01*
X156019024Y-56565472D01*
X156032360Y-56564305D01*
X156058501Y-56543410D01*
X156127999Y-56536216D01*
X156190354Y-56567738D01*
X156225769Y-56627967D01*
X156229500Y-56658153D01*
X156229500Y-56677867D01*
X156229501Y-56677876D01*
X156235908Y-56737483D01*
X156286202Y-56872328D01*
X156286206Y-56872335D01*
X156372452Y-56987544D01*
X156372455Y-56987547D01*
X156487664Y-57073793D01*
X156487671Y-57073797D01*
X156622517Y-57124091D01*
X156622516Y-57124091D01*
X156629444Y-57124835D01*
X156682127Y-57130500D01*
X158277872Y-57130499D01*
X158337483Y-57124091D01*
X158472331Y-57073796D01*
X158587546Y-56987546D01*
X158673796Y-56872331D01*
X158724091Y-56737483D01*
X158730500Y-56677873D01*
X158730499Y-56610988D01*
X158750183Y-56543952D01*
X158802986Y-56498196D01*
X158872144Y-56488252D01*
X158935700Y-56517276D01*
X158956073Y-56539866D01*
X158976873Y-56569571D01*
X158976874Y-56569571D01*
X159620000Y-55926445D01*
X159620000Y-55932661D01*
X159647259Y-56034394D01*
X159699920Y-56125606D01*
X159774394Y-56200080D01*
X159865606Y-56252741D01*
X159967339Y-56280000D01*
X159973553Y-56280000D01*
X159330427Y-56923124D01*
X159392612Y-56966666D01*
X159590840Y-57059101D01*
X159590849Y-57059105D01*
X159802105Y-57115710D01*
X159802115Y-57115712D01*
X160019999Y-57134775D01*
X160020001Y-57134775D01*
X160237884Y-57115712D01*
X160237894Y-57115710D01*
X160449150Y-57059105D01*
X160449164Y-57059100D01*
X160647383Y-56966669D01*
X160647385Y-56966668D01*
X160709571Y-56923124D01*
X160066448Y-56280000D01*
X160072661Y-56280000D01*
X160174394Y-56252741D01*
X160265606Y-56200080D01*
X160340080Y-56125606D01*
X160392741Y-56034394D01*
X160420000Y-55932661D01*
X160420000Y-55926446D01*
X161063124Y-56569570D01*
X161106666Y-56507388D01*
X161177340Y-56355825D01*
X161223512Y-56303386D01*
X161290706Y-56284233D01*
X161357587Y-56304448D01*
X161402105Y-56355824D01*
X161472897Y-56507638D01*
X161472898Y-56507639D01*
X161598402Y-56686877D01*
X161598406Y-56686881D01*
X161723181Y-56811656D01*
X161756666Y-56872979D01*
X161759500Y-56899337D01*
X161759500Y-59307060D01*
X161739815Y-59374099D01*
X161723181Y-59394741D01*
X160994741Y-60123181D01*
X160933418Y-60156666D01*
X160907060Y-60159500D01*
X159304499Y-60159500D01*
X159237460Y-60139815D01*
X159191705Y-60087011D01*
X159180499Y-60035500D01*
X159180499Y-59712129D01*
X159180498Y-59712123D01*
X159180497Y-59712116D01*
X159174091Y-59652517D01*
X159166543Y-59632281D01*
X159123797Y-59517671D01*
X159123793Y-59517664D01*
X159037547Y-59402455D01*
X159037544Y-59402452D01*
X158922335Y-59316206D01*
X158922328Y-59316202D01*
X158787482Y-59265908D01*
X158787483Y-59265908D01*
X158727883Y-59259501D01*
X158727881Y-59259500D01*
X158727873Y-59259500D01*
X158727864Y-59259500D01*
X156232129Y-59259500D01*
X156232123Y-59259501D01*
X156172516Y-59265908D01*
X156037671Y-59316202D01*
X156037664Y-59316206D01*
X155922455Y-59402452D01*
X155922452Y-59402455D01*
X155836206Y-59517664D01*
X155836202Y-59517671D01*
X155785908Y-59652517D01*
X155779501Y-59712116D01*
X155779501Y-59712123D01*
X155779500Y-59712135D01*
X155779500Y-62207870D01*
X155779501Y-62207876D01*
X155785908Y-62267483D01*
X155836202Y-62402328D01*
X155836206Y-62402335D01*
X155922452Y-62517544D01*
X155922455Y-62517547D01*
X156037664Y-62603793D01*
X156037671Y-62603797D01*
X156172517Y-62654091D01*
X156172516Y-62654091D01*
X156179444Y-62654835D01*
X156232127Y-62660500D01*
X158727872Y-62660499D01*
X158787483Y-62654091D01*
X158922331Y-62603796D01*
X159037546Y-62517546D01*
X159123796Y-62402331D01*
X159174091Y-62267483D01*
X159180500Y-62207873D01*
X159180500Y-61884500D01*
X159200185Y-61817461D01*
X159252989Y-61771706D01*
X159304500Y-61760500D01*
X161368844Y-61760500D01*
X161368845Y-61760499D01*
X161523497Y-61729737D01*
X161669179Y-61669394D01*
X161800289Y-61581789D01*
X163181789Y-60200289D01*
X163188488Y-60190263D01*
X163269394Y-60069179D01*
X163329737Y-59923497D01*
X163356192Y-59790500D01*
X163360500Y-59768843D01*
X163360500Y-59611158D01*
X163360500Y-56899337D01*
X163380185Y-56832298D01*
X163396819Y-56811656D01*
X163491656Y-56716819D01*
X163552979Y-56683334D01*
X163579337Y-56680500D01*
X163723023Y-56680500D01*
X163790062Y-56700185D01*
X163835817Y-56752989D01*
X163843266Y-56780134D01*
X163844124Y-56779932D01*
X163845907Y-56787479D01*
X163896202Y-56922328D01*
X163896206Y-56922335D01*
X163982452Y-57037544D01*
X163982455Y-57037547D01*
X164097664Y-57123793D01*
X164097671Y-57123797D01*
X164232517Y-57174091D01*
X164232516Y-57174091D01*
X164239444Y-57174835D01*
X164292127Y-57180500D01*
X165987872Y-57180499D01*
X166047483Y-57174091D01*
X166182331Y-57123796D01*
X166297546Y-57037546D01*
X166383796Y-56922331D01*
X166434091Y-56787483D01*
X166440500Y-56727873D01*
X166440499Y-56727845D01*
X166440678Y-56724547D01*
X166442183Y-56724627D01*
X166460112Y-56663326D01*
X166512868Y-56617514D01*
X166556465Y-56609981D01*
X167240000Y-55926446D01*
X167240000Y-55932661D01*
X167267259Y-56034394D01*
X167319920Y-56125606D01*
X167394394Y-56200080D01*
X167485606Y-56252741D01*
X167587339Y-56280000D01*
X167593553Y-56280000D01*
X166914526Y-56959025D01*
X166987513Y-57010132D01*
X166987521Y-57010136D01*
X167193668Y-57106264D01*
X167193682Y-57106269D01*
X167413389Y-57165139D01*
X167413400Y-57165141D01*
X167639998Y-57184966D01*
X167640002Y-57184966D01*
X167866599Y-57165141D01*
X167866610Y-57165139D01*
X168086317Y-57106269D01*
X168086331Y-57106264D01*
X168292478Y-57010136D01*
X168365471Y-56959024D01*
X167686447Y-56280000D01*
X167692661Y-56280000D01*
X167794394Y-56252741D01*
X167885606Y-56200080D01*
X167960080Y-56125606D01*
X168012741Y-56034394D01*
X168040000Y-55932661D01*
X168040000Y-55926447D01*
X168719024Y-56605471D01*
X168770136Y-56532478D01*
X168866264Y-56326331D01*
X168866269Y-56326317D01*
X168925139Y-56106610D01*
X168925141Y-56106599D01*
X168944966Y-55880002D01*
X168944966Y-55879997D01*
X168925141Y-55653400D01*
X168925139Y-55653389D01*
X168866269Y-55433682D01*
X168866264Y-55433668D01*
X168770136Y-55227521D01*
X168770132Y-55227513D01*
X168719025Y-55154526D01*
X168040000Y-55833551D01*
X168040000Y-55827339D01*
X168012741Y-55725606D01*
X167960080Y-55634394D01*
X167885606Y-55559920D01*
X167794394Y-55507259D01*
X167692661Y-55480000D01*
X167686445Y-55480000D01*
X168365472Y-54800974D01*
X168292478Y-54749863D01*
X168086331Y-54653735D01*
X168086317Y-54653730D01*
X167866610Y-54594860D01*
X167866599Y-54594858D01*
X167640002Y-54575034D01*
X167639998Y-54575034D01*
X167413400Y-54594858D01*
X167413389Y-54594860D01*
X167193682Y-54653730D01*
X167193673Y-54653734D01*
X166987516Y-54749866D01*
X166987512Y-54749868D01*
X166914526Y-54800973D01*
X166914526Y-54800974D01*
X167593553Y-55480000D01*
X167587339Y-55480000D01*
X167485606Y-55507259D01*
X167394394Y-55559920D01*
X167319920Y-55634394D01*
X167267259Y-55725606D01*
X167240000Y-55827339D01*
X167240000Y-55833552D01*
X166555799Y-55149351D01*
X166506805Y-55139505D01*
X166456622Y-55090889D01*
X166441981Y-55035366D01*
X166440900Y-55035423D01*
X166440854Y-55035429D01*
X166440853Y-55035426D01*
X166440676Y-55035436D01*
X166440499Y-55032135D01*
X166440499Y-55032128D01*
X166434091Y-54972517D01*
X166422291Y-54940880D01*
X166383797Y-54837671D01*
X166383793Y-54837664D01*
X166297547Y-54722455D01*
X166297544Y-54722452D01*
X166182335Y-54636206D01*
X166182328Y-54636202D01*
X166047482Y-54585908D01*
X166047483Y-54585908D01*
X165987883Y-54579501D01*
X165987881Y-54579500D01*
X165987873Y-54579500D01*
X165987864Y-54579500D01*
X164292129Y-54579500D01*
X164292123Y-54579501D01*
X164232516Y-54585908D01*
X164097671Y-54636202D01*
X164097664Y-54636206D01*
X163982455Y-54722452D01*
X163982452Y-54722455D01*
X163896206Y-54837664D01*
X163896202Y-54837671D01*
X163845908Y-54972517D01*
X163844126Y-54980062D01*
X163841853Y-54979525D01*
X163819571Y-55033312D01*
X163762177Y-55073157D01*
X163723024Y-55079500D01*
X163579337Y-55079500D01*
X163512298Y-55059815D01*
X163491656Y-55043181D01*
X163366881Y-54918406D01*
X163366877Y-54918402D01*
X163199173Y-54800974D01*
X163187638Y-54792897D01*
X163075267Y-54740498D01*
X162989330Y-54700425D01*
X162989326Y-54700424D01*
X162989322Y-54700422D01*
X162777977Y-54643793D01*
X162560002Y-54624723D01*
X162559998Y-54624723D01*
X162432140Y-54635909D01*
X162342023Y-54643793D01*
X162342020Y-54643793D01*
X162130677Y-54700422D01*
X162130670Y-54700424D01*
X162130670Y-54700425D01*
X162110428Y-54709864D01*
X161932361Y-54792898D01*
X161932357Y-54792900D01*
X161753121Y-54918402D01*
X161598402Y-55073121D01*
X161472900Y-55252357D01*
X161472900Y-55252358D01*
X161402105Y-55404176D01*
X161355932Y-55456615D01*
X161288738Y-55475766D01*
X161221857Y-55455550D01*
X161177341Y-55404174D01*
X161106669Y-55252617D01*
X161063123Y-55190428D01*
X160420000Y-55833551D01*
X160420000Y-55827339D01*
X160392741Y-55725606D01*
X160340080Y-55634394D01*
X160265606Y-55559920D01*
X160174394Y-55507259D01*
X160072661Y-55480000D01*
X160066447Y-55480000D01*
X160709571Y-54836874D01*
X160647387Y-54793333D01*
X160449159Y-54700898D01*
X160449150Y-54700894D01*
X160237894Y-54644289D01*
X160237884Y-54644287D01*
X160020001Y-54625225D01*
X160019999Y-54625225D01*
X159802115Y-54644287D01*
X159802105Y-54644289D01*
X159590849Y-54700894D01*
X159590840Y-54700898D01*
X159392614Y-54793332D01*
X159392612Y-54793333D01*
X159330428Y-54836875D01*
X159330427Y-54836875D01*
X159973554Y-55480000D01*
X159967339Y-55480000D01*
X159865606Y-55507259D01*
X159774394Y-55559920D01*
X159699920Y-55634394D01*
X159647259Y-55725606D01*
X159620000Y-55827339D01*
X159620000Y-55833552D01*
X158976875Y-55190427D01*
X158976874Y-55190428D01*
X158956074Y-55220135D01*
X158901497Y-55263760D01*
X158831999Y-55270954D01*
X158769644Y-55239431D01*
X158734230Y-55179202D01*
X158730499Y-55149012D01*
X158730499Y-55082129D01*
X158730498Y-55082123D01*
X158729534Y-55073157D01*
X158724091Y-55022517D01*
X158713970Y-54995382D01*
X158673797Y-54887671D01*
X158673793Y-54887664D01*
X158587547Y-54772455D01*
X158587544Y-54772452D01*
X158472335Y-54686206D01*
X158472329Y-54686203D01*
X158361166Y-54644741D01*
X158305233Y-54602869D01*
X158280816Y-54537405D01*
X158280645Y-54532629D01*
X158280500Y-54531154D01*
X158277580Y-54516480D01*
X158277579Y-54516479D01*
X158277578Y-54516470D01*
X158249737Y-54376503D01*
X158248664Y-54373913D01*
X158237716Y-54347483D01*
X158218708Y-54301593D01*
X158189394Y-54230821D01*
X158189392Y-54230819D01*
X158189392Y-54230817D01*
X158101790Y-54099712D01*
X158101789Y-54099711D01*
X157990289Y-53988211D01*
X157455365Y-53453287D01*
X156720292Y-52718213D01*
X156720288Y-52718210D01*
X156589185Y-52630609D01*
X156589172Y-52630602D01*
X156443501Y-52570264D01*
X156443489Y-52570261D01*
X156288845Y-52539500D01*
X156288842Y-52539500D01*
X156030049Y-52539500D01*
X155963010Y-52519815D01*
X155942368Y-52503181D01*
X155779141Y-52339954D01*
X155592734Y-52209432D01*
X155592732Y-52209431D01*
X155386497Y-52113261D01*
X155386488Y-52113258D01*
X155166697Y-52054366D01*
X155166693Y-52054365D01*
X155166692Y-52054365D01*
X155166691Y-52054364D01*
X155166686Y-52054364D01*
X154940002Y-52034532D01*
X154939998Y-52034532D01*
X154713313Y-52054364D01*
X154713302Y-52054366D01*
X154493511Y-52113258D01*
X154493502Y-52113261D01*
X154287267Y-52209431D01*
X154287265Y-52209432D01*
X154100858Y-52339954D01*
X153937632Y-52503181D01*
X153876309Y-52536666D01*
X153849951Y-52539500D01*
X153490049Y-52539500D01*
X153423010Y-52519815D01*
X153402368Y-52503181D01*
X153239141Y-52339954D01*
X153052734Y-52209432D01*
X153052732Y-52209431D01*
X152846497Y-52113261D01*
X152846488Y-52113258D01*
X152626697Y-52054366D01*
X152626693Y-52054365D01*
X152626692Y-52054365D01*
X152626691Y-52054364D01*
X152626686Y-52054364D01*
X152400002Y-52034532D01*
X152399998Y-52034532D01*
X152173313Y-52054364D01*
X152173302Y-52054366D01*
X151953511Y-52113258D01*
X151953502Y-52113261D01*
X151747267Y-52209431D01*
X151747265Y-52209432D01*
X151560858Y-52339954D01*
X151399954Y-52500858D01*
X151269432Y-52687265D01*
X151269431Y-52687267D01*
X151173261Y-52893502D01*
X151173258Y-52893511D01*
X151114366Y-53113302D01*
X151114364Y-53113313D01*
X151094532Y-53339998D01*
X151094532Y-53340001D01*
X151114364Y-53566686D01*
X151114366Y-53566697D01*
X151173258Y-53786488D01*
X151173261Y-53786497D01*
X151269431Y-53992732D01*
X151269432Y-53992734D01*
X151399954Y-54179141D01*
X151563181Y-54342368D01*
X151596666Y-54403691D01*
X151599500Y-54430049D01*
X151599500Y-54955500D01*
X151579815Y-55022539D01*
X151527011Y-55068294D01*
X151475500Y-55079500D01*
X150950049Y-55079500D01*
X150883010Y-55059815D01*
X150862368Y-55043181D01*
X150699141Y-54879954D01*
X150512734Y-54749432D01*
X150512732Y-54749431D01*
X150306497Y-54653261D01*
X150306488Y-54653258D01*
X150086697Y-54594366D01*
X150086693Y-54594365D01*
X150086692Y-54594365D01*
X150086691Y-54594364D01*
X150086686Y-54594364D01*
X149860002Y-54574532D01*
X149859998Y-54574532D01*
X149633313Y-54594364D01*
X149633302Y-54594366D01*
X149413511Y-54653258D01*
X149413502Y-54653261D01*
X149207267Y-54749431D01*
X149207265Y-54749432D01*
X149020858Y-54879954D01*
X148859954Y-55040858D01*
X148729432Y-55227265D01*
X148729431Y-55227267D01*
X148633261Y-55433502D01*
X148633258Y-55433511D01*
X148574366Y-55653302D01*
X148574364Y-55653313D01*
X148554532Y-55879998D01*
X148554532Y-55880001D01*
X148574364Y-56106686D01*
X148574366Y-56106697D01*
X148633258Y-56326488D01*
X148633261Y-56326497D01*
X148729431Y-56532732D01*
X148729432Y-56532734D01*
X148859954Y-56719141D01*
X149020858Y-56880045D01*
X149020861Y-56880047D01*
X149207266Y-57010568D01*
X149265275Y-57037618D01*
X149317714Y-57083791D01*
X149336866Y-57150984D01*
X149316650Y-57217865D01*
X149265275Y-57262382D01*
X149207267Y-57289431D01*
X149207265Y-57289432D01*
X149020858Y-57419954D01*
X148859954Y-57580858D01*
X148729432Y-57767265D01*
X148729431Y-57767267D01*
X148633261Y-57973502D01*
X148633258Y-57973511D01*
X148574366Y-58193302D01*
X148574364Y-58193313D01*
X148554532Y-58419998D01*
X148554532Y-58420001D01*
X148574364Y-58646686D01*
X148574366Y-58646697D01*
X148585209Y-58687163D01*
X148583546Y-58757013D01*
X148553115Y-58806937D01*
X146814722Y-60545331D01*
X146814718Y-60545336D01*
X146791010Y-60580820D01*
X146791010Y-60580821D01*
X146743534Y-60651874D01*
X146694499Y-60770255D01*
X146694497Y-60770261D01*
X146669500Y-60895928D01*
X146669500Y-69862278D01*
X146649815Y-69929317D01*
X146616623Y-69963853D01*
X146448597Y-70081505D01*
X146281505Y-70248597D01*
X146151575Y-70434158D01*
X146096998Y-70477783D01*
X146027500Y-70484977D01*
X145965145Y-70453454D01*
X145948425Y-70434158D01*
X145818494Y-70248597D01*
X145651404Y-70081508D01*
X145651401Y-70081505D01*
X145633374Y-70068882D01*
X145589751Y-70014306D01*
X145580500Y-69967309D01*
X145580500Y-57071161D01*
X145580500Y-57071158D01*
X145577823Y-57057702D01*
X145549737Y-56916503D01*
X145531442Y-56872335D01*
X145489397Y-56770827D01*
X145489390Y-56770814D01*
X145401790Y-56639712D01*
X145367549Y-56605471D01*
X145290289Y-56528211D01*
X144694739Y-55932661D01*
X144020291Y-55258212D01*
X144020288Y-55258210D01*
X143889185Y-55170609D01*
X143889172Y-55170602D01*
X143743501Y-55110264D01*
X143743491Y-55110261D01*
X143634006Y-55088483D01*
X143572095Y-55056098D01*
X143537521Y-54995382D01*
X143534908Y-54980117D01*
X143534091Y-54972516D01*
X143483797Y-54837671D01*
X143483793Y-54837664D01*
X143397547Y-54722455D01*
X143397544Y-54722452D01*
X143282335Y-54636206D01*
X143282328Y-54636202D01*
X143147482Y-54585908D01*
X143139938Y-54584126D01*
X143140474Y-54581853D01*
X143086688Y-54559571D01*
X143046843Y-54502177D01*
X143040500Y-54463024D01*
X143040500Y-54430049D01*
X143060185Y-54363010D01*
X143076819Y-54342368D01*
X143240045Y-54179141D01*
X143240047Y-54179139D01*
X143370568Y-53992734D01*
X143466739Y-53786496D01*
X143525635Y-53566692D01*
X143545468Y-53340000D01*
X143545467Y-53339994D01*
X143525635Y-53113313D01*
X143525635Y-53113308D01*
X143466739Y-52893504D01*
X143370568Y-52687266D01*
X143262637Y-52533123D01*
X143240045Y-52500858D01*
X143079141Y-52339954D01*
X142892734Y-52209432D01*
X142892732Y-52209431D01*
X142686497Y-52113261D01*
X142686488Y-52113258D01*
X142466697Y-52054366D01*
X142466693Y-52054365D01*
X142466692Y-52054365D01*
X142466691Y-52054364D01*
X142466686Y-52054364D01*
X142240002Y-52034532D01*
X142239998Y-52034532D01*
X142013313Y-52054364D01*
X142013302Y-52054366D01*
X141793511Y-52113258D01*
X141793502Y-52113261D01*
X141587267Y-52209431D01*
X141587265Y-52209432D01*
X141400858Y-52339954D01*
X141239954Y-52500858D01*
X141109432Y-52687265D01*
X141109431Y-52687267D01*
X141013261Y-52893502D01*
X141013258Y-52893511D01*
X140954366Y-53113302D01*
X140954364Y-53113313D01*
X140934532Y-53339998D01*
X140934532Y-53340001D01*
X140954364Y-53566686D01*
X140954366Y-53566697D01*
X141013258Y-53786488D01*
X141013261Y-53786497D01*
X141109431Y-53992732D01*
X141109432Y-53992734D01*
X141239954Y-54179141D01*
X141403181Y-54342368D01*
X141436666Y-54403691D01*
X141439500Y-54430049D01*
X141439500Y-54463023D01*
X141419815Y-54530062D01*
X141367011Y-54575817D01*
X141339865Y-54583266D01*
X141340068Y-54584124D01*
X141332520Y-54585907D01*
X141197671Y-54636202D01*
X141197664Y-54636206D01*
X141082455Y-54722452D01*
X141082452Y-54722455D01*
X140996206Y-54837664D01*
X140996202Y-54837671D01*
X140945908Y-54972517D01*
X140940533Y-55022516D01*
X140939501Y-55032123D01*
X140939500Y-55032135D01*
X140939500Y-56727870D01*
X140939501Y-56727876D01*
X140945908Y-56787483D01*
X140996202Y-56922328D01*
X140996206Y-56922335D01*
X141082452Y-57037544D01*
X141082455Y-57037547D01*
X141197664Y-57123793D01*
X141197671Y-57123797D01*
X141215643Y-57130500D01*
X141332517Y-57174091D01*
X141367596Y-57177862D01*
X141432144Y-57204599D01*
X141471993Y-57261991D01*
X141474488Y-57331816D01*
X141438836Y-57391905D01*
X141425464Y-57402725D01*
X141400858Y-57419954D01*
X141237632Y-57583181D01*
X141176309Y-57616666D01*
X141149951Y-57619500D01*
X138351155Y-57619500D01*
X138196508Y-57650261D01*
X138196498Y-57650264D01*
X138050827Y-57710602D01*
X138050814Y-57710609D01*
X137928468Y-57792358D01*
X137928469Y-57792359D01*
X137919711Y-57798210D01*
X137919709Y-57798212D01*
X137242236Y-58475686D01*
X136649711Y-59068211D01*
X136596252Y-59121670D01*
X136538209Y-59179712D01*
X136450609Y-59310814D01*
X136450602Y-59310827D01*
X136390264Y-59456498D01*
X136390261Y-59456510D01*
X136359500Y-59611153D01*
X136359500Y-62409951D01*
X136339815Y-62476990D01*
X136323181Y-62497632D01*
X136159954Y-62660858D01*
X136029432Y-62847265D01*
X136029431Y-62847267D01*
X135933261Y-63053502D01*
X135933258Y-63053511D01*
X135874366Y-63273302D01*
X135874364Y-63273313D01*
X135854532Y-63499998D01*
X135854532Y-63500002D01*
X135863441Y-63601838D01*
X135849674Y-63670338D01*
X135827594Y-63700326D01*
X135544383Y-63983537D01*
X135483060Y-64017022D01*
X135413368Y-64012038D01*
X135357435Y-63970166D01*
X135333018Y-63904702D01*
X135342140Y-63848405D01*
X135389737Y-63733497D01*
X135395047Y-63706805D01*
X135420500Y-63578843D01*
X135420500Y-63421158D01*
X135420500Y-63421157D01*
X135420500Y-59771439D01*
X135440185Y-59704400D01*
X135492989Y-59658645D01*
X135501168Y-59655257D01*
X135508515Y-59652517D01*
X135612331Y-59613796D01*
X135727546Y-59527546D01*
X135813796Y-59412331D01*
X135864091Y-59277483D01*
X135870500Y-59217873D01*
X135870499Y-57622128D01*
X135864091Y-57562517D01*
X135861976Y-57556847D01*
X135813797Y-57427671D01*
X135813793Y-57427664D01*
X135727547Y-57312455D01*
X135727544Y-57312452D01*
X135612335Y-57226206D01*
X135612328Y-57226202D01*
X135477482Y-57175908D01*
X135477483Y-57175908D01*
X135417883Y-57169501D01*
X135417881Y-57169500D01*
X135417873Y-57169500D01*
X135417864Y-57169500D01*
X133822129Y-57169500D01*
X133822123Y-57169501D01*
X133762516Y-57175908D01*
X133627671Y-57226202D01*
X133627664Y-57226206D01*
X133512455Y-57312452D01*
X133512452Y-57312455D01*
X133426206Y-57427664D01*
X133426202Y-57427671D01*
X133375908Y-57562517D01*
X133373687Y-57583181D01*
X133369501Y-57622123D01*
X133369500Y-57622135D01*
X133369500Y-57688138D01*
X133349815Y-57755177D01*
X133297011Y-57800932D01*
X133227853Y-57810876D01*
X133164297Y-57781851D01*
X133143925Y-57759261D01*
X133041597Y-57613121D01*
X132916819Y-57488343D01*
X132883334Y-57427020D01*
X132880500Y-57400662D01*
X132880500Y-56262939D01*
X132900185Y-56195900D01*
X132916814Y-56175263D01*
X134465259Y-54626817D01*
X134526582Y-54593333D01*
X134552940Y-54590499D01*
X135417871Y-54590499D01*
X135417872Y-54590499D01*
X135477483Y-54584091D01*
X135612331Y-54533796D01*
X135727546Y-54447546D01*
X135813796Y-54332331D01*
X135864091Y-54197483D01*
X135870500Y-54137873D01*
X135870499Y-52542128D01*
X135865299Y-52493757D01*
X135864091Y-52482516D01*
X135813797Y-52347671D01*
X135813793Y-52347664D01*
X135727547Y-52232455D01*
X135727544Y-52232452D01*
X135612335Y-52146206D01*
X135612328Y-52146202D01*
X135477482Y-52095908D01*
X135477483Y-52095908D01*
X135417883Y-52089501D01*
X135417881Y-52089500D01*
X135417873Y-52089500D01*
X135417864Y-52089500D01*
X133822129Y-52089500D01*
X133822123Y-52089501D01*
X133762516Y-52095908D01*
X133627671Y-52146202D01*
X133627664Y-52146206D01*
X133512455Y-52232452D01*
X133512452Y-52232455D01*
X133426206Y-52347664D01*
X133426202Y-52347671D01*
X133375908Y-52482517D01*
X133370468Y-52533121D01*
X133369501Y-52542123D01*
X133369500Y-52542135D01*
X133369500Y-52608138D01*
X133349815Y-52675177D01*
X133297011Y-52720932D01*
X133227853Y-52730876D01*
X133164297Y-52701851D01*
X133143925Y-52679261D01*
X133041599Y-52533124D01*
X132985322Y-52476847D01*
X132886877Y-52378402D01*
X132707639Y-52252898D01*
X132707640Y-52252898D01*
X132707638Y-52252897D01*
X132589189Y-52197664D01*
X132509330Y-52160425D01*
X132509326Y-52160424D01*
X132509322Y-52160422D01*
X132297977Y-52103793D01*
X132080002Y-52084723D01*
X132079998Y-52084723D01*
X131952151Y-52095908D01*
X131862023Y-52103793D01*
X131862020Y-52103793D01*
X131650677Y-52160422D01*
X131650668Y-52160426D01*
X131452361Y-52252898D01*
X131452357Y-52252900D01*
X131273121Y-52378402D01*
X131118402Y-52533121D01*
X130992900Y-52712357D01*
X130992898Y-52712361D01*
X130922382Y-52863583D01*
X130876209Y-52916022D01*
X130809016Y-52935174D01*
X130742135Y-52914958D01*
X130697618Y-52863583D01*
X130629829Y-52718211D01*
X130627102Y-52712362D01*
X130627100Y-52712359D01*
X130627099Y-52712357D01*
X130501599Y-52533124D01*
X130445322Y-52476847D01*
X130346877Y-52378402D01*
X130167639Y-52252898D01*
X130167640Y-52252898D01*
X130167638Y-52252897D01*
X130049189Y-52197664D01*
X129969330Y-52160425D01*
X129969326Y-52160424D01*
X129969322Y-52160422D01*
X129757977Y-52103793D01*
X129540002Y-52084723D01*
X129539998Y-52084723D01*
X129412151Y-52095908D01*
X129322023Y-52103793D01*
X129322020Y-52103793D01*
X129110677Y-52160422D01*
X129110668Y-52160426D01*
X128912361Y-52252898D01*
X128912357Y-52252900D01*
X128733124Y-52378400D01*
X128670734Y-52440790D01*
X128608342Y-52503182D01*
X128547022Y-52536666D01*
X128520663Y-52539500D01*
X125550049Y-52539500D01*
X125483010Y-52519815D01*
X125462368Y-52503181D01*
X125299141Y-52339954D01*
X125112734Y-52209432D01*
X125112732Y-52209431D01*
X124906497Y-52113261D01*
X124906488Y-52113258D01*
X124686697Y-52054366D01*
X124686693Y-52054365D01*
X124686692Y-52054365D01*
X124686691Y-52054364D01*
X124686686Y-52054364D01*
X124460002Y-52034532D01*
X124459998Y-52034532D01*
X124233313Y-52054364D01*
X124233302Y-52054366D01*
X124013511Y-52113258D01*
X124013502Y-52113261D01*
X123807267Y-52209431D01*
X123807265Y-52209432D01*
X123620858Y-52339954D01*
X123457632Y-52503181D01*
X123396309Y-52536666D01*
X123369951Y-52539500D01*
X123137018Y-52539500D01*
X123069979Y-52519815D01*
X123033209Y-52483321D01*
X123028980Y-52476849D01*
X123028979Y-52476847D01*
X122871784Y-52306087D01*
X122871779Y-52306083D01*
X122871777Y-52306081D01*
X122688634Y-52163535D01*
X122688628Y-52163531D01*
X122484504Y-52053064D01*
X122484495Y-52053061D01*
X122264984Y-51977702D01*
X122074450Y-51945908D01*
X122036049Y-51939500D01*
X121803951Y-51939500D01*
X121765550Y-51945908D01*
X121575015Y-51977702D01*
X121355504Y-52053061D01*
X121355495Y-52053064D01*
X121151371Y-52163531D01*
X121151365Y-52163535D01*
X120968222Y-52306081D01*
X120968219Y-52306084D01*
X120968216Y-52306086D01*
X120968216Y-52306087D01*
X120943886Y-52332517D01*
X120811016Y-52476852D01*
X120684075Y-52671151D01*
X120590842Y-52883699D01*
X120533866Y-53108691D01*
X120533864Y-53108702D01*
X120514700Y-53339993D01*
X120514700Y-53339994D01*
X120514700Y-53340000D01*
X120528561Y-53507279D01*
X120530861Y-53535034D01*
X120516779Y-53603470D01*
X120494965Y-53632955D01*
X119263423Y-54864499D01*
X118869711Y-55258211D01*
X118813960Y-55313962D01*
X118758209Y-55369712D01*
X118670609Y-55500814D01*
X118670602Y-55500827D01*
X118610264Y-55646498D01*
X118610261Y-55646510D01*
X118579500Y-55801153D01*
X118579500Y-62755580D01*
X118559815Y-62822619D01*
X118507011Y-62868374D01*
X118437853Y-62878318D01*
X118374297Y-62849293D01*
X118336523Y-62790515D01*
X118332142Y-62768182D01*
X118329999Y-62747203D01*
X118274814Y-62580666D01*
X118182712Y-62431344D01*
X118058656Y-62307288D01*
X117933358Y-62230004D01*
X117909336Y-62215187D01*
X117909331Y-62215185D01*
X117906853Y-62214364D01*
X117742797Y-62160001D01*
X117742795Y-62160000D01*
X117640016Y-62149500D01*
X117640009Y-62149500D01*
X116672940Y-62149500D01*
X116605901Y-62129815D01*
X116585259Y-62113181D01*
X115136819Y-60664741D01*
X115103334Y-60603418D01*
X115100500Y-60577060D01*
X115100500Y-59632281D01*
X115120185Y-59565242D01*
X115148336Y-59534428D01*
X115251784Y-59453913D01*
X115408979Y-59283153D01*
X115535924Y-59088849D01*
X115629157Y-58876300D01*
X115686134Y-58651305D01*
X115686516Y-58646697D01*
X115705300Y-58420006D01*
X115705300Y-58419993D01*
X115686135Y-58188702D01*
X115686133Y-58188691D01*
X115629157Y-57963699D01*
X115535924Y-57751151D01*
X115408983Y-57556852D01*
X115408980Y-57556849D01*
X115408979Y-57556847D01*
X115251784Y-57386087D01*
X115251779Y-57386083D01*
X115251777Y-57386081D01*
X115148338Y-57305571D01*
X115107525Y-57248861D01*
X115100500Y-57207718D01*
X115100500Y-54864499D01*
X115120185Y-54797460D01*
X115172989Y-54751705D01*
X115224500Y-54740499D01*
X115247871Y-54740499D01*
X115247872Y-54740499D01*
X115307483Y-54734091D01*
X115442331Y-54683796D01*
X115557546Y-54597546D01*
X115643796Y-54482331D01*
X115694091Y-54347483D01*
X115700500Y-54287873D01*
X115700499Y-52392128D01*
X115694091Y-52332517D01*
X115684233Y-52306087D01*
X115643797Y-52197671D01*
X115643793Y-52197664D01*
X115557547Y-52082455D01*
X115557544Y-52082452D01*
X115442335Y-51996206D01*
X115442328Y-51996202D01*
X115307482Y-51945908D01*
X115307483Y-51945908D01*
X115247883Y-51939501D01*
X115247881Y-51939500D01*
X115247873Y-51939500D01*
X115247864Y-51939500D01*
X113352129Y-51939500D01*
X113352123Y-51939501D01*
X113292516Y-51945908D01*
X113157671Y-51996202D01*
X113157664Y-51996206D01*
X113042455Y-52082452D01*
X113042452Y-52082455D01*
X112956206Y-52197664D01*
X112956202Y-52197671D01*
X112905908Y-52332517D01*
X112899501Y-52392116D01*
X112899501Y-52392123D01*
X112899500Y-52392135D01*
X112899500Y-54287870D01*
X112899501Y-54287876D01*
X112905908Y-54347483D01*
X112956202Y-54482328D01*
X112956206Y-54482335D01*
X113042452Y-54597544D01*
X113042455Y-54597547D01*
X113157664Y-54683793D01*
X113157671Y-54683797D01*
X113202246Y-54700422D01*
X113292517Y-54734091D01*
X113352127Y-54740500D01*
X113375497Y-54740499D01*
X113442536Y-54760181D01*
X113488292Y-54812983D01*
X113499500Y-54864499D01*
X113499500Y-57207718D01*
X113479815Y-57274757D01*
X113451662Y-57305571D01*
X113348222Y-57386081D01*
X113348219Y-57386084D01*
X113348216Y-57386086D01*
X113348216Y-57386087D01*
X113323886Y-57412517D01*
X113191016Y-57556852D01*
X113064075Y-57751151D01*
X112970842Y-57963699D01*
X112913866Y-58188691D01*
X112913864Y-58188702D01*
X112894700Y-58419993D01*
X109220000Y-58419993D01*
X109220000Y-50924000D01*
X109239685Y-50856961D01*
X109292489Y-50811206D01*
X109344000Y-50800000D01*
X177676000Y-50800000D01*
X177743039Y-50819685D01*
G37*
%TD.AperFunction*%
%TD*%
M02*
