%TF.GenerationSoftware,KiCad,Pcbnew,8.0.8*%
%TF.CreationDate,2025-04-23T11:45:22+02:00*%
%TF.ProjectId,strober_board,7374726f-6265-4725-9f62-6f6172642e6b,rev?*%
%TF.SameCoordinates,Original*%
%TF.FileFunction,Legend,Bot*%
%TF.FilePolarity,Positive*%
%FSLAX46Y46*%
G04 Gerber Fmt 4.6, Leading zero omitted, Abs format (unit mm)*
G04 Created by KiCad (PCBNEW 8.0.8) date 2025-04-23 11:45:22*
%MOMM*%
%LPD*%
G01*
G04 APERTURE LIST*
%ADD10C,0.100000*%
G04 APERTURE END LIST*
D10*
X174837068Y-78551228D02*
X174837068Y-77051228D01*
X174837068Y-77622657D02*
X174694211Y-77551228D01*
X174694211Y-77551228D02*
X174408496Y-77551228D01*
X174408496Y-77551228D02*
X174265639Y-77622657D01*
X174265639Y-77622657D02*
X174194211Y-77694085D01*
X174194211Y-77694085D02*
X174122782Y-77836942D01*
X174122782Y-77836942D02*
X174122782Y-78265514D01*
X174122782Y-78265514D02*
X174194211Y-78408371D01*
X174194211Y-78408371D02*
X174265639Y-78479800D01*
X174265639Y-78479800D02*
X174408496Y-78551228D01*
X174408496Y-78551228D02*
X174694211Y-78551228D01*
X174694211Y-78551228D02*
X174837068Y-78479800D01*
X173622782Y-77551228D02*
X173265639Y-78551228D01*
X172908496Y-77551228D02*
X173265639Y-78551228D01*
X173265639Y-78551228D02*
X173408496Y-78908371D01*
X173408496Y-78908371D02*
X173479925Y-78979800D01*
X173479925Y-78979800D02*
X173622782Y-79051228D01*
X171194211Y-78551228D02*
X171194211Y-77051228D01*
X171194211Y-77765514D02*
X170337068Y-77765514D01*
X170337068Y-78551228D02*
X170337068Y-77051228D01*
X169051353Y-78479800D02*
X169194210Y-78551228D01*
X169194210Y-78551228D02*
X169479925Y-78551228D01*
X169479925Y-78551228D02*
X169622782Y-78479800D01*
X169622782Y-78479800D02*
X169694210Y-78336942D01*
X169694210Y-78336942D02*
X169694210Y-77765514D01*
X169694210Y-77765514D02*
X169622782Y-77622657D01*
X169622782Y-77622657D02*
X169479925Y-77551228D01*
X169479925Y-77551228D02*
X169194210Y-77551228D01*
X169194210Y-77551228D02*
X169051353Y-77622657D01*
X169051353Y-77622657D02*
X168979925Y-77765514D01*
X168979925Y-77765514D02*
X168979925Y-77908371D01*
X168979925Y-77908371D02*
X169694210Y-78051228D01*
X168337068Y-77551228D02*
X168337068Y-78551228D01*
X168337068Y-77694085D02*
X168265639Y-77622657D01*
X168265639Y-77622657D02*
X168122782Y-77551228D01*
X168122782Y-77551228D02*
X167908496Y-77551228D01*
X167908496Y-77551228D02*
X167765639Y-77622657D01*
X167765639Y-77622657D02*
X167694211Y-77765514D01*
X167694211Y-77765514D02*
X167694211Y-78551228D01*
X166337068Y-78551228D02*
X166337068Y-77051228D01*
X166337068Y-78479800D02*
X166479925Y-78551228D01*
X166479925Y-78551228D02*
X166765639Y-78551228D01*
X166765639Y-78551228D02*
X166908496Y-78479800D01*
X166908496Y-78479800D02*
X166979925Y-78408371D01*
X166979925Y-78408371D02*
X167051353Y-78265514D01*
X167051353Y-78265514D02*
X167051353Y-77836942D01*
X167051353Y-77836942D02*
X166979925Y-77694085D01*
X166979925Y-77694085D02*
X166908496Y-77622657D01*
X166908496Y-77622657D02*
X166765639Y-77551228D01*
X166765639Y-77551228D02*
X166479925Y-77551228D01*
X166479925Y-77551228D02*
X166337068Y-77622657D01*
X165622782Y-78551228D02*
X165622782Y-77551228D01*
X165622782Y-77836942D02*
X165551353Y-77694085D01*
X165551353Y-77694085D02*
X165479925Y-77622657D01*
X165479925Y-77622657D02*
X165337067Y-77551228D01*
X165337067Y-77551228D02*
X165194210Y-77551228D01*
X164694211Y-78551228D02*
X164694211Y-77551228D01*
X164694211Y-77051228D02*
X164765639Y-77122657D01*
X164765639Y-77122657D02*
X164694211Y-77194085D01*
X164694211Y-77194085D02*
X164622782Y-77122657D01*
X164622782Y-77122657D02*
X164694211Y-77051228D01*
X164694211Y-77051228D02*
X164694211Y-77194085D01*
X163979925Y-78551228D02*
X163979925Y-77051228D01*
X163837068Y-77979800D02*
X163408496Y-78551228D01*
X163408496Y-77551228D02*
X163979925Y-78122657D01*
X160908496Y-78551228D02*
X161622782Y-78551228D01*
X161622782Y-78551228D02*
X161622782Y-77051228D01*
X159837067Y-78479800D02*
X159979924Y-78551228D01*
X159979924Y-78551228D02*
X160265639Y-78551228D01*
X160265639Y-78551228D02*
X160408496Y-78479800D01*
X160408496Y-78479800D02*
X160479924Y-78336942D01*
X160479924Y-78336942D02*
X160479924Y-77765514D01*
X160479924Y-77765514D02*
X160408496Y-77622657D01*
X160408496Y-77622657D02*
X160265639Y-77551228D01*
X160265639Y-77551228D02*
X159979924Y-77551228D01*
X159979924Y-77551228D02*
X159837067Y-77622657D01*
X159837067Y-77622657D02*
X159765639Y-77765514D01*
X159765639Y-77765514D02*
X159765639Y-77908371D01*
X159765639Y-77908371D02*
X160479924Y-78051228D01*
X159122782Y-78551228D02*
X159122782Y-77551228D01*
X159122782Y-77051228D02*
X159194210Y-77122657D01*
X159194210Y-77122657D02*
X159122782Y-77194085D01*
X159122782Y-77194085D02*
X159051353Y-77122657D01*
X159051353Y-77122657D02*
X159122782Y-77051228D01*
X159122782Y-77051228D02*
X159122782Y-77194085D01*
X158408496Y-78551228D02*
X158408496Y-77051228D01*
X158408496Y-77622657D02*
X158265639Y-77551228D01*
X158265639Y-77551228D02*
X157979924Y-77551228D01*
X157979924Y-77551228D02*
X157837067Y-77622657D01*
X157837067Y-77622657D02*
X157765639Y-77694085D01*
X157765639Y-77694085D02*
X157694210Y-77836942D01*
X157694210Y-77836942D02*
X157694210Y-78265514D01*
X157694210Y-78265514D02*
X157765639Y-78408371D01*
X157765639Y-78408371D02*
X157837067Y-78479800D01*
X157837067Y-78479800D02*
X157979924Y-78551228D01*
X157979924Y-78551228D02*
X158265639Y-78551228D01*
X158265639Y-78551228D02*
X158408496Y-78479800D01*
X157051353Y-78551228D02*
X157051353Y-77551228D01*
X157051353Y-77836942D02*
X156979924Y-77694085D01*
X156979924Y-77694085D02*
X156908496Y-77622657D01*
X156908496Y-77622657D02*
X156765638Y-77551228D01*
X156765638Y-77551228D02*
X156622781Y-77551228D01*
X155479925Y-78551228D02*
X155479925Y-77765514D01*
X155479925Y-77765514D02*
X155551353Y-77622657D01*
X155551353Y-77622657D02*
X155694210Y-77551228D01*
X155694210Y-77551228D02*
X155979925Y-77551228D01*
X155979925Y-77551228D02*
X156122782Y-77622657D01*
X155479925Y-78479800D02*
X155622782Y-78551228D01*
X155622782Y-78551228D02*
X155979925Y-78551228D01*
X155979925Y-78551228D02*
X156122782Y-78479800D01*
X156122782Y-78479800D02*
X156194210Y-78336942D01*
X156194210Y-78336942D02*
X156194210Y-78194085D01*
X156194210Y-78194085D02*
X156122782Y-78051228D01*
X156122782Y-78051228D02*
X155979925Y-77979800D01*
X155979925Y-77979800D02*
X155622782Y-77979800D01*
X155622782Y-77979800D02*
X155479925Y-77908371D01*
X154765639Y-77551228D02*
X154765639Y-78551228D01*
X154765639Y-77694085D02*
X154694210Y-77622657D01*
X154694210Y-77622657D02*
X154551353Y-77551228D01*
X154551353Y-77551228D02*
X154337067Y-77551228D01*
X154337067Y-77551228D02*
X154194210Y-77622657D01*
X154194210Y-77622657D02*
X154122782Y-77765514D01*
X154122782Y-77765514D02*
X154122782Y-78551228D01*
X152765639Y-78551228D02*
X152765639Y-77051228D01*
X152765639Y-78479800D02*
X152908496Y-78551228D01*
X152908496Y-78551228D02*
X153194210Y-78551228D01*
X153194210Y-78551228D02*
X153337067Y-78479800D01*
X153337067Y-78479800D02*
X153408496Y-78408371D01*
X153408496Y-78408371D02*
X153479924Y-78265514D01*
X153479924Y-78265514D02*
X153479924Y-77836942D01*
X153479924Y-77836942D02*
X153408496Y-77694085D01*
X153408496Y-77694085D02*
X153337067Y-77622657D01*
X153337067Y-77622657D02*
X153194210Y-77551228D01*
X153194210Y-77551228D02*
X152908496Y-77551228D01*
X152908496Y-77551228D02*
X152765639Y-77622657D01*
X152265638Y-77551228D02*
X151694210Y-77551228D01*
X152051353Y-77051228D02*
X152051353Y-78336942D01*
X152051353Y-78336942D02*
X151979924Y-78479800D01*
X151979924Y-78479800D02*
X151837067Y-78551228D01*
X151837067Y-78551228D02*
X151694210Y-78551228D01*
X147524115Y-78612419D02*
X147524115Y-77612419D01*
X147095544Y-78612419D02*
X147095544Y-78088609D01*
X147095544Y-78088609D02*
X147143163Y-77993371D01*
X147143163Y-77993371D02*
X147238401Y-77945752D01*
X147238401Y-77945752D02*
X147381258Y-77945752D01*
X147381258Y-77945752D02*
X147476496Y-77993371D01*
X147476496Y-77993371D02*
X147524115Y-78040990D01*
X146762210Y-77945752D02*
X146381258Y-77945752D01*
X146619353Y-77612419D02*
X146619353Y-78469561D01*
X146619353Y-78469561D02*
X146571734Y-78564800D01*
X146571734Y-78564800D02*
X146476496Y-78612419D01*
X146476496Y-78612419D02*
X146381258Y-78612419D01*
X146190781Y-77945752D02*
X145809829Y-77945752D01*
X146047924Y-77612419D02*
X146047924Y-78469561D01*
X146047924Y-78469561D02*
X146000305Y-78564800D01*
X146000305Y-78564800D02*
X145905067Y-78612419D01*
X145905067Y-78612419D02*
X145809829Y-78612419D01*
X145476495Y-77945752D02*
X145476495Y-78945752D01*
X145476495Y-77993371D02*
X145381257Y-77945752D01*
X145381257Y-77945752D02*
X145190781Y-77945752D01*
X145190781Y-77945752D02*
X145095543Y-77993371D01*
X145095543Y-77993371D02*
X145047924Y-78040990D01*
X145047924Y-78040990D02*
X145000305Y-78136228D01*
X145000305Y-78136228D02*
X145000305Y-78421942D01*
X145000305Y-78421942D02*
X145047924Y-78517180D01*
X145047924Y-78517180D02*
X145095543Y-78564800D01*
X145095543Y-78564800D02*
X145190781Y-78612419D01*
X145190781Y-78612419D02*
X145381257Y-78612419D01*
X145381257Y-78612419D02*
X145476495Y-78564800D01*
X144619352Y-78564800D02*
X144524114Y-78612419D01*
X144524114Y-78612419D02*
X144333638Y-78612419D01*
X144333638Y-78612419D02*
X144238400Y-78564800D01*
X144238400Y-78564800D02*
X144190781Y-78469561D01*
X144190781Y-78469561D02*
X144190781Y-78421942D01*
X144190781Y-78421942D02*
X144238400Y-78326704D01*
X144238400Y-78326704D02*
X144333638Y-78279085D01*
X144333638Y-78279085D02*
X144476495Y-78279085D01*
X144476495Y-78279085D02*
X144571733Y-78231466D01*
X144571733Y-78231466D02*
X144619352Y-78136228D01*
X144619352Y-78136228D02*
X144619352Y-78088609D01*
X144619352Y-78088609D02*
X144571733Y-77993371D01*
X144571733Y-77993371D02*
X144476495Y-77945752D01*
X144476495Y-77945752D02*
X144333638Y-77945752D01*
X144333638Y-77945752D02*
X144238400Y-77993371D01*
X143762209Y-78517180D02*
X143714590Y-78564800D01*
X143714590Y-78564800D02*
X143762209Y-78612419D01*
X143762209Y-78612419D02*
X143809828Y-78564800D01*
X143809828Y-78564800D02*
X143762209Y-78517180D01*
X143762209Y-78517180D02*
X143762209Y-78612419D01*
X143762209Y-77993371D02*
X143714590Y-78040990D01*
X143714590Y-78040990D02*
X143762209Y-78088609D01*
X143762209Y-78088609D02*
X143809828Y-78040990D01*
X143809828Y-78040990D02*
X143762209Y-77993371D01*
X143762209Y-77993371D02*
X143762209Y-78088609D01*
X142571734Y-77564800D02*
X143428876Y-78850514D01*
X141524115Y-77564800D02*
X142381257Y-78850514D01*
X140762210Y-77945752D02*
X140762210Y-78755276D01*
X140762210Y-78755276D02*
X140809829Y-78850514D01*
X140809829Y-78850514D02*
X140857448Y-78898133D01*
X140857448Y-78898133D02*
X140952686Y-78945752D01*
X140952686Y-78945752D02*
X141095543Y-78945752D01*
X141095543Y-78945752D02*
X141190781Y-78898133D01*
X140762210Y-78564800D02*
X140857448Y-78612419D01*
X140857448Y-78612419D02*
X141047924Y-78612419D01*
X141047924Y-78612419D02*
X141143162Y-78564800D01*
X141143162Y-78564800D02*
X141190781Y-78517180D01*
X141190781Y-78517180D02*
X141238400Y-78421942D01*
X141238400Y-78421942D02*
X141238400Y-78136228D01*
X141238400Y-78136228D02*
X141190781Y-78040990D01*
X141190781Y-78040990D02*
X141143162Y-77993371D01*
X141143162Y-77993371D02*
X141047924Y-77945752D01*
X141047924Y-77945752D02*
X140857448Y-77945752D01*
X140857448Y-77945752D02*
X140762210Y-77993371D01*
X140286019Y-78612419D02*
X140286019Y-77945752D01*
X140286019Y-77612419D02*
X140333638Y-77660038D01*
X140333638Y-77660038D02*
X140286019Y-77707657D01*
X140286019Y-77707657D02*
X140238400Y-77660038D01*
X140238400Y-77660038D02*
X140286019Y-77612419D01*
X140286019Y-77612419D02*
X140286019Y-77707657D01*
X139952686Y-77945752D02*
X139571734Y-77945752D01*
X139809829Y-77612419D02*
X139809829Y-78469561D01*
X139809829Y-78469561D02*
X139762210Y-78564800D01*
X139762210Y-78564800D02*
X139666972Y-78612419D01*
X139666972Y-78612419D02*
X139571734Y-78612419D01*
X139238400Y-78612419D02*
X139238400Y-77612419D01*
X138809829Y-78612419D02*
X138809829Y-78088609D01*
X138809829Y-78088609D02*
X138857448Y-77993371D01*
X138857448Y-77993371D02*
X138952686Y-77945752D01*
X138952686Y-77945752D02*
X139095543Y-77945752D01*
X139095543Y-77945752D02*
X139190781Y-77993371D01*
X139190781Y-77993371D02*
X139238400Y-78040990D01*
X137905067Y-77945752D02*
X137905067Y-78612419D01*
X138333638Y-77945752D02*
X138333638Y-78469561D01*
X138333638Y-78469561D02*
X138286019Y-78564800D01*
X138286019Y-78564800D02*
X138190781Y-78612419D01*
X138190781Y-78612419D02*
X138047924Y-78612419D01*
X138047924Y-78612419D02*
X137952686Y-78564800D01*
X137952686Y-78564800D02*
X137905067Y-78517180D01*
X137428876Y-78612419D02*
X137428876Y-77612419D01*
X137428876Y-77993371D02*
X137333638Y-77945752D01*
X137333638Y-77945752D02*
X137143162Y-77945752D01*
X137143162Y-77945752D02*
X137047924Y-77993371D01*
X137047924Y-77993371D02*
X137000305Y-78040990D01*
X137000305Y-78040990D02*
X136952686Y-78136228D01*
X136952686Y-78136228D02*
X136952686Y-78421942D01*
X136952686Y-78421942D02*
X137000305Y-78517180D01*
X137000305Y-78517180D02*
X137047924Y-78564800D01*
X137047924Y-78564800D02*
X137143162Y-78612419D01*
X137143162Y-78612419D02*
X137333638Y-78612419D01*
X137333638Y-78612419D02*
X137428876Y-78564800D01*
X136524114Y-78517180D02*
X136476495Y-78564800D01*
X136476495Y-78564800D02*
X136524114Y-78612419D01*
X136524114Y-78612419D02*
X136571733Y-78564800D01*
X136571733Y-78564800D02*
X136524114Y-78517180D01*
X136524114Y-78517180D02*
X136524114Y-78612419D01*
X135619353Y-78564800D02*
X135714591Y-78612419D01*
X135714591Y-78612419D02*
X135905067Y-78612419D01*
X135905067Y-78612419D02*
X136000305Y-78564800D01*
X136000305Y-78564800D02*
X136047924Y-78517180D01*
X136047924Y-78517180D02*
X136095543Y-78421942D01*
X136095543Y-78421942D02*
X136095543Y-78136228D01*
X136095543Y-78136228D02*
X136047924Y-78040990D01*
X136047924Y-78040990D02*
X136000305Y-77993371D01*
X136000305Y-77993371D02*
X135905067Y-77945752D01*
X135905067Y-77945752D02*
X135714591Y-77945752D01*
X135714591Y-77945752D02*
X135619353Y-77993371D01*
X135047924Y-78612419D02*
X135143162Y-78564800D01*
X135143162Y-78564800D02*
X135190781Y-78517180D01*
X135190781Y-78517180D02*
X135238400Y-78421942D01*
X135238400Y-78421942D02*
X135238400Y-78136228D01*
X135238400Y-78136228D02*
X135190781Y-78040990D01*
X135190781Y-78040990D02*
X135143162Y-77993371D01*
X135143162Y-77993371D02*
X135047924Y-77945752D01*
X135047924Y-77945752D02*
X134905067Y-77945752D01*
X134905067Y-77945752D02*
X134809829Y-77993371D01*
X134809829Y-77993371D02*
X134762210Y-78040990D01*
X134762210Y-78040990D02*
X134714591Y-78136228D01*
X134714591Y-78136228D02*
X134714591Y-78421942D01*
X134714591Y-78421942D02*
X134762210Y-78517180D01*
X134762210Y-78517180D02*
X134809829Y-78564800D01*
X134809829Y-78564800D02*
X134905067Y-78612419D01*
X134905067Y-78612419D02*
X135047924Y-78612419D01*
X134286019Y-78612419D02*
X134286019Y-77945752D01*
X134286019Y-78040990D02*
X134238400Y-77993371D01*
X134238400Y-77993371D02*
X134143162Y-77945752D01*
X134143162Y-77945752D02*
X134000305Y-77945752D01*
X134000305Y-77945752D02*
X133905067Y-77993371D01*
X133905067Y-77993371D02*
X133857448Y-78088609D01*
X133857448Y-78088609D02*
X133857448Y-78612419D01*
X133857448Y-78088609D02*
X133809829Y-77993371D01*
X133809829Y-77993371D02*
X133714591Y-77945752D01*
X133714591Y-77945752D02*
X133571734Y-77945752D01*
X133571734Y-77945752D02*
X133476495Y-77993371D01*
X133476495Y-77993371D02*
X133428876Y-78088609D01*
X133428876Y-78088609D02*
X133428876Y-78612419D01*
X132238401Y-77564800D02*
X133095543Y-78850514D01*
X131952686Y-78326704D02*
X131476496Y-78326704D01*
X132047924Y-78612419D02*
X131714591Y-77612419D01*
X131714591Y-77612419D02*
X131381258Y-78612419D01*
X131047924Y-78612419D02*
X131047924Y-77945752D01*
X131047924Y-78136228D02*
X131000305Y-78040990D01*
X131000305Y-78040990D02*
X130952686Y-77993371D01*
X130952686Y-77993371D02*
X130857448Y-77945752D01*
X130857448Y-77945752D02*
X130762210Y-77945752D01*
X130000305Y-78612419D02*
X130000305Y-77612419D01*
X130000305Y-78564800D02*
X130095543Y-78612419D01*
X130095543Y-78612419D02*
X130286019Y-78612419D01*
X130286019Y-78612419D02*
X130381257Y-78564800D01*
X130381257Y-78564800D02*
X130428876Y-78517180D01*
X130428876Y-78517180D02*
X130476495Y-78421942D01*
X130476495Y-78421942D02*
X130476495Y-78136228D01*
X130476495Y-78136228D02*
X130428876Y-78040990D01*
X130428876Y-78040990D02*
X130381257Y-77993371D01*
X130381257Y-77993371D02*
X130286019Y-77945752D01*
X130286019Y-77945752D02*
X130095543Y-77945752D01*
X130095543Y-77945752D02*
X130000305Y-77993371D01*
X129143162Y-78564800D02*
X129238400Y-78612419D01*
X129238400Y-78612419D02*
X129428876Y-78612419D01*
X129428876Y-78612419D02*
X129524114Y-78564800D01*
X129524114Y-78564800D02*
X129571733Y-78469561D01*
X129571733Y-78469561D02*
X129571733Y-78088609D01*
X129571733Y-78088609D02*
X129524114Y-77993371D01*
X129524114Y-77993371D02*
X129428876Y-77945752D01*
X129428876Y-77945752D02*
X129238400Y-77945752D01*
X129238400Y-77945752D02*
X129143162Y-77993371D01*
X129143162Y-77993371D02*
X129095543Y-78088609D01*
X129095543Y-78088609D02*
X129095543Y-78183847D01*
X129095543Y-78183847D02*
X129571733Y-78279085D01*
X128666971Y-77945752D02*
X128666971Y-78612419D01*
X128666971Y-78040990D02*
X128619352Y-77993371D01*
X128619352Y-77993371D02*
X128524114Y-77945752D01*
X128524114Y-77945752D02*
X128381257Y-77945752D01*
X128381257Y-77945752D02*
X128286019Y-77993371D01*
X128286019Y-77993371D02*
X128238400Y-78088609D01*
X128238400Y-78088609D02*
X128238400Y-78612419D01*
X127762209Y-78612419D02*
X127762209Y-77945752D01*
X127762209Y-78136228D02*
X127714590Y-78040990D01*
X127714590Y-78040990D02*
X127666971Y-77993371D01*
X127666971Y-77993371D02*
X127571733Y-77945752D01*
X127571733Y-77945752D02*
X127476495Y-77945752D01*
X127238399Y-77945752D02*
X127000304Y-78612419D01*
X126762209Y-77945752D02*
X127000304Y-78612419D01*
X127000304Y-78612419D02*
X127095542Y-78850514D01*
X127095542Y-78850514D02*
X127143161Y-78898133D01*
X127143161Y-78898133D02*
X127238399Y-78945752D01*
X126428875Y-78564800D02*
X126333637Y-78612419D01*
X126333637Y-78612419D02*
X126143161Y-78612419D01*
X126143161Y-78612419D02*
X126047923Y-78564800D01*
X126047923Y-78564800D02*
X126000304Y-78469561D01*
X126000304Y-78469561D02*
X126000304Y-78421942D01*
X126000304Y-78421942D02*
X126047923Y-78326704D01*
X126047923Y-78326704D02*
X126143161Y-78279085D01*
X126143161Y-78279085D02*
X126286018Y-78279085D01*
X126286018Y-78279085D02*
X126381256Y-78231466D01*
X126381256Y-78231466D02*
X126428875Y-78136228D01*
X126428875Y-78136228D02*
X126428875Y-78088609D01*
X126428875Y-78088609D02*
X126381256Y-77993371D01*
X126381256Y-77993371D02*
X126286018Y-77945752D01*
X126286018Y-77945752D02*
X126143161Y-77945752D01*
X126143161Y-77945752D02*
X126047923Y-77993371D01*
X125714589Y-77945752D02*
X125333637Y-77945752D01*
X125571732Y-77612419D02*
X125571732Y-78469561D01*
X125571732Y-78469561D02*
X125524113Y-78564800D01*
X125524113Y-78564800D02*
X125428875Y-78612419D01*
X125428875Y-78612419D02*
X125333637Y-78612419D01*
X124286018Y-77564800D02*
X125143160Y-78850514D01*
X123952684Y-77945752D02*
X123952684Y-78945752D01*
X123952684Y-77993371D02*
X123857446Y-77945752D01*
X123857446Y-77945752D02*
X123666970Y-77945752D01*
X123666970Y-77945752D02*
X123571732Y-77993371D01*
X123571732Y-77993371D02*
X123524113Y-78040990D01*
X123524113Y-78040990D02*
X123476494Y-78136228D01*
X123476494Y-78136228D02*
X123476494Y-78421942D01*
X123476494Y-78421942D02*
X123524113Y-78517180D01*
X123524113Y-78517180D02*
X123571732Y-78564800D01*
X123571732Y-78564800D02*
X123666970Y-78612419D01*
X123666970Y-78612419D02*
X123857446Y-78612419D01*
X123857446Y-78612419D02*
X123952684Y-78564800D01*
X123047922Y-78612419D02*
X123047922Y-77945752D01*
X123047922Y-77612419D02*
X123095541Y-77660038D01*
X123095541Y-77660038D02*
X123047922Y-77707657D01*
X123047922Y-77707657D02*
X123000303Y-77660038D01*
X123000303Y-77660038D02*
X123047922Y-77612419D01*
X123047922Y-77612419D02*
X123047922Y-77707657D01*
X122571732Y-77945752D02*
X122571732Y-78612419D01*
X122571732Y-78040990D02*
X122524113Y-77993371D01*
X122524113Y-77993371D02*
X122428875Y-77945752D01*
X122428875Y-77945752D02*
X122286018Y-77945752D01*
X122286018Y-77945752D02*
X122190780Y-77993371D01*
X122190780Y-77993371D02*
X122143161Y-78088609D01*
X122143161Y-78088609D02*
X122143161Y-78612419D01*
X121666970Y-78612419D02*
X121666970Y-77612419D01*
X121666970Y-77993371D02*
X121571732Y-77945752D01*
X121571732Y-77945752D02*
X121381256Y-77945752D01*
X121381256Y-77945752D02*
X121286018Y-77993371D01*
X121286018Y-77993371D02*
X121238399Y-78040990D01*
X121238399Y-78040990D02*
X121190780Y-78136228D01*
X121190780Y-78136228D02*
X121190780Y-78421942D01*
X121190780Y-78421942D02*
X121238399Y-78517180D01*
X121238399Y-78517180D02*
X121286018Y-78564800D01*
X121286018Y-78564800D02*
X121381256Y-78612419D01*
X121381256Y-78612419D02*
X121571732Y-78612419D01*
X121571732Y-78612419D02*
X121666970Y-78564800D01*
X120333637Y-78612419D02*
X120333637Y-78088609D01*
X120333637Y-78088609D02*
X120381256Y-77993371D01*
X120381256Y-77993371D02*
X120476494Y-77945752D01*
X120476494Y-77945752D02*
X120666970Y-77945752D01*
X120666970Y-77945752D02*
X120762208Y-77993371D01*
X120333637Y-78564800D02*
X120428875Y-78612419D01*
X120428875Y-78612419D02*
X120666970Y-78612419D01*
X120666970Y-78612419D02*
X120762208Y-78564800D01*
X120762208Y-78564800D02*
X120809827Y-78469561D01*
X120809827Y-78469561D02*
X120809827Y-78374323D01*
X120809827Y-78374323D02*
X120762208Y-78279085D01*
X120762208Y-78279085D02*
X120666970Y-78231466D01*
X120666970Y-78231466D02*
X120428875Y-78231466D01*
X120428875Y-78231466D02*
X120333637Y-78183847D01*
X119714589Y-78612419D02*
X119809827Y-78564800D01*
X119809827Y-78564800D02*
X119857446Y-78469561D01*
X119857446Y-78469561D02*
X119857446Y-77612419D01*
X119190779Y-78612419D02*
X119286017Y-78564800D01*
X119286017Y-78564800D02*
X119333636Y-78469561D01*
X119333636Y-78469561D02*
X119333636Y-77612419D01*
X118809826Y-78231466D02*
X118047922Y-78231466D01*
X117428874Y-78612419D02*
X117524112Y-78564800D01*
X117524112Y-78564800D02*
X117571731Y-78469561D01*
X117571731Y-78469561D02*
X117571731Y-77612419D01*
X116666969Y-78564800D02*
X116762207Y-78612419D01*
X116762207Y-78612419D02*
X116952683Y-78612419D01*
X116952683Y-78612419D02*
X117047921Y-78564800D01*
X117047921Y-78564800D02*
X117095540Y-78469561D01*
X117095540Y-78469561D02*
X117095540Y-78088609D01*
X117095540Y-78088609D02*
X117047921Y-77993371D01*
X117047921Y-77993371D02*
X116952683Y-77945752D01*
X116952683Y-77945752D02*
X116762207Y-77945752D01*
X116762207Y-77945752D02*
X116666969Y-77993371D01*
X116666969Y-77993371D02*
X116619350Y-78088609D01*
X116619350Y-78088609D02*
X116619350Y-78183847D01*
X116619350Y-78183847D02*
X117095540Y-78279085D01*
X115762207Y-78612419D02*
X115762207Y-77612419D01*
X115762207Y-78564800D02*
X115857445Y-78612419D01*
X115857445Y-78612419D02*
X116047921Y-78612419D01*
X116047921Y-78612419D02*
X116143159Y-78564800D01*
X116143159Y-78564800D02*
X116190778Y-78517180D01*
X116190778Y-78517180D02*
X116238397Y-78421942D01*
X116238397Y-78421942D02*
X116238397Y-78136228D01*
X116238397Y-78136228D02*
X116190778Y-78040990D01*
X116190778Y-78040990D02*
X116143159Y-77993371D01*
X116143159Y-77993371D02*
X116047921Y-77945752D01*
X116047921Y-77945752D02*
X115857445Y-77945752D01*
X115857445Y-77945752D02*
X115762207Y-77993371D01*
X115286016Y-78231466D02*
X114524112Y-78231466D01*
X114095540Y-78564800D02*
X114000302Y-78612419D01*
X114000302Y-78612419D02*
X113809826Y-78612419D01*
X113809826Y-78612419D02*
X113714588Y-78564800D01*
X113714588Y-78564800D02*
X113666969Y-78469561D01*
X113666969Y-78469561D02*
X113666969Y-78421942D01*
X113666969Y-78421942D02*
X113714588Y-78326704D01*
X113714588Y-78326704D02*
X113809826Y-78279085D01*
X113809826Y-78279085D02*
X113952683Y-78279085D01*
X113952683Y-78279085D02*
X114047921Y-78231466D01*
X114047921Y-78231466D02*
X114095540Y-78136228D01*
X114095540Y-78136228D02*
X114095540Y-78088609D01*
X114095540Y-78088609D02*
X114047921Y-77993371D01*
X114047921Y-77993371D02*
X113952683Y-77945752D01*
X113952683Y-77945752D02*
X113809826Y-77945752D01*
X113809826Y-77945752D02*
X113714588Y-77993371D01*
X113381254Y-77945752D02*
X113000302Y-77945752D01*
X113238397Y-77612419D02*
X113238397Y-78469561D01*
X113238397Y-78469561D02*
X113190778Y-78564800D01*
X113190778Y-78564800D02*
X113095540Y-78612419D01*
X113095540Y-78612419D02*
X113000302Y-78612419D01*
X112666968Y-78612419D02*
X112666968Y-77945752D01*
X112666968Y-78136228D02*
X112619349Y-78040990D01*
X112619349Y-78040990D02*
X112571730Y-77993371D01*
X112571730Y-77993371D02*
X112476492Y-77945752D01*
X112476492Y-77945752D02*
X112381254Y-77945752D01*
X111905063Y-78612419D02*
X112000301Y-78564800D01*
X112000301Y-78564800D02*
X112047920Y-78517180D01*
X112047920Y-78517180D02*
X112095539Y-78421942D01*
X112095539Y-78421942D02*
X112095539Y-78136228D01*
X112095539Y-78136228D02*
X112047920Y-78040990D01*
X112047920Y-78040990D02*
X112000301Y-77993371D01*
X112000301Y-77993371D02*
X111905063Y-77945752D01*
X111905063Y-77945752D02*
X111762206Y-77945752D01*
X111762206Y-77945752D02*
X111666968Y-77993371D01*
X111666968Y-77993371D02*
X111619349Y-78040990D01*
X111619349Y-78040990D02*
X111571730Y-78136228D01*
X111571730Y-78136228D02*
X111571730Y-78421942D01*
X111571730Y-78421942D02*
X111619349Y-78517180D01*
X111619349Y-78517180D02*
X111666968Y-78564800D01*
X111666968Y-78564800D02*
X111762206Y-78612419D01*
X111762206Y-78612419D02*
X111905063Y-78612419D01*
X111143158Y-78612419D02*
X111143158Y-77612419D01*
X111143158Y-77993371D02*
X111047920Y-77945752D01*
X111047920Y-77945752D02*
X110857444Y-77945752D01*
X110857444Y-77945752D02*
X110762206Y-77993371D01*
X110762206Y-77993371D02*
X110714587Y-78040990D01*
X110714587Y-78040990D02*
X110666968Y-78136228D01*
X110666968Y-78136228D02*
X110666968Y-78421942D01*
X110666968Y-78421942D02*
X110714587Y-78517180D01*
X110714587Y-78517180D02*
X110762206Y-78564800D01*
X110762206Y-78564800D02*
X110857444Y-78612419D01*
X110857444Y-78612419D02*
X111047920Y-78612419D01*
X111047920Y-78612419D02*
X111143158Y-78564800D01*
X109857444Y-78564800D02*
X109952682Y-78612419D01*
X109952682Y-78612419D02*
X110143158Y-78612419D01*
X110143158Y-78612419D02*
X110238396Y-78564800D01*
X110238396Y-78564800D02*
X110286015Y-78469561D01*
X110286015Y-78469561D02*
X110286015Y-78088609D01*
X110286015Y-78088609D02*
X110238396Y-77993371D01*
X110238396Y-77993371D02*
X110143158Y-77945752D01*
X110143158Y-77945752D02*
X109952682Y-77945752D01*
X109952682Y-77945752D02*
X109857444Y-77993371D01*
X109857444Y-77993371D02*
X109809825Y-78088609D01*
X109809825Y-78088609D02*
X109809825Y-78183847D01*
X109809825Y-78183847D02*
X110286015Y-78279085D01*
X109381253Y-78612419D02*
X109381253Y-77945752D01*
X109381253Y-78136228D02*
X109333634Y-78040990D01*
X109333634Y-78040990D02*
X109286015Y-77993371D01*
X109286015Y-77993371D02*
X109190777Y-77945752D01*
X109190777Y-77945752D02*
X109095539Y-77945752D01*
M02*
