%TF.GenerationSoftware,KiCad,Pcbnew,8.0.8*%
%TF.CreationDate,2025-04-23T11:45:22+02:00*%
%TF.ProjectId,strober_board,7374726f-6265-4725-9f62-6f6172642e6b,rev?*%
%TF.SameCoordinates,Original*%
%TF.FileFunction,Legend,Top*%
%TF.FilePolarity,Positive*%
%FSLAX46Y46*%
G04 Gerber Fmt 4.6, Leading zero omitted, Abs format (unit mm)*
G04 Created by KiCad (PCBNEW 8.0.8) date 2025-04-23 11:45:22*
%MOMM*%
%LPD*%
G01*
G04 APERTURE LIST*
%ADD10C,0.100000*%
%ADD11C,0.150000*%
%ADD12C,0.120000*%
G04 APERTURE END LIST*
D10*
X174625000Y-54610000D02*
X175260000Y-53975000D01*
X173990000Y-51435000D02*
X174625000Y-51435000D01*
X174625000Y-51435000D02*
X174625000Y-54610000D01*
X167386000Y-69342000D02*
X167386000Y-70358000D01*
X109601000Y-64770000D02*
X111125000Y-64770000D01*
X109601000Y-67818000D02*
X109601000Y-64770000D01*
X111125000Y-64770000D02*
X110363000Y-64008000D01*
X164338000Y-72390000D02*
X167386000Y-69342000D01*
X164338000Y-76962000D02*
X164338000Y-72390000D01*
D11*
X150234360Y-77879768D02*
X150615313Y-77879768D01*
X150158170Y-78108340D02*
X150424837Y-77308340D01*
X150424837Y-77308340D02*
X150691503Y-78108340D01*
X151301027Y-78108340D02*
X151301027Y-77308340D01*
X151301027Y-78070245D02*
X151224836Y-78108340D01*
X151224836Y-78108340D02*
X151072455Y-78108340D01*
X151072455Y-78108340D02*
X150996265Y-78070245D01*
X150996265Y-78070245D02*
X150958170Y-78032149D01*
X150958170Y-78032149D02*
X150920074Y-77955959D01*
X150920074Y-77955959D02*
X150920074Y-77727387D01*
X150920074Y-77727387D02*
X150958170Y-77651197D01*
X150958170Y-77651197D02*
X150996265Y-77613102D01*
X150996265Y-77613102D02*
X151072455Y-77575006D01*
X151072455Y-77575006D02*
X151224836Y-77575006D01*
X151224836Y-77575006D02*
X151301027Y-77613102D01*
X151681980Y-77575006D02*
X151681980Y-78260721D01*
X151681980Y-78260721D02*
X151643884Y-78336911D01*
X151643884Y-78336911D02*
X151567694Y-78375006D01*
X151567694Y-78375006D02*
X151529599Y-78375006D01*
X151681980Y-77308340D02*
X151643884Y-77346435D01*
X151643884Y-77346435D02*
X151681980Y-77384530D01*
X151681980Y-77384530D02*
X151720075Y-77346435D01*
X151720075Y-77346435D02*
X151681980Y-77308340D01*
X151681980Y-77308340D02*
X151681980Y-77384530D01*
X152405789Y-77575006D02*
X152405789Y-78108340D01*
X152062932Y-77575006D02*
X152062932Y-77994054D01*
X152062932Y-77994054D02*
X152101027Y-78070245D01*
X152101027Y-78070245D02*
X152177217Y-78108340D01*
X152177217Y-78108340D02*
X152291503Y-78108340D01*
X152291503Y-78108340D02*
X152367694Y-78070245D01*
X152367694Y-78070245D02*
X152405789Y-78032149D01*
X152748646Y-78070245D02*
X152824837Y-78108340D01*
X152824837Y-78108340D02*
X152977218Y-78108340D01*
X152977218Y-78108340D02*
X153053408Y-78070245D01*
X153053408Y-78070245D02*
X153091504Y-77994054D01*
X153091504Y-77994054D02*
X153091504Y-77955959D01*
X153091504Y-77955959D02*
X153053408Y-77879768D01*
X153053408Y-77879768D02*
X152977218Y-77841673D01*
X152977218Y-77841673D02*
X152862932Y-77841673D01*
X152862932Y-77841673D02*
X152786742Y-77803578D01*
X152786742Y-77803578D02*
X152748646Y-77727387D01*
X152748646Y-77727387D02*
X152748646Y-77689292D01*
X152748646Y-77689292D02*
X152786742Y-77613102D01*
X152786742Y-77613102D02*
X152862932Y-77575006D01*
X152862932Y-77575006D02*
X152977218Y-77575006D01*
X152977218Y-77575006D02*
X153053408Y-77613102D01*
X153320075Y-77575006D02*
X153624837Y-77575006D01*
X153434361Y-77308340D02*
X153434361Y-77994054D01*
X153434361Y-77994054D02*
X153472456Y-78070245D01*
X153472456Y-78070245D02*
X153548646Y-78108340D01*
X153548646Y-78108340D02*
X153624837Y-78108340D01*
X154615313Y-78108340D02*
X154539123Y-78070245D01*
X154539123Y-78070245D02*
X154501028Y-78032149D01*
X154501028Y-78032149D02*
X154462932Y-77955959D01*
X154462932Y-77955959D02*
X154462932Y-77727387D01*
X154462932Y-77727387D02*
X154501028Y-77651197D01*
X154501028Y-77651197D02*
X154539123Y-77613102D01*
X154539123Y-77613102D02*
X154615313Y-77575006D01*
X154615313Y-77575006D02*
X154729599Y-77575006D01*
X154729599Y-77575006D02*
X154805790Y-77613102D01*
X154805790Y-77613102D02*
X154843885Y-77651197D01*
X154843885Y-77651197D02*
X154881980Y-77727387D01*
X154881980Y-77727387D02*
X154881980Y-77955959D01*
X154881980Y-77955959D02*
X154843885Y-78032149D01*
X154843885Y-78032149D02*
X154805790Y-78070245D01*
X154805790Y-78070245D02*
X154729599Y-78108340D01*
X154729599Y-78108340D02*
X154615313Y-78108340D01*
X155224838Y-78108340D02*
X155224838Y-77575006D01*
X155224838Y-77727387D02*
X155262933Y-77651197D01*
X155262933Y-77651197D02*
X155301028Y-77613102D01*
X155301028Y-77613102D02*
X155377219Y-77575006D01*
X155377219Y-77575006D02*
X155453409Y-77575006D01*
X156329600Y-78108340D02*
X156329600Y-77308340D01*
X156329600Y-77613102D02*
X156405790Y-77575006D01*
X156405790Y-77575006D02*
X156558171Y-77575006D01*
X156558171Y-77575006D02*
X156634362Y-77613102D01*
X156634362Y-77613102D02*
X156672457Y-77651197D01*
X156672457Y-77651197D02*
X156710552Y-77727387D01*
X156710552Y-77727387D02*
X156710552Y-77955959D01*
X156710552Y-77955959D02*
X156672457Y-78032149D01*
X156672457Y-78032149D02*
X156634362Y-78070245D01*
X156634362Y-78070245D02*
X156558171Y-78108340D01*
X156558171Y-78108340D02*
X156405790Y-78108340D01*
X156405790Y-78108340D02*
X156329600Y-78070245D01*
X157053410Y-78108340D02*
X157053410Y-77575006D01*
X157053410Y-77727387D02*
X157091505Y-77651197D01*
X157091505Y-77651197D02*
X157129600Y-77613102D01*
X157129600Y-77613102D02*
X157205791Y-77575006D01*
X157205791Y-77575006D02*
X157281981Y-77575006D01*
X157548648Y-78108340D02*
X157548648Y-77575006D01*
X157548648Y-77308340D02*
X157510552Y-77346435D01*
X157510552Y-77346435D02*
X157548648Y-77384530D01*
X157548648Y-77384530D02*
X157586743Y-77346435D01*
X157586743Y-77346435D02*
X157548648Y-77308340D01*
X157548648Y-77308340D02*
X157548648Y-77384530D01*
X158272457Y-78108340D02*
X158272457Y-77308340D01*
X158272457Y-78070245D02*
X158196266Y-78108340D01*
X158196266Y-78108340D02*
X158043885Y-78108340D01*
X158043885Y-78108340D02*
X157967695Y-78070245D01*
X157967695Y-78070245D02*
X157929600Y-78032149D01*
X157929600Y-78032149D02*
X157891504Y-77955959D01*
X157891504Y-77955959D02*
X157891504Y-77727387D01*
X157891504Y-77727387D02*
X157929600Y-77651197D01*
X157929600Y-77651197D02*
X157967695Y-77613102D01*
X157967695Y-77613102D02*
X158043885Y-77575006D01*
X158043885Y-77575006D02*
X158196266Y-77575006D01*
X158196266Y-77575006D02*
X158272457Y-77613102D01*
X158996267Y-77575006D02*
X158996267Y-78222625D01*
X158996267Y-78222625D02*
X158958172Y-78298816D01*
X158958172Y-78298816D02*
X158920076Y-78336911D01*
X158920076Y-78336911D02*
X158843886Y-78375006D01*
X158843886Y-78375006D02*
X158729600Y-78375006D01*
X158729600Y-78375006D02*
X158653410Y-78336911D01*
X158996267Y-78070245D02*
X158920076Y-78108340D01*
X158920076Y-78108340D02*
X158767695Y-78108340D01*
X158767695Y-78108340D02*
X158691505Y-78070245D01*
X158691505Y-78070245D02*
X158653410Y-78032149D01*
X158653410Y-78032149D02*
X158615314Y-77955959D01*
X158615314Y-77955959D02*
X158615314Y-77727387D01*
X158615314Y-77727387D02*
X158653410Y-77651197D01*
X158653410Y-77651197D02*
X158691505Y-77613102D01*
X158691505Y-77613102D02*
X158767695Y-77575006D01*
X158767695Y-77575006D02*
X158920076Y-77575006D01*
X158920076Y-77575006D02*
X158996267Y-77613102D01*
X159681982Y-78070245D02*
X159605791Y-78108340D01*
X159605791Y-78108340D02*
X159453410Y-78108340D01*
X159453410Y-78108340D02*
X159377220Y-78070245D01*
X159377220Y-78070245D02*
X159339124Y-77994054D01*
X159339124Y-77994054D02*
X159339124Y-77689292D01*
X159339124Y-77689292D02*
X159377220Y-77613102D01*
X159377220Y-77613102D02*
X159453410Y-77575006D01*
X159453410Y-77575006D02*
X159605791Y-77575006D01*
X159605791Y-77575006D02*
X159681982Y-77613102D01*
X159681982Y-77613102D02*
X159720077Y-77689292D01*
X159720077Y-77689292D02*
X159720077Y-77765483D01*
X159720077Y-77765483D02*
X159339124Y-77841673D01*
X161015315Y-78070245D02*
X160939124Y-78108340D01*
X160939124Y-78108340D02*
X160786743Y-78108340D01*
X160786743Y-78108340D02*
X160710553Y-78070245D01*
X160710553Y-78070245D02*
X160672458Y-78032149D01*
X160672458Y-78032149D02*
X160634362Y-77955959D01*
X160634362Y-77955959D02*
X160634362Y-77727387D01*
X160634362Y-77727387D02*
X160672458Y-77651197D01*
X160672458Y-77651197D02*
X160710553Y-77613102D01*
X160710553Y-77613102D02*
X160786743Y-77575006D01*
X160786743Y-77575006D02*
X160939124Y-77575006D01*
X160939124Y-77575006D02*
X161015315Y-77613102D01*
X161701029Y-77575006D02*
X161701029Y-78108340D01*
X161358172Y-77575006D02*
X161358172Y-77994054D01*
X161358172Y-77994054D02*
X161396267Y-78070245D01*
X161396267Y-78070245D02*
X161472457Y-78108340D01*
X161472457Y-78108340D02*
X161586743Y-78108340D01*
X161586743Y-78108340D02*
X161662934Y-78070245D01*
X161662934Y-78070245D02*
X161701029Y-78032149D01*
X162081982Y-78108340D02*
X162081982Y-77575006D01*
X162081982Y-77727387D02*
X162120077Y-77651197D01*
X162120077Y-77651197D02*
X162158172Y-77613102D01*
X162158172Y-77613102D02*
X162234363Y-77575006D01*
X162234363Y-77575006D02*
X162310553Y-77575006D01*
X162577220Y-78108340D02*
X162577220Y-77575006D01*
X162577220Y-77727387D02*
X162615315Y-77651197D01*
X162615315Y-77651197D02*
X162653410Y-77613102D01*
X162653410Y-77613102D02*
X162729601Y-77575006D01*
X162729601Y-77575006D02*
X162805791Y-77575006D01*
X163377220Y-78070245D02*
X163301029Y-78108340D01*
X163301029Y-78108340D02*
X163148648Y-78108340D01*
X163148648Y-78108340D02*
X163072458Y-78070245D01*
X163072458Y-78070245D02*
X163034362Y-77994054D01*
X163034362Y-77994054D02*
X163034362Y-77689292D01*
X163034362Y-77689292D02*
X163072458Y-77613102D01*
X163072458Y-77613102D02*
X163148648Y-77575006D01*
X163148648Y-77575006D02*
X163301029Y-77575006D01*
X163301029Y-77575006D02*
X163377220Y-77613102D01*
X163377220Y-77613102D02*
X163415315Y-77689292D01*
X163415315Y-77689292D02*
X163415315Y-77765483D01*
X163415315Y-77765483D02*
X163034362Y-77841673D01*
X163758172Y-77575006D02*
X163758172Y-78108340D01*
X163758172Y-77651197D02*
X163796267Y-77613102D01*
X163796267Y-77613102D02*
X163872457Y-77575006D01*
X163872457Y-77575006D02*
X163986743Y-77575006D01*
X163986743Y-77575006D02*
X164062934Y-77613102D01*
X164062934Y-77613102D02*
X164101029Y-77689292D01*
X164101029Y-77689292D02*
X164101029Y-78108340D01*
X164367696Y-77575006D02*
X164672458Y-77575006D01*
X164481982Y-77308340D02*
X164481982Y-77994054D01*
X164481982Y-77994054D02*
X164520077Y-78070245D01*
X164520077Y-78070245D02*
X164596267Y-78108340D01*
X164596267Y-78108340D02*
X164672458Y-78108340D01*
X165662934Y-78108340D02*
X165586744Y-78070245D01*
X165586744Y-78070245D02*
X165548649Y-77994054D01*
X165548649Y-77994054D02*
X165548649Y-77308340D01*
X165967697Y-78108340D02*
X165967697Y-77575006D01*
X165967697Y-77308340D02*
X165929601Y-77346435D01*
X165929601Y-77346435D02*
X165967697Y-77384530D01*
X165967697Y-77384530D02*
X166005792Y-77346435D01*
X166005792Y-77346435D02*
X165967697Y-77308340D01*
X165967697Y-77308340D02*
X165967697Y-77384530D01*
X166348649Y-78108340D02*
X166348649Y-77575006D01*
X166348649Y-77651197D02*
X166386744Y-77613102D01*
X166386744Y-77613102D02*
X166462934Y-77575006D01*
X166462934Y-77575006D02*
X166577220Y-77575006D01*
X166577220Y-77575006D02*
X166653411Y-77613102D01*
X166653411Y-77613102D02*
X166691506Y-77689292D01*
X166691506Y-77689292D02*
X166691506Y-78108340D01*
X166691506Y-77689292D02*
X166729601Y-77613102D01*
X166729601Y-77613102D02*
X166805792Y-77575006D01*
X166805792Y-77575006D02*
X166920077Y-77575006D01*
X166920077Y-77575006D02*
X166996268Y-77613102D01*
X166996268Y-77613102D02*
X167034363Y-77689292D01*
X167034363Y-77689292D02*
X167034363Y-78108340D01*
X167415316Y-78108340D02*
X167415316Y-77575006D01*
X167415316Y-77308340D02*
X167377220Y-77346435D01*
X167377220Y-77346435D02*
X167415316Y-77384530D01*
X167415316Y-77384530D02*
X167453411Y-77346435D01*
X167453411Y-77346435D02*
X167415316Y-77308340D01*
X167415316Y-77308340D02*
X167415316Y-77384530D01*
X167681982Y-77575006D02*
X167986744Y-77575006D01*
X167796268Y-77308340D02*
X167796268Y-77994054D01*
X167796268Y-77994054D02*
X167834363Y-78070245D01*
X167834363Y-78070245D02*
X167910553Y-78108340D01*
X167910553Y-78108340D02*
X167986744Y-78108340D01*
X168253411Y-78108340D02*
X168253411Y-77575006D01*
X168253411Y-77308340D02*
X168215315Y-77346435D01*
X168215315Y-77346435D02*
X168253411Y-77384530D01*
X168253411Y-77384530D02*
X168291506Y-77346435D01*
X168291506Y-77346435D02*
X168253411Y-77308340D01*
X168253411Y-77308340D02*
X168253411Y-77384530D01*
X168634363Y-77575006D02*
X168634363Y-78108340D01*
X168634363Y-77651197D02*
X168672458Y-77613102D01*
X168672458Y-77613102D02*
X168748648Y-77575006D01*
X168748648Y-77575006D02*
X168862934Y-77575006D01*
X168862934Y-77575006D02*
X168939125Y-77613102D01*
X168939125Y-77613102D02*
X168977220Y-77689292D01*
X168977220Y-77689292D02*
X168977220Y-78108340D01*
X169701030Y-77575006D02*
X169701030Y-78222625D01*
X169701030Y-78222625D02*
X169662935Y-78298816D01*
X169662935Y-78298816D02*
X169624839Y-78336911D01*
X169624839Y-78336911D02*
X169548649Y-78375006D01*
X169548649Y-78375006D02*
X169434363Y-78375006D01*
X169434363Y-78375006D02*
X169358173Y-78336911D01*
X169701030Y-78070245D02*
X169624839Y-78108340D01*
X169624839Y-78108340D02*
X169472458Y-78108340D01*
X169472458Y-78108340D02*
X169396268Y-78070245D01*
X169396268Y-78070245D02*
X169358173Y-78032149D01*
X169358173Y-78032149D02*
X169320077Y-77955959D01*
X169320077Y-77955959D02*
X169320077Y-77727387D01*
X169320077Y-77727387D02*
X169358173Y-77651197D01*
X169358173Y-77651197D02*
X169396268Y-77613102D01*
X169396268Y-77613102D02*
X169472458Y-77575006D01*
X169472458Y-77575006D02*
X169624839Y-77575006D01*
X169624839Y-77575006D02*
X169701030Y-77613102D01*
X170691507Y-78108340D02*
X170691507Y-77575006D01*
X170691507Y-77727387D02*
X170729602Y-77651197D01*
X170729602Y-77651197D02*
X170767697Y-77613102D01*
X170767697Y-77613102D02*
X170843888Y-77575006D01*
X170843888Y-77575006D02*
X170920078Y-77575006D01*
X171491507Y-78070245D02*
X171415316Y-78108340D01*
X171415316Y-78108340D02*
X171262935Y-78108340D01*
X171262935Y-78108340D02*
X171186745Y-78070245D01*
X171186745Y-78070245D02*
X171148649Y-77994054D01*
X171148649Y-77994054D02*
X171148649Y-77689292D01*
X171148649Y-77689292D02*
X171186745Y-77613102D01*
X171186745Y-77613102D02*
X171262935Y-77575006D01*
X171262935Y-77575006D02*
X171415316Y-77575006D01*
X171415316Y-77575006D02*
X171491507Y-77613102D01*
X171491507Y-77613102D02*
X171529602Y-77689292D01*
X171529602Y-77689292D02*
X171529602Y-77765483D01*
X171529602Y-77765483D02*
X171148649Y-77841673D01*
X171834363Y-78070245D02*
X171910554Y-78108340D01*
X171910554Y-78108340D02*
X172062935Y-78108340D01*
X172062935Y-78108340D02*
X172139125Y-78070245D01*
X172139125Y-78070245D02*
X172177221Y-77994054D01*
X172177221Y-77994054D02*
X172177221Y-77955959D01*
X172177221Y-77955959D02*
X172139125Y-77879768D01*
X172139125Y-77879768D02*
X172062935Y-77841673D01*
X172062935Y-77841673D02*
X171948649Y-77841673D01*
X171948649Y-77841673D02*
X171872459Y-77803578D01*
X171872459Y-77803578D02*
X171834363Y-77727387D01*
X171834363Y-77727387D02*
X171834363Y-77689292D01*
X171834363Y-77689292D02*
X171872459Y-77613102D01*
X171872459Y-77613102D02*
X171948649Y-77575006D01*
X171948649Y-77575006D02*
X172062935Y-77575006D01*
X172062935Y-77575006D02*
X172139125Y-77613102D01*
X172520078Y-78108340D02*
X172520078Y-77575006D01*
X172520078Y-77308340D02*
X172481982Y-77346435D01*
X172481982Y-77346435D02*
X172520078Y-77384530D01*
X172520078Y-77384530D02*
X172558173Y-77346435D01*
X172558173Y-77346435D02*
X172520078Y-77308340D01*
X172520078Y-77308340D02*
X172520078Y-77384530D01*
X172862934Y-78070245D02*
X172939125Y-78108340D01*
X172939125Y-78108340D02*
X173091506Y-78108340D01*
X173091506Y-78108340D02*
X173167696Y-78070245D01*
X173167696Y-78070245D02*
X173205792Y-77994054D01*
X173205792Y-77994054D02*
X173205792Y-77955959D01*
X173205792Y-77955959D02*
X173167696Y-77879768D01*
X173167696Y-77879768D02*
X173091506Y-77841673D01*
X173091506Y-77841673D02*
X172977220Y-77841673D01*
X172977220Y-77841673D02*
X172901030Y-77803578D01*
X172901030Y-77803578D02*
X172862934Y-77727387D01*
X172862934Y-77727387D02*
X172862934Y-77689292D01*
X172862934Y-77689292D02*
X172901030Y-77613102D01*
X172901030Y-77613102D02*
X172977220Y-77575006D01*
X172977220Y-77575006D02*
X173091506Y-77575006D01*
X173091506Y-77575006D02*
X173167696Y-77613102D01*
X173434363Y-77575006D02*
X173739125Y-77575006D01*
X173548649Y-77308340D02*
X173548649Y-77994054D01*
X173548649Y-77994054D02*
X173586744Y-78070245D01*
X173586744Y-78070245D02*
X173662934Y-78108340D01*
X173662934Y-78108340D02*
X173739125Y-78108340D01*
X174120077Y-78108340D02*
X174043887Y-78070245D01*
X174043887Y-78070245D02*
X174005792Y-78032149D01*
X174005792Y-78032149D02*
X173967696Y-77955959D01*
X173967696Y-77955959D02*
X173967696Y-77727387D01*
X173967696Y-77727387D02*
X174005792Y-77651197D01*
X174005792Y-77651197D02*
X174043887Y-77613102D01*
X174043887Y-77613102D02*
X174120077Y-77575006D01*
X174120077Y-77575006D02*
X174234363Y-77575006D01*
X174234363Y-77575006D02*
X174310554Y-77613102D01*
X174310554Y-77613102D02*
X174348649Y-77651197D01*
X174348649Y-77651197D02*
X174386744Y-77727387D01*
X174386744Y-77727387D02*
X174386744Y-77955959D01*
X174386744Y-77955959D02*
X174348649Y-78032149D01*
X174348649Y-78032149D02*
X174310554Y-78070245D01*
X174310554Y-78070245D02*
X174234363Y-78108340D01*
X174234363Y-78108340D02*
X174120077Y-78108340D01*
X174729602Y-78108340D02*
X174729602Y-77575006D01*
X174729602Y-77727387D02*
X174767697Y-77651197D01*
X174767697Y-77651197D02*
X174805792Y-77613102D01*
X174805792Y-77613102D02*
X174881983Y-77575006D01*
X174881983Y-77575006D02*
X174958173Y-77575006D01*
X175262935Y-78070245D02*
X175262935Y-78108340D01*
X175262935Y-78108340D02*
X175224840Y-78184530D01*
X175224840Y-78184530D02*
X175186744Y-78222625D01*
X157510548Y-79396295D02*
X157510548Y-78596295D01*
X157510548Y-79358200D02*
X157434357Y-79396295D01*
X157434357Y-79396295D02*
X157281976Y-79396295D01*
X157281976Y-79396295D02*
X157205786Y-79358200D01*
X157205786Y-79358200D02*
X157167691Y-79320104D01*
X157167691Y-79320104D02*
X157129595Y-79243914D01*
X157129595Y-79243914D02*
X157129595Y-79015342D01*
X157129595Y-79015342D02*
X157167691Y-78939152D01*
X157167691Y-78939152D02*
X157205786Y-78901057D01*
X157205786Y-78901057D02*
X157281976Y-78862961D01*
X157281976Y-78862961D02*
X157434357Y-78862961D01*
X157434357Y-78862961D02*
X157510548Y-78901057D01*
X158196263Y-79358200D02*
X158120072Y-79396295D01*
X158120072Y-79396295D02*
X157967691Y-79396295D01*
X157967691Y-79396295D02*
X157891501Y-79358200D01*
X157891501Y-79358200D02*
X157853405Y-79282009D01*
X157853405Y-79282009D02*
X157853405Y-78977247D01*
X157853405Y-78977247D02*
X157891501Y-78901057D01*
X157891501Y-78901057D02*
X157967691Y-78862961D01*
X157967691Y-78862961D02*
X158120072Y-78862961D01*
X158120072Y-78862961D02*
X158196263Y-78901057D01*
X158196263Y-78901057D02*
X158234358Y-78977247D01*
X158234358Y-78977247D02*
X158234358Y-79053438D01*
X158234358Y-79053438D02*
X157853405Y-79129628D01*
X158577215Y-78862961D02*
X158577215Y-79662961D01*
X158577215Y-78901057D02*
X158653405Y-78862961D01*
X158653405Y-78862961D02*
X158805786Y-78862961D01*
X158805786Y-78862961D02*
X158881977Y-78901057D01*
X158881977Y-78901057D02*
X158920072Y-78939152D01*
X158920072Y-78939152D02*
X158958167Y-79015342D01*
X158958167Y-79015342D02*
X158958167Y-79243914D01*
X158958167Y-79243914D02*
X158920072Y-79320104D01*
X158920072Y-79320104D02*
X158881977Y-79358200D01*
X158881977Y-79358200D02*
X158805786Y-79396295D01*
X158805786Y-79396295D02*
X158653405Y-79396295D01*
X158653405Y-79396295D02*
X158577215Y-79358200D01*
X159605787Y-79358200D02*
X159529596Y-79396295D01*
X159529596Y-79396295D02*
X159377215Y-79396295D01*
X159377215Y-79396295D02*
X159301025Y-79358200D01*
X159301025Y-79358200D02*
X159262929Y-79282009D01*
X159262929Y-79282009D02*
X159262929Y-78977247D01*
X159262929Y-78977247D02*
X159301025Y-78901057D01*
X159301025Y-78901057D02*
X159377215Y-78862961D01*
X159377215Y-78862961D02*
X159529596Y-78862961D01*
X159529596Y-78862961D02*
X159605787Y-78901057D01*
X159605787Y-78901057D02*
X159643882Y-78977247D01*
X159643882Y-78977247D02*
X159643882Y-79053438D01*
X159643882Y-79053438D02*
X159262929Y-79129628D01*
X159986739Y-78862961D02*
X159986739Y-79396295D01*
X159986739Y-78939152D02*
X160024834Y-78901057D01*
X160024834Y-78901057D02*
X160101024Y-78862961D01*
X160101024Y-78862961D02*
X160215310Y-78862961D01*
X160215310Y-78862961D02*
X160291501Y-78901057D01*
X160291501Y-78901057D02*
X160329596Y-78977247D01*
X160329596Y-78977247D02*
X160329596Y-79396295D01*
X161053406Y-79396295D02*
X161053406Y-78596295D01*
X161053406Y-79358200D02*
X160977215Y-79396295D01*
X160977215Y-79396295D02*
X160824834Y-79396295D01*
X160824834Y-79396295D02*
X160748644Y-79358200D01*
X160748644Y-79358200D02*
X160710549Y-79320104D01*
X160710549Y-79320104D02*
X160672453Y-79243914D01*
X160672453Y-79243914D02*
X160672453Y-79015342D01*
X160672453Y-79015342D02*
X160710549Y-78939152D01*
X160710549Y-78939152D02*
X160748644Y-78901057D01*
X160748644Y-78901057D02*
X160824834Y-78862961D01*
X160824834Y-78862961D02*
X160977215Y-78862961D01*
X160977215Y-78862961D02*
X161053406Y-78901057D01*
X161434359Y-79396295D02*
X161434359Y-78862961D01*
X161434359Y-78596295D02*
X161396263Y-78634390D01*
X161396263Y-78634390D02*
X161434359Y-78672485D01*
X161434359Y-78672485D02*
X161472454Y-78634390D01*
X161472454Y-78634390D02*
X161434359Y-78596295D01*
X161434359Y-78596295D02*
X161434359Y-78672485D01*
X161815311Y-78862961D02*
X161815311Y-79396295D01*
X161815311Y-78939152D02*
X161853406Y-78901057D01*
X161853406Y-78901057D02*
X161929596Y-78862961D01*
X161929596Y-78862961D02*
X162043882Y-78862961D01*
X162043882Y-78862961D02*
X162120073Y-78901057D01*
X162120073Y-78901057D02*
X162158168Y-78977247D01*
X162158168Y-78977247D02*
X162158168Y-79396295D01*
X162881978Y-78862961D02*
X162881978Y-79510580D01*
X162881978Y-79510580D02*
X162843883Y-79586771D01*
X162843883Y-79586771D02*
X162805787Y-79624866D01*
X162805787Y-79624866D02*
X162729597Y-79662961D01*
X162729597Y-79662961D02*
X162615311Y-79662961D01*
X162615311Y-79662961D02*
X162539121Y-79624866D01*
X162881978Y-79358200D02*
X162805787Y-79396295D01*
X162805787Y-79396295D02*
X162653406Y-79396295D01*
X162653406Y-79396295D02*
X162577216Y-79358200D01*
X162577216Y-79358200D02*
X162539121Y-79320104D01*
X162539121Y-79320104D02*
X162501025Y-79243914D01*
X162501025Y-79243914D02*
X162501025Y-79015342D01*
X162501025Y-79015342D02*
X162539121Y-78939152D01*
X162539121Y-78939152D02*
X162577216Y-78901057D01*
X162577216Y-78901057D02*
X162653406Y-78862961D01*
X162653406Y-78862961D02*
X162805787Y-78862961D01*
X162805787Y-78862961D02*
X162881978Y-78901057D01*
X163986740Y-79396295D02*
X163910550Y-79358200D01*
X163910550Y-79358200D02*
X163872455Y-79320104D01*
X163872455Y-79320104D02*
X163834359Y-79243914D01*
X163834359Y-79243914D02*
X163834359Y-79015342D01*
X163834359Y-79015342D02*
X163872455Y-78939152D01*
X163872455Y-78939152D02*
X163910550Y-78901057D01*
X163910550Y-78901057D02*
X163986740Y-78862961D01*
X163986740Y-78862961D02*
X164101026Y-78862961D01*
X164101026Y-78862961D02*
X164177217Y-78901057D01*
X164177217Y-78901057D02*
X164215312Y-78939152D01*
X164215312Y-78939152D02*
X164253407Y-79015342D01*
X164253407Y-79015342D02*
X164253407Y-79243914D01*
X164253407Y-79243914D02*
X164215312Y-79320104D01*
X164215312Y-79320104D02*
X164177217Y-79358200D01*
X164177217Y-79358200D02*
X164101026Y-79396295D01*
X164101026Y-79396295D02*
X163986740Y-79396295D01*
X164596265Y-78862961D02*
X164596265Y-79396295D01*
X164596265Y-78939152D02*
X164634360Y-78901057D01*
X164634360Y-78901057D02*
X164710550Y-78862961D01*
X164710550Y-78862961D02*
X164824836Y-78862961D01*
X164824836Y-78862961D02*
X164901027Y-78901057D01*
X164901027Y-78901057D02*
X164939122Y-78977247D01*
X164939122Y-78977247D02*
X164939122Y-79396295D01*
X166272456Y-79358200D02*
X166196265Y-79396295D01*
X166196265Y-79396295D02*
X166043884Y-79396295D01*
X166043884Y-79396295D02*
X165967694Y-79358200D01*
X165967694Y-79358200D02*
X165929599Y-79320104D01*
X165929599Y-79320104D02*
X165891503Y-79243914D01*
X165891503Y-79243914D02*
X165891503Y-79015342D01*
X165891503Y-79015342D02*
X165929599Y-78939152D01*
X165929599Y-78939152D02*
X165967694Y-78901057D01*
X165967694Y-78901057D02*
X166043884Y-78862961D01*
X166043884Y-78862961D02*
X166196265Y-78862961D01*
X166196265Y-78862961D02*
X166272456Y-78901057D01*
X166729598Y-79396295D02*
X166653408Y-79358200D01*
X166653408Y-79358200D02*
X166615313Y-79320104D01*
X166615313Y-79320104D02*
X166577217Y-79243914D01*
X166577217Y-79243914D02*
X166577217Y-79015342D01*
X166577217Y-79015342D02*
X166615313Y-78939152D01*
X166615313Y-78939152D02*
X166653408Y-78901057D01*
X166653408Y-78901057D02*
X166729598Y-78862961D01*
X166729598Y-78862961D02*
X166843884Y-78862961D01*
X166843884Y-78862961D02*
X166920075Y-78901057D01*
X166920075Y-78901057D02*
X166958170Y-78939152D01*
X166958170Y-78939152D02*
X166996265Y-79015342D01*
X166996265Y-79015342D02*
X166996265Y-79243914D01*
X166996265Y-79243914D02*
X166958170Y-79320104D01*
X166958170Y-79320104D02*
X166920075Y-79358200D01*
X166920075Y-79358200D02*
X166843884Y-79396295D01*
X166843884Y-79396295D02*
X166729598Y-79396295D01*
X167339123Y-78862961D02*
X167339123Y-79396295D01*
X167339123Y-78939152D02*
X167377218Y-78901057D01*
X167377218Y-78901057D02*
X167453408Y-78862961D01*
X167453408Y-78862961D02*
X167567694Y-78862961D01*
X167567694Y-78862961D02*
X167643885Y-78901057D01*
X167643885Y-78901057D02*
X167681980Y-78977247D01*
X167681980Y-78977247D02*
X167681980Y-79396295D01*
X168062933Y-78862961D02*
X168062933Y-79396295D01*
X168062933Y-78939152D02*
X168101028Y-78901057D01*
X168101028Y-78901057D02*
X168177218Y-78862961D01*
X168177218Y-78862961D02*
X168291504Y-78862961D01*
X168291504Y-78862961D02*
X168367695Y-78901057D01*
X168367695Y-78901057D02*
X168405790Y-78977247D01*
X168405790Y-78977247D02*
X168405790Y-79396295D01*
X169091505Y-79358200D02*
X169015314Y-79396295D01*
X169015314Y-79396295D02*
X168862933Y-79396295D01*
X168862933Y-79396295D02*
X168786743Y-79358200D01*
X168786743Y-79358200D02*
X168748647Y-79282009D01*
X168748647Y-79282009D02*
X168748647Y-78977247D01*
X168748647Y-78977247D02*
X168786743Y-78901057D01*
X168786743Y-78901057D02*
X168862933Y-78862961D01*
X168862933Y-78862961D02*
X169015314Y-78862961D01*
X169015314Y-78862961D02*
X169091505Y-78901057D01*
X169091505Y-78901057D02*
X169129600Y-78977247D01*
X169129600Y-78977247D02*
X169129600Y-79053438D01*
X169129600Y-79053438D02*
X168748647Y-79129628D01*
X169815314Y-79358200D02*
X169739123Y-79396295D01*
X169739123Y-79396295D02*
X169586742Y-79396295D01*
X169586742Y-79396295D02*
X169510552Y-79358200D01*
X169510552Y-79358200D02*
X169472457Y-79320104D01*
X169472457Y-79320104D02*
X169434361Y-79243914D01*
X169434361Y-79243914D02*
X169434361Y-79015342D01*
X169434361Y-79015342D02*
X169472457Y-78939152D01*
X169472457Y-78939152D02*
X169510552Y-78901057D01*
X169510552Y-78901057D02*
X169586742Y-78862961D01*
X169586742Y-78862961D02*
X169739123Y-78862961D01*
X169739123Y-78862961D02*
X169815314Y-78901057D01*
X170043885Y-78862961D02*
X170348647Y-78862961D01*
X170158171Y-78596295D02*
X170158171Y-79282009D01*
X170158171Y-79282009D02*
X170196266Y-79358200D01*
X170196266Y-79358200D02*
X170272456Y-79396295D01*
X170272456Y-79396295D02*
X170348647Y-79396295D01*
X170920076Y-79358200D02*
X170843885Y-79396295D01*
X170843885Y-79396295D02*
X170691504Y-79396295D01*
X170691504Y-79396295D02*
X170615314Y-79358200D01*
X170615314Y-79358200D02*
X170577218Y-79282009D01*
X170577218Y-79282009D02*
X170577218Y-78977247D01*
X170577218Y-78977247D02*
X170615314Y-78901057D01*
X170615314Y-78901057D02*
X170691504Y-78862961D01*
X170691504Y-78862961D02*
X170843885Y-78862961D01*
X170843885Y-78862961D02*
X170920076Y-78901057D01*
X170920076Y-78901057D02*
X170958171Y-78977247D01*
X170958171Y-78977247D02*
X170958171Y-79053438D01*
X170958171Y-79053438D02*
X170577218Y-79129628D01*
X171643885Y-79396295D02*
X171643885Y-78596295D01*
X171643885Y-79358200D02*
X171567694Y-79396295D01*
X171567694Y-79396295D02*
X171415313Y-79396295D01*
X171415313Y-79396295D02*
X171339123Y-79358200D01*
X171339123Y-79358200D02*
X171301028Y-79320104D01*
X171301028Y-79320104D02*
X171262932Y-79243914D01*
X171262932Y-79243914D02*
X171262932Y-79015342D01*
X171262932Y-79015342D02*
X171301028Y-78939152D01*
X171301028Y-78939152D02*
X171339123Y-78901057D01*
X171339123Y-78901057D02*
X171415313Y-78862961D01*
X171415313Y-78862961D02*
X171567694Y-78862961D01*
X171567694Y-78862961D02*
X171643885Y-78901057D01*
X172748647Y-79396295D02*
X172672457Y-79358200D01*
X172672457Y-79358200D02*
X172634362Y-79282009D01*
X172634362Y-79282009D02*
X172634362Y-78596295D01*
X173167695Y-79396295D02*
X173091505Y-79358200D01*
X173091505Y-79358200D02*
X173053410Y-79320104D01*
X173053410Y-79320104D02*
X173015314Y-79243914D01*
X173015314Y-79243914D02*
X173015314Y-79015342D01*
X173015314Y-79015342D02*
X173053410Y-78939152D01*
X173053410Y-78939152D02*
X173091505Y-78901057D01*
X173091505Y-78901057D02*
X173167695Y-78862961D01*
X173167695Y-78862961D02*
X173281981Y-78862961D01*
X173281981Y-78862961D02*
X173358172Y-78901057D01*
X173358172Y-78901057D02*
X173396267Y-78939152D01*
X173396267Y-78939152D02*
X173434362Y-79015342D01*
X173434362Y-79015342D02*
X173434362Y-79243914D01*
X173434362Y-79243914D02*
X173396267Y-79320104D01*
X173396267Y-79320104D02*
X173358172Y-79358200D01*
X173358172Y-79358200D02*
X173281981Y-79396295D01*
X173281981Y-79396295D02*
X173167695Y-79396295D01*
X174120077Y-79396295D02*
X174120077Y-78977247D01*
X174120077Y-78977247D02*
X174081982Y-78901057D01*
X174081982Y-78901057D02*
X174005791Y-78862961D01*
X174005791Y-78862961D02*
X173853410Y-78862961D01*
X173853410Y-78862961D02*
X173777220Y-78901057D01*
X174120077Y-79358200D02*
X174043886Y-79396295D01*
X174043886Y-79396295D02*
X173853410Y-79396295D01*
X173853410Y-79396295D02*
X173777220Y-79358200D01*
X173777220Y-79358200D02*
X173739124Y-79282009D01*
X173739124Y-79282009D02*
X173739124Y-79205819D01*
X173739124Y-79205819D02*
X173777220Y-79129628D01*
X173777220Y-79129628D02*
X173853410Y-79091533D01*
X173853410Y-79091533D02*
X174043886Y-79091533D01*
X174043886Y-79091533D02*
X174120077Y-79053438D01*
X174843887Y-79396295D02*
X174843887Y-78596295D01*
X174843887Y-79358200D02*
X174767696Y-79396295D01*
X174767696Y-79396295D02*
X174615315Y-79396295D01*
X174615315Y-79396295D02*
X174539125Y-79358200D01*
X174539125Y-79358200D02*
X174501030Y-79320104D01*
X174501030Y-79320104D02*
X174462934Y-79243914D01*
X174462934Y-79243914D02*
X174462934Y-79015342D01*
X174462934Y-79015342D02*
X174501030Y-78939152D01*
X174501030Y-78939152D02*
X174539125Y-78901057D01*
X174539125Y-78901057D02*
X174615315Y-78862961D01*
X174615315Y-78862961D02*
X174767696Y-78862961D01*
X174767696Y-78862961D02*
X174843887Y-78901057D01*
X175224840Y-79320104D02*
X175262935Y-79358200D01*
X175262935Y-79358200D02*
X175224840Y-79396295D01*
X175224840Y-79396295D02*
X175186744Y-79358200D01*
X175186744Y-79358200D02*
X175224840Y-79320104D01*
X175224840Y-79320104D02*
X175224840Y-79396295D01*
X175224840Y-79091533D02*
X175186744Y-78634390D01*
X175186744Y-78634390D02*
X175224840Y-78596295D01*
X175224840Y-78596295D02*
X175262935Y-78634390D01*
X175262935Y-78634390D02*
X175224840Y-79091533D01*
X175224840Y-79091533D02*
X175224840Y-78596295D01*
G36*
X112453326Y-66159234D02*
G01*
X112481847Y-66216276D01*
X112481847Y-66371342D01*
X112453326Y-66428383D01*
X112396285Y-66456904D01*
X112380237Y-66456904D01*
X112315000Y-66130714D01*
X112396285Y-66130714D01*
X112453326Y-66159234D01*
G37*
G36*
X112417182Y-65260210D02*
G01*
X112447589Y-65290617D01*
X112481847Y-65359133D01*
X112481847Y-65514199D01*
X112462876Y-65552142D01*
X111984152Y-65552142D01*
X111965180Y-65514197D01*
X111965180Y-65359134D01*
X111999438Y-65290617D01*
X112029846Y-65260210D01*
X112098362Y-65225952D01*
X112348666Y-65225952D01*
X112417182Y-65260210D01*
G37*
G36*
X112417182Y-64355448D02*
G01*
X112447589Y-64385855D01*
X112481847Y-64454371D01*
X112481847Y-64609437D01*
X112462876Y-64647380D01*
X111984152Y-64647380D01*
X111965180Y-64609435D01*
X111965180Y-64454372D01*
X111999438Y-64385855D01*
X112029846Y-64355448D01*
X112098362Y-64321190D01*
X112348666Y-64321190D01*
X112417182Y-64355448D01*
G37*
G36*
X113076291Y-67430860D02*
G01*
X111370736Y-67430860D01*
X111370736Y-66945844D01*
X111816621Y-66945844D01*
X111816621Y-66975108D01*
X111827820Y-67002144D01*
X111848512Y-67022836D01*
X111875548Y-67034035D01*
X111890180Y-67035476D01*
X112348666Y-67035476D01*
X112417182Y-67069734D01*
X112447589Y-67100141D01*
X112481847Y-67168657D01*
X112481847Y-67246190D01*
X112483288Y-67260822D01*
X112494487Y-67287858D01*
X112515179Y-67308550D01*
X112542215Y-67319749D01*
X112571479Y-67319749D01*
X112598515Y-67308550D01*
X112619207Y-67287858D01*
X112630406Y-67260822D01*
X112631847Y-67246190D01*
X112631847Y-67150952D01*
X112630406Y-67136320D01*
X112629375Y-67133831D01*
X112629184Y-67131142D01*
X112623929Y-67117411D01*
X112580394Y-67030341D01*
X112598515Y-67022836D01*
X112619207Y-67002144D01*
X112630406Y-66975108D01*
X112630406Y-66945844D01*
X112619207Y-66918808D01*
X112598515Y-66898116D01*
X112571479Y-66886917D01*
X112556847Y-66885476D01*
X111890180Y-66885476D01*
X111875548Y-66886917D01*
X111848512Y-66898116D01*
X111827820Y-66918808D01*
X111816621Y-66945844D01*
X111370736Y-66945844D01*
X111370736Y-66198571D01*
X111815180Y-66198571D01*
X111815180Y-66389047D01*
X111816621Y-66403679D01*
X111817651Y-66406167D01*
X111817843Y-66408857D01*
X111823098Y-66422589D01*
X111870718Y-66517827D01*
X111878551Y-66530270D01*
X111900659Y-66549443D01*
X111928420Y-66558696D01*
X111957610Y-66556622D01*
X111983784Y-66543534D01*
X112002958Y-66521427D01*
X112012211Y-66493665D01*
X112010137Y-66464475D01*
X112004882Y-66450744D01*
X111965180Y-66371340D01*
X111965180Y-66216277D01*
X111993701Y-66159234D01*
X112050743Y-66130714D01*
X112162028Y-66130714D01*
X112245208Y-66546612D01*
X112249491Y-66560678D01*
X112253579Y-66566783D01*
X112256392Y-66573572D01*
X112261644Y-66578824D01*
X112265775Y-66584992D01*
X112271886Y-66589066D01*
X112277084Y-66594264D01*
X112283947Y-66597107D01*
X112290123Y-66601224D01*
X112297328Y-66602649D01*
X112304120Y-66605463D01*
X112318752Y-66606904D01*
X112318830Y-66606904D01*
X112413990Y-66606904D01*
X112428622Y-66605463D01*
X112431111Y-66604431D01*
X112433799Y-66604241D01*
X112447531Y-66598986D01*
X112542769Y-66551367D01*
X112545216Y-66549826D01*
X112546370Y-66549442D01*
X112547806Y-66548196D01*
X112555212Y-66543535D01*
X112561373Y-66536430D01*
X112568478Y-66530269D01*
X112573139Y-66522863D01*
X112574385Y-66521427D01*
X112574769Y-66520273D01*
X112576310Y-66517826D01*
X112623929Y-66422588D01*
X112629184Y-66408857D01*
X112629375Y-66406167D01*
X112630406Y-66403679D01*
X112631847Y-66389047D01*
X112631847Y-66198571D01*
X112630406Y-66183939D01*
X112629375Y-66181450D01*
X112629184Y-66178761D01*
X112623929Y-66165030D01*
X112576310Y-66069792D01*
X112574769Y-66067344D01*
X112574385Y-66066191D01*
X112573139Y-66064754D01*
X112568478Y-66057349D01*
X112561373Y-66051187D01*
X112555212Y-66044083D01*
X112547806Y-66039421D01*
X112546370Y-66038176D01*
X112545216Y-66037791D01*
X112542769Y-66036251D01*
X112447531Y-65988632D01*
X112433799Y-65983377D01*
X112431111Y-65983186D01*
X112428622Y-65982155D01*
X112413990Y-65980714D01*
X112033038Y-65980714D01*
X112018406Y-65982155D01*
X112015917Y-65983185D01*
X112013228Y-65983377D01*
X111999497Y-65988632D01*
X111904259Y-66036251D01*
X111901813Y-66037790D01*
X111900659Y-66038175D01*
X111899221Y-66039422D01*
X111891816Y-66044083D01*
X111885655Y-66051187D01*
X111878551Y-66057348D01*
X111873887Y-66064755D01*
X111872643Y-66066191D01*
X111872258Y-66067343D01*
X111870718Y-66069791D01*
X111823098Y-66165029D01*
X111817843Y-66178761D01*
X111817651Y-66181450D01*
X111816621Y-66183939D01*
X111815180Y-66198571D01*
X111370736Y-66198571D01*
X111370736Y-65293809D01*
X111481847Y-65293809D01*
X111481847Y-65436666D01*
X111483288Y-65451298D01*
X111484319Y-65453787D01*
X111484510Y-65456475D01*
X111489765Y-65470207D01*
X111537384Y-65565445D01*
X111541348Y-65571744D01*
X111542106Y-65573572D01*
X111543794Y-65575628D01*
X111545216Y-65577888D01*
X111546714Y-65579187D01*
X111551433Y-65584937D01*
X111599052Y-65632556D01*
X111604801Y-65637274D01*
X111606101Y-65638773D01*
X111608360Y-65640194D01*
X111610417Y-65641883D01*
X111612244Y-65642640D01*
X111618544Y-65646605D01*
X111713782Y-65694224D01*
X111727513Y-65699479D01*
X111730202Y-65699670D01*
X111732691Y-65700701D01*
X111747323Y-65702142D01*
X112556847Y-65702142D01*
X112571479Y-65700701D01*
X112598515Y-65689502D01*
X112619207Y-65668810D01*
X112630406Y-65641774D01*
X112630406Y-65612510D01*
X112619207Y-65585474D01*
X112615678Y-65581945D01*
X112623929Y-65565445D01*
X112629184Y-65551714D01*
X112629375Y-65549024D01*
X112630406Y-65546536D01*
X112631847Y-65531904D01*
X112631847Y-65341428D01*
X112630406Y-65326796D01*
X112629375Y-65324307D01*
X112629184Y-65321618D01*
X112623929Y-65307887D01*
X112576310Y-65212649D01*
X112572345Y-65206349D01*
X112571588Y-65204522D01*
X112569899Y-65202465D01*
X112568478Y-65200206D01*
X112566979Y-65198906D01*
X112562261Y-65193157D01*
X112514642Y-65145538D01*
X112508892Y-65140819D01*
X112507593Y-65139321D01*
X112505333Y-65137899D01*
X112503277Y-65136211D01*
X112501449Y-65135453D01*
X112495150Y-65131489D01*
X112399912Y-65083870D01*
X112386180Y-65078615D01*
X112383492Y-65078424D01*
X112381003Y-65077393D01*
X112366371Y-65075952D01*
X112080657Y-65075952D01*
X112066025Y-65077393D01*
X112063536Y-65078423D01*
X112060847Y-65078615D01*
X112047116Y-65083870D01*
X111951878Y-65131489D01*
X111945578Y-65135453D01*
X111943751Y-65136211D01*
X111941694Y-65137899D01*
X111939435Y-65139321D01*
X111938135Y-65140819D01*
X111932386Y-65145538D01*
X111884767Y-65193157D01*
X111880049Y-65198905D01*
X111878551Y-65200205D01*
X111877128Y-65202464D01*
X111875440Y-65204522D01*
X111874683Y-65206349D01*
X111870718Y-65212648D01*
X111823098Y-65307886D01*
X111817843Y-65321618D01*
X111817651Y-65324307D01*
X111816621Y-65326796D01*
X111815180Y-65341428D01*
X111815180Y-65531904D01*
X111816621Y-65546536D01*
X111817651Y-65549024D01*
X111817843Y-65551714D01*
X111818007Y-65552142D01*
X111765028Y-65552142D01*
X111696512Y-65517884D01*
X111666105Y-65487477D01*
X111631847Y-65418961D01*
X111631847Y-65311514D01*
X111671548Y-65232112D01*
X111676803Y-65218381D01*
X111678877Y-65189191D01*
X111669623Y-65161429D01*
X111650450Y-65139322D01*
X111624275Y-65126234D01*
X111595085Y-65124160D01*
X111567324Y-65133414D01*
X111545216Y-65152587D01*
X111537384Y-65165030D01*
X111489765Y-65260268D01*
X111484510Y-65274000D01*
X111484319Y-65276687D01*
X111483288Y-65279177D01*
X111481847Y-65293809D01*
X111370736Y-65293809D01*
X111370736Y-64389047D01*
X111481847Y-64389047D01*
X111481847Y-64531904D01*
X111483288Y-64546536D01*
X111484319Y-64549025D01*
X111484510Y-64551713D01*
X111489765Y-64565445D01*
X111537384Y-64660683D01*
X111541348Y-64666982D01*
X111542106Y-64668810D01*
X111543794Y-64670866D01*
X111545216Y-64673126D01*
X111546714Y-64674425D01*
X111551433Y-64680175D01*
X111599052Y-64727794D01*
X111604801Y-64732512D01*
X111606101Y-64734011D01*
X111608360Y-64735432D01*
X111610417Y-64737121D01*
X111612244Y-64737878D01*
X111618544Y-64741843D01*
X111713782Y-64789462D01*
X111727513Y-64794717D01*
X111730202Y-64794908D01*
X111732691Y-64795939D01*
X111747323Y-64797380D01*
X112556847Y-64797380D01*
X112571479Y-64795939D01*
X112598515Y-64784740D01*
X112619207Y-64764048D01*
X112630406Y-64737012D01*
X112630406Y-64707748D01*
X112619207Y-64680712D01*
X112615678Y-64677183D01*
X112623929Y-64660683D01*
X112629184Y-64646952D01*
X112629375Y-64644262D01*
X112630406Y-64641774D01*
X112631847Y-64627142D01*
X112631847Y-64436666D01*
X112630406Y-64422034D01*
X112629375Y-64419545D01*
X112629184Y-64416856D01*
X112623929Y-64403125D01*
X112576310Y-64307887D01*
X112572345Y-64301587D01*
X112571588Y-64299760D01*
X112569899Y-64297703D01*
X112568478Y-64295444D01*
X112566979Y-64294144D01*
X112562261Y-64288395D01*
X112514642Y-64240776D01*
X112508892Y-64236057D01*
X112507593Y-64234559D01*
X112505333Y-64233137D01*
X112503277Y-64231449D01*
X112501449Y-64230691D01*
X112495150Y-64226727D01*
X112399912Y-64179108D01*
X112386180Y-64173853D01*
X112383492Y-64173662D01*
X112381003Y-64172631D01*
X112366371Y-64171190D01*
X112080657Y-64171190D01*
X112066025Y-64172631D01*
X112063536Y-64173661D01*
X112060847Y-64173853D01*
X112047116Y-64179108D01*
X111951878Y-64226727D01*
X111945578Y-64230691D01*
X111943751Y-64231449D01*
X111941694Y-64233137D01*
X111939435Y-64234559D01*
X111938135Y-64236057D01*
X111932386Y-64240776D01*
X111884767Y-64288395D01*
X111880049Y-64294143D01*
X111878551Y-64295443D01*
X111877128Y-64297702D01*
X111875440Y-64299760D01*
X111874683Y-64301587D01*
X111870718Y-64307886D01*
X111823098Y-64403124D01*
X111817843Y-64416856D01*
X111817651Y-64419545D01*
X111816621Y-64422034D01*
X111815180Y-64436666D01*
X111815180Y-64627142D01*
X111816621Y-64641774D01*
X111817651Y-64644262D01*
X111817843Y-64646952D01*
X111818007Y-64647380D01*
X111765028Y-64647380D01*
X111696512Y-64613122D01*
X111666105Y-64582715D01*
X111631847Y-64514199D01*
X111631847Y-64406752D01*
X111671548Y-64327350D01*
X111676803Y-64313619D01*
X111678877Y-64284429D01*
X111669623Y-64256667D01*
X111650450Y-64234560D01*
X111624275Y-64221472D01*
X111595085Y-64219398D01*
X111567324Y-64228652D01*
X111545216Y-64247825D01*
X111537384Y-64260268D01*
X111489765Y-64355506D01*
X111484510Y-64369238D01*
X111484319Y-64371925D01*
X111483288Y-64374415D01*
X111481847Y-64389047D01*
X111370736Y-64389047D01*
X111370736Y-63802987D01*
X111816621Y-63802987D01*
X111816621Y-63832251D01*
X111827820Y-63859287D01*
X111848512Y-63879979D01*
X111875548Y-63891178D01*
X111890180Y-63892619D01*
X112556847Y-63892619D01*
X112571479Y-63891178D01*
X112598515Y-63879979D01*
X112619207Y-63859287D01*
X112630406Y-63832251D01*
X112630406Y-63802988D01*
X112721383Y-63802988D01*
X112721383Y-63832250D01*
X112732582Y-63859287D01*
X112741909Y-63870652D01*
X112789528Y-63918271D01*
X112800893Y-63927598D01*
X112827929Y-63938797D01*
X112827930Y-63938797D01*
X112857192Y-63938797D01*
X112884229Y-63927598D01*
X112895594Y-63918271D01*
X112943213Y-63870652D01*
X112952540Y-63859287D01*
X112963739Y-63832251D01*
X112963739Y-63802988D01*
X112956136Y-63784632D01*
X112952540Y-63775951D01*
X112943213Y-63764586D01*
X112895594Y-63716967D01*
X112884229Y-63707640D01*
X112857192Y-63696441D01*
X112827929Y-63696441D01*
X112800893Y-63707640D01*
X112789528Y-63716967D01*
X112741909Y-63764586D01*
X112732582Y-63775951D01*
X112721383Y-63802988D01*
X112630406Y-63802988D01*
X112630406Y-63802987D01*
X112619207Y-63775951D01*
X112598515Y-63755259D01*
X112571479Y-63744060D01*
X112556847Y-63742619D01*
X111890180Y-63742619D01*
X111875548Y-63744060D01*
X111848512Y-63755259D01*
X111827820Y-63775951D01*
X111816621Y-63802987D01*
X111370736Y-63802987D01*
X111370736Y-63183939D01*
X111816621Y-63183939D01*
X111816621Y-63213203D01*
X111827820Y-63240239D01*
X111848512Y-63260931D01*
X111875548Y-63272130D01*
X111890180Y-63273571D01*
X112348666Y-63273571D01*
X112417182Y-63307829D01*
X112447589Y-63338236D01*
X112481847Y-63406752D01*
X112481847Y-63484285D01*
X112483288Y-63498917D01*
X112494487Y-63525953D01*
X112515179Y-63546645D01*
X112542215Y-63557844D01*
X112571479Y-63557844D01*
X112598515Y-63546645D01*
X112619207Y-63525953D01*
X112630406Y-63498917D01*
X112631847Y-63484285D01*
X112631847Y-63389047D01*
X112630406Y-63374415D01*
X112629375Y-63371926D01*
X112629184Y-63369237D01*
X112623929Y-63355506D01*
X112580394Y-63268436D01*
X112598515Y-63260931D01*
X112619207Y-63240239D01*
X112630406Y-63213203D01*
X112630406Y-63183939D01*
X112619207Y-63156903D01*
X112598515Y-63136211D01*
X112571479Y-63125012D01*
X112556847Y-63123571D01*
X111890180Y-63123571D01*
X111875548Y-63125012D01*
X111848512Y-63136211D01*
X111827820Y-63156903D01*
X111816621Y-63183939D01*
X111370736Y-63183939D01*
X111370736Y-62564891D01*
X111816621Y-62564891D01*
X111816621Y-62594155D01*
X111827820Y-62621191D01*
X111848512Y-62641883D01*
X111875548Y-62653082D01*
X111890180Y-62654523D01*
X112815180Y-62654523D01*
X112815180Y-62865237D01*
X112816621Y-62879869D01*
X112827820Y-62906905D01*
X112848512Y-62927597D01*
X112875548Y-62938796D01*
X112904812Y-62938796D01*
X112931848Y-62927597D01*
X112952540Y-62906905D01*
X112963739Y-62879869D01*
X112965180Y-62865237D01*
X112965180Y-62293809D01*
X112963739Y-62279177D01*
X112952540Y-62252141D01*
X112931848Y-62231449D01*
X112904812Y-62220250D01*
X112875548Y-62220250D01*
X112848512Y-62231449D01*
X112827820Y-62252141D01*
X112816621Y-62279177D01*
X112815180Y-62293809D01*
X112815180Y-62504523D01*
X111890180Y-62504523D01*
X111875548Y-62505964D01*
X111848512Y-62517163D01*
X111827820Y-62537855D01*
X111816621Y-62564891D01*
X111370736Y-62564891D01*
X111370736Y-62109139D01*
X113076291Y-62109139D01*
X113076291Y-67430860D01*
G37*
G36*
X173918977Y-76765621D02*
G01*
X173546755Y-76765621D01*
X173546755Y-75819047D01*
X173657866Y-75819047D01*
X173657866Y-76580951D01*
X173659307Y-76595583D01*
X173670506Y-76622619D01*
X173691198Y-76643311D01*
X173718234Y-76654510D01*
X173747498Y-76654510D01*
X173774534Y-76643311D01*
X173795226Y-76622619D01*
X173806425Y-76595583D01*
X173807866Y-76580951D01*
X173807866Y-75819047D01*
X173806425Y-75804415D01*
X173795226Y-75777379D01*
X173774534Y-75756687D01*
X173747498Y-75745488D01*
X173718234Y-75745488D01*
X173691198Y-75756687D01*
X173670506Y-75777379D01*
X173659307Y-75804415D01*
X173657866Y-75819047D01*
X173546755Y-75819047D01*
X173546755Y-75634377D01*
X173918977Y-75634377D01*
X173918977Y-76765621D01*
G37*
G36*
X174948617Y-74100579D02*
G01*
X175020561Y-74172522D01*
X175054819Y-74241038D01*
X175054819Y-74396104D01*
X175020561Y-74464619D01*
X174948617Y-74536562D01*
X174787251Y-74576904D01*
X174472386Y-74576904D01*
X174311019Y-74536562D01*
X174239077Y-74464620D01*
X174204819Y-74396104D01*
X174204819Y-74241038D01*
X174239077Y-74172522D01*
X174311019Y-74100579D01*
X174472386Y-74060238D01*
X174787251Y-74060238D01*
X174948617Y-74100579D01*
G37*
G36*
X174990153Y-71713543D02*
G01*
X175020561Y-71743950D01*
X175054819Y-71812466D01*
X175054819Y-71967532D01*
X175035848Y-72005475D01*
X174557123Y-72005475D01*
X174538152Y-71967532D01*
X174538152Y-71812466D01*
X174572410Y-71743950D01*
X174602817Y-71713543D01*
X174671333Y-71679285D01*
X174921637Y-71679285D01*
X174990153Y-71713543D01*
G37*
G36*
X175647822Y-74838015D02*
G01*
X173943708Y-74838015D01*
X173943708Y-74223333D01*
X174054819Y-74223333D01*
X174054819Y-74413809D01*
X174056260Y-74428441D01*
X174057291Y-74430930D01*
X174057482Y-74433618D01*
X174062737Y-74447350D01*
X174110356Y-74542588D01*
X174114320Y-74548887D01*
X174115078Y-74550715D01*
X174116766Y-74552771D01*
X174118188Y-74555031D01*
X174119686Y-74556330D01*
X174124405Y-74562080D01*
X174219643Y-74657318D01*
X174231008Y-74666646D01*
X174236161Y-74668780D01*
X174240640Y-74672099D01*
X174254486Y-74677046D01*
X174444962Y-74724665D01*
X174447498Y-74725040D01*
X174448520Y-74725463D01*
X174454032Y-74726005D01*
X174459506Y-74726815D01*
X174460598Y-74726652D01*
X174463152Y-74726904D01*
X174796485Y-74726904D01*
X174799038Y-74726652D01*
X174800131Y-74726815D01*
X174805604Y-74726005D01*
X174811117Y-74725463D01*
X174812138Y-74725040D01*
X174814675Y-74724665D01*
X175005151Y-74677046D01*
X175018997Y-74672099D01*
X175023476Y-74668779D01*
X175028628Y-74666646D01*
X175039994Y-74657318D01*
X175135233Y-74562080D01*
X175139953Y-74556329D01*
X175141450Y-74555031D01*
X175142869Y-74552776D01*
X175144561Y-74550715D01*
X175145319Y-74548882D01*
X175149282Y-74542588D01*
X175196901Y-74447350D01*
X175202156Y-74433619D01*
X175202347Y-74430929D01*
X175203378Y-74428441D01*
X175204819Y-74413809D01*
X175204819Y-74223333D01*
X175203378Y-74208701D01*
X175202347Y-74206212D01*
X175202156Y-74203523D01*
X175196901Y-74189792D01*
X175149282Y-74094554D01*
X175145319Y-74088259D01*
X175144561Y-74086427D01*
X175142869Y-74084365D01*
X175141450Y-74082111D01*
X175139953Y-74080812D01*
X175135233Y-74075062D01*
X175039994Y-73979824D01*
X175028628Y-73970496D01*
X175023476Y-73968362D01*
X175018997Y-73965043D01*
X175005151Y-73960096D01*
X174814675Y-73912477D01*
X174812138Y-73912101D01*
X174811117Y-73911679D01*
X174805604Y-73911136D01*
X174800131Y-73910327D01*
X174799038Y-73910489D01*
X174796485Y-73910238D01*
X174463152Y-73910238D01*
X174460598Y-73910489D01*
X174459506Y-73910327D01*
X174454032Y-73911136D01*
X174448520Y-73911679D01*
X174447498Y-73912101D01*
X174444962Y-73912477D01*
X174254486Y-73960096D01*
X174240640Y-73965043D01*
X174236161Y-73968361D01*
X174231008Y-73970496D01*
X174219643Y-73979824D01*
X174124405Y-74075062D01*
X174119686Y-74080811D01*
X174118188Y-74082111D01*
X174116766Y-74084370D01*
X174115078Y-74086427D01*
X174114320Y-74088254D01*
X174110356Y-74094554D01*
X174062737Y-74189792D01*
X174057482Y-74203524D01*
X174057291Y-74206211D01*
X174056260Y-74208701D01*
X174054819Y-74223333D01*
X173943708Y-74223333D01*
X173943708Y-73113463D01*
X174389593Y-73113463D01*
X174389593Y-73142727D01*
X174400792Y-73169763D01*
X174421484Y-73190455D01*
X174448520Y-73201654D01*
X174463152Y-73203095D01*
X175003514Y-73203095D01*
X175020561Y-73220141D01*
X175054819Y-73288657D01*
X175054819Y-73396104D01*
X175026298Y-73453145D01*
X174969256Y-73481666D01*
X174463152Y-73481666D01*
X174448520Y-73483107D01*
X174421484Y-73494306D01*
X174400792Y-73514998D01*
X174389593Y-73542034D01*
X174389593Y-73571298D01*
X174400792Y-73598334D01*
X174421484Y-73619026D01*
X174448520Y-73630225D01*
X174463152Y-73631666D01*
X174986961Y-73631666D01*
X175001593Y-73630225D01*
X175004082Y-73629193D01*
X175006770Y-73629003D01*
X175020502Y-73623748D01*
X175115741Y-73576129D01*
X175118187Y-73574588D01*
X175119342Y-73574204D01*
X175120779Y-73572957D01*
X175128183Y-73568297D01*
X175134342Y-73561194D01*
X175141450Y-73555031D01*
X175146111Y-73547625D01*
X175147357Y-73546189D01*
X175147741Y-73545035D01*
X175149282Y-73542588D01*
X175196901Y-73447350D01*
X175202156Y-73433619D01*
X175202347Y-73430929D01*
X175203378Y-73428441D01*
X175204819Y-73413809D01*
X175204819Y-73270952D01*
X175203378Y-73256320D01*
X175202347Y-73253831D01*
X175202156Y-73251142D01*
X175196901Y-73237411D01*
X175172777Y-73189164D01*
X175192179Y-73169763D01*
X175203378Y-73142727D01*
X175203378Y-73113463D01*
X175192179Y-73086427D01*
X175171487Y-73065735D01*
X175144451Y-73054536D01*
X175129819Y-73053095D01*
X174463152Y-73053095D01*
X174448520Y-73054536D01*
X174421484Y-73065735D01*
X174400792Y-73086427D01*
X174389593Y-73113463D01*
X173943708Y-73113463D01*
X173943708Y-72637272D01*
X174056260Y-72637272D01*
X174056260Y-72666536D01*
X174067459Y-72693572D01*
X174088151Y-72714264D01*
X174115187Y-72725463D01*
X174129819Y-72726904D01*
X174388152Y-72726904D01*
X174388152Y-72794761D01*
X174389593Y-72809393D01*
X174400792Y-72836429D01*
X174421484Y-72857121D01*
X174448520Y-72868320D01*
X174477784Y-72868320D01*
X174504820Y-72857121D01*
X174525512Y-72836429D01*
X174536711Y-72809393D01*
X174538152Y-72794761D01*
X174538152Y-72726904D01*
X174986961Y-72726904D01*
X175001593Y-72725463D01*
X175004082Y-72724431D01*
X175006770Y-72724241D01*
X175020502Y-72718986D01*
X175115741Y-72671367D01*
X175118187Y-72669826D01*
X175119342Y-72669442D01*
X175120779Y-72668195D01*
X175128183Y-72663535D01*
X175134342Y-72656432D01*
X175141450Y-72650269D01*
X175146111Y-72642863D01*
X175147357Y-72641427D01*
X175147741Y-72640273D01*
X175149282Y-72637826D01*
X175196901Y-72542588D01*
X175202156Y-72528857D01*
X175202347Y-72526167D01*
X175203378Y-72523679D01*
X175204819Y-72509047D01*
X175204819Y-72413809D01*
X175203378Y-72399177D01*
X175192179Y-72372141D01*
X175171487Y-72351449D01*
X175144451Y-72340250D01*
X175115187Y-72340250D01*
X175088151Y-72351449D01*
X175067459Y-72372141D01*
X175056260Y-72399177D01*
X175054819Y-72413809D01*
X175054819Y-72491342D01*
X175026298Y-72548383D01*
X174969256Y-72576904D01*
X174538152Y-72576904D01*
X174538152Y-72413809D01*
X174536711Y-72399177D01*
X174525512Y-72372141D01*
X174504820Y-72351449D01*
X174477784Y-72340250D01*
X174448520Y-72340250D01*
X174421484Y-72351449D01*
X174400792Y-72372141D01*
X174389593Y-72399177D01*
X174388152Y-72413809D01*
X174388152Y-72576904D01*
X174129819Y-72576904D01*
X174115187Y-72578345D01*
X174088151Y-72589544D01*
X174067459Y-72610236D01*
X174056260Y-72637272D01*
X173943708Y-72637272D01*
X173943708Y-71794761D01*
X174388152Y-71794761D01*
X174388152Y-71985237D01*
X174389593Y-71999869D01*
X174390624Y-72002358D01*
X174390815Y-72005046D01*
X174396070Y-72018778D01*
X174404320Y-72035278D01*
X174400792Y-72038807D01*
X174389593Y-72065843D01*
X174389593Y-72095107D01*
X174400792Y-72122143D01*
X174421484Y-72142835D01*
X174448520Y-72154034D01*
X174463152Y-72155475D01*
X175463152Y-72155475D01*
X175477784Y-72154034D01*
X175504820Y-72142835D01*
X175525512Y-72122143D01*
X175536711Y-72095107D01*
X175536711Y-72065843D01*
X175525512Y-72038807D01*
X175504820Y-72018115D01*
X175477784Y-72006916D01*
X175463152Y-72005475D01*
X175201992Y-72005475D01*
X175202156Y-72005047D01*
X175202347Y-72002357D01*
X175203378Y-71999869D01*
X175204819Y-71985237D01*
X175204819Y-71794761D01*
X175203378Y-71780129D01*
X175202347Y-71777640D01*
X175202156Y-71774951D01*
X175196901Y-71761220D01*
X175149282Y-71665982D01*
X175145317Y-71659682D01*
X175144560Y-71657855D01*
X175142872Y-71655798D01*
X175141450Y-71653539D01*
X175139950Y-71652238D01*
X175135232Y-71646489D01*
X175087612Y-71598870D01*
X175081863Y-71594152D01*
X175080564Y-71592654D01*
X175078305Y-71591232D01*
X175076247Y-71589543D01*
X175074417Y-71588785D01*
X175068121Y-71584822D01*
X174972883Y-71537203D01*
X174959151Y-71531948D01*
X174956463Y-71531757D01*
X174953974Y-71530726D01*
X174939342Y-71529285D01*
X174653628Y-71529285D01*
X174638996Y-71530726D01*
X174636507Y-71531756D01*
X174633818Y-71531948D01*
X174620087Y-71537203D01*
X174524849Y-71584822D01*
X174518549Y-71588786D01*
X174516722Y-71589544D01*
X174514665Y-71591232D01*
X174512406Y-71592654D01*
X174511106Y-71594152D01*
X174505357Y-71598871D01*
X174457738Y-71646490D01*
X174453019Y-71652239D01*
X174451521Y-71653539D01*
X174450099Y-71655798D01*
X174448411Y-71657855D01*
X174447653Y-71659682D01*
X174443689Y-71665982D01*
X174396070Y-71761220D01*
X174390815Y-71774952D01*
X174390624Y-71777639D01*
X174389593Y-71780129D01*
X174388152Y-71794761D01*
X173943708Y-71794761D01*
X173943708Y-70732510D01*
X174389593Y-70732510D01*
X174389593Y-70761774D01*
X174400792Y-70788810D01*
X174421484Y-70809502D01*
X174448520Y-70820701D01*
X174463152Y-70822142D01*
X175003514Y-70822142D01*
X175020561Y-70839188D01*
X175054819Y-70907704D01*
X175054819Y-71015151D01*
X175026298Y-71072192D01*
X174969256Y-71100713D01*
X174463152Y-71100713D01*
X174448520Y-71102154D01*
X174421484Y-71113353D01*
X174400792Y-71134045D01*
X174389593Y-71161081D01*
X174389593Y-71190345D01*
X174400792Y-71217381D01*
X174421484Y-71238073D01*
X174448520Y-71249272D01*
X174463152Y-71250713D01*
X174986961Y-71250713D01*
X175001593Y-71249272D01*
X175004082Y-71248240D01*
X175006770Y-71248050D01*
X175020502Y-71242795D01*
X175115741Y-71195176D01*
X175118187Y-71193635D01*
X175119342Y-71193251D01*
X175120779Y-71192004D01*
X175128183Y-71187344D01*
X175134342Y-71180241D01*
X175141450Y-71174078D01*
X175146111Y-71166672D01*
X175147357Y-71165236D01*
X175147741Y-71164082D01*
X175149282Y-71161635D01*
X175196901Y-71066397D01*
X175202156Y-71052666D01*
X175202347Y-71049976D01*
X175203378Y-71047488D01*
X175204819Y-71032856D01*
X175204819Y-70889999D01*
X175203378Y-70875367D01*
X175202347Y-70872878D01*
X175202156Y-70870189D01*
X175196901Y-70856458D01*
X175172777Y-70808211D01*
X175192179Y-70788810D01*
X175203378Y-70761774D01*
X175203378Y-70732510D01*
X175192179Y-70705474D01*
X175171487Y-70684782D01*
X175144451Y-70673583D01*
X175129819Y-70672142D01*
X174463152Y-70672142D01*
X174448520Y-70673583D01*
X174421484Y-70684782D01*
X174400792Y-70705474D01*
X174389593Y-70732510D01*
X173943708Y-70732510D01*
X173943708Y-70256319D01*
X174056260Y-70256319D01*
X174056260Y-70285583D01*
X174067459Y-70312619D01*
X174088151Y-70333311D01*
X174115187Y-70344510D01*
X174129819Y-70345951D01*
X174388152Y-70345951D01*
X174388152Y-70413808D01*
X174389593Y-70428440D01*
X174400792Y-70455476D01*
X174421484Y-70476168D01*
X174448520Y-70487367D01*
X174477784Y-70487367D01*
X174504820Y-70476168D01*
X174525512Y-70455476D01*
X174536711Y-70428440D01*
X174538152Y-70413808D01*
X174538152Y-70345951D01*
X174986961Y-70345951D01*
X175001593Y-70344510D01*
X175004082Y-70343478D01*
X175006770Y-70343288D01*
X175020502Y-70338033D01*
X175115741Y-70290414D01*
X175118187Y-70288873D01*
X175119342Y-70288489D01*
X175120779Y-70287242D01*
X175128183Y-70282582D01*
X175134342Y-70275479D01*
X175141450Y-70269316D01*
X175146111Y-70261910D01*
X175147357Y-70260474D01*
X175147741Y-70259320D01*
X175149282Y-70256873D01*
X175196901Y-70161635D01*
X175202156Y-70147904D01*
X175202347Y-70145214D01*
X175203378Y-70142726D01*
X175204819Y-70128094D01*
X175204819Y-70032856D01*
X175203378Y-70018224D01*
X175192179Y-69991188D01*
X175171487Y-69970496D01*
X175144451Y-69959297D01*
X175115187Y-69959297D01*
X175088151Y-69970496D01*
X175067459Y-69991188D01*
X175056260Y-70018224D01*
X175054819Y-70032856D01*
X175054819Y-70110389D01*
X175026298Y-70167430D01*
X174969256Y-70195951D01*
X174538152Y-70195951D01*
X174538152Y-70032856D01*
X174536711Y-70018224D01*
X174525512Y-69991188D01*
X174504820Y-69970496D01*
X174477784Y-69959297D01*
X174448520Y-69959297D01*
X174421484Y-69970496D01*
X174400792Y-69991188D01*
X174389593Y-70018224D01*
X174388152Y-70032856D01*
X174388152Y-70195951D01*
X174129819Y-70195951D01*
X174115187Y-70197392D01*
X174088151Y-70208591D01*
X174067459Y-70229283D01*
X174056260Y-70256319D01*
X173943708Y-70256319D01*
X173943708Y-69848186D01*
X175647822Y-69848186D01*
X175647822Y-74838015D01*
G37*
G36*
X174513963Y-58664020D02*
G01*
X174544370Y-58694427D01*
X174578628Y-58762943D01*
X174578628Y-59051190D01*
X174204819Y-59051190D01*
X174204819Y-58762943D01*
X174239077Y-58694427D01*
X174269484Y-58664020D01*
X174338000Y-58629762D01*
X174445447Y-58629762D01*
X174513963Y-58664020D01*
G37*
G36*
X174990153Y-57759258D02*
G01*
X175020561Y-57789665D01*
X175054819Y-57858181D01*
X175054819Y-57965628D01*
X175020561Y-58034143D01*
X174990153Y-58064550D01*
X174921637Y-58098809D01*
X174671333Y-58098809D01*
X174602817Y-58064551D01*
X174572410Y-58034144D01*
X174538152Y-57965628D01*
X174538152Y-57858181D01*
X174572410Y-57789665D01*
X174602817Y-57759258D01*
X174671333Y-57725000D01*
X174921637Y-57725000D01*
X174990153Y-57759258D01*
G37*
G36*
X174704999Y-56146428D02*
G01*
X174623714Y-56146428D01*
X174566672Y-56117907D01*
X174538152Y-56060866D01*
X174538152Y-55905800D01*
X174566672Y-55848758D01*
X174623714Y-55820238D01*
X174639761Y-55820238D01*
X174704999Y-56146428D01*
G37*
G36*
X175315930Y-59312301D02*
G01*
X173943708Y-59312301D01*
X173943708Y-58745238D01*
X174054819Y-58745238D01*
X174054819Y-59126190D01*
X174056260Y-59140822D01*
X174067459Y-59167858D01*
X174088151Y-59188550D01*
X174115187Y-59199749D01*
X174129819Y-59201190D01*
X175129819Y-59201190D01*
X175144451Y-59199749D01*
X175171487Y-59188550D01*
X175192179Y-59167858D01*
X175203378Y-59140822D01*
X175203378Y-59111558D01*
X175192179Y-59084522D01*
X175171487Y-59063830D01*
X175144451Y-59052631D01*
X175129819Y-59051190D01*
X174728628Y-59051190D01*
X174728628Y-58745238D01*
X174727187Y-58730606D01*
X174726156Y-58728117D01*
X174725965Y-58725428D01*
X174720710Y-58711697D01*
X174673091Y-58616459D01*
X174669126Y-58610159D01*
X174668369Y-58608332D01*
X174666680Y-58606275D01*
X174665259Y-58604016D01*
X174663760Y-58602716D01*
X174659042Y-58596967D01*
X174611423Y-58549348D01*
X174605673Y-58544629D01*
X174604374Y-58543131D01*
X174602114Y-58541709D01*
X174600058Y-58540021D01*
X174598230Y-58539263D01*
X174591931Y-58535299D01*
X174496693Y-58487680D01*
X174482961Y-58482425D01*
X174480273Y-58482234D01*
X174477784Y-58481203D01*
X174463152Y-58479762D01*
X174320295Y-58479762D01*
X174305663Y-58481203D01*
X174303174Y-58482233D01*
X174300485Y-58482425D01*
X174286754Y-58487680D01*
X174191516Y-58535299D01*
X174185216Y-58539263D01*
X174183389Y-58540021D01*
X174181332Y-58541709D01*
X174179073Y-58543131D01*
X174177773Y-58544629D01*
X174172024Y-58549348D01*
X174124405Y-58596967D01*
X174119686Y-58602716D01*
X174118188Y-58604016D01*
X174116766Y-58606275D01*
X174115078Y-58608332D01*
X174114320Y-58610159D01*
X174110356Y-58616459D01*
X174062737Y-58711697D01*
X174057482Y-58725429D01*
X174057291Y-58728116D01*
X174056260Y-58730606D01*
X174054819Y-58745238D01*
X173943708Y-58745238D01*
X173943708Y-57840476D01*
X174388152Y-57840476D01*
X174388152Y-57983333D01*
X174389593Y-57997965D01*
X174390624Y-58000454D01*
X174390815Y-58003142D01*
X174396070Y-58016874D01*
X174443689Y-58112112D01*
X174447653Y-58118411D01*
X174448411Y-58120239D01*
X174450099Y-58122295D01*
X174451521Y-58124555D01*
X174453019Y-58125854D01*
X174457738Y-58131604D01*
X174505357Y-58179223D01*
X174511106Y-58183941D01*
X174512406Y-58185440D01*
X174514665Y-58186861D01*
X174516722Y-58188550D01*
X174518549Y-58189307D01*
X174524849Y-58193272D01*
X174620087Y-58240891D01*
X174633818Y-58246146D01*
X174636507Y-58246337D01*
X174638996Y-58247368D01*
X174653628Y-58248809D01*
X174939342Y-58248809D01*
X174953974Y-58247368D01*
X174956463Y-58246336D01*
X174959151Y-58246146D01*
X174972883Y-58240891D01*
X175068121Y-58193272D01*
X175074417Y-58189308D01*
X175076247Y-58188551D01*
X175078305Y-58186861D01*
X175080564Y-58185440D01*
X175081863Y-58183941D01*
X175087612Y-58179224D01*
X175135232Y-58131605D01*
X175139950Y-58125855D01*
X175141450Y-58124555D01*
X175142872Y-58122295D01*
X175144560Y-58120239D01*
X175145317Y-58118411D01*
X175149282Y-58112112D01*
X175196901Y-58016874D01*
X175202156Y-58003143D01*
X175202347Y-58000453D01*
X175203378Y-57997965D01*
X175204819Y-57983333D01*
X175204819Y-57840476D01*
X175203378Y-57825844D01*
X175202347Y-57823355D01*
X175202156Y-57820666D01*
X175196901Y-57806935D01*
X175149282Y-57711697D01*
X175145317Y-57705397D01*
X175144560Y-57703570D01*
X175142872Y-57701513D01*
X175141450Y-57699254D01*
X175139950Y-57697953D01*
X175135232Y-57692204D01*
X175087612Y-57644585D01*
X175081863Y-57639867D01*
X175080564Y-57638369D01*
X175078305Y-57636947D01*
X175076247Y-57635258D01*
X175074417Y-57634500D01*
X175068121Y-57630537D01*
X174972883Y-57582918D01*
X174959151Y-57577663D01*
X174956463Y-57577472D01*
X174953974Y-57576441D01*
X174939342Y-57575000D01*
X174653628Y-57575000D01*
X174638996Y-57576441D01*
X174636507Y-57577471D01*
X174633818Y-57577663D01*
X174620087Y-57582918D01*
X174524849Y-57630537D01*
X174518549Y-57634501D01*
X174516722Y-57635259D01*
X174514665Y-57636947D01*
X174512406Y-57638369D01*
X174511106Y-57639867D01*
X174505357Y-57644586D01*
X174457738Y-57692205D01*
X174453019Y-57697954D01*
X174451521Y-57699254D01*
X174450099Y-57701513D01*
X174448411Y-57703570D01*
X174447653Y-57705397D01*
X174443689Y-57711697D01*
X174396070Y-57806935D01*
X174390815Y-57820667D01*
X174390624Y-57823354D01*
X174389593Y-57825844D01*
X174388152Y-57840476D01*
X173943708Y-57840476D01*
X173943708Y-56548623D01*
X174388404Y-56548623D01*
X174391744Y-56577695D01*
X174405956Y-56603276D01*
X174428875Y-56621471D01*
X174442548Y-56626876D01*
X174898266Y-56757081D01*
X174625774Y-56866078D01*
X174612723Y-56872850D01*
X174612056Y-56873500D01*
X174611203Y-56873866D01*
X174601609Y-56883695D01*
X174591780Y-56893289D01*
X174591414Y-56894142D01*
X174590764Y-56894809D01*
X174585660Y-56907567D01*
X174580253Y-56920186D01*
X174580241Y-56921115D01*
X174579896Y-56921980D01*
X174580063Y-56935714D01*
X174579896Y-56949448D01*
X174580241Y-56950312D01*
X174580253Y-56951242D01*
X174585660Y-56963860D01*
X174590764Y-56976619D01*
X174591414Y-56977285D01*
X174591780Y-56978139D01*
X174601609Y-56987732D01*
X174611203Y-56997562D01*
X174612056Y-56997927D01*
X174612723Y-56998578D01*
X174625774Y-57005350D01*
X174898266Y-57114346D01*
X174442548Y-57244552D01*
X174428875Y-57249957D01*
X174405956Y-57268152D01*
X174391744Y-57293733D01*
X174388404Y-57322805D01*
X174396443Y-57350943D01*
X174414638Y-57373862D01*
X174440219Y-57388074D01*
X174469291Y-57391414D01*
X174483756Y-57388780D01*
X175150423Y-57198304D01*
X175164096Y-57192899D01*
X175167843Y-57189923D01*
X175172244Y-57188038D01*
X175179206Y-57180902D01*
X175187015Y-57174704D01*
X175189340Y-57170518D01*
X175192682Y-57167094D01*
X175196383Y-57157841D01*
X175201227Y-57149123D01*
X175201773Y-57144367D01*
X175203551Y-57139924D01*
X175203429Y-57129953D01*
X175204567Y-57120051D01*
X175203252Y-57115449D01*
X175203194Y-57110662D01*
X175199266Y-57101498D01*
X175196528Y-57091913D01*
X175193551Y-57088163D01*
X175191666Y-57083765D01*
X175184532Y-57076803D01*
X175178333Y-57068994D01*
X175174148Y-57066669D01*
X175170723Y-57063326D01*
X175157673Y-57056554D01*
X174855572Y-56935714D01*
X175157673Y-56814874D01*
X175170723Y-56808102D01*
X175174148Y-56804758D01*
X175178333Y-56802434D01*
X175184532Y-56794624D01*
X175191666Y-56787663D01*
X175193551Y-56783264D01*
X175196528Y-56779515D01*
X175199266Y-56769929D01*
X175203194Y-56760766D01*
X175203252Y-56755978D01*
X175204567Y-56751377D01*
X175203429Y-56741474D01*
X175203551Y-56731504D01*
X175201773Y-56727060D01*
X175201227Y-56722305D01*
X175196383Y-56713586D01*
X175192682Y-56704334D01*
X175189340Y-56700909D01*
X175187015Y-56696724D01*
X175179206Y-56690525D01*
X175172244Y-56683390D01*
X175167843Y-56681504D01*
X175164096Y-56678529D01*
X175150423Y-56673124D01*
X174483756Y-56482648D01*
X174469291Y-56480014D01*
X174440219Y-56483354D01*
X174414638Y-56497566D01*
X174396443Y-56520485D01*
X174388404Y-56548623D01*
X173943708Y-56548623D01*
X173943708Y-55888095D01*
X174388152Y-55888095D01*
X174388152Y-56078571D01*
X174389593Y-56093203D01*
X174390624Y-56095692D01*
X174390815Y-56098380D01*
X174396070Y-56112112D01*
X174443689Y-56207350D01*
X174445229Y-56209797D01*
X174445614Y-56210951D01*
X174446859Y-56212387D01*
X174451521Y-56219793D01*
X174458625Y-56225954D01*
X174464787Y-56233059D01*
X174472192Y-56237720D01*
X174473629Y-56238966D01*
X174474782Y-56239350D01*
X174477230Y-56240891D01*
X174572468Y-56288510D01*
X174586199Y-56293765D01*
X174588888Y-56293956D01*
X174591377Y-56294987D01*
X174606009Y-56296428D01*
X174796563Y-56296428D01*
X174986961Y-56296428D01*
X175001593Y-56294987D01*
X175004082Y-56293955D01*
X175006770Y-56293765D01*
X175020502Y-56288510D01*
X175115741Y-56240891D01*
X175118187Y-56239350D01*
X175119342Y-56238966D01*
X175120779Y-56237719D01*
X175128183Y-56233059D01*
X175134342Y-56225956D01*
X175141450Y-56219793D01*
X175146111Y-56212387D01*
X175147357Y-56210951D01*
X175147741Y-56209797D01*
X175149282Y-56207350D01*
X175196901Y-56112112D01*
X175202156Y-56098381D01*
X175202347Y-56095691D01*
X175203378Y-56093203D01*
X175204819Y-56078571D01*
X175204819Y-55888095D01*
X175203378Y-55873463D01*
X175202347Y-55870974D01*
X175202156Y-55868285D01*
X175196901Y-55854554D01*
X175149282Y-55759316D01*
X175141450Y-55746873D01*
X175119342Y-55727700D01*
X175091581Y-55718446D01*
X175062391Y-55720520D01*
X175036216Y-55733607D01*
X175017043Y-55755715D01*
X175007789Y-55783476D01*
X175009863Y-55812666D01*
X175015118Y-55826398D01*
X175054819Y-55905800D01*
X175054819Y-56060866D01*
X175026298Y-56117907D01*
X174969256Y-56146428D01*
X174857970Y-56146428D01*
X174774791Y-55730529D01*
X174770508Y-55716464D01*
X174766418Y-55710358D01*
X174763607Y-55703570D01*
X174758356Y-55698319D01*
X174754224Y-55692149D01*
X174748110Y-55688073D01*
X174742915Y-55682878D01*
X174736055Y-55680036D01*
X174729876Y-55675917D01*
X174722667Y-55674490D01*
X174715879Y-55671679D01*
X174701247Y-55670238D01*
X174606009Y-55670238D01*
X174591377Y-55671679D01*
X174588888Y-55672709D01*
X174586199Y-55672901D01*
X174572468Y-55678156D01*
X174477230Y-55725775D01*
X174474782Y-55727315D01*
X174473629Y-55727700D01*
X174472192Y-55728945D01*
X174464787Y-55733607D01*
X174458625Y-55740711D01*
X174451521Y-55746873D01*
X174446859Y-55754278D01*
X174445614Y-55755715D01*
X174445229Y-55756868D01*
X174443689Y-55759316D01*
X174396070Y-55854554D01*
X174390815Y-55868286D01*
X174390624Y-55870973D01*
X174389593Y-55873463D01*
X174388152Y-55888095D01*
X173943708Y-55888095D01*
X173943708Y-55030952D01*
X174388152Y-55030952D01*
X174388152Y-55126190D01*
X174389593Y-55140822D01*
X174390624Y-55143311D01*
X174390815Y-55145999D01*
X174396070Y-55159731D01*
X174439604Y-55246800D01*
X174421484Y-55254306D01*
X174400792Y-55274998D01*
X174389593Y-55302034D01*
X174389593Y-55331298D01*
X174400792Y-55358334D01*
X174421484Y-55379026D01*
X174448520Y-55390225D01*
X174463152Y-55391666D01*
X175129819Y-55391666D01*
X175144451Y-55390225D01*
X175171487Y-55379026D01*
X175192179Y-55358334D01*
X175203378Y-55331298D01*
X175203378Y-55302034D01*
X175192179Y-55274998D01*
X175171487Y-55254306D01*
X175144451Y-55243107D01*
X175129819Y-55241666D01*
X174671333Y-55241666D01*
X174602817Y-55207408D01*
X174572410Y-55177001D01*
X174538152Y-55108485D01*
X174538152Y-55030952D01*
X174536711Y-55016320D01*
X174525512Y-54989284D01*
X174504820Y-54968592D01*
X174477784Y-54957393D01*
X174448520Y-54957393D01*
X174421484Y-54968592D01*
X174400792Y-54989284D01*
X174389593Y-55016320D01*
X174388152Y-55030952D01*
X173943708Y-55030952D01*
X173943708Y-54846282D01*
X175315930Y-54846282D01*
X175315930Y-59312301D01*
G37*
G36*
X131322380Y-78037123D02*
G01*
X131322380Y-78515847D01*
X131284437Y-78534819D01*
X131129371Y-78534819D01*
X131060855Y-78500561D01*
X131030448Y-78470153D01*
X130996190Y-78401637D01*
X130996190Y-78151333D01*
X131030448Y-78082817D01*
X131060855Y-78052410D01*
X131129371Y-78018152D01*
X131284437Y-78018152D01*
X131322380Y-78037123D01*
G37*
G36*
X132227142Y-78037123D02*
G01*
X132227142Y-78515847D01*
X132189199Y-78534819D01*
X132034133Y-78534819D01*
X131965617Y-78500561D01*
X131935210Y-78470153D01*
X131900952Y-78401637D01*
X131900952Y-78151333D01*
X131935210Y-78082817D01*
X131965617Y-78052410D01*
X132034133Y-78018152D01*
X132189199Y-78018152D01*
X132227142Y-78037123D01*
G37*
G36*
X133103383Y-78046672D02*
G01*
X133131904Y-78103714D01*
X133131904Y-78119762D01*
X132805714Y-78184999D01*
X132805714Y-78103714D01*
X132834234Y-78046672D01*
X132891276Y-78018152D01*
X133046342Y-78018152D01*
X133103383Y-78046672D01*
G37*
G36*
X134105860Y-79129263D02*
G01*
X128784139Y-79129263D01*
X128784139Y-77595187D01*
X128895250Y-77595187D01*
X128895250Y-77624451D01*
X128906449Y-77651487D01*
X128927141Y-77672179D01*
X128954177Y-77683378D01*
X128968809Y-77684819D01*
X129179523Y-77684819D01*
X129179523Y-78609819D01*
X129180964Y-78624451D01*
X129192163Y-78651487D01*
X129212855Y-78672179D01*
X129239891Y-78683378D01*
X129269155Y-78683378D01*
X129296191Y-78672179D01*
X129316883Y-78651487D01*
X129328082Y-78624451D01*
X129329523Y-78609819D01*
X129329523Y-77943152D01*
X129798571Y-77943152D01*
X129798571Y-78609819D01*
X129800012Y-78624451D01*
X129811211Y-78651487D01*
X129831903Y-78672179D01*
X129858939Y-78683378D01*
X129888203Y-78683378D01*
X129915239Y-78672179D01*
X129935931Y-78651487D01*
X129947130Y-78624451D01*
X129948571Y-78609819D01*
X129948571Y-78151333D01*
X129982829Y-78082817D01*
X130013236Y-78052410D01*
X130081752Y-78018152D01*
X130159285Y-78018152D01*
X130173917Y-78016711D01*
X130200953Y-78005512D01*
X130221645Y-77984820D01*
X130232844Y-77957784D01*
X130232844Y-77943152D01*
X130417619Y-77943152D01*
X130417619Y-78609819D01*
X130419060Y-78624451D01*
X130430259Y-78651487D01*
X130450951Y-78672179D01*
X130477987Y-78683378D01*
X130507251Y-78683378D01*
X130534287Y-78672179D01*
X130554979Y-78651487D01*
X130566178Y-78624451D01*
X130567619Y-78609819D01*
X130567619Y-78133628D01*
X130846190Y-78133628D01*
X130846190Y-78419342D01*
X130847631Y-78433974D01*
X130848662Y-78436463D01*
X130848853Y-78439151D01*
X130854108Y-78452883D01*
X130901727Y-78548121D01*
X130905690Y-78554417D01*
X130906448Y-78556247D01*
X130908137Y-78558305D01*
X130909559Y-78560564D01*
X130911057Y-78561863D01*
X130915775Y-78567612D01*
X130963394Y-78615232D01*
X130969143Y-78619950D01*
X130970444Y-78621450D01*
X130972703Y-78622872D01*
X130974760Y-78624560D01*
X130976587Y-78625317D01*
X130982887Y-78629282D01*
X131078125Y-78676901D01*
X131091856Y-78682156D01*
X131094545Y-78682347D01*
X131097034Y-78683378D01*
X131111666Y-78684819D01*
X131302142Y-78684819D01*
X131316774Y-78683378D01*
X131319263Y-78682346D01*
X131321951Y-78682156D01*
X131322380Y-78681991D01*
X131322380Y-78734971D01*
X131288122Y-78803487D01*
X131257715Y-78833894D01*
X131189199Y-78868152D01*
X131081752Y-78868152D01*
X131002350Y-78828451D01*
X130988618Y-78823196D01*
X130959428Y-78821122D01*
X130931667Y-78830376D01*
X130909559Y-78849549D01*
X130896472Y-78875724D01*
X130894398Y-78904914D01*
X130903652Y-78932675D01*
X130922825Y-78954783D01*
X130935268Y-78962615D01*
X131030506Y-79010234D01*
X131044237Y-79015489D01*
X131046926Y-79015680D01*
X131049415Y-79016711D01*
X131064047Y-79018152D01*
X131206904Y-79018152D01*
X131221536Y-79016711D01*
X131224025Y-79015679D01*
X131226713Y-79015489D01*
X131240445Y-79010234D01*
X131335683Y-78962615D01*
X131341982Y-78958650D01*
X131343810Y-78957893D01*
X131345866Y-78956204D01*
X131348126Y-78954783D01*
X131349425Y-78953284D01*
X131355175Y-78948566D01*
X131402794Y-78900947D01*
X131407512Y-78895197D01*
X131409011Y-78893898D01*
X131410432Y-78891638D01*
X131412121Y-78889582D01*
X131412878Y-78887754D01*
X131416843Y-78881455D01*
X131464462Y-78786217D01*
X131469717Y-78772486D01*
X131469908Y-78769796D01*
X131470939Y-78767308D01*
X131472380Y-78752676D01*
X131472380Y-78133628D01*
X131750952Y-78133628D01*
X131750952Y-78419342D01*
X131752393Y-78433974D01*
X131753424Y-78436463D01*
X131753615Y-78439151D01*
X131758870Y-78452883D01*
X131806489Y-78548121D01*
X131810452Y-78554417D01*
X131811210Y-78556247D01*
X131812899Y-78558305D01*
X131814321Y-78560564D01*
X131815819Y-78561863D01*
X131820537Y-78567612D01*
X131868156Y-78615232D01*
X131873905Y-78619950D01*
X131875206Y-78621450D01*
X131877465Y-78622872D01*
X131879522Y-78624560D01*
X131881349Y-78625317D01*
X131887649Y-78629282D01*
X131982887Y-78676901D01*
X131996618Y-78682156D01*
X131999307Y-78682347D01*
X132001796Y-78683378D01*
X132016428Y-78684819D01*
X132206904Y-78684819D01*
X132221536Y-78683378D01*
X132224025Y-78682346D01*
X132226713Y-78682156D01*
X132227142Y-78681991D01*
X132227142Y-78734971D01*
X132192884Y-78803487D01*
X132162477Y-78833894D01*
X132093961Y-78868152D01*
X131986514Y-78868152D01*
X131907112Y-78828451D01*
X131893380Y-78823196D01*
X131864190Y-78821122D01*
X131836429Y-78830376D01*
X131814321Y-78849549D01*
X131801234Y-78875724D01*
X131799160Y-78904914D01*
X131808414Y-78932675D01*
X131827587Y-78954783D01*
X131840030Y-78962615D01*
X131935268Y-79010234D01*
X131948999Y-79015489D01*
X131951688Y-79015680D01*
X131954177Y-79016711D01*
X131968809Y-79018152D01*
X132111666Y-79018152D01*
X132126298Y-79016711D01*
X132128787Y-79015679D01*
X132131475Y-79015489D01*
X132145207Y-79010234D01*
X132240445Y-78962615D01*
X132246744Y-78958650D01*
X132248572Y-78957893D01*
X132250628Y-78956204D01*
X132252888Y-78954783D01*
X132254187Y-78953284D01*
X132259937Y-78948566D01*
X132307556Y-78900947D01*
X132312274Y-78895197D01*
X132313773Y-78893898D01*
X132315194Y-78891638D01*
X132316883Y-78889582D01*
X132317640Y-78887754D01*
X132321605Y-78881455D01*
X132369224Y-78786217D01*
X132374479Y-78772486D01*
X132374670Y-78769796D01*
X132375701Y-78767308D01*
X132377142Y-78752676D01*
X132377142Y-78086009D01*
X132655714Y-78086009D01*
X132655714Y-78466961D01*
X132657155Y-78481593D01*
X132658186Y-78484082D01*
X132658377Y-78486770D01*
X132663632Y-78500502D01*
X132711251Y-78595741D01*
X132712791Y-78598187D01*
X132713176Y-78599342D01*
X132714422Y-78600779D01*
X132719083Y-78608183D01*
X132726185Y-78614342D01*
X132732349Y-78621450D01*
X132739754Y-78626111D01*
X132741191Y-78627357D01*
X132742344Y-78627741D01*
X132744792Y-78629282D01*
X132840030Y-78676901D01*
X132853761Y-78682156D01*
X132856450Y-78682347D01*
X132858939Y-78683378D01*
X132873571Y-78684819D01*
X133064047Y-78684819D01*
X133078679Y-78683378D01*
X133081168Y-78682346D01*
X133083856Y-78682156D01*
X133097588Y-78676901D01*
X133192826Y-78629282D01*
X133205269Y-78621450D01*
X133224442Y-78599342D01*
X133233696Y-78571581D01*
X133231622Y-78542391D01*
X133218534Y-78516216D01*
X133196427Y-78497043D01*
X133168665Y-78487789D01*
X133139475Y-78489863D01*
X133125744Y-78495118D01*
X133046342Y-78534819D01*
X132891276Y-78534819D01*
X132834234Y-78506298D01*
X132805714Y-78449256D01*
X132805714Y-78337970D01*
X133221612Y-78254791D01*
X133235678Y-78250508D01*
X133241783Y-78246419D01*
X133248572Y-78243607D01*
X133253824Y-78238354D01*
X133259992Y-78234224D01*
X133264066Y-78228113D01*
X133269264Y-78222915D01*
X133272107Y-78216051D01*
X133276224Y-78209876D01*
X133277649Y-78202670D01*
X133280463Y-78195879D01*
X133281904Y-78181247D01*
X133281904Y-78086009D01*
X133280463Y-78071377D01*
X133279432Y-78068888D01*
X133279241Y-78066199D01*
X133273986Y-78052468D01*
X133226367Y-77957230D01*
X133224826Y-77954782D01*
X133224442Y-77953629D01*
X133223196Y-77952192D01*
X133218535Y-77944787D01*
X133216650Y-77943152D01*
X133560476Y-77943152D01*
X133560476Y-78609819D01*
X133561917Y-78624451D01*
X133573116Y-78651487D01*
X133593808Y-78672179D01*
X133620844Y-78683378D01*
X133650108Y-78683378D01*
X133677144Y-78672179D01*
X133697836Y-78651487D01*
X133709035Y-78624451D01*
X133710476Y-78609819D01*
X133710476Y-78151333D01*
X133744734Y-78082817D01*
X133775141Y-78052410D01*
X133843657Y-78018152D01*
X133921190Y-78018152D01*
X133935822Y-78016711D01*
X133962858Y-78005512D01*
X133983550Y-77984820D01*
X133994749Y-77957784D01*
X133994749Y-77928520D01*
X133983550Y-77901484D01*
X133962858Y-77880792D01*
X133935822Y-77869593D01*
X133921190Y-77868152D01*
X133825952Y-77868152D01*
X133811320Y-77869593D01*
X133808831Y-77870623D01*
X133806142Y-77870815D01*
X133792411Y-77876070D01*
X133705341Y-77919604D01*
X133697836Y-77901484D01*
X133677144Y-77880792D01*
X133650108Y-77869593D01*
X133620844Y-77869593D01*
X133593808Y-77880792D01*
X133573116Y-77901484D01*
X133561917Y-77928520D01*
X133560476Y-77943152D01*
X133216650Y-77943152D01*
X133211430Y-77938625D01*
X133205269Y-77931521D01*
X133197863Y-77926859D01*
X133196427Y-77925614D01*
X133195273Y-77925229D01*
X133192826Y-77923689D01*
X133097588Y-77876070D01*
X133083856Y-77870815D01*
X133081168Y-77870624D01*
X133078679Y-77869593D01*
X133064047Y-77868152D01*
X132873571Y-77868152D01*
X132858939Y-77869593D01*
X132856450Y-77870623D01*
X132853761Y-77870815D01*
X132840030Y-77876070D01*
X132744792Y-77923689D01*
X132742344Y-77925229D01*
X132741191Y-77925614D01*
X132739754Y-77926859D01*
X132732349Y-77931521D01*
X132726187Y-77938625D01*
X132719083Y-77944787D01*
X132714421Y-77952192D01*
X132713176Y-77953629D01*
X132712791Y-77954782D01*
X132711251Y-77957230D01*
X132663632Y-78052468D01*
X132658377Y-78066200D01*
X132658186Y-78068887D01*
X132657155Y-78071377D01*
X132655714Y-78086009D01*
X132377142Y-78086009D01*
X132377142Y-77943152D01*
X132375701Y-77928520D01*
X132364502Y-77901484D01*
X132343810Y-77880792D01*
X132316774Y-77869593D01*
X132287510Y-77869593D01*
X132260474Y-77880792D01*
X132256945Y-77884320D01*
X132240445Y-77876070D01*
X132226713Y-77870815D01*
X132224025Y-77870624D01*
X132221536Y-77869593D01*
X132206904Y-77868152D01*
X132016428Y-77868152D01*
X132001796Y-77869593D01*
X131999307Y-77870623D01*
X131996618Y-77870815D01*
X131982887Y-77876070D01*
X131887649Y-77923689D01*
X131881349Y-77927653D01*
X131879522Y-77928411D01*
X131877465Y-77930099D01*
X131875206Y-77931521D01*
X131873906Y-77933019D01*
X131868157Y-77937738D01*
X131820538Y-77985357D01*
X131815819Y-77991106D01*
X131814321Y-77992406D01*
X131812899Y-77994665D01*
X131811211Y-77996722D01*
X131810453Y-77998549D01*
X131806489Y-78004849D01*
X131758870Y-78100087D01*
X131753615Y-78113819D01*
X131753424Y-78116506D01*
X131752393Y-78118996D01*
X131750952Y-78133628D01*
X131472380Y-78133628D01*
X131472380Y-77943152D01*
X131470939Y-77928520D01*
X131459740Y-77901484D01*
X131439048Y-77880792D01*
X131412012Y-77869593D01*
X131382748Y-77869593D01*
X131355712Y-77880792D01*
X131352183Y-77884320D01*
X131335683Y-77876070D01*
X131321951Y-77870815D01*
X131319263Y-77870624D01*
X131316774Y-77869593D01*
X131302142Y-77868152D01*
X131111666Y-77868152D01*
X131097034Y-77869593D01*
X131094545Y-77870623D01*
X131091856Y-77870815D01*
X131078125Y-77876070D01*
X130982887Y-77923689D01*
X130976587Y-77927653D01*
X130974760Y-77928411D01*
X130972703Y-77930099D01*
X130970444Y-77931521D01*
X130969144Y-77933019D01*
X130963395Y-77937738D01*
X130915776Y-77985357D01*
X130911057Y-77991106D01*
X130909559Y-77992406D01*
X130908137Y-77994665D01*
X130906449Y-77996722D01*
X130905691Y-77998549D01*
X130901727Y-78004849D01*
X130854108Y-78100087D01*
X130848853Y-78113819D01*
X130848662Y-78116506D01*
X130847631Y-78118996D01*
X130846190Y-78133628D01*
X130567619Y-78133628D01*
X130567619Y-77943152D01*
X130566178Y-77928520D01*
X130554979Y-77901484D01*
X130534287Y-77880792D01*
X130507251Y-77869593D01*
X130477987Y-77869593D01*
X130450951Y-77880792D01*
X130430259Y-77901484D01*
X130419060Y-77928520D01*
X130417619Y-77943152D01*
X130232844Y-77943152D01*
X130232844Y-77928520D01*
X130221645Y-77901484D01*
X130200953Y-77880792D01*
X130173917Y-77869593D01*
X130159285Y-77868152D01*
X130064047Y-77868152D01*
X130049415Y-77869593D01*
X130046926Y-77870623D01*
X130044237Y-77870815D01*
X130030506Y-77876070D01*
X129943436Y-77919604D01*
X129935931Y-77901484D01*
X129915239Y-77880792D01*
X129888203Y-77869593D01*
X129858939Y-77869593D01*
X129831903Y-77880792D01*
X129811211Y-77901484D01*
X129800012Y-77928520D01*
X129798571Y-77943152D01*
X129329523Y-77943152D01*
X129329523Y-77684819D01*
X129540237Y-77684819D01*
X129554869Y-77683378D01*
X129581905Y-77672179D01*
X129602597Y-77651487D01*
X129606192Y-77642807D01*
X130371441Y-77642807D01*
X130371441Y-77672069D01*
X130382640Y-77699106D01*
X130391967Y-77710471D01*
X130439586Y-77758090D01*
X130450951Y-77767417D01*
X130477987Y-77778616D01*
X130477988Y-77778616D01*
X130507250Y-77778616D01*
X130507251Y-77778616D01*
X130534287Y-77767417D01*
X130545652Y-77758090D01*
X130593271Y-77710471D01*
X130602598Y-77699106D01*
X130613797Y-77672070D01*
X130613797Y-77642807D01*
X130606194Y-77624451D01*
X130602598Y-77615770D01*
X130593271Y-77604405D01*
X130545652Y-77556786D01*
X130534287Y-77547459D01*
X130507251Y-77536260D01*
X130507250Y-77536260D01*
X130477987Y-77536260D01*
X130450951Y-77547459D01*
X130439586Y-77556786D01*
X130391967Y-77604405D01*
X130382640Y-77615770D01*
X130371441Y-77642807D01*
X129606192Y-77642807D01*
X129613796Y-77624451D01*
X129613796Y-77595187D01*
X129602597Y-77568151D01*
X129581905Y-77547459D01*
X129554869Y-77536260D01*
X129540237Y-77534819D01*
X128968809Y-77534819D01*
X128954177Y-77536260D01*
X128927141Y-77547459D01*
X128906449Y-77568151D01*
X128895250Y-77595187D01*
X128784139Y-77595187D01*
X128784139Y-77423708D01*
X134105860Y-77423708D01*
X134105860Y-79129263D01*
G37*
X167081792Y-51939819D02*
X167081792Y-51273152D01*
X167081792Y-51368390D02*
X167129411Y-51320771D01*
X167129411Y-51320771D02*
X167224649Y-51273152D01*
X167224649Y-51273152D02*
X167367506Y-51273152D01*
X167367506Y-51273152D02*
X167462744Y-51320771D01*
X167462744Y-51320771D02*
X167510363Y-51416009D01*
X167510363Y-51416009D02*
X167510363Y-51939819D01*
X167510363Y-51416009D02*
X167557982Y-51320771D01*
X167557982Y-51320771D02*
X167653220Y-51273152D01*
X167653220Y-51273152D02*
X167796077Y-51273152D01*
X167796077Y-51273152D02*
X167891316Y-51320771D01*
X167891316Y-51320771D02*
X167938935Y-51416009D01*
X167938935Y-51416009D02*
X167938935Y-51939819D01*
X168843696Y-51939819D02*
X168843696Y-51416009D01*
X168843696Y-51416009D02*
X168796077Y-51320771D01*
X168796077Y-51320771D02*
X168700839Y-51273152D01*
X168700839Y-51273152D02*
X168510363Y-51273152D01*
X168510363Y-51273152D02*
X168415125Y-51320771D01*
X168843696Y-51892200D02*
X168748458Y-51939819D01*
X168748458Y-51939819D02*
X168510363Y-51939819D01*
X168510363Y-51939819D02*
X168415125Y-51892200D01*
X168415125Y-51892200D02*
X168367506Y-51796961D01*
X168367506Y-51796961D02*
X168367506Y-51701723D01*
X168367506Y-51701723D02*
X168415125Y-51606485D01*
X168415125Y-51606485D02*
X168510363Y-51558866D01*
X168510363Y-51558866D02*
X168748458Y-51558866D01*
X168748458Y-51558866D02*
X168843696Y-51511247D01*
X169224649Y-51939819D02*
X169748458Y-51273152D01*
X169224649Y-51273152D02*
X169748458Y-51939819D01*
X170129411Y-51844580D02*
X170177030Y-51892200D01*
X170177030Y-51892200D02*
X170129411Y-51939819D01*
X170129411Y-51939819D02*
X170081792Y-51892200D01*
X170081792Y-51892200D02*
X170129411Y-51844580D01*
X170129411Y-51844580D02*
X170129411Y-51939819D01*
X171272268Y-50939819D02*
X171891315Y-50939819D01*
X171891315Y-50939819D02*
X171557982Y-51320771D01*
X171557982Y-51320771D02*
X171700839Y-51320771D01*
X171700839Y-51320771D02*
X171796077Y-51368390D01*
X171796077Y-51368390D02*
X171843696Y-51416009D01*
X171843696Y-51416009D02*
X171891315Y-51511247D01*
X171891315Y-51511247D02*
X171891315Y-51749342D01*
X171891315Y-51749342D02*
X171843696Y-51844580D01*
X171843696Y-51844580D02*
X171796077Y-51892200D01*
X171796077Y-51892200D02*
X171700839Y-51939819D01*
X171700839Y-51939819D02*
X171415125Y-51939819D01*
X171415125Y-51939819D02*
X171319887Y-51892200D01*
X171319887Y-51892200D02*
X171272268Y-51844580D01*
X172510363Y-50939819D02*
X172605601Y-50939819D01*
X172605601Y-50939819D02*
X172700839Y-50987438D01*
X172700839Y-50987438D02*
X172748458Y-51035057D01*
X172748458Y-51035057D02*
X172796077Y-51130295D01*
X172796077Y-51130295D02*
X172843696Y-51320771D01*
X172843696Y-51320771D02*
X172843696Y-51558866D01*
X172843696Y-51558866D02*
X172796077Y-51749342D01*
X172796077Y-51749342D02*
X172748458Y-51844580D01*
X172748458Y-51844580D02*
X172700839Y-51892200D01*
X172700839Y-51892200D02*
X172605601Y-51939819D01*
X172605601Y-51939819D02*
X172510363Y-51939819D01*
X172510363Y-51939819D02*
X172415125Y-51892200D01*
X172415125Y-51892200D02*
X172367506Y-51844580D01*
X172367506Y-51844580D02*
X172319887Y-51749342D01*
X172319887Y-51749342D02*
X172272268Y-51558866D01*
X172272268Y-51558866D02*
X172272268Y-51320771D01*
X172272268Y-51320771D02*
X172319887Y-51130295D01*
X172319887Y-51130295D02*
X172367506Y-51035057D01*
X172367506Y-51035057D02*
X172415125Y-50987438D01*
X172415125Y-50987438D02*
X172510363Y-50939819D01*
X173129411Y-50939819D02*
X173462744Y-51939819D01*
X173462744Y-51939819D02*
X173796077Y-50939819D01*
X110350180Y-68810761D02*
X110350180Y-68334571D01*
X110350180Y-68334571D02*
X109873990Y-68286952D01*
X109873990Y-68286952D02*
X109921609Y-68334571D01*
X109921609Y-68334571D02*
X109969228Y-68429809D01*
X109969228Y-68429809D02*
X109969228Y-68667904D01*
X109969228Y-68667904D02*
X109921609Y-68763142D01*
X109921609Y-68763142D02*
X109873990Y-68810761D01*
X109873990Y-68810761D02*
X109778752Y-68858380D01*
X109778752Y-68858380D02*
X109540657Y-68858380D01*
X109540657Y-68858380D02*
X109445419Y-68810761D01*
X109445419Y-68810761D02*
X109397800Y-68763142D01*
X109397800Y-68763142D02*
X109350180Y-68667904D01*
X109350180Y-68667904D02*
X109350180Y-68429809D01*
X109350180Y-68429809D02*
X109397800Y-68334571D01*
X109397800Y-68334571D02*
X109445419Y-68286952D01*
X109731133Y-69286952D02*
X109731133Y-70048857D01*
X110254942Y-70477428D02*
X110302561Y-70525047D01*
X110302561Y-70525047D02*
X110350180Y-70620285D01*
X110350180Y-70620285D02*
X110350180Y-70858380D01*
X110350180Y-70858380D02*
X110302561Y-70953618D01*
X110302561Y-70953618D02*
X110254942Y-71001237D01*
X110254942Y-71001237D02*
X110159704Y-71048856D01*
X110159704Y-71048856D02*
X110064466Y-71048856D01*
X110064466Y-71048856D02*
X109921609Y-71001237D01*
X109921609Y-71001237D02*
X109350180Y-70429809D01*
X109350180Y-70429809D02*
X109350180Y-71048856D01*
X110016847Y-71905999D02*
X109350180Y-71905999D01*
X110397800Y-71667904D02*
X109683514Y-71429809D01*
X109683514Y-71429809D02*
X109683514Y-72048856D01*
X110350180Y-72286952D02*
X109350180Y-72620285D01*
X109350180Y-72620285D02*
X110350180Y-72953618D01*
X109635895Y-74001238D02*
X109635895Y-74477428D01*
X109350180Y-73906000D02*
X110350180Y-74239333D01*
X110350180Y-74239333D02*
X109350180Y-74572666D01*
X109445419Y-75477428D02*
X109397800Y-75429809D01*
X109397800Y-75429809D02*
X109350180Y-75286952D01*
X109350180Y-75286952D02*
X109350180Y-75191714D01*
X109350180Y-75191714D02*
X109397800Y-75048857D01*
X109397800Y-75048857D02*
X109493038Y-74953619D01*
X109493038Y-74953619D02*
X109588276Y-74906000D01*
X109588276Y-74906000D02*
X109778752Y-74858381D01*
X109778752Y-74858381D02*
X109921609Y-74858381D01*
X109921609Y-74858381D02*
X110112085Y-74906000D01*
X110112085Y-74906000D02*
X110207323Y-74953619D01*
X110207323Y-74953619D02*
X110302561Y-75048857D01*
X110302561Y-75048857D02*
X110350180Y-75191714D01*
X110350180Y-75191714D02*
X110350180Y-75286952D01*
X110350180Y-75286952D02*
X110302561Y-75429809D01*
X110302561Y-75429809D02*
X110254942Y-75477428D01*
X110397800Y-76620285D02*
X109112085Y-75763143D01*
X109350180Y-76953619D02*
X110350180Y-76953619D01*
X110350180Y-76953619D02*
X110350180Y-77191714D01*
X110350180Y-77191714D02*
X110302561Y-77334571D01*
X110302561Y-77334571D02*
X110207323Y-77429809D01*
X110207323Y-77429809D02*
X110112085Y-77477428D01*
X110112085Y-77477428D02*
X109921609Y-77525047D01*
X109921609Y-77525047D02*
X109778752Y-77525047D01*
X109778752Y-77525047D02*
X109588276Y-77477428D01*
X109588276Y-77477428D02*
X109493038Y-77429809D01*
X109493038Y-77429809D02*
X109397800Y-77334571D01*
X109397800Y-77334571D02*
X109350180Y-77191714D01*
X109350180Y-77191714D02*
X109350180Y-76953619D01*
X109445419Y-78525047D02*
X109397800Y-78477428D01*
X109397800Y-78477428D02*
X109350180Y-78334571D01*
X109350180Y-78334571D02*
X109350180Y-78239333D01*
X109350180Y-78239333D02*
X109397800Y-78096476D01*
X109397800Y-78096476D02*
X109493038Y-78001238D01*
X109493038Y-78001238D02*
X109588276Y-77953619D01*
X109588276Y-77953619D02*
X109778752Y-77906000D01*
X109778752Y-77906000D02*
X109921609Y-77906000D01*
X109921609Y-77906000D02*
X110112085Y-77953619D01*
X110112085Y-77953619D02*
X110207323Y-78001238D01*
X110207323Y-78001238D02*
X110302561Y-78096476D01*
X110302561Y-78096476D02*
X110350180Y-78239333D01*
X110350180Y-78239333D02*
X110350180Y-78334571D01*
X110350180Y-78334571D02*
X110302561Y-78477428D01*
X110302561Y-78477428D02*
X110254942Y-78525047D01*
G36*
X167496673Y-68052007D02*
G01*
X167568617Y-68123950D01*
X167602875Y-68192466D01*
X167602875Y-68347532D01*
X167568617Y-68416047D01*
X167496673Y-68487990D01*
X167335307Y-68528332D01*
X167020442Y-68528332D01*
X166859075Y-68487990D01*
X166787133Y-68416048D01*
X166752875Y-68347532D01*
X166752875Y-68192466D01*
X166787133Y-68123950D01*
X166859075Y-68052007D01*
X167020442Y-68011666D01*
X167335307Y-68011666D01*
X167496673Y-68052007D01*
G37*
G36*
X168862999Y-66718809D02*
G01*
X168781714Y-66718809D01*
X168724672Y-66690288D01*
X168696152Y-66633247D01*
X168696152Y-66478181D01*
X168724672Y-66421139D01*
X168781714Y-66392619D01*
X168797761Y-66392619D01*
X168862999Y-66718809D01*
G37*
G36*
X167538209Y-65664971D02*
G01*
X167568617Y-65695378D01*
X167602875Y-65763894D01*
X167602875Y-65918960D01*
X167583904Y-65956903D01*
X167105179Y-65956903D01*
X167086208Y-65918960D01*
X167086208Y-65763894D01*
X167120466Y-65695378D01*
X167150873Y-65664971D01*
X167219389Y-65630713D01*
X167469693Y-65630713D01*
X167538209Y-65664971D01*
G37*
G36*
X169148153Y-62855448D02*
G01*
X169178561Y-62885855D01*
X169212819Y-62954371D01*
X169212819Y-63061818D01*
X169178561Y-63130333D01*
X169148153Y-63160740D01*
X169079637Y-63194999D01*
X168829333Y-63194999D01*
X168760817Y-63160741D01*
X168730410Y-63130334D01*
X168696152Y-63061818D01*
X168696152Y-62954371D01*
X168730410Y-62885855D01*
X168760817Y-62855448D01*
X168829333Y-62821190D01*
X169079637Y-62821190D01*
X169148153Y-62855448D01*
G37*
G36*
X169473930Y-68789443D02*
G01*
X166491764Y-68789443D01*
X166491764Y-68174761D01*
X166602875Y-68174761D01*
X166602875Y-68365237D01*
X166604316Y-68379869D01*
X166605347Y-68382358D01*
X166605538Y-68385046D01*
X166610793Y-68398778D01*
X166658412Y-68494016D01*
X166662376Y-68500315D01*
X166663134Y-68502143D01*
X166664822Y-68504199D01*
X166666244Y-68506459D01*
X166667742Y-68507758D01*
X166672461Y-68513508D01*
X166767699Y-68608746D01*
X166779064Y-68618074D01*
X166784217Y-68620208D01*
X166788696Y-68623527D01*
X166802542Y-68628474D01*
X166993018Y-68676093D01*
X166995554Y-68676468D01*
X166996576Y-68676891D01*
X167002088Y-68677433D01*
X167007562Y-68678243D01*
X167008654Y-68678080D01*
X167011208Y-68678332D01*
X167344541Y-68678332D01*
X167347094Y-68678080D01*
X167348187Y-68678243D01*
X167353660Y-68677433D01*
X167359173Y-68676891D01*
X167360194Y-68676468D01*
X167362731Y-68676093D01*
X167553207Y-68628474D01*
X167567053Y-68623527D01*
X167571532Y-68620207D01*
X167576684Y-68618074D01*
X167588050Y-68608746D01*
X167683289Y-68513508D01*
X167688009Y-68507757D01*
X167689506Y-68506459D01*
X167690925Y-68504204D01*
X167692617Y-68502143D01*
X167693375Y-68500310D01*
X167697338Y-68494016D01*
X167744957Y-68398778D01*
X167750212Y-68385047D01*
X167750403Y-68382357D01*
X167751434Y-68379869D01*
X167752875Y-68365237D01*
X167752875Y-68174761D01*
X167751434Y-68160129D01*
X167750403Y-68157640D01*
X167750212Y-68154951D01*
X167744957Y-68141220D01*
X167697338Y-68045982D01*
X167693375Y-68039687D01*
X167692617Y-68037855D01*
X167690925Y-68035793D01*
X167689506Y-68033539D01*
X167688009Y-68032240D01*
X167683289Y-68026490D01*
X167588050Y-67931252D01*
X167576684Y-67921924D01*
X167571532Y-67919790D01*
X167567053Y-67916471D01*
X167553207Y-67911524D01*
X167362731Y-67863905D01*
X167360194Y-67863529D01*
X167359173Y-67863107D01*
X167353660Y-67862564D01*
X167348187Y-67861755D01*
X167347094Y-67861917D01*
X167344541Y-67861666D01*
X167011208Y-67861666D01*
X167008654Y-67861917D01*
X167007562Y-67861755D01*
X167002088Y-67862564D01*
X166996576Y-67863107D01*
X166995554Y-67863529D01*
X166993018Y-67863905D01*
X166802542Y-67911524D01*
X166788696Y-67916471D01*
X166784217Y-67919789D01*
X166779064Y-67921924D01*
X166767699Y-67931252D01*
X166672461Y-68026490D01*
X166667742Y-68032239D01*
X166666244Y-68033539D01*
X166664822Y-68035798D01*
X166663134Y-68037855D01*
X166662376Y-68039682D01*
X166658412Y-68045982D01*
X166610793Y-68141220D01*
X166605538Y-68154952D01*
X166605347Y-68157639D01*
X166604316Y-68160129D01*
X166602875Y-68174761D01*
X166491764Y-68174761D01*
X166491764Y-67064891D01*
X166937649Y-67064891D01*
X166937649Y-67094155D01*
X166948848Y-67121191D01*
X166969540Y-67141883D01*
X166996576Y-67153082D01*
X167011208Y-67154523D01*
X167551570Y-67154523D01*
X167568617Y-67171569D01*
X167602875Y-67240085D01*
X167602875Y-67347532D01*
X167574354Y-67404573D01*
X167517312Y-67433094D01*
X167011208Y-67433094D01*
X166996576Y-67434535D01*
X166969540Y-67445734D01*
X166948848Y-67466426D01*
X166937649Y-67493462D01*
X166937649Y-67522726D01*
X166948848Y-67549762D01*
X166969540Y-67570454D01*
X166996576Y-67581653D01*
X167011208Y-67583094D01*
X167535017Y-67583094D01*
X167549649Y-67581653D01*
X167552138Y-67580621D01*
X167554826Y-67580431D01*
X167568558Y-67575176D01*
X167663797Y-67527557D01*
X167666243Y-67526016D01*
X167667398Y-67525632D01*
X167668835Y-67524385D01*
X167676239Y-67519725D01*
X167682398Y-67512622D01*
X167689506Y-67506459D01*
X167694167Y-67499053D01*
X167695413Y-67497617D01*
X167695797Y-67496463D01*
X167697338Y-67494016D01*
X167744957Y-67398778D01*
X167750212Y-67385047D01*
X167750403Y-67382357D01*
X167751434Y-67379869D01*
X167752875Y-67365237D01*
X167752875Y-67222380D01*
X167751434Y-67207748D01*
X167750403Y-67205259D01*
X167750212Y-67202570D01*
X167744957Y-67188839D01*
X167720833Y-67140592D01*
X167740235Y-67121191D01*
X167751434Y-67094155D01*
X167751434Y-67079524D01*
X168546152Y-67079524D01*
X168546152Y-67174762D01*
X168547593Y-67189394D01*
X168548624Y-67191883D01*
X168548815Y-67194571D01*
X168554070Y-67208303D01*
X168597604Y-67295372D01*
X168579484Y-67302878D01*
X168558792Y-67323570D01*
X168547593Y-67350606D01*
X168547593Y-67379870D01*
X168558792Y-67406906D01*
X168579484Y-67427598D01*
X168606520Y-67438797D01*
X168621152Y-67440238D01*
X169287819Y-67440238D01*
X169302451Y-67438797D01*
X169329487Y-67427598D01*
X169350179Y-67406906D01*
X169361378Y-67379870D01*
X169361378Y-67350606D01*
X169350179Y-67323570D01*
X169329487Y-67302878D01*
X169302451Y-67291679D01*
X169287819Y-67290238D01*
X168829333Y-67290238D01*
X168760817Y-67255980D01*
X168730410Y-67225573D01*
X168696152Y-67157057D01*
X168696152Y-67079524D01*
X168694711Y-67064892D01*
X168683512Y-67037856D01*
X168662820Y-67017164D01*
X168635784Y-67005965D01*
X168606520Y-67005965D01*
X168579484Y-67017164D01*
X168558792Y-67037856D01*
X168547593Y-67064892D01*
X168546152Y-67079524D01*
X167751434Y-67079524D01*
X167751434Y-67064891D01*
X167740235Y-67037855D01*
X167719543Y-67017163D01*
X167692507Y-67005964D01*
X167677875Y-67004523D01*
X167011208Y-67004523D01*
X166996576Y-67005964D01*
X166969540Y-67017163D01*
X166948848Y-67037855D01*
X166937649Y-67064891D01*
X166491764Y-67064891D01*
X166491764Y-66588700D01*
X166604316Y-66588700D01*
X166604316Y-66617964D01*
X166615515Y-66645000D01*
X166636207Y-66665692D01*
X166663243Y-66676891D01*
X166677875Y-66678332D01*
X166936208Y-66678332D01*
X166936208Y-66746189D01*
X166937649Y-66760821D01*
X166948848Y-66787857D01*
X166969540Y-66808549D01*
X166996576Y-66819748D01*
X167025840Y-66819748D01*
X167052876Y-66808549D01*
X167073568Y-66787857D01*
X167084767Y-66760821D01*
X167086208Y-66746189D01*
X167086208Y-66678332D01*
X167535017Y-66678332D01*
X167549649Y-66676891D01*
X167552138Y-66675859D01*
X167554826Y-66675669D01*
X167568558Y-66670414D01*
X167663797Y-66622795D01*
X167666243Y-66621254D01*
X167667398Y-66620870D01*
X167668835Y-66619623D01*
X167676239Y-66614963D01*
X167682398Y-66607860D01*
X167689506Y-66601697D01*
X167694167Y-66594291D01*
X167695413Y-66592855D01*
X167695797Y-66591701D01*
X167697338Y-66589254D01*
X167744957Y-66494016D01*
X167750212Y-66480285D01*
X167750403Y-66477595D01*
X167751434Y-66475107D01*
X167752875Y-66460476D01*
X168546152Y-66460476D01*
X168546152Y-66650952D01*
X168547593Y-66665584D01*
X168548624Y-66668073D01*
X168548815Y-66670761D01*
X168554070Y-66684493D01*
X168601689Y-66779731D01*
X168603229Y-66782178D01*
X168603614Y-66783332D01*
X168604859Y-66784768D01*
X168609521Y-66792174D01*
X168616625Y-66798335D01*
X168622787Y-66805440D01*
X168630192Y-66810101D01*
X168631629Y-66811347D01*
X168632782Y-66811731D01*
X168635230Y-66813272D01*
X168730468Y-66860891D01*
X168744199Y-66866146D01*
X168746888Y-66866337D01*
X168749377Y-66867368D01*
X168764009Y-66868809D01*
X168954563Y-66868809D01*
X169144961Y-66868809D01*
X169159593Y-66867368D01*
X169162082Y-66866336D01*
X169164770Y-66866146D01*
X169178502Y-66860891D01*
X169273741Y-66813272D01*
X169276187Y-66811731D01*
X169277342Y-66811347D01*
X169278779Y-66810100D01*
X169286183Y-66805440D01*
X169292342Y-66798337D01*
X169299450Y-66792174D01*
X169304111Y-66784768D01*
X169305357Y-66783332D01*
X169305741Y-66782178D01*
X169307282Y-66779731D01*
X169354901Y-66684493D01*
X169360156Y-66670762D01*
X169360347Y-66668072D01*
X169361378Y-66665584D01*
X169362819Y-66650952D01*
X169362819Y-66460476D01*
X169361378Y-66445844D01*
X169360347Y-66443355D01*
X169360156Y-66440666D01*
X169354901Y-66426935D01*
X169307282Y-66331697D01*
X169299450Y-66319254D01*
X169277342Y-66300081D01*
X169249581Y-66290827D01*
X169220391Y-66292901D01*
X169194216Y-66305988D01*
X169175043Y-66328096D01*
X169165789Y-66355857D01*
X169167863Y-66385047D01*
X169173118Y-66398779D01*
X169212819Y-66478181D01*
X169212819Y-66633247D01*
X169184298Y-66690288D01*
X169127256Y-66718809D01*
X169015970Y-66718809D01*
X168932791Y-66302910D01*
X168928508Y-66288845D01*
X168924418Y-66282739D01*
X168921607Y-66275951D01*
X168916356Y-66270700D01*
X168912224Y-66264530D01*
X168906110Y-66260454D01*
X168900915Y-66255259D01*
X168894055Y-66252417D01*
X168887876Y-66248298D01*
X168880667Y-66246871D01*
X168873879Y-66244060D01*
X168859247Y-66242619D01*
X168764009Y-66242619D01*
X168749377Y-66244060D01*
X168746888Y-66245090D01*
X168744199Y-66245282D01*
X168730468Y-66250537D01*
X168635230Y-66298156D01*
X168632782Y-66299696D01*
X168631629Y-66300081D01*
X168630192Y-66301326D01*
X168622787Y-66305988D01*
X168616625Y-66313092D01*
X168609521Y-66319254D01*
X168604859Y-66326659D01*
X168603614Y-66328096D01*
X168603229Y-66329249D01*
X168601689Y-66331697D01*
X168554070Y-66426935D01*
X168548815Y-66440667D01*
X168548624Y-66443354D01*
X168547593Y-66445844D01*
X168546152Y-66460476D01*
X167752875Y-66460476D01*
X167752875Y-66460475D01*
X167752875Y-66365237D01*
X167751434Y-66350605D01*
X167740235Y-66323569D01*
X167719543Y-66302877D01*
X167692507Y-66291678D01*
X167663243Y-66291678D01*
X167636207Y-66302877D01*
X167615515Y-66323569D01*
X167604316Y-66350605D01*
X167602875Y-66365237D01*
X167602875Y-66442770D01*
X167574354Y-66499811D01*
X167517312Y-66528332D01*
X167086208Y-66528332D01*
X167086208Y-66365237D01*
X167084767Y-66350605D01*
X167073568Y-66323569D01*
X167052876Y-66302877D01*
X167025840Y-66291678D01*
X166996576Y-66291678D01*
X166969540Y-66302877D01*
X166948848Y-66323569D01*
X166937649Y-66350605D01*
X166936208Y-66365237D01*
X166936208Y-66528332D01*
X166677875Y-66528332D01*
X166663243Y-66529773D01*
X166636207Y-66540972D01*
X166615515Y-66561664D01*
X166604316Y-66588700D01*
X166491764Y-66588700D01*
X166491764Y-65746189D01*
X166936208Y-65746189D01*
X166936208Y-65936665D01*
X166937649Y-65951297D01*
X166938680Y-65953786D01*
X166938871Y-65956474D01*
X166944126Y-65970206D01*
X166952376Y-65986706D01*
X166948848Y-65990235D01*
X166937649Y-66017271D01*
X166937649Y-66046535D01*
X166948848Y-66073571D01*
X166969540Y-66094263D01*
X166996576Y-66105462D01*
X167011208Y-66106903D01*
X168011208Y-66106903D01*
X168025840Y-66105462D01*
X168052876Y-66094263D01*
X168073568Y-66073571D01*
X168084767Y-66046535D01*
X168084767Y-66017271D01*
X168073568Y-65990235D01*
X168052876Y-65969543D01*
X168025840Y-65958344D01*
X168011208Y-65956903D01*
X167750048Y-65956903D01*
X167750212Y-65956475D01*
X167750403Y-65953785D01*
X167751434Y-65951297D01*
X167752875Y-65936665D01*
X167752875Y-65746189D01*
X167751434Y-65731557D01*
X167750403Y-65729068D01*
X167750212Y-65726379D01*
X167744957Y-65712648D01*
X167714109Y-65650952D01*
X168546152Y-65650952D01*
X168546152Y-65793809D01*
X168547593Y-65808441D01*
X168548624Y-65810930D01*
X168548815Y-65813618D01*
X168554070Y-65827350D01*
X168601689Y-65922588D01*
X168603229Y-65925035D01*
X168603614Y-65926189D01*
X168604859Y-65927625D01*
X168609521Y-65935031D01*
X168616625Y-65941192D01*
X168622787Y-65948297D01*
X168630192Y-65952958D01*
X168631629Y-65954204D01*
X168632782Y-65954588D01*
X168635230Y-65956129D01*
X168730468Y-66003748D01*
X168744199Y-66009003D01*
X168746888Y-66009194D01*
X168749377Y-66010225D01*
X168764009Y-66011666D01*
X168811628Y-66011666D01*
X168826260Y-66010225D01*
X168828749Y-66009193D01*
X168831437Y-66009003D01*
X168845169Y-66003748D01*
X168940407Y-65956129D01*
X168942854Y-65954588D01*
X168944008Y-65954204D01*
X168945444Y-65952958D01*
X168952850Y-65948297D01*
X168959011Y-65941192D01*
X168966116Y-65935031D01*
X168970777Y-65927625D01*
X168972023Y-65926189D01*
X168972407Y-65925035D01*
X168973948Y-65922588D01*
X169021567Y-65827350D01*
X169026822Y-65813619D01*
X169027013Y-65810929D01*
X169028044Y-65808441D01*
X169029485Y-65793809D01*
X169029485Y-65668657D01*
X169058005Y-65611615D01*
X169115047Y-65583095D01*
X169127256Y-65583095D01*
X169184298Y-65611615D01*
X169212819Y-65668657D01*
X169212819Y-65823723D01*
X169173118Y-65903125D01*
X169167863Y-65916857D01*
X169165789Y-65946047D01*
X169175043Y-65973808D01*
X169194216Y-65995916D01*
X169220391Y-66009003D01*
X169249581Y-66011077D01*
X169277342Y-66001823D01*
X169299450Y-65982650D01*
X169307282Y-65970207D01*
X169354901Y-65874969D01*
X169360156Y-65861238D01*
X169360347Y-65858548D01*
X169361378Y-65856060D01*
X169362819Y-65841428D01*
X169362819Y-65650952D01*
X169361378Y-65636320D01*
X169360347Y-65633831D01*
X169360156Y-65631142D01*
X169354901Y-65617411D01*
X169307282Y-65522173D01*
X169305741Y-65519725D01*
X169305357Y-65518572D01*
X169304111Y-65517135D01*
X169299450Y-65509730D01*
X169292342Y-65503566D01*
X169286183Y-65496464D01*
X169278779Y-65491803D01*
X169277342Y-65490557D01*
X169276187Y-65490172D01*
X169273741Y-65488632D01*
X169178502Y-65441013D01*
X169164770Y-65435758D01*
X169162082Y-65435567D01*
X169159593Y-65434536D01*
X169144961Y-65433095D01*
X169097342Y-65433095D01*
X169082710Y-65434536D01*
X169080221Y-65435566D01*
X169077532Y-65435758D01*
X169063801Y-65441013D01*
X168968563Y-65488632D01*
X168966115Y-65490172D01*
X168964962Y-65490557D01*
X168963525Y-65491802D01*
X168956120Y-65496464D01*
X168949958Y-65503568D01*
X168942854Y-65509730D01*
X168938192Y-65517135D01*
X168936947Y-65518572D01*
X168936562Y-65519725D01*
X168935022Y-65522173D01*
X168887403Y-65617411D01*
X168882148Y-65631143D01*
X168881957Y-65633830D01*
X168880926Y-65636320D01*
X168879485Y-65650952D01*
X168879485Y-65776104D01*
X168850964Y-65833145D01*
X168793923Y-65861666D01*
X168781714Y-65861666D01*
X168724672Y-65833145D01*
X168696152Y-65776104D01*
X168696152Y-65668657D01*
X168735853Y-65589255D01*
X168741108Y-65575524D01*
X168743182Y-65546334D01*
X168733928Y-65518572D01*
X168714755Y-65496465D01*
X168688580Y-65483377D01*
X168659390Y-65481303D01*
X168631629Y-65490557D01*
X168609521Y-65509730D01*
X168601689Y-65522173D01*
X168554070Y-65617411D01*
X168548815Y-65631143D01*
X168548624Y-65633830D01*
X168547593Y-65636320D01*
X168546152Y-65650952D01*
X167714109Y-65650952D01*
X167697338Y-65617410D01*
X167693373Y-65611110D01*
X167692616Y-65609283D01*
X167690928Y-65607226D01*
X167689506Y-65604967D01*
X167688006Y-65603666D01*
X167683288Y-65597917D01*
X167635668Y-65550298D01*
X167629919Y-65545580D01*
X167628620Y-65544082D01*
X167626361Y-65542660D01*
X167624303Y-65540971D01*
X167622473Y-65540213D01*
X167616177Y-65536250D01*
X167520939Y-65488631D01*
X167507207Y-65483376D01*
X167504519Y-65483185D01*
X167502030Y-65482154D01*
X167487398Y-65480713D01*
X167201684Y-65480713D01*
X167187052Y-65482154D01*
X167184563Y-65483184D01*
X167181874Y-65483376D01*
X167168143Y-65488631D01*
X167072905Y-65536250D01*
X167066605Y-65540214D01*
X167064778Y-65540972D01*
X167062721Y-65542660D01*
X167060462Y-65544082D01*
X167059162Y-65545580D01*
X167053413Y-65550299D01*
X167005794Y-65597918D01*
X167001075Y-65603667D01*
X166999577Y-65604967D01*
X166998155Y-65607226D01*
X166996467Y-65609283D01*
X166995709Y-65611110D01*
X166991745Y-65617410D01*
X166944126Y-65712648D01*
X166938871Y-65726380D01*
X166938680Y-65729067D01*
X166937649Y-65731557D01*
X166936208Y-65746189D01*
X166491764Y-65746189D01*
X166491764Y-65112509D01*
X167509077Y-65112509D01*
X167509077Y-65141772D01*
X167520275Y-65168808D01*
X167520276Y-65168809D01*
X167529604Y-65180175D01*
X167577223Y-65227793D01*
X167588589Y-65237121D01*
X167615625Y-65248319D01*
X167644888Y-65248319D01*
X167671924Y-65237120D01*
X167683289Y-65227793D01*
X167730908Y-65180174D01*
X167740235Y-65168809D01*
X167751434Y-65141773D01*
X167751434Y-65112510D01*
X167743831Y-65094154D01*
X167740235Y-65085473D01*
X167730908Y-65074108D01*
X167721692Y-65064892D01*
X168214260Y-65064892D01*
X168214260Y-65094154D01*
X168225459Y-65121191D01*
X168234786Y-65132556D01*
X168282405Y-65180175D01*
X168293770Y-65189502D01*
X168320806Y-65200701D01*
X168320807Y-65200701D01*
X168350069Y-65200701D01*
X168377106Y-65189502D01*
X168388471Y-65180175D01*
X168436090Y-65132556D01*
X168445417Y-65121191D01*
X168456616Y-65094155D01*
X168456616Y-65064892D01*
X168456616Y-65064891D01*
X168547593Y-65064891D01*
X168547593Y-65094155D01*
X168558792Y-65121191D01*
X168579484Y-65141883D01*
X168606520Y-65153082D01*
X168621152Y-65154523D01*
X169287819Y-65154523D01*
X169302451Y-65153082D01*
X169329487Y-65141883D01*
X169350179Y-65121191D01*
X169361378Y-65094155D01*
X169361378Y-65064891D01*
X169350179Y-65037855D01*
X169329487Y-65017163D01*
X169302451Y-65005964D01*
X169287819Y-65004523D01*
X168621152Y-65004523D01*
X168606520Y-65005964D01*
X168579484Y-65017163D01*
X168558792Y-65037855D01*
X168547593Y-65064891D01*
X168456616Y-65064891D01*
X168451932Y-65053582D01*
X168445417Y-65037855D01*
X168445416Y-65037854D01*
X168436090Y-65026490D01*
X168388471Y-64978871D01*
X168377106Y-64969544D01*
X168350069Y-64958345D01*
X168320806Y-64958345D01*
X168293770Y-64969544D01*
X168282405Y-64978871D01*
X168234786Y-65026490D01*
X168225460Y-65037854D01*
X168225459Y-65037855D01*
X168218945Y-65053582D01*
X168214260Y-65064892D01*
X167721692Y-65064892D01*
X167683289Y-65026489D01*
X167671924Y-65017162D01*
X167671922Y-65017161D01*
X167644888Y-65005963D01*
X167615625Y-65005963D01*
X167588589Y-65017161D01*
X167577223Y-65026489D01*
X167529604Y-65074107D01*
X167520276Y-65085473D01*
X167520275Y-65085474D01*
X167513715Y-65101311D01*
X167509077Y-65112509D01*
X166491764Y-65112509D01*
X166491764Y-64365238D01*
X168546152Y-64365238D01*
X168546152Y-64508095D01*
X168547593Y-64522727D01*
X168548624Y-64525216D01*
X168548815Y-64527904D01*
X168554070Y-64541636D01*
X168601689Y-64636874D01*
X168603229Y-64639321D01*
X168603614Y-64640475D01*
X168604859Y-64641911D01*
X168609521Y-64649317D01*
X168616625Y-64655478D01*
X168622787Y-64662583D01*
X168630192Y-64667244D01*
X168631629Y-64668490D01*
X168632782Y-64668874D01*
X168635230Y-64670415D01*
X168730468Y-64718034D01*
X168744199Y-64723289D01*
X168746888Y-64723480D01*
X168749377Y-64724511D01*
X168764009Y-64725952D01*
X168811628Y-64725952D01*
X168826260Y-64724511D01*
X168828749Y-64723479D01*
X168831437Y-64723289D01*
X168845169Y-64718034D01*
X168940407Y-64670415D01*
X168942854Y-64668874D01*
X168944008Y-64668490D01*
X168945444Y-64667244D01*
X168952850Y-64662583D01*
X168959011Y-64655478D01*
X168966116Y-64649317D01*
X168970777Y-64641911D01*
X168972023Y-64640475D01*
X168972407Y-64639321D01*
X168973948Y-64636874D01*
X169021567Y-64541636D01*
X169026822Y-64527905D01*
X169027013Y-64525215D01*
X169028044Y-64522727D01*
X169029485Y-64508095D01*
X169029485Y-64382943D01*
X169058005Y-64325901D01*
X169115047Y-64297381D01*
X169127256Y-64297381D01*
X169184298Y-64325901D01*
X169212819Y-64382943D01*
X169212819Y-64538009D01*
X169173118Y-64617411D01*
X169167863Y-64631143D01*
X169165789Y-64660333D01*
X169175043Y-64688094D01*
X169194216Y-64710202D01*
X169220391Y-64723289D01*
X169249581Y-64725363D01*
X169277342Y-64716109D01*
X169299450Y-64696936D01*
X169307282Y-64684493D01*
X169354901Y-64589255D01*
X169360156Y-64575524D01*
X169360347Y-64572834D01*
X169361378Y-64570346D01*
X169362819Y-64555714D01*
X169362819Y-64365238D01*
X169361378Y-64350606D01*
X169360347Y-64348117D01*
X169360156Y-64345428D01*
X169354901Y-64331697D01*
X169307282Y-64236459D01*
X169305741Y-64234011D01*
X169305357Y-64232858D01*
X169304111Y-64231421D01*
X169299450Y-64224016D01*
X169292342Y-64217852D01*
X169286183Y-64210750D01*
X169278779Y-64206089D01*
X169277342Y-64204843D01*
X169276187Y-64204458D01*
X169273741Y-64202918D01*
X169178502Y-64155299D01*
X169164770Y-64150044D01*
X169162082Y-64149853D01*
X169159593Y-64148822D01*
X169144961Y-64147381D01*
X169097342Y-64147381D01*
X169082710Y-64148822D01*
X169080221Y-64149852D01*
X169077532Y-64150044D01*
X169063801Y-64155299D01*
X168968563Y-64202918D01*
X168966115Y-64204458D01*
X168964962Y-64204843D01*
X168963525Y-64206088D01*
X168956120Y-64210750D01*
X168949958Y-64217854D01*
X168942854Y-64224016D01*
X168938192Y-64231421D01*
X168936947Y-64232858D01*
X168936562Y-64234011D01*
X168935022Y-64236459D01*
X168887403Y-64331697D01*
X168882148Y-64345429D01*
X168881957Y-64348116D01*
X168880926Y-64350606D01*
X168879485Y-64365238D01*
X168879485Y-64490390D01*
X168850964Y-64547431D01*
X168793923Y-64575952D01*
X168781714Y-64575952D01*
X168724672Y-64547431D01*
X168696152Y-64490390D01*
X168696152Y-64382943D01*
X168735853Y-64303541D01*
X168741108Y-64289810D01*
X168743182Y-64260620D01*
X168733928Y-64232858D01*
X168714755Y-64210751D01*
X168688580Y-64197663D01*
X168659390Y-64195589D01*
X168631629Y-64204843D01*
X168609521Y-64224016D01*
X168601689Y-64236459D01*
X168554070Y-64331697D01*
X168548815Y-64345429D01*
X168548624Y-64348116D01*
X168547593Y-64350606D01*
X168546152Y-64365238D01*
X166491764Y-64365238D01*
X166491764Y-63874414D01*
X166604316Y-63874414D01*
X166604316Y-63903678D01*
X166615515Y-63930714D01*
X166636207Y-63951406D01*
X166663243Y-63962605D01*
X166677875Y-63964046D01*
X167535017Y-63964046D01*
X167549649Y-63962605D01*
X167552138Y-63961573D01*
X167554826Y-63961383D01*
X167568558Y-63956128D01*
X167663797Y-63908509D01*
X167666243Y-63906968D01*
X167667398Y-63906584D01*
X167668835Y-63905337D01*
X167676239Y-63900677D01*
X167682398Y-63893574D01*
X167689506Y-63887411D01*
X167694167Y-63880005D01*
X167695413Y-63878569D01*
X167695797Y-63877415D01*
X167697338Y-63874968D01*
X167744957Y-63779730D01*
X167745169Y-63779177D01*
X168214260Y-63779177D01*
X168214260Y-63808441D01*
X168225459Y-63835477D01*
X168246151Y-63856169D01*
X168273187Y-63867368D01*
X168287819Y-63868809D01*
X168546152Y-63868809D01*
X168546152Y-63936666D01*
X168547593Y-63951298D01*
X168558792Y-63978334D01*
X168579484Y-63999026D01*
X168606520Y-64010225D01*
X168635784Y-64010225D01*
X168662820Y-63999026D01*
X168683512Y-63978334D01*
X168694711Y-63951298D01*
X168696152Y-63936666D01*
X168696152Y-63868809D01*
X169144961Y-63868809D01*
X169159593Y-63867368D01*
X169162082Y-63866336D01*
X169164770Y-63866146D01*
X169178502Y-63860891D01*
X169273741Y-63813272D01*
X169276187Y-63811731D01*
X169277342Y-63811347D01*
X169278779Y-63810100D01*
X169286183Y-63805440D01*
X169292342Y-63798337D01*
X169299450Y-63792174D01*
X169304111Y-63784768D01*
X169305357Y-63783332D01*
X169305741Y-63782178D01*
X169307282Y-63779731D01*
X169354901Y-63684493D01*
X169360156Y-63670762D01*
X169360347Y-63668072D01*
X169361378Y-63665584D01*
X169362819Y-63650952D01*
X169362819Y-63555714D01*
X169361378Y-63541082D01*
X169350179Y-63514046D01*
X169329487Y-63493354D01*
X169302451Y-63482155D01*
X169273187Y-63482155D01*
X169246151Y-63493354D01*
X169225459Y-63514046D01*
X169214260Y-63541082D01*
X169212819Y-63555714D01*
X169212819Y-63633247D01*
X169184298Y-63690288D01*
X169127256Y-63718809D01*
X168696152Y-63718809D01*
X168696152Y-63555714D01*
X168694711Y-63541082D01*
X168683512Y-63514046D01*
X168662820Y-63493354D01*
X168635784Y-63482155D01*
X168606520Y-63482155D01*
X168579484Y-63493354D01*
X168558792Y-63514046D01*
X168547593Y-63541082D01*
X168546152Y-63555714D01*
X168546152Y-63718809D01*
X168287819Y-63718809D01*
X168273187Y-63720250D01*
X168246151Y-63731449D01*
X168225459Y-63752141D01*
X168214260Y-63779177D01*
X167745169Y-63779177D01*
X167750212Y-63765999D01*
X167752286Y-63736809D01*
X167743032Y-63709047D01*
X167723859Y-63686940D01*
X167697684Y-63673852D01*
X167668494Y-63671778D01*
X167640733Y-63681032D01*
X167618625Y-63700205D01*
X167610793Y-63712648D01*
X167574354Y-63785525D01*
X167517312Y-63814046D01*
X166677875Y-63814046D01*
X166663243Y-63815487D01*
X166636207Y-63826686D01*
X166615515Y-63847378D01*
X166604316Y-63874414D01*
X166491764Y-63874414D01*
X166491764Y-63350605D01*
X166604316Y-63350605D01*
X166604316Y-63379867D01*
X166615515Y-63406904D01*
X166624842Y-63418269D01*
X166672461Y-63465888D01*
X166683826Y-63475215D01*
X166710862Y-63486414D01*
X166710863Y-63486414D01*
X166740125Y-63486414D01*
X166767162Y-63475215D01*
X166778527Y-63465888D01*
X166826146Y-63418269D01*
X166835473Y-63406904D01*
X166846672Y-63379868D01*
X166846672Y-63350605D01*
X166846672Y-63350604D01*
X166937649Y-63350604D01*
X166937649Y-63379868D01*
X166948848Y-63406904D01*
X166969540Y-63427596D01*
X166996576Y-63438795D01*
X167011208Y-63440236D01*
X167677875Y-63440236D01*
X167692507Y-63438795D01*
X167719543Y-63427596D01*
X167740235Y-63406904D01*
X167751434Y-63379868D01*
X167751434Y-63350604D01*
X167740235Y-63323568D01*
X167719543Y-63302876D01*
X167692507Y-63291677D01*
X167677875Y-63290236D01*
X167011208Y-63290236D01*
X166996576Y-63291677D01*
X166969540Y-63302876D01*
X166948848Y-63323568D01*
X166937649Y-63350604D01*
X166846672Y-63350604D01*
X166839069Y-63332249D01*
X166835473Y-63323568D01*
X166826146Y-63312203D01*
X166778527Y-63264584D01*
X166767162Y-63255257D01*
X166740125Y-63244058D01*
X166710862Y-63244058D01*
X166683826Y-63255257D01*
X166672461Y-63264584D01*
X166624842Y-63312203D01*
X166615515Y-63323568D01*
X166604316Y-63350605D01*
X166491764Y-63350605D01*
X166491764Y-62174761D01*
X166936208Y-62174761D01*
X166936208Y-62317618D01*
X166937649Y-62332250D01*
X166938680Y-62334739D01*
X166938871Y-62337427D01*
X166944126Y-62351159D01*
X166991745Y-62446397D01*
X166993285Y-62448844D01*
X166993670Y-62449998D01*
X166994915Y-62451434D01*
X166999577Y-62458840D01*
X167001462Y-62460475D01*
X166999577Y-62462110D01*
X166994915Y-62469515D01*
X166993670Y-62470952D01*
X166993285Y-62472105D01*
X166991745Y-62474553D01*
X166944126Y-62569791D01*
X166938871Y-62583523D01*
X166938680Y-62586210D01*
X166937649Y-62588700D01*
X166936208Y-62603332D01*
X166936208Y-62746189D01*
X166937649Y-62760821D01*
X166938680Y-62763310D01*
X166938871Y-62765998D01*
X166944126Y-62779730D01*
X166968249Y-62827976D01*
X166948848Y-62847378D01*
X166937649Y-62874414D01*
X166937649Y-62903678D01*
X166948848Y-62930714D01*
X166969540Y-62951406D01*
X166996576Y-62962605D01*
X167011208Y-62964046D01*
X167677875Y-62964046D01*
X167692507Y-62962605D01*
X167719543Y-62951406D01*
X167734283Y-62936666D01*
X168546152Y-62936666D01*
X168546152Y-63079523D01*
X168547593Y-63094155D01*
X168548624Y-63096644D01*
X168548815Y-63099332D01*
X168554070Y-63113064D01*
X168601689Y-63208302D01*
X168605653Y-63214601D01*
X168606411Y-63216429D01*
X168608099Y-63218485D01*
X168609521Y-63220745D01*
X168611019Y-63222044D01*
X168615738Y-63227794D01*
X168663357Y-63275413D01*
X168669106Y-63280131D01*
X168670406Y-63281630D01*
X168672665Y-63283051D01*
X168674722Y-63284740D01*
X168676549Y-63285497D01*
X168682849Y-63289462D01*
X168778087Y-63337081D01*
X168791818Y-63342336D01*
X168794507Y-63342527D01*
X168796996Y-63343558D01*
X168811628Y-63344999D01*
X169097342Y-63344999D01*
X169111974Y-63343558D01*
X169114463Y-63342526D01*
X169117151Y-63342336D01*
X169130883Y-63337081D01*
X169226121Y-63289462D01*
X169232417Y-63285498D01*
X169234247Y-63284741D01*
X169236305Y-63283051D01*
X169238564Y-63281630D01*
X169239863Y-63280131D01*
X169245612Y-63275414D01*
X169293232Y-63227795D01*
X169297950Y-63222045D01*
X169299450Y-63220745D01*
X169300872Y-63218485D01*
X169302560Y-63216429D01*
X169303317Y-63214601D01*
X169307282Y-63208302D01*
X169354901Y-63113064D01*
X169360156Y-63099333D01*
X169360347Y-63096643D01*
X169361378Y-63094155D01*
X169362819Y-63079523D01*
X169362819Y-62936666D01*
X169361378Y-62922034D01*
X169360347Y-62919545D01*
X169360156Y-62916856D01*
X169354901Y-62903125D01*
X169307282Y-62807887D01*
X169303317Y-62801587D01*
X169302560Y-62799760D01*
X169300872Y-62797703D01*
X169299450Y-62795444D01*
X169297950Y-62794143D01*
X169293232Y-62788394D01*
X169245612Y-62740775D01*
X169239863Y-62736057D01*
X169238564Y-62734559D01*
X169236305Y-62733137D01*
X169234247Y-62731448D01*
X169232417Y-62730690D01*
X169226121Y-62726727D01*
X169130883Y-62679108D01*
X169117151Y-62673853D01*
X169114463Y-62673662D01*
X169111974Y-62672631D01*
X169097342Y-62671190D01*
X168811628Y-62671190D01*
X168796996Y-62672631D01*
X168794507Y-62673661D01*
X168791818Y-62673853D01*
X168778087Y-62679108D01*
X168682849Y-62726727D01*
X168676549Y-62730691D01*
X168674722Y-62731449D01*
X168672665Y-62733137D01*
X168670406Y-62734559D01*
X168669106Y-62736057D01*
X168663357Y-62740776D01*
X168615738Y-62788395D01*
X168611019Y-62794144D01*
X168609521Y-62795444D01*
X168608099Y-62797703D01*
X168606411Y-62799760D01*
X168605653Y-62801587D01*
X168601689Y-62807887D01*
X168554070Y-62903125D01*
X168548815Y-62916857D01*
X168548624Y-62919544D01*
X168547593Y-62922034D01*
X168546152Y-62936666D01*
X167734283Y-62936666D01*
X167740235Y-62930714D01*
X167751434Y-62903678D01*
X167751434Y-62874414D01*
X167740235Y-62847378D01*
X167719543Y-62826686D01*
X167692507Y-62815487D01*
X167677875Y-62814046D01*
X167137512Y-62814046D01*
X167120466Y-62797000D01*
X167086208Y-62728484D01*
X167086208Y-62621037D01*
X167114728Y-62563995D01*
X167171770Y-62535475D01*
X167677875Y-62535475D01*
X167692507Y-62534034D01*
X167719543Y-62522835D01*
X167740235Y-62502143D01*
X167751434Y-62475107D01*
X167751434Y-62445843D01*
X167740235Y-62418807D01*
X167719543Y-62398115D01*
X167692507Y-62386916D01*
X167677875Y-62385475D01*
X167171770Y-62385475D01*
X167114728Y-62356954D01*
X167086208Y-62299913D01*
X167086208Y-62192465D01*
X167114728Y-62135423D01*
X167171770Y-62106903D01*
X167677875Y-62106903D01*
X167692507Y-62105462D01*
X167719543Y-62094263D01*
X167740235Y-62073571D01*
X167751434Y-62046535D01*
X167751434Y-62031904D01*
X168546152Y-62031904D01*
X168546152Y-62127142D01*
X168547593Y-62141774D01*
X168548624Y-62144263D01*
X168548815Y-62146951D01*
X168554070Y-62160683D01*
X168597604Y-62247752D01*
X168579484Y-62255258D01*
X168558792Y-62275950D01*
X168547593Y-62302986D01*
X168547593Y-62332250D01*
X168558792Y-62359286D01*
X168579484Y-62379978D01*
X168606520Y-62391177D01*
X168621152Y-62392618D01*
X169287819Y-62392618D01*
X169302451Y-62391177D01*
X169329487Y-62379978D01*
X169350179Y-62359286D01*
X169361378Y-62332250D01*
X169361378Y-62302986D01*
X169350179Y-62275950D01*
X169329487Y-62255258D01*
X169302451Y-62244059D01*
X169287819Y-62242618D01*
X168829333Y-62242618D01*
X168760817Y-62208360D01*
X168730410Y-62177953D01*
X168696152Y-62109437D01*
X168696152Y-62031904D01*
X168694711Y-62017272D01*
X168683512Y-61990236D01*
X168662820Y-61969544D01*
X168635784Y-61958345D01*
X168606520Y-61958345D01*
X168579484Y-61969544D01*
X168558792Y-61990236D01*
X168547593Y-62017272D01*
X168546152Y-62031904D01*
X167751434Y-62031904D01*
X167751434Y-62017271D01*
X167740235Y-61990235D01*
X167719543Y-61969543D01*
X167692507Y-61958344D01*
X167677875Y-61956903D01*
X167154065Y-61956903D01*
X167139433Y-61958344D01*
X167136944Y-61959374D01*
X167134255Y-61959566D01*
X167120524Y-61964821D01*
X167025286Y-62012440D01*
X167022838Y-62013980D01*
X167021685Y-62014365D01*
X167020248Y-62015610D01*
X167012843Y-62020272D01*
X167006679Y-62027379D01*
X166999577Y-62033539D01*
X166994916Y-62040942D01*
X166993670Y-62042380D01*
X166993285Y-62043534D01*
X166991745Y-62045981D01*
X166944126Y-62141220D01*
X166938871Y-62154952D01*
X166938680Y-62157639D01*
X166937649Y-62160129D01*
X166936208Y-62174761D01*
X166491764Y-62174761D01*
X166491764Y-61541082D01*
X166604316Y-61541082D01*
X166604316Y-61570344D01*
X166615515Y-61597381D01*
X166624842Y-61608746D01*
X166672461Y-61656365D01*
X166683826Y-61665692D01*
X166710862Y-61676891D01*
X166710863Y-61676891D01*
X166740125Y-61676891D01*
X166767162Y-61665692D01*
X166778527Y-61656365D01*
X166826146Y-61608746D01*
X166835473Y-61597381D01*
X166846672Y-61570345D01*
X166846672Y-61541082D01*
X166846672Y-61541081D01*
X166937649Y-61541081D01*
X166937649Y-61570345D01*
X166948848Y-61597381D01*
X166969540Y-61618073D01*
X166996576Y-61629272D01*
X167011208Y-61630713D01*
X167677875Y-61630713D01*
X167692507Y-61629272D01*
X167719543Y-61618073D01*
X167740235Y-61597381D01*
X167751434Y-61570345D01*
X167751434Y-61541081D01*
X167740235Y-61514045D01*
X167719543Y-61493353D01*
X167692507Y-61482154D01*
X167677875Y-61480713D01*
X167011208Y-61480713D01*
X166996576Y-61482154D01*
X166969540Y-61493353D01*
X166948848Y-61514045D01*
X166937649Y-61541081D01*
X166846672Y-61541081D01*
X166839069Y-61522726D01*
X166835473Y-61514045D01*
X166826146Y-61502680D01*
X166778527Y-61455061D01*
X166767162Y-61445734D01*
X166740125Y-61434535D01*
X166710862Y-61434535D01*
X166683826Y-61445734D01*
X166672461Y-61455061D01*
X166624842Y-61502680D01*
X166615515Y-61514045D01*
X166604316Y-61541082D01*
X166491764Y-61541082D01*
X166491764Y-61064891D01*
X166604316Y-61064891D01*
X166604316Y-61094155D01*
X166615515Y-61121191D01*
X166636207Y-61141883D01*
X166663243Y-61153082D01*
X166677875Y-61154523D01*
X166936208Y-61154523D01*
X166936208Y-61222380D01*
X166937649Y-61237012D01*
X166948848Y-61264048D01*
X166969540Y-61284740D01*
X166996576Y-61295939D01*
X167025840Y-61295939D01*
X167052876Y-61284740D01*
X167073568Y-61264048D01*
X167084767Y-61237012D01*
X167086208Y-61222380D01*
X167086208Y-61154523D01*
X167535017Y-61154523D01*
X167549649Y-61153082D01*
X167552138Y-61152050D01*
X167554826Y-61151860D01*
X167568558Y-61146605D01*
X167663797Y-61098986D01*
X167666243Y-61097445D01*
X167667398Y-61097061D01*
X167668835Y-61095814D01*
X167676239Y-61091154D01*
X167682398Y-61084051D01*
X167689506Y-61077888D01*
X167694167Y-61070482D01*
X167695413Y-61069046D01*
X167695797Y-61067892D01*
X167697338Y-61065445D01*
X167744957Y-60970207D01*
X167750212Y-60956476D01*
X167750403Y-60953786D01*
X167751434Y-60951298D01*
X167752875Y-60936666D01*
X167752875Y-60841428D01*
X167751434Y-60826796D01*
X167740235Y-60799760D01*
X167719543Y-60779068D01*
X167692507Y-60767869D01*
X167663243Y-60767869D01*
X167636207Y-60779068D01*
X167615515Y-60799760D01*
X167604316Y-60826796D01*
X167602875Y-60841428D01*
X167602875Y-60918961D01*
X167574354Y-60976002D01*
X167517312Y-61004523D01*
X167086208Y-61004523D01*
X167086208Y-60841428D01*
X167084767Y-60826796D01*
X167073568Y-60799760D01*
X167052876Y-60779068D01*
X167025840Y-60767869D01*
X166996576Y-60767869D01*
X166969540Y-60779068D01*
X166948848Y-60799760D01*
X166937649Y-60826796D01*
X166936208Y-60841428D01*
X166936208Y-61004523D01*
X166677875Y-61004523D01*
X166663243Y-61005964D01*
X166636207Y-61017163D01*
X166615515Y-61037855D01*
X166604316Y-61064891D01*
X166491764Y-61064891D01*
X166491764Y-60656758D01*
X169473930Y-60656758D01*
X169473930Y-68789443D01*
G37*
G36*
X173918977Y-53905621D02*
G01*
X173546755Y-53905621D01*
X173546755Y-52959047D01*
X173657866Y-52959047D01*
X173657866Y-53720951D01*
X173659307Y-53735583D01*
X173670506Y-53762619D01*
X173691198Y-53783311D01*
X173718234Y-53794510D01*
X173747498Y-53794510D01*
X173774534Y-53783311D01*
X173795226Y-53762619D01*
X173806425Y-53735583D01*
X173807866Y-53720951D01*
X173807866Y-52959047D01*
X173806425Y-52944415D01*
X173795226Y-52917379D01*
X173774534Y-52896687D01*
X173747498Y-52885488D01*
X173718234Y-52885488D01*
X173691198Y-52896687D01*
X173670506Y-52917379D01*
X173659307Y-52944415D01*
X173657866Y-52959047D01*
X173546755Y-52959047D01*
X173546755Y-52774377D01*
X173918977Y-52774377D01*
X173918977Y-53905621D01*
G37*
G36*
X174298489Y-69145621D02*
G01*
X173167244Y-69145621D01*
X173167244Y-68565367D01*
X173278355Y-68565367D01*
X173278355Y-68594631D01*
X173289554Y-68621667D01*
X173310246Y-68642359D01*
X173337282Y-68653558D01*
X173351914Y-68654999D01*
X173657866Y-68654999D01*
X173657866Y-68960951D01*
X173659307Y-68975583D01*
X173670506Y-69002619D01*
X173691198Y-69023311D01*
X173718234Y-69034510D01*
X173747498Y-69034510D01*
X173774534Y-69023311D01*
X173795226Y-69002619D01*
X173806425Y-68975583D01*
X173807866Y-68960951D01*
X173807866Y-68654999D01*
X174113819Y-68654999D01*
X174128451Y-68653558D01*
X174155487Y-68642359D01*
X174176179Y-68621667D01*
X174187378Y-68594631D01*
X174187378Y-68565367D01*
X174176179Y-68538331D01*
X174155487Y-68517639D01*
X174128451Y-68506440D01*
X174113819Y-68504999D01*
X173807866Y-68504999D01*
X173807866Y-68199047D01*
X173806425Y-68184415D01*
X173795226Y-68157379D01*
X173774534Y-68136687D01*
X173747498Y-68125488D01*
X173718234Y-68125488D01*
X173691198Y-68136687D01*
X173670506Y-68157379D01*
X173659307Y-68184415D01*
X173657866Y-68199047D01*
X173657866Y-68504999D01*
X173351914Y-68504999D01*
X173337282Y-68506440D01*
X173310246Y-68517639D01*
X173289554Y-68538331D01*
X173278355Y-68565367D01*
X173167244Y-68565367D01*
X173167244Y-68014377D01*
X174298489Y-68014377D01*
X174298489Y-69145621D01*
G37*
G36*
X174298489Y-61525621D02*
G01*
X173167244Y-61525621D01*
X173167244Y-60945367D01*
X173278355Y-60945367D01*
X173278355Y-60974631D01*
X173289554Y-61001667D01*
X173310246Y-61022359D01*
X173337282Y-61033558D01*
X173351914Y-61034999D01*
X173657866Y-61034999D01*
X173657866Y-61340951D01*
X173659307Y-61355583D01*
X173670506Y-61382619D01*
X173691198Y-61403311D01*
X173718234Y-61414510D01*
X173747498Y-61414510D01*
X173774534Y-61403311D01*
X173795226Y-61382619D01*
X173806425Y-61355583D01*
X173807866Y-61340951D01*
X173807866Y-61034999D01*
X174113819Y-61034999D01*
X174128451Y-61033558D01*
X174155487Y-61022359D01*
X174176179Y-61001667D01*
X174187378Y-60974631D01*
X174187378Y-60945367D01*
X174176179Y-60918331D01*
X174155487Y-60897639D01*
X174128451Y-60886440D01*
X174113819Y-60884999D01*
X173807866Y-60884999D01*
X173807866Y-60579047D01*
X173806425Y-60564415D01*
X173795226Y-60537379D01*
X173774534Y-60516687D01*
X173747498Y-60505488D01*
X173718234Y-60505488D01*
X173691198Y-60516687D01*
X173670506Y-60537379D01*
X173659307Y-60564415D01*
X173657866Y-60579047D01*
X173657866Y-60884999D01*
X173351914Y-60884999D01*
X173337282Y-60886440D01*
X173310246Y-60897639D01*
X173289554Y-60918331D01*
X173278355Y-60945367D01*
X173167244Y-60945367D01*
X173167244Y-60394377D01*
X174298489Y-60394377D01*
X174298489Y-61525621D01*
G37*
G36*
X113821893Y-61358955D02*
G01*
X113355611Y-61358955D01*
X113355611Y-61022047D01*
X113466722Y-61022047D01*
X113467388Y-61031428D01*
X113466722Y-61040809D01*
X113468416Y-61045891D01*
X113468796Y-61051237D01*
X113474051Y-61064969D01*
X113521670Y-61160207D01*
X113525634Y-61166506D01*
X113526392Y-61168334D01*
X113528080Y-61170390D01*
X113529502Y-61172650D01*
X113531000Y-61173949D01*
X113535719Y-61179699D01*
X113583338Y-61227318D01*
X113594703Y-61236645D01*
X113621739Y-61247844D01*
X113651002Y-61247844D01*
X113678038Y-61236645D01*
X113698731Y-61215952D01*
X113709930Y-61188916D01*
X113709930Y-61159653D01*
X113698731Y-61132617D01*
X113689404Y-61121252D01*
X113650391Y-61082239D01*
X113624985Y-61031428D01*
X113703453Y-60874493D01*
X113708708Y-60860761D01*
X113709087Y-60855414D01*
X113710782Y-60850332D01*
X113710115Y-60840951D01*
X113710782Y-60831571D01*
X113709087Y-60826488D01*
X113708708Y-60821142D01*
X113703453Y-60807411D01*
X113655834Y-60712173D01*
X113651869Y-60705873D01*
X113651112Y-60704046D01*
X113649423Y-60701989D01*
X113648002Y-60699730D01*
X113646503Y-60698430D01*
X113641785Y-60692681D01*
X113594166Y-60645062D01*
X113582801Y-60635735D01*
X113555764Y-60624536D01*
X113526502Y-60624536D01*
X113499465Y-60635735D01*
X113478773Y-60656427D01*
X113467574Y-60683464D01*
X113467574Y-60712726D01*
X113478773Y-60739763D01*
X113488100Y-60751128D01*
X113527113Y-60790141D01*
X113552518Y-60840952D01*
X113474051Y-60997887D01*
X113468796Y-61011619D01*
X113468416Y-61016964D01*
X113466722Y-61022047D01*
X113355611Y-61022047D01*
X113355611Y-60513425D01*
X113821893Y-60513425D01*
X113821893Y-61358955D01*
G37*
G36*
X145327240Y-78046672D02*
G01*
X145355761Y-78103714D01*
X145355761Y-78119762D01*
X145029571Y-78184999D01*
X145029571Y-78103714D01*
X145058091Y-78046672D01*
X145115133Y-78018152D01*
X145270199Y-78018152D01*
X145327240Y-78046672D01*
G37*
G36*
X147403381Y-78515847D02*
G01*
X147365438Y-78534819D01*
X147162753Y-78534819D01*
X147105711Y-78506298D01*
X147077191Y-78449256D01*
X147077191Y-78389428D01*
X147105711Y-78332386D01*
X147162753Y-78303866D01*
X147383143Y-78303866D01*
X147397775Y-78302425D01*
X147400264Y-78301393D01*
X147402952Y-78301203D01*
X147403381Y-78301038D01*
X147403381Y-78515847D01*
G37*
G36*
X149136765Y-78046672D02*
G01*
X149165286Y-78103714D01*
X149165286Y-78119762D01*
X148839096Y-78184999D01*
X148839096Y-78103714D01*
X148867616Y-78046672D01*
X148924658Y-78018152D01*
X149079724Y-78018152D01*
X149136765Y-78046672D01*
G37*
G36*
X141719667Y-77719077D02*
G01*
X141750074Y-77749484D01*
X141784332Y-77818000D01*
X141784332Y-77925447D01*
X141750074Y-77993963D01*
X141719667Y-78024370D01*
X141651151Y-78058628D01*
X141362904Y-78058628D01*
X141362904Y-77684819D01*
X141651151Y-77684819D01*
X141719667Y-77719077D01*
G37*
G36*
X149426397Y-78795930D02*
G01*
X139673222Y-78795930D01*
X139673222Y-77609819D01*
X139784333Y-77609819D01*
X139784333Y-78609819D01*
X139785774Y-78624451D01*
X139796973Y-78651487D01*
X139817665Y-78672179D01*
X139844701Y-78683378D01*
X139873965Y-78683378D01*
X139901001Y-78672179D01*
X139921693Y-78651487D01*
X139932892Y-78624451D01*
X139934333Y-78609819D01*
X139934333Y-77800295D01*
X140212904Y-77800295D01*
X140212904Y-77895533D01*
X140214345Y-77910165D01*
X140215376Y-77912654D01*
X140215567Y-77915342D01*
X140220822Y-77929074D01*
X140268441Y-78024312D01*
X140272405Y-78030611D01*
X140273163Y-78032439D01*
X140274851Y-78034495D01*
X140276273Y-78036755D01*
X140277771Y-78038054D01*
X140282490Y-78043804D01*
X140330109Y-78091423D01*
X140335858Y-78096141D01*
X140337158Y-78097640D01*
X140339417Y-78099061D01*
X140341474Y-78100750D01*
X140343301Y-78101507D01*
X140349601Y-78105472D01*
X140444839Y-78153091D01*
X140445908Y-78153500D01*
X140446344Y-78153823D01*
X140452480Y-78156015D01*
X140458570Y-78158346D01*
X140459110Y-78158384D01*
X140460190Y-78158770D01*
X140642680Y-78204392D01*
X140719667Y-78242886D01*
X140750074Y-78273293D01*
X140784332Y-78341809D01*
X140784332Y-78401637D01*
X140750073Y-78470153D01*
X140719666Y-78500561D01*
X140651151Y-78534819D01*
X140442931Y-78534819D01*
X140311621Y-78491049D01*
X140297284Y-78487789D01*
X140268094Y-78489864D01*
X140241921Y-78502950D01*
X140222747Y-78525057D01*
X140213493Y-78552820D01*
X140215568Y-78582010D01*
X140228654Y-78608183D01*
X140250761Y-78627357D01*
X140264187Y-78633351D01*
X140407043Y-78680970D01*
X140414298Y-78682619D01*
X140416129Y-78683378D01*
X140418782Y-78683639D01*
X140421380Y-78684230D01*
X140423354Y-78684089D01*
X140430761Y-78684819D01*
X140668856Y-78684819D01*
X140683488Y-78683378D01*
X140685977Y-78682346D01*
X140688665Y-78682156D01*
X140702397Y-78676901D01*
X140797635Y-78629282D01*
X140803934Y-78625317D01*
X140805762Y-78624560D01*
X140807818Y-78622872D01*
X140810078Y-78621450D01*
X140811378Y-78619950D01*
X140817128Y-78615232D01*
X140864746Y-78567613D01*
X140869464Y-78561863D01*
X140870963Y-78560564D01*
X140872384Y-78558305D01*
X140874074Y-78556247D01*
X140874831Y-78554417D01*
X140878795Y-78548121D01*
X140926414Y-78452883D01*
X140931669Y-78439152D01*
X140931860Y-78436462D01*
X140932891Y-78433974D01*
X140934332Y-78419342D01*
X140934332Y-78324104D01*
X140932891Y-78309472D01*
X140931860Y-78306983D01*
X140931669Y-78304294D01*
X140926414Y-78290563D01*
X140878795Y-78195325D01*
X140874830Y-78189025D01*
X140874073Y-78187198D01*
X140872384Y-78185141D01*
X140870963Y-78182882D01*
X140869464Y-78181582D01*
X140864746Y-78175833D01*
X140817127Y-78128214D01*
X140811377Y-78123495D01*
X140810078Y-78121997D01*
X140807818Y-78120575D01*
X140805762Y-78118887D01*
X140803934Y-78118129D01*
X140797635Y-78114165D01*
X140702397Y-78066546D01*
X140701327Y-78066136D01*
X140700892Y-78065814D01*
X140694746Y-78063618D01*
X140688665Y-78061291D01*
X140688125Y-78061252D01*
X140687046Y-78060867D01*
X140504556Y-78015244D01*
X140427569Y-77976751D01*
X140397162Y-77946344D01*
X140362904Y-77877828D01*
X140362904Y-77818000D01*
X140397162Y-77749484D01*
X140427569Y-77719077D01*
X140496085Y-77684819D01*
X140704305Y-77684819D01*
X140835614Y-77728589D01*
X140849951Y-77731849D01*
X140879141Y-77729774D01*
X140905315Y-77716688D01*
X140924489Y-77694580D01*
X140933743Y-77666818D01*
X140931668Y-77637628D01*
X140918581Y-77611455D01*
X140916695Y-77609819D01*
X141212904Y-77609819D01*
X141212904Y-78609819D01*
X141214345Y-78624451D01*
X141225544Y-78651487D01*
X141246236Y-78672179D01*
X141273272Y-78683378D01*
X141302536Y-78683378D01*
X141329572Y-78672179D01*
X141350264Y-78651487D01*
X141361463Y-78624451D01*
X141362904Y-78609819D01*
X141362904Y-78208628D01*
X141668856Y-78208628D01*
X141683488Y-78207187D01*
X141685977Y-78206155D01*
X141688665Y-78205965D01*
X141702397Y-78200710D01*
X141797635Y-78153091D01*
X141803934Y-78149126D01*
X141805762Y-78148369D01*
X141807818Y-78146680D01*
X141810078Y-78145259D01*
X141811377Y-78143760D01*
X141817127Y-78139042D01*
X141864746Y-78091423D01*
X141869464Y-78085673D01*
X141870963Y-78084374D01*
X141872384Y-78082114D01*
X141874073Y-78080058D01*
X141874830Y-78078230D01*
X141878795Y-78071931D01*
X141926414Y-77976693D01*
X141931669Y-77962962D01*
X141931860Y-77960272D01*
X141932891Y-77957784D01*
X141934332Y-77943152D01*
X141934332Y-77800295D01*
X141932891Y-77785663D01*
X141931860Y-77783174D01*
X141931669Y-77780485D01*
X141926414Y-77766754D01*
X141878795Y-77671516D01*
X141874830Y-77665216D01*
X141874073Y-77663389D01*
X141872384Y-77661332D01*
X141870963Y-77659073D01*
X141869464Y-77657773D01*
X141864746Y-77652024D01*
X141822541Y-77609819D01*
X142974809Y-77609819D01*
X142974809Y-78609819D01*
X142976250Y-78624451D01*
X142987449Y-78651487D01*
X143008141Y-78672179D01*
X143035177Y-78683378D01*
X143064441Y-78683378D01*
X143091477Y-78672179D01*
X143112169Y-78651487D01*
X143123368Y-78624451D01*
X143124809Y-78609819D01*
X143124809Y-77943152D01*
X143450999Y-77943152D01*
X143450999Y-78609819D01*
X143452440Y-78624451D01*
X143463639Y-78651487D01*
X143484331Y-78672179D01*
X143511367Y-78683378D01*
X143540631Y-78683378D01*
X143567667Y-78672179D01*
X143588359Y-78651487D01*
X143599558Y-78624451D01*
X143600999Y-78609819D01*
X143600999Y-78069456D01*
X143618045Y-78052410D01*
X143686561Y-78018152D01*
X143794008Y-78018152D01*
X143851049Y-78046672D01*
X143879570Y-78103714D01*
X143879570Y-78609819D01*
X143881011Y-78624451D01*
X143892210Y-78651487D01*
X143912902Y-78672179D01*
X143939938Y-78683378D01*
X143969202Y-78683378D01*
X143996238Y-78672179D01*
X144016930Y-78651487D01*
X144028129Y-78624451D01*
X144029570Y-78609819D01*
X144029570Y-78086009D01*
X144028129Y-78071377D01*
X144027098Y-78068888D01*
X144026907Y-78066199D01*
X144021652Y-78052468D01*
X143974033Y-77957230D01*
X143972492Y-77954782D01*
X143972108Y-77953629D01*
X143970862Y-77952192D01*
X143966201Y-77944787D01*
X143959096Y-77938625D01*
X143952935Y-77931521D01*
X143948168Y-77928520D01*
X144214345Y-77928520D01*
X144214345Y-77957784D01*
X144225544Y-77984820D01*
X144246236Y-78005512D01*
X144273272Y-78016711D01*
X144287904Y-78018152D01*
X144355761Y-78018152D01*
X144355761Y-78466961D01*
X144357202Y-78481593D01*
X144358233Y-78484082D01*
X144358424Y-78486770D01*
X144363679Y-78500502D01*
X144411298Y-78595741D01*
X144412838Y-78598187D01*
X144413223Y-78599342D01*
X144414469Y-78600779D01*
X144419130Y-78608183D01*
X144426232Y-78614342D01*
X144432396Y-78621450D01*
X144439801Y-78626111D01*
X144441238Y-78627357D01*
X144442391Y-78627741D01*
X144444839Y-78629282D01*
X144540077Y-78676901D01*
X144553808Y-78682156D01*
X144556497Y-78682347D01*
X144558986Y-78683378D01*
X144573618Y-78684819D01*
X144668856Y-78684819D01*
X144683488Y-78683378D01*
X144710524Y-78672179D01*
X144731216Y-78651487D01*
X144742415Y-78624451D01*
X144742415Y-78595187D01*
X144731216Y-78568151D01*
X144710524Y-78547459D01*
X144683488Y-78536260D01*
X144668856Y-78534819D01*
X144591323Y-78534819D01*
X144534281Y-78506298D01*
X144505761Y-78449256D01*
X144505761Y-78086009D01*
X144879571Y-78086009D01*
X144879571Y-78466961D01*
X144881012Y-78481593D01*
X144882043Y-78484082D01*
X144882234Y-78486770D01*
X144887489Y-78500502D01*
X144935108Y-78595741D01*
X144936648Y-78598187D01*
X144937033Y-78599342D01*
X144938279Y-78600779D01*
X144942940Y-78608183D01*
X144950042Y-78614342D01*
X144956206Y-78621450D01*
X144963611Y-78626111D01*
X144965048Y-78627357D01*
X144966201Y-78627741D01*
X144968649Y-78629282D01*
X145063887Y-78676901D01*
X145077618Y-78682156D01*
X145080307Y-78682347D01*
X145082796Y-78683378D01*
X145097428Y-78684819D01*
X145287904Y-78684819D01*
X145302536Y-78683378D01*
X145305025Y-78682346D01*
X145307713Y-78682156D01*
X145321445Y-78676901D01*
X145416683Y-78629282D01*
X145429126Y-78621450D01*
X145448299Y-78599342D01*
X145457553Y-78571581D01*
X145455479Y-78542391D01*
X145442391Y-78516216D01*
X145420284Y-78497043D01*
X145392522Y-78487789D01*
X145363332Y-78489863D01*
X145349601Y-78495118D01*
X145270199Y-78534819D01*
X145115133Y-78534819D01*
X145058091Y-78506298D01*
X145029571Y-78449256D01*
X145029571Y-78337970D01*
X145445469Y-78254791D01*
X145459535Y-78250508D01*
X145465640Y-78246419D01*
X145472429Y-78243607D01*
X145477681Y-78238354D01*
X145483849Y-78234224D01*
X145487923Y-78228113D01*
X145493121Y-78222915D01*
X145495964Y-78216051D01*
X145500081Y-78209876D01*
X145501506Y-78202670D01*
X145504320Y-78195879D01*
X145505761Y-78181247D01*
X145505761Y-78086009D01*
X145504320Y-78071377D01*
X145503289Y-78068888D01*
X145503098Y-78066199D01*
X145497843Y-78052468D01*
X145450224Y-77957230D01*
X145448683Y-77954782D01*
X145448299Y-77953629D01*
X145447053Y-77952192D01*
X145442392Y-77944787D01*
X145440507Y-77943152D01*
X145784333Y-77943152D01*
X145784333Y-78609819D01*
X145785774Y-78624451D01*
X145796973Y-78651487D01*
X145817665Y-78672179D01*
X145844701Y-78683378D01*
X145873965Y-78683378D01*
X145901001Y-78672179D01*
X145921693Y-78651487D01*
X145932892Y-78624451D01*
X145934333Y-78609819D01*
X145934333Y-78151333D01*
X145968591Y-78082817D01*
X145998998Y-78052410D01*
X146067514Y-78018152D01*
X146145047Y-78018152D01*
X146159679Y-78016711D01*
X146186715Y-78005512D01*
X146207407Y-77984820D01*
X146218606Y-77957784D01*
X146218606Y-77928520D01*
X146261965Y-77928520D01*
X146261965Y-77957784D01*
X146273164Y-77984820D01*
X146293856Y-78005512D01*
X146320892Y-78016711D01*
X146335524Y-78018152D01*
X146403381Y-78018152D01*
X146403381Y-78609819D01*
X146404822Y-78624451D01*
X146416021Y-78651487D01*
X146436713Y-78672179D01*
X146463749Y-78683378D01*
X146493013Y-78683378D01*
X146520049Y-78672179D01*
X146540741Y-78651487D01*
X146551940Y-78624451D01*
X146553381Y-78609819D01*
X146553381Y-78371723D01*
X146927191Y-78371723D01*
X146927191Y-78466961D01*
X146928632Y-78481593D01*
X146929663Y-78484082D01*
X146929854Y-78486770D01*
X146935109Y-78500502D01*
X146982728Y-78595741D01*
X146984268Y-78598187D01*
X146984653Y-78599342D01*
X146985899Y-78600779D01*
X146990560Y-78608183D01*
X146997662Y-78614342D01*
X147003826Y-78621450D01*
X147011231Y-78626111D01*
X147012668Y-78627357D01*
X147013821Y-78627741D01*
X147016269Y-78629282D01*
X147111507Y-78676901D01*
X147125238Y-78682156D01*
X147127927Y-78682347D01*
X147130416Y-78683378D01*
X147145048Y-78684819D01*
X147383143Y-78684819D01*
X147397775Y-78683378D01*
X147400264Y-78682346D01*
X147402952Y-78682156D01*
X147416684Y-78676901D01*
X147433184Y-78668650D01*
X147436713Y-78672179D01*
X147463749Y-78683378D01*
X147493013Y-78683378D01*
X147520049Y-78672179D01*
X147540741Y-78651487D01*
X147551940Y-78624451D01*
X147553381Y-78609819D01*
X147553381Y-78133628D01*
X147831953Y-78133628D01*
X147831953Y-78419342D01*
X147833394Y-78433974D01*
X147834425Y-78436463D01*
X147834616Y-78439151D01*
X147839871Y-78452883D01*
X147887490Y-78548121D01*
X147891453Y-78554417D01*
X147892211Y-78556247D01*
X147893900Y-78558305D01*
X147895322Y-78560564D01*
X147896820Y-78561863D01*
X147901538Y-78567612D01*
X147949157Y-78615232D01*
X147954906Y-78619950D01*
X147956207Y-78621450D01*
X147958466Y-78622872D01*
X147960523Y-78624560D01*
X147962350Y-78625317D01*
X147968650Y-78629282D01*
X148063888Y-78676901D01*
X148077619Y-78682156D01*
X148080308Y-78682347D01*
X148082797Y-78683378D01*
X148097429Y-78684819D01*
X148287905Y-78684819D01*
X148302537Y-78683378D01*
X148305026Y-78682346D01*
X148307714Y-78682156D01*
X148321446Y-78676901D01*
X148416684Y-78629282D01*
X148429127Y-78621450D01*
X148448300Y-78599342D01*
X148457554Y-78571581D01*
X148455480Y-78542391D01*
X148442392Y-78516216D01*
X148420285Y-78497043D01*
X148392523Y-78487789D01*
X148363333Y-78489863D01*
X148349602Y-78495118D01*
X148270200Y-78534819D01*
X148115134Y-78534819D01*
X148046618Y-78500561D01*
X148016211Y-78470153D01*
X147981953Y-78401637D01*
X147981953Y-78151333D01*
X148014615Y-78086009D01*
X148689096Y-78086009D01*
X148689096Y-78466961D01*
X148690537Y-78481593D01*
X148691568Y-78484082D01*
X148691759Y-78486770D01*
X148697014Y-78500502D01*
X148744633Y-78595741D01*
X148746173Y-78598187D01*
X148746558Y-78599342D01*
X148747804Y-78600779D01*
X148752465Y-78608183D01*
X148759567Y-78614342D01*
X148765731Y-78621450D01*
X148773136Y-78626111D01*
X148774573Y-78627357D01*
X148775726Y-78627741D01*
X148778174Y-78629282D01*
X148873412Y-78676901D01*
X148887143Y-78682156D01*
X148889832Y-78682347D01*
X148892321Y-78683378D01*
X148906953Y-78684819D01*
X149097429Y-78684819D01*
X149112061Y-78683378D01*
X149114550Y-78682346D01*
X149117238Y-78682156D01*
X149130970Y-78676901D01*
X149226208Y-78629282D01*
X149238651Y-78621450D01*
X149257824Y-78599342D01*
X149267078Y-78571581D01*
X149265004Y-78542391D01*
X149251916Y-78516216D01*
X149229809Y-78497043D01*
X149202047Y-78487789D01*
X149172857Y-78489863D01*
X149159126Y-78495118D01*
X149079724Y-78534819D01*
X148924658Y-78534819D01*
X148867616Y-78506298D01*
X148839096Y-78449256D01*
X148839096Y-78337970D01*
X149254994Y-78254791D01*
X149269060Y-78250508D01*
X149275165Y-78246419D01*
X149281954Y-78243607D01*
X149287206Y-78238354D01*
X149293374Y-78234224D01*
X149297448Y-78228113D01*
X149302646Y-78222915D01*
X149305489Y-78216051D01*
X149309606Y-78209876D01*
X149311031Y-78202670D01*
X149313845Y-78195879D01*
X149315286Y-78181247D01*
X149315286Y-78086009D01*
X149313845Y-78071377D01*
X149312814Y-78068888D01*
X149312623Y-78066199D01*
X149307368Y-78052468D01*
X149259749Y-77957230D01*
X149258208Y-77954782D01*
X149257824Y-77953629D01*
X149256578Y-77952192D01*
X149251917Y-77944787D01*
X149244812Y-77938625D01*
X149238651Y-77931521D01*
X149231245Y-77926859D01*
X149229809Y-77925614D01*
X149228655Y-77925229D01*
X149226208Y-77923689D01*
X149130970Y-77876070D01*
X149117238Y-77870815D01*
X149114550Y-77870624D01*
X149112061Y-77869593D01*
X149097429Y-77868152D01*
X148906953Y-77868152D01*
X148892321Y-77869593D01*
X148889832Y-77870623D01*
X148887143Y-77870815D01*
X148873412Y-77876070D01*
X148778174Y-77923689D01*
X148775726Y-77925229D01*
X148774573Y-77925614D01*
X148773136Y-77926859D01*
X148765731Y-77931521D01*
X148759569Y-77938625D01*
X148752465Y-77944787D01*
X148747803Y-77952192D01*
X148746558Y-77953629D01*
X148746173Y-77954782D01*
X148744633Y-77957230D01*
X148697014Y-78052468D01*
X148691759Y-78066200D01*
X148691568Y-78068887D01*
X148690537Y-78071377D01*
X148689096Y-78086009D01*
X148014615Y-78086009D01*
X148016211Y-78082817D01*
X148046618Y-78052410D01*
X148115134Y-78018152D01*
X148270200Y-78018152D01*
X148349602Y-78057853D01*
X148363333Y-78063108D01*
X148392523Y-78065182D01*
X148420285Y-78055928D01*
X148442392Y-78036755D01*
X148455480Y-78010580D01*
X148457554Y-77981390D01*
X148448300Y-77953629D01*
X148429127Y-77931521D01*
X148416684Y-77923689D01*
X148321446Y-77876070D01*
X148307714Y-77870815D01*
X148305026Y-77870624D01*
X148302537Y-77869593D01*
X148287905Y-77868152D01*
X148097429Y-77868152D01*
X148082797Y-77869593D01*
X148080308Y-77870623D01*
X148077619Y-77870815D01*
X148063888Y-77876070D01*
X147968650Y-77923689D01*
X147962350Y-77927653D01*
X147960523Y-77928411D01*
X147958466Y-77930099D01*
X147956207Y-77931521D01*
X147954907Y-77933019D01*
X147949158Y-77937738D01*
X147901539Y-77985357D01*
X147896820Y-77991106D01*
X147895322Y-77992406D01*
X147893900Y-77994665D01*
X147892212Y-77996722D01*
X147891454Y-77998549D01*
X147887490Y-78004849D01*
X147839871Y-78100087D01*
X147834616Y-78113819D01*
X147834425Y-78116506D01*
X147833394Y-78118996D01*
X147831953Y-78133628D01*
X147553381Y-78133628D01*
X147553381Y-78086009D01*
X147551940Y-78071377D01*
X147550909Y-78068888D01*
X147550718Y-78066199D01*
X147545463Y-78052468D01*
X147497844Y-77957230D01*
X147496303Y-77954782D01*
X147495919Y-77953629D01*
X147494673Y-77952192D01*
X147490012Y-77944787D01*
X147482907Y-77938625D01*
X147476746Y-77931521D01*
X147469340Y-77926859D01*
X147467904Y-77925614D01*
X147466750Y-77925229D01*
X147464303Y-77923689D01*
X147369065Y-77876070D01*
X147355333Y-77870815D01*
X147352645Y-77870624D01*
X147350156Y-77869593D01*
X147335524Y-77868152D01*
X147145048Y-77868152D01*
X147130416Y-77869593D01*
X147127927Y-77870623D01*
X147125238Y-77870815D01*
X147111507Y-77876070D01*
X147016269Y-77923689D01*
X147003826Y-77931521D01*
X146984653Y-77953629D01*
X146975399Y-77981390D01*
X146977473Y-78010580D01*
X146990560Y-78036755D01*
X147012668Y-78055928D01*
X147040429Y-78065182D01*
X147069619Y-78063108D01*
X147083351Y-78057853D01*
X147162753Y-78018152D01*
X147317819Y-78018152D01*
X147374860Y-78046672D01*
X147403381Y-78103714D01*
X147403381Y-78134894D01*
X147365438Y-78153866D01*
X147145048Y-78153866D01*
X147130416Y-78155307D01*
X147127927Y-78156337D01*
X147125238Y-78156529D01*
X147111507Y-78161784D01*
X147016269Y-78209403D01*
X147013821Y-78210943D01*
X147012668Y-78211328D01*
X147011231Y-78212573D01*
X147003826Y-78217235D01*
X146997664Y-78224339D01*
X146990560Y-78230501D01*
X146985898Y-78237906D01*
X146984653Y-78239343D01*
X146984268Y-78240496D01*
X146982728Y-78242944D01*
X146935109Y-78338182D01*
X146929854Y-78351914D01*
X146929663Y-78354601D01*
X146928632Y-78357091D01*
X146927191Y-78371723D01*
X146553381Y-78371723D01*
X146553381Y-78018152D01*
X146716476Y-78018152D01*
X146731108Y-78016711D01*
X146758144Y-78005512D01*
X146778836Y-77984820D01*
X146790035Y-77957784D01*
X146790035Y-77928520D01*
X146778836Y-77901484D01*
X146758144Y-77880792D01*
X146731108Y-77869593D01*
X146716476Y-77868152D01*
X146553381Y-77868152D01*
X146553381Y-77770381D01*
X146581901Y-77713339D01*
X146638943Y-77684819D01*
X146716476Y-77684819D01*
X146731108Y-77683378D01*
X146758144Y-77672179D01*
X146778836Y-77651487D01*
X146790035Y-77624451D01*
X146790035Y-77595187D01*
X146778836Y-77568151D01*
X146758144Y-77547459D01*
X146731108Y-77536260D01*
X146716476Y-77534819D01*
X146621238Y-77534819D01*
X146606606Y-77536260D01*
X146604117Y-77537290D01*
X146601428Y-77537482D01*
X146587697Y-77542737D01*
X146492459Y-77590356D01*
X146490011Y-77591896D01*
X146488858Y-77592281D01*
X146487421Y-77593526D01*
X146480016Y-77598188D01*
X146473854Y-77605292D01*
X146466750Y-77611454D01*
X146462088Y-77618859D01*
X146460843Y-77620296D01*
X146460458Y-77621449D01*
X146458918Y-77623897D01*
X146411299Y-77719135D01*
X146406044Y-77732867D01*
X146405853Y-77735554D01*
X146404822Y-77738044D01*
X146403381Y-77752676D01*
X146403381Y-77868152D01*
X146335524Y-77868152D01*
X146320892Y-77869593D01*
X146293856Y-77880792D01*
X146273164Y-77901484D01*
X146261965Y-77928520D01*
X146218606Y-77928520D01*
X146207407Y-77901484D01*
X146186715Y-77880792D01*
X146159679Y-77869593D01*
X146145047Y-77868152D01*
X146049809Y-77868152D01*
X146035177Y-77869593D01*
X146032688Y-77870623D01*
X146029999Y-77870815D01*
X146016268Y-77876070D01*
X145929198Y-77919604D01*
X145921693Y-77901484D01*
X145901001Y-77880792D01*
X145873965Y-77869593D01*
X145844701Y-77869593D01*
X145817665Y-77880792D01*
X145796973Y-77901484D01*
X145785774Y-77928520D01*
X145784333Y-77943152D01*
X145440507Y-77943152D01*
X145435287Y-77938625D01*
X145429126Y-77931521D01*
X145421720Y-77926859D01*
X145420284Y-77925614D01*
X145419130Y-77925229D01*
X145416683Y-77923689D01*
X145321445Y-77876070D01*
X145307713Y-77870815D01*
X145305025Y-77870624D01*
X145302536Y-77869593D01*
X145287904Y-77868152D01*
X145097428Y-77868152D01*
X145082796Y-77869593D01*
X145080307Y-77870623D01*
X145077618Y-77870815D01*
X145063887Y-77876070D01*
X144968649Y-77923689D01*
X144966201Y-77925229D01*
X144965048Y-77925614D01*
X144963611Y-77926859D01*
X144956206Y-77931521D01*
X144950044Y-77938625D01*
X144942940Y-77944787D01*
X144938278Y-77952192D01*
X144937033Y-77953629D01*
X144936648Y-77954782D01*
X144935108Y-77957230D01*
X144887489Y-78052468D01*
X144882234Y-78066200D01*
X144882043Y-78068887D01*
X144881012Y-78071377D01*
X144879571Y-78086009D01*
X144505761Y-78086009D01*
X144505761Y-78018152D01*
X144668856Y-78018152D01*
X144683488Y-78016711D01*
X144710524Y-78005512D01*
X144731216Y-77984820D01*
X144742415Y-77957784D01*
X144742415Y-77928520D01*
X144731216Y-77901484D01*
X144710524Y-77880792D01*
X144683488Y-77869593D01*
X144668856Y-77868152D01*
X144505761Y-77868152D01*
X144505761Y-77609819D01*
X144504320Y-77595187D01*
X144493121Y-77568151D01*
X144472429Y-77547459D01*
X144445393Y-77536260D01*
X144416129Y-77536260D01*
X144389093Y-77547459D01*
X144368401Y-77568151D01*
X144357202Y-77595187D01*
X144355761Y-77609819D01*
X144355761Y-77868152D01*
X144287904Y-77868152D01*
X144273272Y-77869593D01*
X144246236Y-77880792D01*
X144225544Y-77901484D01*
X144214345Y-77928520D01*
X143948168Y-77928520D01*
X143945529Y-77926859D01*
X143944093Y-77925614D01*
X143942939Y-77925229D01*
X143940492Y-77923689D01*
X143845254Y-77876070D01*
X143831522Y-77870815D01*
X143828834Y-77870624D01*
X143826345Y-77869593D01*
X143811713Y-77868152D01*
X143668856Y-77868152D01*
X143654224Y-77869593D01*
X143651735Y-77870623D01*
X143649046Y-77870815D01*
X143635315Y-77876070D01*
X143587068Y-77900193D01*
X143567667Y-77880792D01*
X143540631Y-77869593D01*
X143511367Y-77869593D01*
X143484331Y-77880792D01*
X143463639Y-77901484D01*
X143452440Y-77928520D01*
X143450999Y-77943152D01*
X143124809Y-77943152D01*
X143124809Y-77609819D01*
X143123368Y-77595187D01*
X143112169Y-77568151D01*
X143091477Y-77547459D01*
X143064441Y-77536260D01*
X143035177Y-77536260D01*
X143008141Y-77547459D01*
X142987449Y-77568151D01*
X142976250Y-77595187D01*
X142974809Y-77609819D01*
X141822541Y-77609819D01*
X141817127Y-77604405D01*
X141811377Y-77599686D01*
X141810078Y-77598188D01*
X141807818Y-77596766D01*
X141805762Y-77595078D01*
X141803934Y-77594320D01*
X141797635Y-77590356D01*
X141702397Y-77542737D01*
X141688665Y-77537482D01*
X141685977Y-77537291D01*
X141683488Y-77536260D01*
X141668856Y-77534819D01*
X141287904Y-77534819D01*
X141273272Y-77536260D01*
X141246236Y-77547459D01*
X141225544Y-77568151D01*
X141214345Y-77595187D01*
X141212904Y-77609819D01*
X140916695Y-77609819D01*
X140896474Y-77592281D01*
X140883049Y-77586287D01*
X140740192Y-77538668D01*
X140732938Y-77537018D01*
X140731107Y-77536260D01*
X140728452Y-77535998D01*
X140725855Y-77535408D01*
X140723880Y-77535548D01*
X140716475Y-77534819D01*
X140478380Y-77534819D01*
X140463748Y-77536260D01*
X140461259Y-77537290D01*
X140458570Y-77537482D01*
X140444839Y-77542737D01*
X140349601Y-77590356D01*
X140343301Y-77594320D01*
X140341474Y-77595078D01*
X140339417Y-77596766D01*
X140337158Y-77598188D01*
X140335858Y-77599686D01*
X140330109Y-77604405D01*
X140282490Y-77652024D01*
X140277771Y-77657773D01*
X140276273Y-77659073D01*
X140274851Y-77661332D01*
X140273163Y-77663389D01*
X140272405Y-77665216D01*
X140268441Y-77671516D01*
X140220822Y-77766754D01*
X140215567Y-77780486D01*
X140215376Y-77783173D01*
X140214345Y-77785663D01*
X140212904Y-77800295D01*
X139934333Y-77800295D01*
X139934333Y-77609819D01*
X139932892Y-77595187D01*
X139921693Y-77568151D01*
X139901001Y-77547459D01*
X139873965Y-77536260D01*
X139844701Y-77536260D01*
X139817665Y-77547459D01*
X139796973Y-77568151D01*
X139785774Y-77595187D01*
X139784333Y-77609819D01*
X139673222Y-77609819D01*
X139673222Y-77423708D01*
X149426397Y-77423708D01*
X149426397Y-78795930D01*
G37*
G36*
X113821893Y-68978955D02*
G01*
X113355611Y-68978955D01*
X113355611Y-68642047D01*
X113466722Y-68642047D01*
X113467388Y-68651428D01*
X113466722Y-68660809D01*
X113468416Y-68665891D01*
X113468796Y-68671237D01*
X113474051Y-68684969D01*
X113521670Y-68780207D01*
X113525634Y-68786506D01*
X113526392Y-68788334D01*
X113528080Y-68790390D01*
X113529502Y-68792650D01*
X113531000Y-68793949D01*
X113535719Y-68799699D01*
X113583338Y-68847318D01*
X113594703Y-68856645D01*
X113621739Y-68867844D01*
X113651002Y-68867844D01*
X113678038Y-68856645D01*
X113698731Y-68835952D01*
X113709930Y-68808916D01*
X113709930Y-68779653D01*
X113698731Y-68752617D01*
X113689404Y-68741252D01*
X113650391Y-68702239D01*
X113624985Y-68651428D01*
X113703453Y-68494493D01*
X113708708Y-68480761D01*
X113709087Y-68475414D01*
X113710782Y-68470332D01*
X113710115Y-68460951D01*
X113710782Y-68451571D01*
X113709087Y-68446488D01*
X113708708Y-68441142D01*
X113703453Y-68427411D01*
X113655834Y-68332173D01*
X113651869Y-68325873D01*
X113651112Y-68324046D01*
X113649423Y-68321989D01*
X113648002Y-68319730D01*
X113646503Y-68318430D01*
X113641785Y-68312681D01*
X113594166Y-68265062D01*
X113582801Y-68255735D01*
X113555764Y-68244536D01*
X113526502Y-68244536D01*
X113499465Y-68255735D01*
X113478773Y-68276427D01*
X113467574Y-68303464D01*
X113467574Y-68332726D01*
X113478773Y-68359763D01*
X113488100Y-68371128D01*
X113527113Y-68410141D01*
X113552518Y-68460952D01*
X113474051Y-68617887D01*
X113468796Y-68631619D01*
X113468416Y-68636964D01*
X113466722Y-68642047D01*
X113355611Y-68642047D01*
X113355611Y-68133425D01*
X113821893Y-68133425D01*
X113821893Y-68978955D01*
G37*
X117625905Y-74114819D02*
X117625905Y-73114819D01*
X117625905Y-73114819D02*
X117864000Y-73114819D01*
X117864000Y-73114819D02*
X118006857Y-73162438D01*
X118006857Y-73162438D02*
X118102095Y-73257676D01*
X118102095Y-73257676D02*
X118149714Y-73352914D01*
X118149714Y-73352914D02*
X118197333Y-73543390D01*
X118197333Y-73543390D02*
X118197333Y-73686247D01*
X118197333Y-73686247D02*
X118149714Y-73876723D01*
X118149714Y-73876723D02*
X118102095Y-73971961D01*
X118102095Y-73971961D02*
X118006857Y-74067200D01*
X118006857Y-74067200D02*
X117864000Y-74114819D01*
X117864000Y-74114819D02*
X117625905Y-74114819D01*
X119054476Y-73448152D02*
X119054476Y-74114819D01*
X118816381Y-73067200D02*
X118578286Y-73781485D01*
X118578286Y-73781485D02*
X119197333Y-73781485D01*
X114038095Y-74754819D02*
X114038095Y-73754819D01*
X114609523Y-74754819D02*
X114180952Y-74183390D01*
X114609523Y-73754819D02*
X114038095Y-74326247D01*
X127454819Y-60618666D02*
X126978628Y-60951999D01*
X127454819Y-61190094D02*
X126454819Y-61190094D01*
X126454819Y-61190094D02*
X126454819Y-60809142D01*
X126454819Y-60809142D02*
X126502438Y-60713904D01*
X126502438Y-60713904D02*
X126550057Y-60666285D01*
X126550057Y-60666285D02*
X126645295Y-60618666D01*
X126645295Y-60618666D02*
X126788152Y-60618666D01*
X126788152Y-60618666D02*
X126883390Y-60666285D01*
X126883390Y-60666285D02*
X126931009Y-60713904D01*
X126931009Y-60713904D02*
X126978628Y-60809142D01*
X126978628Y-60809142D02*
X126978628Y-61190094D01*
X126550057Y-60237713D02*
X126502438Y-60190094D01*
X126502438Y-60190094D02*
X126454819Y-60094856D01*
X126454819Y-60094856D02*
X126454819Y-59856761D01*
X126454819Y-59856761D02*
X126502438Y-59761523D01*
X126502438Y-59761523D02*
X126550057Y-59713904D01*
X126550057Y-59713904D02*
X126645295Y-59666285D01*
X126645295Y-59666285D02*
X126740533Y-59666285D01*
X126740533Y-59666285D02*
X126883390Y-59713904D01*
X126883390Y-59713904D02*
X127454819Y-60285332D01*
X127454819Y-60285332D02*
X127454819Y-59666285D01*
X166834819Y-72743333D02*
X167549104Y-72743333D01*
X167549104Y-72743333D02*
X167691961Y-72790952D01*
X167691961Y-72790952D02*
X167787200Y-72886190D01*
X167787200Y-72886190D02*
X167834819Y-73029047D01*
X167834819Y-73029047D02*
X167834819Y-73124285D01*
X167834819Y-71743333D02*
X167834819Y-72314761D01*
X167834819Y-72029047D02*
X166834819Y-72029047D01*
X166834819Y-72029047D02*
X166977676Y-72124285D01*
X166977676Y-72124285D02*
X167072914Y-72219523D01*
X167072914Y-72219523D02*
X167120533Y-72314761D01*
X134414761Y-60820057D02*
X134319523Y-60772438D01*
X134319523Y-60772438D02*
X134224285Y-60677200D01*
X134224285Y-60677200D02*
X134081428Y-60534342D01*
X134081428Y-60534342D02*
X133986190Y-60486723D01*
X133986190Y-60486723D02*
X133890952Y-60486723D01*
X133938571Y-60724819D02*
X133843333Y-60677200D01*
X133843333Y-60677200D02*
X133748095Y-60581961D01*
X133748095Y-60581961D02*
X133700476Y-60391485D01*
X133700476Y-60391485D02*
X133700476Y-60058152D01*
X133700476Y-60058152D02*
X133748095Y-59867676D01*
X133748095Y-59867676D02*
X133843333Y-59772438D01*
X133843333Y-59772438D02*
X133938571Y-59724819D01*
X133938571Y-59724819D02*
X134129047Y-59724819D01*
X134129047Y-59724819D02*
X134224285Y-59772438D01*
X134224285Y-59772438D02*
X134319523Y-59867676D01*
X134319523Y-59867676D02*
X134367142Y-60058152D01*
X134367142Y-60058152D02*
X134367142Y-60391485D01*
X134367142Y-60391485D02*
X134319523Y-60581961D01*
X134319523Y-60581961D02*
X134224285Y-60677200D01*
X134224285Y-60677200D02*
X134129047Y-60724819D01*
X134129047Y-60724819D02*
X133938571Y-60724819D01*
X134748095Y-59820057D02*
X134795714Y-59772438D01*
X134795714Y-59772438D02*
X134890952Y-59724819D01*
X134890952Y-59724819D02*
X135129047Y-59724819D01*
X135129047Y-59724819D02*
X135224285Y-59772438D01*
X135224285Y-59772438D02*
X135271904Y-59820057D01*
X135271904Y-59820057D02*
X135319523Y-59915295D01*
X135319523Y-59915295D02*
X135319523Y-60010533D01*
X135319523Y-60010533D02*
X135271904Y-60153390D01*
X135271904Y-60153390D02*
X134700476Y-60724819D01*
X134700476Y-60724819D02*
X135319523Y-60724819D01*
X156718095Y-51774819D02*
X156718095Y-52584342D01*
X156718095Y-52584342D02*
X156765714Y-52679580D01*
X156765714Y-52679580D02*
X156813333Y-52727200D01*
X156813333Y-52727200D02*
X156908571Y-52774819D01*
X156908571Y-52774819D02*
X157099047Y-52774819D01*
X157099047Y-52774819D02*
X157194285Y-52727200D01*
X157194285Y-52727200D02*
X157241904Y-52679580D01*
X157241904Y-52679580D02*
X157289523Y-52584342D01*
X157289523Y-52584342D02*
X157289523Y-51774819D01*
X158289523Y-52774819D02*
X157718095Y-52774819D01*
X158003809Y-52774819D02*
X158003809Y-51774819D01*
X158003809Y-51774819D02*
X157908571Y-51917676D01*
X157908571Y-51917676D02*
X157813333Y-52012914D01*
X157813333Y-52012914D02*
X157718095Y-52060533D01*
X165824819Y-59388333D02*
X166539104Y-59388333D01*
X166539104Y-59388333D02*
X166681961Y-59435952D01*
X166681961Y-59435952D02*
X166777200Y-59531190D01*
X166777200Y-59531190D02*
X166824819Y-59674047D01*
X166824819Y-59674047D02*
X166824819Y-59769285D01*
X165920057Y-58959761D02*
X165872438Y-58912142D01*
X165872438Y-58912142D02*
X165824819Y-58816904D01*
X165824819Y-58816904D02*
X165824819Y-58578809D01*
X165824819Y-58578809D02*
X165872438Y-58483571D01*
X165872438Y-58483571D02*
X165920057Y-58435952D01*
X165920057Y-58435952D02*
X166015295Y-58388333D01*
X166015295Y-58388333D02*
X166110533Y-58388333D01*
X166110533Y-58388333D02*
X166253390Y-58435952D01*
X166253390Y-58435952D02*
X166824819Y-59007380D01*
X166824819Y-59007380D02*
X166824819Y-58388333D01*
X152874819Y-72723333D02*
X153589104Y-72723333D01*
X153589104Y-72723333D02*
X153731961Y-72770952D01*
X153731961Y-72770952D02*
X153827200Y-72866190D01*
X153827200Y-72866190D02*
X153874819Y-73009047D01*
X153874819Y-73009047D02*
X153874819Y-73104285D01*
X153208152Y-71818571D02*
X153874819Y-71818571D01*
X152827200Y-72056666D02*
X153541485Y-72294761D01*
X153541485Y-72294761D02*
X153541485Y-71675714D01*
X127454819Y-68746666D02*
X126978628Y-69079999D01*
X127454819Y-69318094D02*
X126454819Y-69318094D01*
X126454819Y-69318094D02*
X126454819Y-68937142D01*
X126454819Y-68937142D02*
X126502438Y-68841904D01*
X126502438Y-68841904D02*
X126550057Y-68794285D01*
X126550057Y-68794285D02*
X126645295Y-68746666D01*
X126645295Y-68746666D02*
X126788152Y-68746666D01*
X126788152Y-68746666D02*
X126883390Y-68794285D01*
X126883390Y-68794285D02*
X126931009Y-68841904D01*
X126931009Y-68841904D02*
X126978628Y-68937142D01*
X126978628Y-68937142D02*
X126978628Y-69318094D01*
X127454819Y-67794285D02*
X127454819Y-68365713D01*
X127454819Y-68079999D02*
X126454819Y-68079999D01*
X126454819Y-68079999D02*
X126597676Y-68175237D01*
X126597676Y-68175237D02*
X126692914Y-68270475D01*
X126692914Y-68270475D02*
X126740533Y-68365713D01*
X153870819Y-66206666D02*
X153394628Y-66539999D01*
X153870819Y-66778094D02*
X152870819Y-66778094D01*
X152870819Y-66778094D02*
X152870819Y-66397142D01*
X152870819Y-66397142D02*
X152918438Y-66301904D01*
X152918438Y-66301904D02*
X152966057Y-66254285D01*
X152966057Y-66254285D02*
X153061295Y-66206666D01*
X153061295Y-66206666D02*
X153204152Y-66206666D01*
X153204152Y-66206666D02*
X153299390Y-66254285D01*
X153299390Y-66254285D02*
X153347009Y-66301904D01*
X153347009Y-66301904D02*
X153394628Y-66397142D01*
X153394628Y-66397142D02*
X153394628Y-66778094D01*
X152870819Y-65873332D02*
X152870819Y-65254285D01*
X152870819Y-65254285D02*
X153251771Y-65587618D01*
X153251771Y-65587618D02*
X153251771Y-65444761D01*
X153251771Y-65444761D02*
X153299390Y-65349523D01*
X153299390Y-65349523D02*
X153347009Y-65301904D01*
X153347009Y-65301904D02*
X153442247Y-65254285D01*
X153442247Y-65254285D02*
X153680342Y-65254285D01*
X153680342Y-65254285D02*
X153775580Y-65301904D01*
X153775580Y-65301904D02*
X153823200Y-65349523D01*
X153823200Y-65349523D02*
X153870819Y-65444761D01*
X153870819Y-65444761D02*
X153870819Y-65730475D01*
X153870819Y-65730475D02*
X153823200Y-65825713D01*
X153823200Y-65825713D02*
X153775580Y-65873332D01*
X151661905Y-61414819D02*
X151661905Y-60414819D01*
X151661905Y-60414819D02*
X151900000Y-60414819D01*
X151900000Y-60414819D02*
X152042857Y-60462438D01*
X152042857Y-60462438D02*
X152138095Y-60557676D01*
X152138095Y-60557676D02*
X152185714Y-60652914D01*
X152185714Y-60652914D02*
X152233333Y-60843390D01*
X152233333Y-60843390D02*
X152233333Y-60986247D01*
X152233333Y-60986247D02*
X152185714Y-61176723D01*
X152185714Y-61176723D02*
X152138095Y-61271961D01*
X152138095Y-61271961D02*
X152042857Y-61367200D01*
X152042857Y-61367200D02*
X151900000Y-61414819D01*
X151900000Y-61414819D02*
X151661905Y-61414819D01*
X153138095Y-60414819D02*
X152661905Y-60414819D01*
X152661905Y-60414819D02*
X152614286Y-60891009D01*
X152614286Y-60891009D02*
X152661905Y-60843390D01*
X152661905Y-60843390D02*
X152757143Y-60795771D01*
X152757143Y-60795771D02*
X152995238Y-60795771D01*
X152995238Y-60795771D02*
X153090476Y-60843390D01*
X153090476Y-60843390D02*
X153138095Y-60891009D01*
X153138095Y-60891009D02*
X153185714Y-60986247D01*
X153185714Y-60986247D02*
X153185714Y-61224342D01*
X153185714Y-61224342D02*
X153138095Y-61319580D01*
X153138095Y-61319580D02*
X153090476Y-61367200D01*
X153090476Y-61367200D02*
X152995238Y-61414819D01*
X152995238Y-61414819D02*
X152757143Y-61414819D01*
X152757143Y-61414819D02*
X152661905Y-61367200D01*
X152661905Y-61367200D02*
X152614286Y-61319580D01*
X154678095Y-59214819D02*
X154678095Y-58214819D01*
X155249523Y-59214819D02*
X154820952Y-58643390D01*
X155249523Y-58214819D02*
X154678095Y-58786247D01*
X157384761Y-71670057D02*
X157289523Y-71622438D01*
X157289523Y-71622438D02*
X157194285Y-71527200D01*
X157194285Y-71527200D02*
X157051428Y-71384342D01*
X157051428Y-71384342D02*
X156956190Y-71336723D01*
X156956190Y-71336723D02*
X156860952Y-71336723D01*
X156908571Y-71574819D02*
X156813333Y-71527200D01*
X156813333Y-71527200D02*
X156718095Y-71431961D01*
X156718095Y-71431961D02*
X156670476Y-71241485D01*
X156670476Y-71241485D02*
X156670476Y-70908152D01*
X156670476Y-70908152D02*
X156718095Y-70717676D01*
X156718095Y-70717676D02*
X156813333Y-70622438D01*
X156813333Y-70622438D02*
X156908571Y-70574819D01*
X156908571Y-70574819D02*
X157099047Y-70574819D01*
X157099047Y-70574819D02*
X157194285Y-70622438D01*
X157194285Y-70622438D02*
X157289523Y-70717676D01*
X157289523Y-70717676D02*
X157337142Y-70908152D01*
X157337142Y-70908152D02*
X157337142Y-71241485D01*
X157337142Y-71241485D02*
X157289523Y-71431961D01*
X157289523Y-71431961D02*
X157194285Y-71527200D01*
X157194285Y-71527200D02*
X157099047Y-71574819D01*
X157099047Y-71574819D02*
X156908571Y-71574819D01*
X157670476Y-70574819D02*
X158289523Y-70574819D01*
X158289523Y-70574819D02*
X157956190Y-70955771D01*
X157956190Y-70955771D02*
X158099047Y-70955771D01*
X158099047Y-70955771D02*
X158194285Y-71003390D01*
X158194285Y-71003390D02*
X158241904Y-71051009D01*
X158241904Y-71051009D02*
X158289523Y-71146247D01*
X158289523Y-71146247D02*
X158289523Y-71384342D01*
X158289523Y-71384342D02*
X158241904Y-71479580D01*
X158241904Y-71479580D02*
X158194285Y-71527200D01*
X158194285Y-71527200D02*
X158099047Y-71574819D01*
X158099047Y-71574819D02*
X157813333Y-71574819D01*
X157813333Y-71574819D02*
X157718095Y-71527200D01*
X157718095Y-71527200D02*
X157670476Y-71479580D01*
X172299333Y-65732819D02*
X171966000Y-65256628D01*
X171727905Y-65732819D02*
X171727905Y-64732819D01*
X171727905Y-64732819D02*
X172108857Y-64732819D01*
X172108857Y-64732819D02*
X172204095Y-64780438D01*
X172204095Y-64780438D02*
X172251714Y-64828057D01*
X172251714Y-64828057D02*
X172299333Y-64923295D01*
X172299333Y-64923295D02*
X172299333Y-65066152D01*
X172299333Y-65066152D02*
X172251714Y-65161390D01*
X172251714Y-65161390D02*
X172204095Y-65209009D01*
X172204095Y-65209009D02*
X172108857Y-65256628D01*
X172108857Y-65256628D02*
X171727905Y-65256628D01*
X173204095Y-64732819D02*
X172727905Y-64732819D01*
X172727905Y-64732819D02*
X172680286Y-65209009D01*
X172680286Y-65209009D02*
X172727905Y-65161390D01*
X172727905Y-65161390D02*
X172823143Y-65113771D01*
X172823143Y-65113771D02*
X173061238Y-65113771D01*
X173061238Y-65113771D02*
X173156476Y-65161390D01*
X173156476Y-65161390D02*
X173204095Y-65209009D01*
X173204095Y-65209009D02*
X173251714Y-65304247D01*
X173251714Y-65304247D02*
X173251714Y-65542342D01*
X173251714Y-65542342D02*
X173204095Y-65637580D01*
X173204095Y-65637580D02*
X173156476Y-65685200D01*
X173156476Y-65685200D02*
X173061238Y-65732819D01*
X173061238Y-65732819D02*
X172823143Y-65732819D01*
X172823143Y-65732819D02*
X172727905Y-65685200D01*
X172727905Y-65685200D02*
X172680286Y-65637580D01*
X152233333Y-58271580D02*
X152185714Y-58319200D01*
X152185714Y-58319200D02*
X152042857Y-58366819D01*
X152042857Y-58366819D02*
X151947619Y-58366819D01*
X151947619Y-58366819D02*
X151804762Y-58319200D01*
X151804762Y-58319200D02*
X151709524Y-58223961D01*
X151709524Y-58223961D02*
X151661905Y-58128723D01*
X151661905Y-58128723D02*
X151614286Y-57938247D01*
X151614286Y-57938247D02*
X151614286Y-57795390D01*
X151614286Y-57795390D02*
X151661905Y-57604914D01*
X151661905Y-57604914D02*
X151709524Y-57509676D01*
X151709524Y-57509676D02*
X151804762Y-57414438D01*
X151804762Y-57414438D02*
X151947619Y-57366819D01*
X151947619Y-57366819D02*
X152042857Y-57366819D01*
X152042857Y-57366819D02*
X152185714Y-57414438D01*
X152185714Y-57414438D02*
X152233333Y-57462057D01*
X152614286Y-57462057D02*
X152661905Y-57414438D01*
X152661905Y-57414438D02*
X152757143Y-57366819D01*
X152757143Y-57366819D02*
X152995238Y-57366819D01*
X152995238Y-57366819D02*
X153090476Y-57414438D01*
X153090476Y-57414438D02*
X153138095Y-57462057D01*
X153138095Y-57462057D02*
X153185714Y-57557295D01*
X153185714Y-57557295D02*
X153185714Y-57652533D01*
X153185714Y-57652533D02*
X153138095Y-57795390D01*
X153138095Y-57795390D02*
X152566667Y-58366819D01*
X152566667Y-58366819D02*
X153185714Y-58366819D01*
X117625905Y-56334819D02*
X117625905Y-55334819D01*
X117625905Y-55334819D02*
X117864000Y-55334819D01*
X117864000Y-55334819D02*
X118006857Y-55382438D01*
X118006857Y-55382438D02*
X118102095Y-55477676D01*
X118102095Y-55477676D02*
X118149714Y-55572914D01*
X118149714Y-55572914D02*
X118197333Y-55763390D01*
X118197333Y-55763390D02*
X118197333Y-55906247D01*
X118197333Y-55906247D02*
X118149714Y-56096723D01*
X118149714Y-56096723D02*
X118102095Y-56191961D01*
X118102095Y-56191961D02*
X118006857Y-56287200D01*
X118006857Y-56287200D02*
X117864000Y-56334819D01*
X117864000Y-56334819D02*
X117625905Y-56334819D01*
X118578286Y-55430057D02*
X118625905Y-55382438D01*
X118625905Y-55382438D02*
X118721143Y-55334819D01*
X118721143Y-55334819D02*
X118959238Y-55334819D01*
X118959238Y-55334819D02*
X119054476Y-55382438D01*
X119054476Y-55382438D02*
X119102095Y-55430057D01*
X119102095Y-55430057D02*
X119149714Y-55525295D01*
X119149714Y-55525295D02*
X119149714Y-55620533D01*
X119149714Y-55620533D02*
X119102095Y-55763390D01*
X119102095Y-55763390D02*
X118530667Y-56334819D01*
X118530667Y-56334819D02*
X119149714Y-56334819D01*
X114038095Y-51894819D02*
X114038095Y-50894819D01*
X114609523Y-51894819D02*
X114180952Y-51323390D01*
X114609523Y-50894819D02*
X114038095Y-51466247D01*
X117625905Y-61414819D02*
X117625905Y-60414819D01*
X117625905Y-60414819D02*
X117864000Y-60414819D01*
X117864000Y-60414819D02*
X118006857Y-60462438D01*
X118006857Y-60462438D02*
X118102095Y-60557676D01*
X118102095Y-60557676D02*
X118149714Y-60652914D01*
X118149714Y-60652914D02*
X118197333Y-60843390D01*
X118197333Y-60843390D02*
X118197333Y-60986247D01*
X118197333Y-60986247D02*
X118149714Y-61176723D01*
X118149714Y-61176723D02*
X118102095Y-61271961D01*
X118102095Y-61271961D02*
X118006857Y-61367200D01*
X118006857Y-61367200D02*
X117864000Y-61414819D01*
X117864000Y-61414819D02*
X117625905Y-61414819D01*
X119149714Y-61414819D02*
X118578286Y-61414819D01*
X118864000Y-61414819D02*
X118864000Y-60414819D01*
X118864000Y-60414819D02*
X118768762Y-60557676D01*
X118768762Y-60557676D02*
X118673524Y-60652914D01*
X118673524Y-60652914D02*
X118578286Y-60700533D01*
X121658095Y-60774819D02*
X121658095Y-59774819D01*
X122229523Y-60774819D02*
X121800952Y-60203390D01*
X122229523Y-59774819D02*
X121658095Y-60346247D01*
X126873095Y-64224819D02*
X126873095Y-65034342D01*
X126873095Y-65034342D02*
X126920714Y-65129580D01*
X126920714Y-65129580D02*
X126968333Y-65177200D01*
X126968333Y-65177200D02*
X127063571Y-65224819D01*
X127063571Y-65224819D02*
X127254047Y-65224819D01*
X127254047Y-65224819D02*
X127349285Y-65177200D01*
X127349285Y-65177200D02*
X127396904Y-65129580D01*
X127396904Y-65129580D02*
X127444523Y-65034342D01*
X127444523Y-65034342D02*
X127444523Y-64224819D01*
X127873095Y-64320057D02*
X127920714Y-64272438D01*
X127920714Y-64272438D02*
X128015952Y-64224819D01*
X128015952Y-64224819D02*
X128254047Y-64224819D01*
X128254047Y-64224819D02*
X128349285Y-64272438D01*
X128349285Y-64272438D02*
X128396904Y-64320057D01*
X128396904Y-64320057D02*
X128444523Y-64415295D01*
X128444523Y-64415295D02*
X128444523Y-64510533D01*
X128444523Y-64510533D02*
X128396904Y-64653390D01*
X128396904Y-64653390D02*
X127825476Y-65224819D01*
X127825476Y-65224819D02*
X128444523Y-65224819D01*
X137033095Y-59144819D02*
X137033095Y-59954342D01*
X137033095Y-59954342D02*
X137080714Y-60049580D01*
X137080714Y-60049580D02*
X137128333Y-60097200D01*
X137128333Y-60097200D02*
X137223571Y-60144819D01*
X137223571Y-60144819D02*
X137414047Y-60144819D01*
X137414047Y-60144819D02*
X137509285Y-60097200D01*
X137509285Y-60097200D02*
X137556904Y-60049580D01*
X137556904Y-60049580D02*
X137604523Y-59954342D01*
X137604523Y-59954342D02*
X137604523Y-59144819D01*
X137985476Y-59144819D02*
X138604523Y-59144819D01*
X138604523Y-59144819D02*
X138271190Y-59525771D01*
X138271190Y-59525771D02*
X138414047Y-59525771D01*
X138414047Y-59525771D02*
X138509285Y-59573390D01*
X138509285Y-59573390D02*
X138556904Y-59621009D01*
X138556904Y-59621009D02*
X138604523Y-59716247D01*
X138604523Y-59716247D02*
X138604523Y-59954342D01*
X138604523Y-59954342D02*
X138556904Y-60049580D01*
X138556904Y-60049580D02*
X138509285Y-60097200D01*
X138509285Y-60097200D02*
X138414047Y-60144819D01*
X138414047Y-60144819D02*
X138128333Y-60144819D01*
X138128333Y-60144819D02*
X138033095Y-60097200D01*
X138033095Y-60097200D02*
X137985476Y-60049580D01*
X117625905Y-69034819D02*
X117625905Y-68034819D01*
X117625905Y-68034819D02*
X117864000Y-68034819D01*
X117864000Y-68034819D02*
X118006857Y-68082438D01*
X118006857Y-68082438D02*
X118102095Y-68177676D01*
X118102095Y-68177676D02*
X118149714Y-68272914D01*
X118149714Y-68272914D02*
X118197333Y-68463390D01*
X118197333Y-68463390D02*
X118197333Y-68606247D01*
X118197333Y-68606247D02*
X118149714Y-68796723D01*
X118149714Y-68796723D02*
X118102095Y-68891961D01*
X118102095Y-68891961D02*
X118006857Y-68987200D01*
X118006857Y-68987200D02*
X117864000Y-69034819D01*
X117864000Y-69034819D02*
X117625905Y-69034819D01*
X118530667Y-68034819D02*
X119149714Y-68034819D01*
X119149714Y-68034819D02*
X118816381Y-68415771D01*
X118816381Y-68415771D02*
X118959238Y-68415771D01*
X118959238Y-68415771D02*
X119054476Y-68463390D01*
X119054476Y-68463390D02*
X119102095Y-68511009D01*
X119102095Y-68511009D02*
X119149714Y-68606247D01*
X119149714Y-68606247D02*
X119149714Y-68844342D01*
X119149714Y-68844342D02*
X119102095Y-68939580D01*
X119102095Y-68939580D02*
X119054476Y-68987200D01*
X119054476Y-68987200D02*
X118959238Y-69034819D01*
X118959238Y-69034819D02*
X118673524Y-69034819D01*
X118673524Y-69034819D02*
X118578286Y-68987200D01*
X118578286Y-68987200D02*
X118530667Y-68939580D01*
X121658095Y-73474819D02*
X121658095Y-72474819D01*
X122229523Y-73474819D02*
X121800952Y-72903390D01*
X122229523Y-72474819D02*
X121658095Y-73046247D01*
X120104819Y-65103333D02*
X120819104Y-65103333D01*
X120819104Y-65103333D02*
X120961961Y-65150952D01*
X120961961Y-65150952D02*
X121057200Y-65246190D01*
X121057200Y-65246190D02*
X121104819Y-65389047D01*
X121104819Y-65389047D02*
X121104819Y-65484285D01*
X120104819Y-64722380D02*
X120104819Y-64103333D01*
X120104819Y-64103333D02*
X120485771Y-64436666D01*
X120485771Y-64436666D02*
X120485771Y-64293809D01*
X120485771Y-64293809D02*
X120533390Y-64198571D01*
X120533390Y-64198571D02*
X120581009Y-64150952D01*
X120581009Y-64150952D02*
X120676247Y-64103333D01*
X120676247Y-64103333D02*
X120914342Y-64103333D01*
X120914342Y-64103333D02*
X121009580Y-64150952D01*
X121009580Y-64150952D02*
X121057200Y-64198571D01*
X121057200Y-64198571D02*
X121104819Y-64293809D01*
X121104819Y-64293809D02*
X121104819Y-64579523D01*
X121104819Y-64579523D02*
X121057200Y-64674761D01*
X121057200Y-64674761D02*
X121009580Y-64722380D01*
X129414761Y-60820057D02*
X129319523Y-60772438D01*
X129319523Y-60772438D02*
X129224285Y-60677200D01*
X129224285Y-60677200D02*
X129081428Y-60534342D01*
X129081428Y-60534342D02*
X128986190Y-60486723D01*
X128986190Y-60486723D02*
X128890952Y-60486723D01*
X128938571Y-60724819D02*
X128843333Y-60677200D01*
X128843333Y-60677200D02*
X128748095Y-60581961D01*
X128748095Y-60581961D02*
X128700476Y-60391485D01*
X128700476Y-60391485D02*
X128700476Y-60058152D01*
X128700476Y-60058152D02*
X128748095Y-59867676D01*
X128748095Y-59867676D02*
X128843333Y-59772438D01*
X128843333Y-59772438D02*
X128938571Y-59724819D01*
X128938571Y-59724819D02*
X129129047Y-59724819D01*
X129129047Y-59724819D02*
X129224285Y-59772438D01*
X129224285Y-59772438D02*
X129319523Y-59867676D01*
X129319523Y-59867676D02*
X129367142Y-60058152D01*
X129367142Y-60058152D02*
X129367142Y-60391485D01*
X129367142Y-60391485D02*
X129319523Y-60581961D01*
X129319523Y-60581961D02*
X129224285Y-60677200D01*
X129224285Y-60677200D02*
X129129047Y-60724819D01*
X129129047Y-60724819D02*
X128938571Y-60724819D01*
X130319523Y-60724819D02*
X129748095Y-60724819D01*
X130033809Y-60724819D02*
X130033809Y-59724819D01*
X130033809Y-59724819D02*
X129938571Y-59867676D01*
X129938571Y-59867676D02*
X129843333Y-59962914D01*
X129843333Y-59962914D02*
X129748095Y-60010533D01*
X130111667Y-69622200D02*
X130254524Y-69669819D01*
X130254524Y-69669819D02*
X130492619Y-69669819D01*
X130492619Y-69669819D02*
X130587857Y-69622200D01*
X130587857Y-69622200D02*
X130635476Y-69574580D01*
X130635476Y-69574580D02*
X130683095Y-69479342D01*
X130683095Y-69479342D02*
X130683095Y-69384104D01*
X130683095Y-69384104D02*
X130635476Y-69288866D01*
X130635476Y-69288866D02*
X130587857Y-69241247D01*
X130587857Y-69241247D02*
X130492619Y-69193628D01*
X130492619Y-69193628D02*
X130302143Y-69146009D01*
X130302143Y-69146009D02*
X130206905Y-69098390D01*
X130206905Y-69098390D02*
X130159286Y-69050771D01*
X130159286Y-69050771D02*
X130111667Y-68955533D01*
X130111667Y-68955533D02*
X130111667Y-68860295D01*
X130111667Y-68860295D02*
X130159286Y-68765057D01*
X130159286Y-68765057D02*
X130206905Y-68717438D01*
X130206905Y-68717438D02*
X130302143Y-68669819D01*
X130302143Y-68669819D02*
X130540238Y-68669819D01*
X130540238Y-68669819D02*
X130683095Y-68717438D01*
X131016429Y-68669819D02*
X131254524Y-69669819D01*
X131254524Y-69669819D02*
X131445000Y-68955533D01*
X131445000Y-68955533D02*
X131635476Y-69669819D01*
X131635476Y-69669819D02*
X131873572Y-68669819D01*
X132778333Y-69669819D02*
X132206905Y-69669819D01*
X132492619Y-69669819D02*
X132492619Y-68669819D01*
X132492619Y-68669819D02*
X132397381Y-68812676D01*
X132397381Y-68812676D02*
X132302143Y-68907914D01*
X132302143Y-68907914D02*
X132206905Y-68955533D01*
X153870819Y-69318094D02*
X152870819Y-69318094D01*
X152870819Y-69318094D02*
X152870819Y-69079999D01*
X152870819Y-69079999D02*
X152918438Y-68937142D01*
X152918438Y-68937142D02*
X153013676Y-68841904D01*
X153013676Y-68841904D02*
X153108914Y-68794285D01*
X153108914Y-68794285D02*
X153299390Y-68746666D01*
X153299390Y-68746666D02*
X153442247Y-68746666D01*
X153442247Y-68746666D02*
X153632723Y-68794285D01*
X153632723Y-68794285D02*
X153727961Y-68841904D01*
X153727961Y-68841904D02*
X153823200Y-68937142D01*
X153823200Y-68937142D02*
X153870819Y-69079999D01*
X153870819Y-69079999D02*
X153870819Y-69318094D01*
X152870819Y-67889523D02*
X152870819Y-68079999D01*
X152870819Y-68079999D02*
X152918438Y-68175237D01*
X152918438Y-68175237D02*
X152966057Y-68222856D01*
X152966057Y-68222856D02*
X153108914Y-68318094D01*
X153108914Y-68318094D02*
X153299390Y-68365713D01*
X153299390Y-68365713D02*
X153680342Y-68365713D01*
X153680342Y-68365713D02*
X153775580Y-68318094D01*
X153775580Y-68318094D02*
X153823200Y-68270475D01*
X153823200Y-68270475D02*
X153870819Y-68175237D01*
X153870819Y-68175237D02*
X153870819Y-67984761D01*
X153870819Y-67984761D02*
X153823200Y-67889523D01*
X153823200Y-67889523D02*
X153775580Y-67841904D01*
X153775580Y-67841904D02*
X153680342Y-67794285D01*
X153680342Y-67794285D02*
X153442247Y-67794285D01*
X153442247Y-67794285D02*
X153347009Y-67841904D01*
X153347009Y-67841904D02*
X153299390Y-67889523D01*
X153299390Y-67889523D02*
X153251771Y-67984761D01*
X153251771Y-67984761D02*
X153251771Y-68175237D01*
X153251771Y-68175237D02*
X153299390Y-68270475D01*
X153299390Y-68270475D02*
X153347009Y-68318094D01*
X153347009Y-68318094D02*
X153442247Y-68365713D01*
X164838095Y-70934819D02*
X164838095Y-69934819D01*
X165409523Y-70934819D02*
X164980952Y-70363390D01*
X165409523Y-69934819D02*
X164838095Y-70506247D01*
X137628333Y-53794819D02*
X137295000Y-53318628D01*
X137056905Y-53794819D02*
X137056905Y-52794819D01*
X137056905Y-52794819D02*
X137437857Y-52794819D01*
X137437857Y-52794819D02*
X137533095Y-52842438D01*
X137533095Y-52842438D02*
X137580714Y-52890057D01*
X137580714Y-52890057D02*
X137628333Y-52985295D01*
X137628333Y-52985295D02*
X137628333Y-53128152D01*
X137628333Y-53128152D02*
X137580714Y-53223390D01*
X137580714Y-53223390D02*
X137533095Y-53271009D01*
X137533095Y-53271009D02*
X137437857Y-53318628D01*
X137437857Y-53318628D02*
X137056905Y-53318628D01*
X138485476Y-53128152D02*
X138485476Y-53794819D01*
X138247381Y-52747200D02*
X138009286Y-53461485D01*
X138009286Y-53461485D02*
X138628333Y-53461485D01*
X163683333Y-52489580D02*
X163635714Y-52537200D01*
X163635714Y-52537200D02*
X163492857Y-52584819D01*
X163492857Y-52584819D02*
X163397619Y-52584819D01*
X163397619Y-52584819D02*
X163254762Y-52537200D01*
X163254762Y-52537200D02*
X163159524Y-52441961D01*
X163159524Y-52441961D02*
X163111905Y-52346723D01*
X163111905Y-52346723D02*
X163064286Y-52156247D01*
X163064286Y-52156247D02*
X163064286Y-52013390D01*
X163064286Y-52013390D02*
X163111905Y-51822914D01*
X163111905Y-51822914D02*
X163159524Y-51727676D01*
X163159524Y-51727676D02*
X163254762Y-51632438D01*
X163254762Y-51632438D02*
X163397619Y-51584819D01*
X163397619Y-51584819D02*
X163492857Y-51584819D01*
X163492857Y-51584819D02*
X163635714Y-51632438D01*
X163635714Y-51632438D02*
X163683333Y-51680057D01*
X164635714Y-52584819D02*
X164064286Y-52584819D01*
X164350000Y-52584819D02*
X164350000Y-51584819D01*
X164350000Y-51584819D02*
X164254762Y-51727676D01*
X164254762Y-51727676D02*
X164159524Y-51822914D01*
X164159524Y-51822914D02*
X164064286Y-51870533D01*
X137247333Y-66399580D02*
X137199714Y-66447200D01*
X137199714Y-66447200D02*
X137056857Y-66494819D01*
X137056857Y-66494819D02*
X136961619Y-66494819D01*
X136961619Y-66494819D02*
X136818762Y-66447200D01*
X136818762Y-66447200D02*
X136723524Y-66351961D01*
X136723524Y-66351961D02*
X136675905Y-66256723D01*
X136675905Y-66256723D02*
X136628286Y-66066247D01*
X136628286Y-66066247D02*
X136628286Y-65923390D01*
X136628286Y-65923390D02*
X136675905Y-65732914D01*
X136675905Y-65732914D02*
X136723524Y-65637676D01*
X136723524Y-65637676D02*
X136818762Y-65542438D01*
X136818762Y-65542438D02*
X136961619Y-65494819D01*
X136961619Y-65494819D02*
X137056857Y-65494819D01*
X137056857Y-65494819D02*
X137199714Y-65542438D01*
X137199714Y-65542438D02*
X137247333Y-65590057D01*
X137580667Y-65494819D02*
X138199714Y-65494819D01*
X138199714Y-65494819D02*
X137866381Y-65875771D01*
X137866381Y-65875771D02*
X138009238Y-65875771D01*
X138009238Y-65875771D02*
X138104476Y-65923390D01*
X138104476Y-65923390D02*
X138152095Y-65971009D01*
X138152095Y-65971009D02*
X138199714Y-66066247D01*
X138199714Y-66066247D02*
X138199714Y-66304342D01*
X138199714Y-66304342D02*
X138152095Y-66399580D01*
X138152095Y-66399580D02*
X138104476Y-66447200D01*
X138104476Y-66447200D02*
X138009238Y-66494819D01*
X138009238Y-66494819D02*
X137723524Y-66494819D01*
X137723524Y-66494819D02*
X137628286Y-66447200D01*
X137628286Y-66447200D02*
X137580667Y-66399580D01*
D12*
%TO.C,D4*%
X115390000Y-74730000D02*
X120830000Y-74730000D01*
X115390000Y-75060000D02*
X115390000Y-74730000D01*
X115390000Y-77340000D02*
X115390000Y-77670000D01*
X115390000Y-77670000D02*
X120830000Y-77670000D01*
X116170000Y-74730000D02*
X116170000Y-77670000D01*
X116290000Y-74730000D02*
X116290000Y-77670000D01*
X116410000Y-74730000D02*
X116410000Y-77670000D01*
X120830000Y-74730000D02*
X120830000Y-75060000D01*
X120830000Y-77670000D02*
X120830000Y-77340000D01*
%TO.C,R2*%
X123090000Y-55150000D02*
X123090000Y-61690000D01*
X123090000Y-61690000D02*
X125830000Y-61690000D01*
X124460000Y-54380000D02*
X124460000Y-55150000D01*
X124460000Y-62460000D02*
X124460000Y-61690000D01*
X125830000Y-55150000D02*
X123090000Y-55150000D01*
X125830000Y-61690000D02*
X125830000Y-55150000D01*
%TO.C,J1*%
X168470000Y-68550000D02*
X168470000Y-76270000D01*
X168470000Y-76270000D02*
X172490000Y-76270000D01*
X168970000Y-69050000D02*
X170180000Y-69050000D01*
X168970000Y-75770000D02*
X168970000Y-69050000D01*
X170180000Y-69050000D02*
X170180000Y-68550000D01*
X170180000Y-75770000D02*
X168970000Y-75770000D01*
X170180000Y-76270000D02*
X170180000Y-75770000D01*
X170290000Y-76570000D02*
X172790000Y-76570000D01*
X170990000Y-68550000D02*
X170990000Y-69550000D01*
X170990000Y-69550000D02*
X172490000Y-69550000D01*
X170990000Y-75270000D02*
X172490000Y-75270000D01*
X170990000Y-76270000D02*
X170990000Y-75270000D01*
X172490000Y-68550000D02*
X168470000Y-68550000D01*
X172490000Y-76270000D02*
X172490000Y-68550000D01*
X172790000Y-76570000D02*
X172790000Y-74070000D01*
%TO.C,Q2*%
X136470000Y-57680000D02*
X136470000Y-54080000D01*
X132020000Y-55880000D02*
G75*
G02*
X133521193Y-53523600I2600000J0D01*
G01*
X133521193Y-58236400D02*
G75*
G02*
X132020000Y-55880000I1098807J2356400D01*
G01*
X135742795Y-53555816D02*
G75*
G02*
X136470000Y-54080000I-1122795J-2324184D01*
G01*
X136470000Y-57680000D02*
G75*
G02*
X135742795Y-58204184I-1850000J1800000D01*
G01*
%TO.C,U1*%
X155680000Y-57730000D02*
X159280000Y-57730000D01*
X155123600Y-54781193D02*
G75*
G02*
X157480000Y-53280000I2356400J-1098807D01*
G01*
X155680000Y-57730000D02*
G75*
G02*
X155155816Y-57002795I1800000J1850000D01*
G01*
X157480000Y-53280000D02*
G75*
G02*
X159836400Y-54781193I0J-2600000D01*
G01*
X159804184Y-57002795D02*
G75*
G02*
X159280000Y-57730000I-2324184J1122795D01*
G01*
%TO.C,J2*%
X167190000Y-54500000D02*
X167190000Y-59800000D01*
X167190000Y-55880000D02*
X168190000Y-55880000D01*
X167190000Y-56130000D02*
X168190000Y-56130000D01*
X167190000Y-58170000D02*
X168190000Y-58170000D01*
X167190000Y-59800000D02*
X173210000Y-59800000D01*
X168190000Y-55880000D02*
X168190000Y-58420000D01*
X168190000Y-55880000D02*
X168720000Y-56130000D01*
X168190000Y-58420000D02*
X167190000Y-58420000D01*
X168720000Y-56130000D02*
X168720000Y-58170000D01*
X168720000Y-58170000D02*
X168190000Y-58420000D01*
X172180000Y-54210000D02*
X168180000Y-54210000D01*
X172610000Y-55080000D02*
X172610000Y-56680000D01*
X172610000Y-56680000D02*
X173210000Y-56680000D01*
X172610000Y-57620000D02*
X172610000Y-59220000D01*
X172610000Y-59220000D02*
X173210000Y-59220000D01*
X173210000Y-54500000D02*
X167190000Y-54500000D01*
X173210000Y-55080000D02*
X172610000Y-55080000D01*
X173210000Y-57620000D02*
X172610000Y-57620000D01*
X173210000Y-59800000D02*
X173210000Y-54500000D01*
%TO.C,J4*%
X137030000Y-67830000D02*
X152530000Y-67830000D01*
X137030000Y-76950000D02*
X137030000Y-67830000D01*
X138330000Y-69140000D02*
X142730000Y-69140000D01*
X138330000Y-75640000D02*
X138330000Y-69140000D01*
X142730000Y-69140000D02*
X142730000Y-67830000D01*
X142730000Y-69140000D02*
X142730000Y-69140000D01*
X146820000Y-66440000D02*
X147320000Y-67440000D01*
X146830000Y-67830000D02*
X146830000Y-69140000D01*
X146830000Y-69140000D02*
X151230000Y-69140000D01*
X147320000Y-67440000D02*
X147820000Y-66440000D01*
X147820000Y-66440000D02*
X146820000Y-66440000D01*
X151230000Y-69140000D02*
X151230000Y-75640000D01*
X151230000Y-75640000D02*
X138330000Y-75640000D01*
X152530000Y-67830000D02*
X152530000Y-76950000D01*
X152530000Y-76950000D02*
X137030000Y-76950000D01*
%TO.C,R1*%
X123090000Y-67850000D02*
X123090000Y-74390000D01*
X123090000Y-74390000D02*
X125830000Y-74390000D01*
X124460000Y-67080000D02*
X124460000Y-67850000D01*
X124460000Y-75160000D02*
X124460000Y-74390000D01*
X125830000Y-67850000D02*
X123090000Y-67850000D01*
X125830000Y-74390000D02*
X125830000Y-67850000D01*
%TO.C,R3*%
X155980000Y-66040000D02*
X156750000Y-66040000D01*
X156750000Y-64670000D02*
X156750000Y-67410000D01*
X156750000Y-67410000D02*
X163290000Y-67410000D01*
X163290000Y-64670000D02*
X156750000Y-64670000D01*
X163290000Y-67410000D02*
X163290000Y-64670000D01*
X164060000Y-66040000D02*
X163290000Y-66040000D01*
%TO.C,D5*%
X156100000Y-59040000D02*
X163940000Y-59040000D01*
X156100000Y-59520000D02*
X156100000Y-59040000D01*
X156100000Y-62400000D02*
X156100000Y-62880000D01*
X156100000Y-62880000D02*
X163940000Y-62880000D01*
X157240000Y-59040000D02*
X157240000Y-62880000D01*
X157360000Y-59040000D02*
X157360000Y-62880000D01*
X157480000Y-59040000D02*
X157480000Y-62880000D01*
X163940000Y-59040000D02*
X163940000Y-59520000D01*
X163940000Y-62880000D02*
X163940000Y-62400000D01*
%TO.C,Q3*%
X159280000Y-71810000D02*
X155680000Y-71810000D01*
X155155816Y-72537205D02*
G75*
G02*
X155680000Y-71810000I2324184J-1122795D01*
G01*
X157480000Y-76260000D02*
G75*
G02*
X155123600Y-74758807I0J2600000D01*
G01*
X159280000Y-71810000D02*
G75*
G02*
X159804184Y-72537205I-1800000J-1850000D01*
G01*
X159836400Y-74758807D02*
G75*
G02*
X157480000Y-76260000I-2356400J1098807D01*
G01*
%TO.C,R5*%
X171450000Y-64150000D02*
X171450000Y-65810000D01*
X173370000Y-62230000D02*
G75*
G02*
X169530000Y-62230000I-1920000J0D01*
G01*
X169530000Y-62230000D02*
G75*
G02*
X173370000Y-62230000I1920000J0D01*
G01*
%TO.C,C2*%
X151280000Y-52970000D02*
X151345000Y-52970000D01*
X151280000Y-56210000D02*
X151280000Y-52970000D01*
X151280000Y-56210000D02*
X151345000Y-56210000D01*
X153455000Y-52970000D02*
X153520000Y-52970000D01*
X153455000Y-56210000D02*
X153520000Y-56210000D01*
X153520000Y-56210000D02*
X153520000Y-52970000D01*
%TO.C,D2*%
X115390000Y-51870000D02*
X120830000Y-51870000D01*
X115390000Y-52200000D02*
X115390000Y-51870000D01*
X115390000Y-54480000D02*
X115390000Y-54810000D01*
X115390000Y-54810000D02*
X120830000Y-54810000D01*
X116170000Y-51870000D02*
X116170000Y-54810000D01*
X116290000Y-51870000D02*
X116290000Y-54810000D01*
X116410000Y-51870000D02*
X116410000Y-54810000D01*
X120830000Y-51870000D02*
X120830000Y-52200000D01*
X120830000Y-54810000D02*
X120830000Y-54480000D01*
%TO.C,D1*%
X115390000Y-56950000D02*
X115390000Y-57280000D01*
X115390000Y-59890000D02*
X115390000Y-59560000D01*
X119810000Y-59890000D02*
X119810000Y-56950000D01*
X119930000Y-59890000D02*
X119930000Y-56950000D01*
X120050000Y-59890000D02*
X120050000Y-56950000D01*
X120830000Y-56950000D02*
X115390000Y-56950000D01*
X120830000Y-57280000D02*
X120830000Y-56950000D01*
X120830000Y-59560000D02*
X120830000Y-59890000D01*
X120830000Y-59890000D02*
X115390000Y-59890000D01*
%TO.C,U2*%
X130700000Y-62170000D02*
X130700000Y-67370000D01*
X130700000Y-67370000D02*
X136000000Y-67370000D01*
X132350000Y-62170000D02*
X130700000Y-62170000D01*
X136000000Y-62170000D02*
X134350000Y-62170000D01*
X136000000Y-67370000D02*
X136000000Y-62170000D01*
X134350000Y-62170000D02*
G75*
G02*
X132350000Y-62170000I-1000000J0D01*
G01*
%TO.C,U3*%
X140860000Y-54550000D02*
X140860000Y-64830000D01*
X140860000Y-64830000D02*
X146160000Y-64830000D01*
X142510000Y-54550000D02*
X140860000Y-54550000D01*
X146160000Y-54550000D02*
X144510000Y-54550000D01*
X146160000Y-64830000D02*
X146160000Y-54550000D01*
X144510000Y-54550000D02*
G75*
G02*
X142510000Y-54550000I-1000000J0D01*
G01*
%TO.C,D3*%
X115390000Y-69650000D02*
X115390000Y-69980000D01*
X115390000Y-72590000D02*
X115390000Y-72260000D01*
X119810000Y-72590000D02*
X119810000Y-69650000D01*
X119930000Y-72590000D02*
X119930000Y-69650000D01*
X120050000Y-72590000D02*
X120050000Y-69650000D01*
X120830000Y-69650000D02*
X115390000Y-69650000D01*
X120830000Y-69980000D02*
X120830000Y-69650000D01*
X120830000Y-72260000D02*
X120830000Y-72590000D01*
X120830000Y-72590000D02*
X115390000Y-72590000D01*
%TO.C,J3*%
X113810000Y-62120000D02*
X113810000Y-67420000D01*
X113810000Y-64300000D02*
X114410000Y-64300000D01*
X113810000Y-66840000D02*
X114410000Y-66840000D01*
X113810000Y-67420000D02*
X119830000Y-67420000D01*
X114410000Y-62700000D02*
X113810000Y-62700000D01*
X114410000Y-64300000D02*
X114410000Y-62700000D01*
X114410000Y-65240000D02*
X113810000Y-65240000D01*
X114410000Y-66840000D02*
X114410000Y-65240000D01*
X114840000Y-67710000D02*
X118840000Y-67710000D01*
X118300000Y-63750000D02*
X118830000Y-63500000D01*
X118300000Y-65790000D02*
X118300000Y-63750000D01*
X118830000Y-63500000D02*
X119830000Y-63500000D01*
X118830000Y-66040000D02*
X118300000Y-65790000D01*
X118830000Y-66040000D02*
X118830000Y-63500000D01*
X119830000Y-62120000D02*
X113810000Y-62120000D01*
X119830000Y-63750000D02*
X118830000Y-63750000D01*
X119830000Y-65790000D02*
X118830000Y-65790000D01*
X119830000Y-66040000D02*
X118830000Y-66040000D01*
X119830000Y-67420000D02*
X119830000Y-62120000D01*
%TO.C,Q1*%
X131390000Y-57680000D02*
X131390000Y-54080000D01*
X126940000Y-55880000D02*
G75*
G02*
X128441193Y-53523600I2600000J0D01*
G01*
X128441193Y-58236400D02*
G75*
G02*
X126940000Y-55880000I1098807J2356400D01*
G01*
X130662795Y-53555816D02*
G75*
G02*
X131390000Y-54080000I-1122795J-2324184D01*
G01*
X131390000Y-57680000D02*
G75*
G02*
X130662795Y-58204184I-1850000J1800000D01*
G01*
%TO.C,SW1*%
X127870000Y-72620000D02*
X127870000Y-74120000D01*
X129120000Y-76620000D02*
X133620000Y-76620000D01*
X133620000Y-70120000D02*
X129120000Y-70120000D01*
X134870000Y-74120000D02*
X134870000Y-72620000D01*
%TO.C,D6*%
X156080000Y-68580000D02*
X157300000Y-68580000D01*
X157300000Y-67110000D02*
X157300000Y-70050000D01*
X157300000Y-70050000D02*
X162740000Y-70050000D01*
X161720000Y-70050000D02*
X161720000Y-67110000D01*
X161840000Y-70050000D02*
X161840000Y-67110000D01*
X161960000Y-70050000D02*
X161960000Y-67110000D01*
X162740000Y-67110000D02*
X157300000Y-67110000D01*
X162740000Y-70050000D02*
X162740000Y-67110000D01*
X163960000Y-68580000D02*
X162740000Y-68580000D01*
%TO.C,R4*%
X140740000Y-53340000D02*
X141510000Y-53340000D01*
X141510000Y-51970000D02*
X141510000Y-54710000D01*
X141510000Y-54710000D02*
X148050000Y-54710000D01*
X148050000Y-51970000D02*
X141510000Y-51970000D01*
X148050000Y-54710000D02*
X148050000Y-51970000D01*
X148820000Y-53340000D02*
X148050000Y-53340000D01*
%TO.C,C1*%
X161045225Y-54405000D02*
X161545225Y-54405000D01*
X161295225Y-54155000D02*
X161295225Y-54655000D01*
X163850000Y-53300000D02*
X163850000Y-58460000D01*
X163890000Y-53300000D02*
X163890000Y-58460000D01*
X163930000Y-53301000D02*
X163930000Y-58459000D01*
X163970000Y-53302000D02*
X163970000Y-58458000D01*
X164010000Y-53304000D02*
X164010000Y-58456000D01*
X164050000Y-53307000D02*
X164050000Y-58453000D01*
X164090000Y-53311000D02*
X164090000Y-54840000D01*
X164090000Y-56920000D02*
X164090000Y-58449000D01*
X164130000Y-53315000D02*
X164130000Y-54840000D01*
X164130000Y-56920000D02*
X164130000Y-58445000D01*
X164170000Y-53319000D02*
X164170000Y-54840000D01*
X164170000Y-56920000D02*
X164170000Y-58441000D01*
X164210000Y-53324000D02*
X164210000Y-54840000D01*
X164210000Y-56920000D02*
X164210000Y-58436000D01*
X164250000Y-53330000D02*
X164250000Y-54840000D01*
X164250000Y-56920000D02*
X164250000Y-58430000D01*
X164290000Y-53337000D02*
X164290000Y-54840000D01*
X164290000Y-56920000D02*
X164290000Y-58423000D01*
X164330000Y-53344000D02*
X164330000Y-54840000D01*
X164330000Y-56920000D02*
X164330000Y-58416000D01*
X164370000Y-53352000D02*
X164370000Y-54840000D01*
X164370000Y-56920000D02*
X164370000Y-58408000D01*
X164410000Y-53360000D02*
X164410000Y-54840000D01*
X164410000Y-56920000D02*
X164410000Y-58400000D01*
X164450000Y-53369000D02*
X164450000Y-54840000D01*
X164450000Y-56920000D02*
X164450000Y-58391000D01*
X164490000Y-53379000D02*
X164490000Y-54840000D01*
X164490000Y-56920000D02*
X164490000Y-58381000D01*
X164530000Y-53389000D02*
X164530000Y-54840000D01*
X164530000Y-56920000D02*
X164530000Y-58371000D01*
X164571000Y-53400000D02*
X164571000Y-54840000D01*
X164571000Y-56920000D02*
X164571000Y-58360000D01*
X164611000Y-53412000D02*
X164611000Y-54840000D01*
X164611000Y-56920000D02*
X164611000Y-58348000D01*
X164651000Y-53425000D02*
X164651000Y-54840000D01*
X164651000Y-56920000D02*
X164651000Y-58335000D01*
X164691000Y-53438000D02*
X164691000Y-54840000D01*
X164691000Y-56920000D02*
X164691000Y-58322000D01*
X164731000Y-53452000D02*
X164731000Y-54840000D01*
X164731000Y-56920000D02*
X164731000Y-58308000D01*
X164771000Y-53466000D02*
X164771000Y-54840000D01*
X164771000Y-56920000D02*
X164771000Y-58294000D01*
X164811000Y-53482000D02*
X164811000Y-54840000D01*
X164811000Y-56920000D02*
X164811000Y-58278000D01*
X164851000Y-53498000D02*
X164851000Y-54840000D01*
X164851000Y-56920000D02*
X164851000Y-58262000D01*
X164891000Y-53515000D02*
X164891000Y-54840000D01*
X164891000Y-56920000D02*
X164891000Y-58245000D01*
X164931000Y-53532000D02*
X164931000Y-54840000D01*
X164931000Y-56920000D02*
X164931000Y-58228000D01*
X164971000Y-53551000D02*
X164971000Y-54840000D01*
X164971000Y-56920000D02*
X164971000Y-58209000D01*
X165011000Y-53570000D02*
X165011000Y-54840000D01*
X165011000Y-56920000D02*
X165011000Y-58190000D01*
X165051000Y-53590000D02*
X165051000Y-54840000D01*
X165051000Y-56920000D02*
X165051000Y-58170000D01*
X165091000Y-53612000D02*
X165091000Y-54840000D01*
X165091000Y-56920000D02*
X165091000Y-58148000D01*
X165131000Y-53633000D02*
X165131000Y-54840000D01*
X165131000Y-56920000D02*
X165131000Y-58127000D01*
X165171000Y-53656000D02*
X165171000Y-54840000D01*
X165171000Y-56920000D02*
X165171000Y-58104000D01*
X165211000Y-53680000D02*
X165211000Y-54840000D01*
X165211000Y-56920000D02*
X165211000Y-58080000D01*
X165251000Y-53705000D02*
X165251000Y-54840000D01*
X165251000Y-56920000D02*
X165251000Y-58055000D01*
X165291000Y-53731000D02*
X165291000Y-54840000D01*
X165291000Y-56920000D02*
X165291000Y-58029000D01*
X165331000Y-53758000D02*
X165331000Y-54840000D01*
X165331000Y-56920000D02*
X165331000Y-58002000D01*
X165371000Y-53785000D02*
X165371000Y-54840000D01*
X165371000Y-56920000D02*
X165371000Y-57975000D01*
X165411000Y-53815000D02*
X165411000Y-54840000D01*
X165411000Y-56920000D02*
X165411000Y-57945000D01*
X165451000Y-53845000D02*
X165451000Y-54840000D01*
X165451000Y-56920000D02*
X165451000Y-57915000D01*
X165491000Y-53876000D02*
X165491000Y-54840000D01*
X165491000Y-56920000D02*
X165491000Y-57884000D01*
X165531000Y-53909000D02*
X165531000Y-54840000D01*
X165531000Y-56920000D02*
X165531000Y-57851000D01*
X165571000Y-53943000D02*
X165571000Y-54840000D01*
X165571000Y-56920000D02*
X165571000Y-57817000D01*
X165611000Y-53979000D02*
X165611000Y-54840000D01*
X165611000Y-56920000D02*
X165611000Y-57781000D01*
X165651000Y-54016000D02*
X165651000Y-54840000D01*
X165651000Y-56920000D02*
X165651000Y-57744000D01*
X165691000Y-54054000D02*
X165691000Y-54840000D01*
X165691000Y-56920000D02*
X165691000Y-57706000D01*
X165731000Y-54095000D02*
X165731000Y-54840000D01*
X165731000Y-56920000D02*
X165731000Y-57665000D01*
X165771000Y-54137000D02*
X165771000Y-54840000D01*
X165771000Y-56920000D02*
X165771000Y-57623000D01*
X165811000Y-54181000D02*
X165811000Y-54840000D01*
X165811000Y-56920000D02*
X165811000Y-57579000D01*
X165851000Y-54227000D02*
X165851000Y-54840000D01*
X165851000Y-56920000D02*
X165851000Y-57533000D01*
X165891000Y-54275000D02*
X165891000Y-54840000D01*
X165891000Y-56920000D02*
X165891000Y-57485000D01*
X165931000Y-54326000D02*
X165931000Y-54840000D01*
X165931000Y-56920000D02*
X165931000Y-57434000D01*
X165971000Y-54380000D02*
X165971000Y-54840000D01*
X165971000Y-56920000D02*
X165971000Y-57380000D01*
X166011000Y-54437000D02*
X166011000Y-54840000D01*
X166011000Y-56920000D02*
X166011000Y-57323000D01*
X166051000Y-54497000D02*
X166051000Y-54840000D01*
X166051000Y-56920000D02*
X166051000Y-57263000D01*
X166091000Y-54561000D02*
X166091000Y-54840000D01*
X166091000Y-56920000D02*
X166091000Y-57199000D01*
X166131000Y-54629000D02*
X166131000Y-54840000D01*
X166131000Y-56920000D02*
X166131000Y-57131000D01*
X166171000Y-54702000D02*
X166171000Y-57058000D01*
X166211000Y-54782000D02*
X166211000Y-56978000D01*
X166251000Y-54869000D02*
X166251000Y-56891000D01*
X166291000Y-54965000D02*
X166291000Y-56795000D01*
X166331000Y-55075000D02*
X166331000Y-56685000D01*
X166371000Y-55203000D02*
X166371000Y-56557000D01*
X166411000Y-55362000D02*
X166411000Y-56398000D01*
X166451000Y-55596000D02*
X166451000Y-56164000D01*
X166470000Y-55880000D02*
G75*
G02*
X161230000Y-55880000I-2620000J0D01*
G01*
X161230000Y-55880000D02*
G75*
G02*
X166470000Y-55880000I2620000J0D01*
G01*
%TO.C,C3*%
X140740000Y-66040000D02*
X141510000Y-66040000D01*
X141510000Y-64670000D02*
X141510000Y-67410000D01*
X141510000Y-67410000D02*
X148050000Y-67410000D01*
X148050000Y-64670000D02*
X141510000Y-64670000D01*
X148050000Y-67410000D02*
X148050000Y-64670000D01*
X148820000Y-66040000D02*
X148050000Y-66040000D01*
%TD*%
M02*
