M48
; DRILL file {KiCad 8.0.7} date 2025-01-04T15:00:43+0100
; FORMAT={-:-/ absolute / inch / decimal}
; #@! TF.CreationDate,2025-01-04T15:00:43+01:00
; #@! TF.GenerationSoftware,Kicad,Pcbnew,8.0.7
; #@! TF.FileFunction,Plated,1,2,PTH
FMAT,2
INCH
; #@! TA.AperFunction,Plated,PTH,ComponentDrill
T1C0.0315
; #@! TA.AperFunction,Plated,PTH,ComponentDrill
T2C0.0354
; #@! TA.AperFunction,Plated,PTH,ComponentDrill
T3C0.0394
; #@! TA.AperFunction,Plated,PTH,ComponentDrill
T4C0.0433
; #@! TA.AperFunction,Plated,PTH,ComponentDrill
T5C0.0469
; #@! TA.AperFunction,Plated,PTH,ComponentDrill
T6C0.0472
%
G90
G05
T1
X4.9Y-2.1
X4.9Y-2.5
X4.9Y-2.6
X4.9Y-3.0
X5.1Y-2.1
X5.1Y-2.3
X5.1Y-2.5
X5.1Y-2.6
X5.2Y-2.1
X5.2Y-2.3
X5.3Y-2.1
X5.3Y-2.3
X5.4Y-2.5
X5.4Y-2.6
X5.6Y-2.1
X5.6Y-2.2
X5.6Y-2.3
X5.6Y-2.4
X5.6Y-2.5
X5.6Y-2.6
X5.9Y-2.2
X5.9Y-2.3
X5.9Y-2.4
X5.9Y-2.5
X6.0Y-2.1
X6.0Y-2.6
X6.1Y-2.1
X6.1Y-2.1984
X6.2Y-2.2
X6.2Y-2.7
X6.2Y-2.9
X6.3Y-2.2
X6.3Y-2.9
X6.4Y-2.2
X6.4Y-2.9
X6.5016Y-2.2
X6.6Y-2.2
X6.6Y-2.7
T2
X4.5Y-2.1
X4.5Y-2.3
X4.5Y-2.8
X4.5Y-3.0
X4.8Y-2.1
X4.8Y-2.3
X4.8Y-2.8
X4.8Y-3.0
X6.2Y-2.6
X6.6Y-2.6
T3
X4.6Y-2.5
X4.6Y-2.5984
X5.7Y-2.8
X5.7Y-2.9
X5.8Y-2.8
X5.8Y-2.9
X5.9Y-2.8
X5.9Y-2.9
T4
X5.0941Y-2.8
X5.0941Y-2.9772
X5.35Y-2.8
X5.35Y-2.9772
T5
X6.8Y-2.2
X6.8Y-2.3
X6.8Y-2.8
X6.8Y-2.9
T6
X6.2Y-2.4
X6.6Y-2.4
X6.85Y-2.45
X6.85Y-2.65
M30
